<?xml version="1.0" encoding="UTF-8"?>
<svg id="b" data-name="Layer 2" xmlns="http://www.w3.org/2000/svg" width="3.334" height="3.571" xmlns:xlink="http://www.w3.org/1999/xlink" viewBox="0 0 3.334 3.571">
  <defs>
    <clipPath id="e">
      <rect x="0" y="0" width="3.334" height="3.571" fill="none" stroke-width="0"/>
    </clipPath>
    <clipPath id="f">
      <rect x="0" y="0" width="3.334" height="3.571" fill="none" stroke-width="0"/>
    </clipPath>
  </defs>
  <g id="c" data-name="Layer 1">
    <g id="d" data-name="Artwork 222">
      <g clip-path="url(#e)">
        <g clip-path="url(#f)">
          <path d="M.711.495h.002c.03-.005.06-.009.091-.013h.004S.808.482.808.482c.027-.004.054-.008.074-.011l.03-.004.028-.004c.031-.004.062-.009.094-.013.003,0,.005,0,.007-.002.003,0,.004-.002.005-.003h0s0-.001,0-.002c0-.002,0-.005-.002-.01h0s0,0,0,0h0c-.012-.035-.03-.065-.055-.091h0s-.003-.003-.003-.003c-.045-.046-.107-.071-.175-.071-.005,0-.01,0-.015,0-.068.003-.129.03-.172.078-.005.005-.01.012-.015.018-.004.005-.007.01-.012.017h0s0,.001,0,.001c-.011.018-.019.037-.025.057,0,.002-.001.003-.002.005-.001.005-.003.009-.004.014-.007.027-.009.046-.005.054h0v.002s0,0,0,0h0s0,0,0,0c0,0,.001,0,.002,0,0,0,.002,0,.003,0h0s0,0,0,0c.016-.002.031-.004.047-.006.032-.004.063-.009.095-.013" fill="red" stroke-width="0"/>
          <path d="M1.131.436s0,0,.001,0c.002,0,.004,0,.006,0,.018-.003.036-.005.053-.008l.014-.002h0c.018-.003.036-.005.053-.008l.03-.004c.025-.004.049-.007.074-.01h0s.004-.001.004-.001c.027-.004.054-.008.08-.011l.013-.002c.032-.005.064-.009.095-.014.016-.002.031-.004.047-.007h.001s.003,0,.004-.001h0s0,0,0,0c0,0,0,0,0,0h0s0-.002,0-.002c.001-.008-.006-.026-.02-.05-.003-.005-.007-.011-.01-.017-.016-.025-.035-.046-.057-.062-.007-.005-.013-.01-.02-.014-.037-.023-.08-.034-.125-.034-.021,0-.041.002-.062.007-.07.016-.13.06-.163.12,0,.001-.001.002-.002.004-.017.031-.026.066-.028.103v.003s0,.006,0,.007c0,.002.002.003.007.004" fill="red" stroke-width="0"/>
          <path d="M.6.652s.001.002.002.003c.003.005.007.01.01.014h.001s0,.003.001.003h.001s.002.003.002.003c.004.004.007.009.012.013.002.002.004.004.006.006h0c.039.039.089.062.143.069h0s.006,0,.01,0c.002,0,.004,0,.006,0,.001,0,.002,0,.004,0,.003,0,.006,0,.009,0,.034,0,.067-.007.098-.02h0c.03-.013.056-.029.077-.05.001-.001.003-.002.004-.004,0,0,0,0,.001-.001h0c.02-.021.036-.046.048-.074.001-.003.002-.005.003-.008v-.003c.004-.008.006-.017.009-.024.001-.005.002-.009.003-.015,0-.003.001-.006.002-.01,0-.002,0-.003,0-.005,0-.002,0-.004.001-.007.002-.007.003-.015.002-.021,0-.006-.003-.007-.005-.008,0,0-.002,0-.003,0-.002,0-.004,0-.006,0-.005,0-.011.002-.018.003h-.004s-.007.002-.011.002c-.006,0-.011.001-.017.002h-.003c-.007.001-.014.002-.021.003-.01.001-.016.002-.021.004-.005.002-.008.004-.01.01-.001.004-.002.01-.004.019v.002h0c-.005.027-.019.053-.039.071-.008.007-.016.013-.025.018-.006.003-.012.006-.019.008-.003.001-.007.002-.01.003-.003,0-.007.002-.01.002-.003,0-.007,0-.011.001,0,0,0,0,0,0h0s-.005,0-.007,0c-.004,0-.007,0-.011,0-.008,0-.017-.003-.027-.006,0,0-.002,0-.003,0-.002,0-.004-.001-.006-.002-.006-.002-.011-.005-.016-.008-.006-.004-.012-.008-.017-.012-.013-.011-.024-.023-.031-.038-.002-.005-.004-.008-.006-.012-.001-.003-.002-.007-.003-.01,0,0,0-.002,0-.003,0,0,0,0,0,0,0,0,0,0,0-.001,0,0,0,0,0,0,0,0-.001-.001-.002-.002,0,0,0,0-.001,0h0s-.001,0-.002,0h0s-.003,0-.004,0h-.007c-.012.003-.024.004-.034.006-.011.002-.025.004-.038.005-.003,0-.007,0-.01.001-.003,0-.006,0-.009,0h-.003s-.004.001-.005.002h0s0,0,0,0c0,0-.004.003,0,.011h0c.002.008.006.018.013.031.004.008.008.015.014.024h0Z" fill="red" stroke-width="0"/>
          <path d="M1.601.439h0s-.007.001-.01.002c-.013.002-.025.004-.038.005-.011.001-.023.003-.034.005h-.007s-.003.001-.004.002h0s0,0,0,0c0,0,0,0-.001,0l-.002-.002v.003s0,0,0,0h0s0,.001-.001.002h0s0,.001,0,.002h0s0,.003,0,.004c0,.004,0,.007,0,.011,0,.004,0,.008-.002.013,0,.004-.002.008-.003.012-.003.008-.006.015-.01.023-.002.004-.004.007-.007.011-.004.006-.008.011-.013.016-.013.013-.028.024-.045.03-.006.002-.012.004-.017.005,0,0,0,0-.001,0-.004,0-.007.001-.011.002-.004,0-.007,0-.011,0-.002,0-.003,0-.005,0-.002,0-.004,0-.006,0-.007,0-.014-.001-.021-.003-.01-.002-.02-.006-.029-.01-.025-.013-.046-.033-.058-.058h0c-.004-.009-.006-.014-.009-.018-.004-.005-.007-.007-.012-.007h0s-.012.001-.02.002c-.007.001-.015.002-.022.004h-.003c-.006.001-.011.002-.017.003-.004,0-.007.001-.011.002,0,0-.003,0-.004,0-.007,0-.012.002-.017.002-.005,0-.008,0-.01.002-.002.001-.004.003-.003.009,0,.006.004.013.008.019,0,.002.002.004.003.006,0,.001.002.003.002.004h0s.001.003.002.004c0,0,0,.001.001.002,0,0,0,.001.001.002.003.005.005.009.007.013.005.008.009.015.014.021,0,0,.001.002.002.002.002.002.004.005.006.007.019.023.041.043.066.057h.001s0,.001.001.001c.002,0,.003.002.005.003.026.014.056.023.088.026h0c.011.001.021.002.032.002.026,0,.052-.004.077-.012.001,0,.003-.001.003-.001.002,0,.004-.001.006-.002.003-.001.006-.002.009-.004h0c.05-.021.091-.058.118-.106.001-.003.003-.005.004-.008.003-.006.006-.012.009-.02,0,0,0-.001,0-.002,0,0,0-.001,0-.002.002-.006.004-.011.006-.017,0,0,0-.001,0-.001,0,0,0,0,0-.001,0,0,0-.001,0-.002h0c.003-.011.005-.019.007-.027.003-.014.005-.025.004-.033h0c0-.009-.002-.01-.004-.011h0s0,0,0,0c0,0-.002,0-.003,0,0,0-.001,0-.002,0h-.003s-.005.001-.008.002" fill="red" stroke-width="0"/>
          <path d="M2.991,2.471c-.056-.12-.113-.244-.123-.367-.01-.105.014-.225.037-.342.036-.184.07-.357-.018-.468,0,0,0,0-.001-.001-.06-.073-.17-.111-.335-.115-.013,0-.024-.001-.034-.001-.002,0-.005,0-.007,0-.058,0-.134.008-.213.074l-.142.136.007-.015c.022-.045.023-.084.003-.117-.03-.048-.099-.07-.154-.07-.023,0-.044.004-.061.01-.018.007-.069.018-.119.018-.04,0-.094-.007-.127-.039l-.11.09.006-.012s.044-.09.061-.204c.01-.067.01-.129-.001-.185-.014-.069-.044-.129-.089-.177-.057.043-.128.067-.2.067-.102,0-.195-.046-.256-.128h0s0,0,0,0c-.024.064-.067.117-.123.153-.053.035-.116.053-.181.053-.052,0-.103-.012-.147-.035-.046.082-.067.175-.061.276.007.113.047.233.119.358.086.147.071.287.07.301l.093.162s-.108-.119-.315-.119h-.006c-.114.001-.201.04-.261.116-.052.066-.08.157-.079.264,0,.132.046.274.12.381.082.118.192.183.308.183.101,0,.204-.047.307-.139l.003-.002s-.041.11-.043.115c.012.002.051.009.106.009.08,0,.154-.013.221-.04.093-.037.168-.098.224-.181l.009-.013-.004.015s-.018.08-.021.092c.028.025.131.061.227.061.052,0,.121-.011.156-.064l-.041.111c.003.01.033.085.125.085.036,0,.079-.012.125-.036l.02-.01-.141.126c-.006.145.034.263.118.351.094.098.24.152.411.152.105,0,.212-.021.31-.06.101-.04.187-.098.25-.168.082-.095.113-.2.096-.322-.015-.109-.067-.221-.118-.33M.73,2.375c-.006.021-.015.04-.034.052-.034.02-.076.011-.111-.001-.05-.017-.053-.075-.058-.119-.002-.017-.005-.034-.009-.05-.005-.02-.001-.039.005-.057.017-.053.08-.079.131-.056.065.028.086.102.082.167.001.022,0,.044-.007.065M1.415,1.279c-.06.019-.121-.023-.126-.085-.003-.022-.004-.044-.008-.065-.003-.014-.005-.029-.006-.044-.001-.015,0-.035-.016-.044-.025-.012-.049-.013-.074.002-.016.01-.017.024-.014.04.021.114.034.229.049.344.001.007-.002.026.009.026.01,0,.02.001.029-.002.001,0,.002,0,.003,0,.019.001.038-.003.057-.003.007,0,.013,0,.02-.002.01-.002.02.001.03.003.02.003.038.011.053.024.059.05.039.151-.037.171-.028.006-.058.003-.086.005-.017.002-.034.001-.051.002-.01,0-.01,0-.01.009,0,.016,0,.032,0,.048.005.084,0,.169.002.253.001.063-.002.125-.005.188-.002.031-.003.062-.005.093-.001.016,0,.033-.004.049-.006.02-.007.041-.018.06-.039.073-.141.056-.168-.018-.01-.027-.01-.054-.007-.082.003-.035.005-.069.008-.104.002-.021,0-.043.004-.065.004-.088.003-.175.002-.263,0-.019,0-.039-.002-.058-.004-.066-.006-.132-.015-.198-.002-.011-.004-.022-.003-.034,0-.007-.002-.014-.003-.021-.003-.021-.005-.042-.008-.063-.01-.08-.024-.159-.04-.238-.014-.071-.043-.144-.017-.216.036-.107.157-.163.263-.161.094-.001.181.039.23.118.039.059.03.132.037.199.007.057-.019.118-.077.133M2.045,2.448c-.014.02-.034.03-.058.033-.044.005-.077-.013-.104-.045-.013-.016-.023-.034-.03-.053-.003-.01-.006-.01-.014-.008-.015.003-.03.002-.045.002-.105.002-.201-.077-.221-.179-.002-.011-.003-.022-.003-.033,0-.109,0-.219,0-.328h0c.001-.119,0-.243.002-.358,0-.02,0-.04.002-.06.012-.115.188-.083.187-.005,0,.038.001.051.001.091,0,.182,0,.365,0,.547-.001.027-.001.055-.002.082,0,.007.002.014.003.021,0,.003.002.006.005.008.021.016.046.015.066.002.007-.005.011-.011.011-.02,0-.064,0-.128,0-.192,0-.027-.003-.053-.001-.08.003-.062,0-.124.002-.186.002-.038,0-.071.002-.115,0-.029.002-.058.002-.086.002-.175.202-.177.194.008,0,.016,0,.033,0,.049-.002.023,0,.046-.002.068-.002.018,0,.036-.002.053-.003.034,0,.068-.002.102-.004.085-.002.171-.001.256,0,.038,0,.076.002.114.002.027,0,.053.002.08.001.017,0,.033.002.05.002.02.003.041.006.061.003.021.008.042.013.063.005.021,0,.041-.013.058M2.809,2.701c-.008.069-.06.123-.118.155-.104.059-.256.059-.35-.019-.051-.04-.071-.093-.08-.156-.005-.024-.01-.049-.015-.073-.014-.059.025-.121.086-.131.027-.005.05.001.072.016.017.012.029.028.037.047.017.041.025.084.037.126.006.025.014.031.039.034.016.003.033,0,.047-.008.017-.008.025-.017.019-.037-.004-.013-.008-.026-.012-.039-.032-.098-.055-.199-.075-.3-.034.006-.066.013-.1.009-.014-.002-.028-.003-.041-.007-.077-.021-.147-.083-.158-.165-.003-.018-.004-.035-.004-.053,0-.026-.002-.052-.003-.077-.003-.059,0-.118-.002-.178,0-.039.002-.079.003-.118,0-.062.007-.125.049-.173.04-.05.103-.08.168-.08.027,0,.055,0,.081.007.006.002.008,0,.01-.005.015-.048.047-.092.098-.101.074-.017.153.051.127.131-.02.056-.036.112-.049.17-.011.051-.021.101-.025.153-.01.165.014.332.056.492.026.097.055.194.093.287.012.03.016.061.012.093" fill="#ffc60a" stroke-width="0"/>
          <path d="M2.476,2.027c-.003-.024-.002-.048-.003-.071-.004-.089.002-.179.009-.268,0-.013-.005-.023-.015-.03-.021-.015-.045-.018-.069-.01-.022.008-.03.02-.032.041-.002.045-.006.091-.006.136-.003.081,0,.16.004.241,0,.014.002.027.003.041,0,.007.001.013.004.02.003.009.009.016.017.02.011.005.023.009.034.008.025.002.06-.012.061-.04,0-.014-.003-.028-.002-.042,0-.015-.001-.03-.003-.045" fill="#ffc60a" stroke-width="0"/>
          <path d="M3.191,2.378c-.05-.107-.097-.209-.104-.295-.007-.073.014-.177.034-.278.018-.093.039-.198.041-.298.003-.138-.031-.253-.1-.343v-.336c0-.068-.056-.124-.124-.124h-.3c-.068,0-.124.056-.124.124v.128h-.021c-.055.002-.105.009-.151.023-.021.006-.042.014-.062.023l-.044.02-.051-.023c-.06-.025-.126-.038-.191-.035l-.1.004-.012-.1c-.009-.071-.029-.138-.059-.198l-.066-.132.146-.024c.04-.007.069-.023.09-.05.033-.044.026-.09.022-.115l-.002-.017s-.001-.009-.002-.013c-.004-.023-.013-.042-.026-.058-.024-.031-.062-.049-.102-.049-.008,0-.015,0-.019.001l-.105.015-.039-.052c-.023-.031-.049-.058-.078-.082C1.565.029,1.467-.002,1.365,0c-.099.001-.194.037-.27.099l-.051.042-.061-.026c-.09-.039-.191-.046-.285-.021-.138.035-.245.132-.296.268l-.023.061-.104.014c-.048.007-.087.036-.104.08-.008.019-.011.041-.009.061,0,.006.001.01.002.015l.002.016c.013.103.077.127.129.13l.13.007-.029.127c-.016.068-.021.139-.017.213.007.111.036.226.089.341l.053.116-.123.034c-.109.03-.203.091-.271.177C.043,1.86,0,1.999,0,2.157c0,.177.059.361.16.506.125.179.299.278.489.278.058,0,.116-.009.173-.027l.026-.008.027.005c.025.005.077.013.147.013.094,0,.236-.015.374-.088l.039-.021.042.013c.04.012.082.02.124.025l.039.005.027.028s.005.005.007.007l.028.028.004.039c.016.156.075.288.176.394.136.142.339.22.57.22.281,0,.559-.116.725-.302l.002-.003c.065-.075.11-.158.133-.246.022-.08.026-.162.014-.25-.02-.141-.082-.274-.136-.392M3.219,2.871c0,.005,0,.01,0,.015,0,.005,0,.01,0,.015,0,.004,0,.008-.001.011,0,.002,0,.005,0,.007,0,0,0,.002,0,.002,0,.006-.002.013-.003.019,0,.002,0,.005-.001.007-.001.008-.003.016-.005.025-.001.006-.003.012-.004.018-.014.053-.039.104-.072.153,0,0,0,0,0,0-.007.01-.014.02-.022.029-.005.006-.01.012-.015.018h0s0,.001,0,.001c-.009.01-.018.02-.027.029,0,0,0,0,0,0-.147.145-.377.234-.61.234-.2,0-.373-.066-.487-.185-.089-.093-.14-.217-.147-.36,0-.013-.001-.026-.001-.039,0-.007,0-.014,0-.021-.03-.013-.056-.033-.077-.058-.014-.016-.026-.034-.036-.054-.008,0-.017,0-.026,0-.086,0-.189-.024-.256-.06-.137.104-.293.126-.401.126-.074,0-.126-.011-.131-.012l-.047-.01v-.003c-.065.028-.13.043-.194.043-.137,0-.265-.066-.364-.188-.011-.013-.021-.027-.031-.041-.005-.007-.009-.014-.014-.021-.003-.005-.006-.01-.009-.015,0-.001-.002-.003-.003-.004,0,0,0,0,0-.001-.004-.006-.007-.013-.011-.019,0-.001-.001-.002-.002-.004-.004-.007-.007-.014-.011-.021,0,0,0-.002-.001-.002-.004-.007-.007-.015-.011-.022,0,0,0,0,0,0-.022-.046-.039-.095-.052-.144,0-.002-.001-.004-.002-.006-.001-.006-.003-.012-.004-.018,0-.003-.001-.006-.002-.009-.001-.005-.002-.011-.003-.016,0-.004-.001-.008-.002-.012,0-.005-.002-.01-.002-.015,0-.005-.001-.009-.002-.014,0-.004-.001-.009-.002-.013,0-.005-.001-.01-.002-.015,0-.004,0-.008-.001-.012,0-.006,0-.012-.001-.018,0-.003,0-.006,0-.009,0-.009,0-.018,0-.028,0-.131.035-.245.102-.33.003-.003.005-.006.008-.01.003-.003.006-.006.009-.01,0,0,0,0,0,0,0,0,0,0,0,0,.032-.036.078-.073.141-.1,0,0,.002,0,.003-.001.006-.002.012-.005.018-.007.002,0,.004-.001.006-.002.006-.002.011-.004.017-.005.003,0,.006-.002.009-.002.005-.001.011-.003.016-.004.004,0,.007-.002.011-.002.005-.001.01-.002.016-.003.004,0,.009-.001.014-.002.005,0,.01-.002.015-.002.006,0,.011-.001.017-.002.004,0,.009,0,.013-.001.01,0,.021-.001.032-.001h.007c.011,0,.022,0,.033,0,.001,0,.002,0,.003,0,.01,0,.02.001.03.002,0,0,0,0,0,0,.004,0,.008,0,.013.001,0,0,.002,0,.003,0,.004,0,.008.001.012.002.007.001.014.002.021.004,0,0,.002,0,.003,0-.001-.041-.011-.117-.057-.196-.041-.07-.072-.138-.094-.206-.004-.012-.007-.023-.011-.035,0,0,0-.001,0-.002-.003-.009-.005-.019-.007-.028,0-.001,0-.002,0-.003,0,0,0-.002,0-.003-.001-.005-.002-.009-.003-.014,0-.003-.001-.006-.002-.008-.001-.005-.002-.01-.003-.015,0,0,0-.001,0-.002,0-.001,0-.003,0-.004-.005-.029-.009-.058-.01-.086,0-.007,0-.015,0-.022,0-.002,0-.003,0-.005,0-.004,0-.008,0-.011H.493c0-.012,0-.023,0-.035.003-.058.013-.114.032-.167.002-.007.005-.013.008-.02,0,0,0,0,0,0,.002-.004.003-.008.005-.012.001-.003.003-.007.004-.01.002-.004.004-.008.006-.012,0,0,0-.001,0-.002.001-.002.002-.005.003-.007.002-.004.004-.008.006-.013.003-.006.006-.011.009-.017,0-.001.002-.003.002-.004.001-.002.002-.003.003-.005,0,0,0,0,0-.001,0,0,0,0,0,0-.01-.01-.018-.021-.027-.033-.002-.002-.003-.005-.005-.008-.002-.002-.003-.004-.004-.007,0,0,0-.002-.001-.002-.003-.004-.005-.008-.007-.012,0,0,0,0,0-.001,0,0,0,0,0,0-.003-.006-.006-.011-.009-.017h0s0-.001,0-.001c-.006-.012-.01-.024-.014-.036,0-.002-.002-.005-.002-.007,0-.002-.002-.005-.002-.007-.002-.004-.007-.005-.013-.005-.006,0-.012.001-.018.003-.006.001-.011.002-.016.003-.015.002-.029.004-.044.007-.016.002-.032.005-.048.007-.019.002-.033.004-.043.006-.009.002-.015.003-.02.003-.008,0-.012-.003-.014-.011,0-.001,0-.003-.001-.005,0,0,0-.002,0-.002,0,0,0,0,0,0,0,0,0-.001,0-.002H.282s0-.003,0-.004c0-.001,0-.003,0-.005,0-.002,0-.004,0-.007,0,0,0-.002,0-.003,0,0,0,0,0-.001,0-.004-.001-.008-.002-.012,0,0,0,0,0,0,0,0,0-.002,0-.002,0,0,0,0,0,0,0,0,0,0,0-.001,0,0,0-.001,0-.002H.277s0-.002,0-.002c0-.001,0-.002,0-.003,0-.001,0-.002.002-.003,0,0,.002-.002.003-.003,0,0,0,0,0,0,0,0,0,0,0,0,.002-.001.004-.002.007-.003,0,0,0,0,0,0,0,0,0,0,.001,0h.001s.028-.004.028-.004c.021-.003.042-.006.063-.009.015-.002.03-.004.046-.006.009-.001.017-.002.026-.004.007,0,.013-.002.02-.003.002,0,.004-.001.007-.002,0,0,.001,0,.002-.001,0,0,.001-.001.002-.002,0-.009.001-.018.002-.027,0-.002,0-.003,0-.005.001-.009.002-.017.004-.025,0-.001,0-.003,0-.004.002-.008.003-.015.005-.023,0-.001,0-.002,0-.003.002-.008.004-.015.007-.022,0-.002.001-.004.002-.006.002-.007.005-.014.008-.02,0-.002.002-.004.003-.006.002-.005.004-.01.007-.014.001-.003.003-.005.004-.008.003-.005.006-.011.009-.016.002-.003.004-.006.006-.009.002-.003.004-.006.007-.01.003-.005.007-.009.01-.013.002-.003.004-.005.006-.008.003-.003.005-.006.008-.009.004-.004.007-.008.011-.012.001-.001.002-.002.003-.003,0,0,0,0,.001,0,.001-.001.002-.002.003-.003.004-.004.008-.007.012-.01.003-.002.006-.004.008-.006.003-.002.007-.005.01-.007.003-.002.006-.004.008-.006.004-.003.009-.005.013-.008.002-.001.004-.003.006-.004.006-.003.013-.006.019-.009.002-.001.005-.002.007-.003.005-.002.01-.004.015-.006.002,0,.005-.002.007-.003.007-.002.015-.005.023-.007.027-.008.056-.012.085-.012.007,0,.014,0,.022,0,.002,0,.004,0,.005,0,.007,0,.014.001.021.002,0,0,0,0,0,0,.007.001.014.002.021.004.002,0,.003,0,.005.001.014.003.028.008.041.013.001,0,.003.001.004.002.013.005.026.012.039.019.001,0,.002.001.003.002.006.004.012.007.018.011,0,0,0,0,0,0h0c.011.007.021.015.03.024,0,0,.002.002.003.003.005.005.01.01.015.015.012.011.019.02.024.026.001.002.003.003.004.005,0,0,0,0,.001.001,0,0,0,0,0,0,0,0,.001.001.002.002.001-.001.003-.005.005-.01.003-.007.008-.018.016-.032.003-.007.007-.013.011-.02,0-.001.002-.003.003-.004.003-.005.006-.01.01-.014.001-.002.002-.003.004-.005.003-.004.007-.009.01-.013.001-.002.003-.003.004-.005.004-.004.008-.008.011-.012.001-.001.003-.003.004-.004.004-.004.008-.008.013-.012.001-.001.003-.002.004-.003.005-.004.009-.008.014-.011.001,0,.002-.002.004-.003.005-.004.01-.007.016-.011.001,0,.002-.001.003-.002.006-.004.012-.007.018-.01,0,0,0,0,.001,0,0,0,0,0,0,0,.004-.002.007-.004.011-.005.002-.001.005-.002.007-.003.004-.002.007-.003.011-.005.003-.001.005-.002.008-.003.003-.001.007-.002.01-.004.003-.001.006-.002.009-.003.003,0,.006-.002.01-.003.003,0,.007-.002.01-.003.003,0,.006-.001.009-.002.004,0,.008-.002.012-.002.003,0,.005,0,.008-.001.005,0,.01-.001.014-.002.002,0,.004,0,.006,0,.007,0,.014,0,.021,0,.004,0,.008,0,.013,0,.071,0,.137.023.191.068.006.005.012.01.018.016.003.002.005.005.008.008.003.003.006.006.009.009.003.004.006.007.01.011.002.002.004.005.006.007.004.005.007.009.011.014.001.002.002.003.004.005.004.006.007.011.011.017,0,.001.001.002.002.003.004.006.007.013.011.019,0,0,0,.001,0,.002.004.007.007.014.01.022,0,0,0,0,0,0,.003.007.006.015.009.023,0,0,0,0,0,0,.001.004.003.007.004.011.002.002.005.003.009.003,0,0,.002,0,.003,0,.015-.002.031-.005.046-.007.015-.002.03-.005.045-.007.021-.003.042-.006.063-.009l.029-.004s.001,0,.002,0c0,0,.002,0,.002,0,.002,0,.004,0,.006,0,.002,0,.003.001.004.002,0,0,0,0,0,0,0,0,0,0,0,0,0,0,0,0,0,0,0,.001.001.002.002.004,0,0,0,0,0,0,0,0,0,0,0,0,0,0,0,.001,0,.002,0,0,0,0,0,.001,0,.001,0,.003,0,.005,0,.001,0,.003,0,.004,0,0,0,0,0,.001,0,.001,0,.002,0,.004,0,.005.001.01.002.014.001.007.002.013.002.017h0c0,.005,0,.008-.002.011-.004.005-.012.006-.028.008-.01.001-.024.003-.043.006-.016.002-.032.004-.048.006-.014.002-.029.004-.044.006-.005.001-.01.002-.016.002-.013,0-.026.002-.029.011,0,.005,0,.01,0,.015,0,.013,0,.026-.003.039v.002c-.002.009-.004.018-.006.026-.009.034-.023.066-.042.095.002.002.004.004.005.006.006.006.011.012.016.018.001.002.003.003.004.005.004.005.008.009.011.014.001.002.003.004.004.006.004.005.007.01.011.016,0,.001.002.003.003.004,0,0,0,0,0,0,.004.007.009.014.013.021.003.005.006.011.009.017.002.003.003.007.005.01,0,0,0,.001,0,.002,0,0,0,.001,0,.002.004.009.008.017.011.026,0,0,0,.002.001.003.008.019.014.039.019.06,0,.001,0,.002,0,.004.002.01.004.02.006.03,0,0,0,0,0,0,0,0,0,0,0,0,0,.004.001.007.002.011.001.007.002.013.003.02.001.012.002.024.003.036,0,.002,0,.005,0,.007,0,.009,0,.019,0,.028,0,.002,0,.004,0,.006,0,.004,0,.007,0,.011,0,.008,0,.017-.001.025,0,.004,0,.008,0,.011,0,.009-.002.018-.003.027,0,.003,0,.006-.001.009-.002.012-.003.025-.006.037l.003.003.011.011s.001,0,.003.002c0,0,0,0,.002,0,.002.001.005.002.01.003,0,0,0,0,0,0,.002,0,.003,0,.005.001,0,0,.002,0,.003,0,0,0,0,0,.001,0,.003,0,.005,0,.008.001h0c.007,0,.014.001.024.001.037,0,.072-.008.081-.011.004-.001.008-.003.011-.004,0,0,0,0,0,0,.008-.003.016-.005.024-.007.001,0,.003,0,.004,0,.013-.003.026-.005.04-.005.007,0,.013,0,.02,0,.045,0,.089.009.129.026.02.008.038.019.054.03h0c.013.01.025.021.036.033.006-.005.013-.01.02-.015.002-.001.004-.003.006-.004.005-.003.01-.007.015-.01.002-.001.004-.003.006-.004.005-.003.011-.006.016-.009.002,0,.003-.002.005-.003.015-.008.031-.016.047-.022.002,0,.004-.002.006-.002.009-.003.017-.006.026-.009.041-.012.084-.018.133-.018h.002s.003,0,.004,0h.001c.015,0,.029,0,.039.001.199.005.335.056.415.156.012.015.023.031.032.048h0c.008.015.016.032.022.048,0,0,0,0,0,0,.006.017.011.034.015.053,0,0,0,.001,0,.002.002.009.003.018.005.027,0,.001,0,.002,0,.003.001.009.002.017.003.027,0,0,0,.002,0,.002,0,.009.001.019.002.028,0,.002,0,.004,0,.006,0,.01,0,.02,0,.03-.002.09-.021.186-.039.279-.021.109-.044.222-.035.312h0c0,.005,0,.01.001.014,0,.005.001.01.002.015,0,.006.002.013.003.019.002.008.003.016.005.025,0,.003.001.006.002.009.002.006.003.012.005.018,0,.002.001.004.002.006.001.005.003.009.004.014,0,.002.002.005.002.007.001.004.003.008.004.012.001.003.002.006.003.01,0,.002.002.004.002.007.002.004.003.008.005.013.003.009.007.018.011.027.002.004.004.009.005.013.003.008.006.015.01.023.003.007.006.015.01.022.002.004.004.008.006.013.004.01.009.019.013.029,0,.002.002.004.003.006.005.01.01.021.015.032.037.079.074.16.1.244.003.01.006.019.008.029.008.029.014.058.018.088.002.011.003.022.004.032,0,.001,0,.002,0,.003.001.016.002.031.002.047,0,0,0,.002,0,.003" fill="#fff" stroke-width="0"/>
          <path d="M.6.652s.001.002.002.003c.003.005.007.01.01.014h.001s0,.003.001.003h.001s.002.003.002.003c.004.004.007.009.012.013.002.002.004.004.006.006h0s0,0,0,0c.039.038.089.062.143.068h0s.006,0,.01,0c.002,0,.004,0,.006,0,.001,0,.002,0,.004,0,.003,0,.006,0,.009,0,.034,0,.067-.007.098-.02h0c.03-.012.056-.029.077-.05.001-.001.003-.002.004-.004,0,0,0,0,.001-.001h0c.02-.021.036-.046.048-.074.001-.003.002-.005.003-.008v-.003c.004-.008.006-.017.008-.024.001-.005.002-.009.003-.015,0-.003.001-.006.002-.01,0-.002,0-.003,0-.005,0-.002,0-.004.001-.007.002-.007.003-.015.002-.021,0-.006-.003-.007-.005-.008,0,0-.002,0-.003,0-.002,0-.004,0-.006,0-.005,0-.011.002-.018.003h-.004s-.007.002-.011.002c-.006,0-.011.001-.017.002h-.003c-.007.001-.014.002-.021.003-.01.001-.016.002-.021.004-.006.002-.008.004-.01.01-.001.004-.002.01-.004.019v.002h0c-.005.027-.019.053-.039.071-.008.007-.016.013-.025.018-.006.003-.012.006-.019.008-.003.001-.007.002-.01.003-.003,0-.007.002-.01.002-.003,0-.007,0-.011.001,0,0,0,0,0,0h0s-.005,0-.007,0c-.004,0-.007,0-.011,0-.008,0-.017-.003-.027-.006,0,0-.002,0-.003,0-.002,0-.004-.001-.006-.002-.006-.002-.011-.005-.016-.008-.006-.004-.012-.008-.017-.012-.013-.011-.024-.023-.031-.038-.002-.005-.004-.008-.006-.012-.001-.003-.002-.007-.003-.01,0,0,0-.002,0-.003,0,0,0,0,0,0,0,0,0,0,0-.001,0,0,0,0,0,0,0,0-.001-.001-.002-.002,0,0,0,0-.001,0h0s-.001,0-.002,0h0s-.003,0-.004,0h-.007c-.012.003-.024.004-.034.006-.011.002-.025.004-.038.005-.003,0-.007,0-.01.001-.003,0-.006,0-.009,0h-.003s-.004.001-.005.003h0s0,0,0,0c0,0-.003.003,0,.011h0s0,0,0,0c.002.007.006.017.013.03.004.008.008.015.014.024h0Z" fill="#fff" stroke-width="0"/>
          <path d="M1.601.439h0s-.007.001-.01.002c-.013.002-.025.004-.038.005-.011.001-.023.003-.034.005h-.007s-.003.001-.004.002h0s0,0,0,0c0,0,0,0-.001,0l-.002-.002v.003s0,0,0,0h0s0,.001-.001.002h0s0,.001,0,.002h0s0,.003,0,.004c0,.004,0,.007,0,.011,0,.004-.001.008-.002.013,0,.004-.002.008-.003.012-.003.008-.006.016-.01.023-.002.004-.004.007-.007.011-.004.006-.008.011-.013.016-.013.013-.028.024-.045.03-.006.002-.012.004-.017.005,0,0,0,0-.001,0-.004,0-.007.001-.011.002-.004,0-.007,0-.011,0-.002,0-.003,0-.005,0-.002,0-.004,0-.006,0-.007,0-.014-.001-.021-.003-.01-.002-.02-.006-.029-.01-.025-.012-.046-.033-.058-.059h0c-.004-.009-.006-.014-.009-.018-.003-.005-.006-.007-.012-.007h0s-.012.001-.02.002c-.007.001-.015.002-.022.004h-.003c-.006.001-.011.002-.017.003-.004,0-.007.001-.011.002,0,0-.003,0-.004,0-.007,0-.012.002-.018.002-.004,0-.008,0-.01.002-.002.001-.004.003-.003.009,0,.006.004.013.008.019.001.002.002.004.003.006,0,.001.002.003.002.004h0s.001.003.002.004c0,0,0,.001.001.002,0,0,0,.001.001.002.003.005.005.009.007.013.005.008.009.015.014.021,0,0,.001.002.002.002.002.002.004.005.006.007.019.023.041.043.066.057h.001s0,.001.001.001c.002,0,.003.002.005.003.026.014.056.023.088.026h0s0,0,0,0c.011.001.021.002.032.002.026,0,.052-.004.077-.012.001,0,.003-.001.003-.001.002,0,.004-.001.006-.002.003-.001.006-.002.009-.004h0c.05-.021.091-.058.118-.106.001-.003.003-.005.004-.008.003-.006.006-.012.009-.02,0,0,0-.001,0-.002,0,0,0-.001,0-.002.002-.006.004-.011.006-.017,0,0,0-.001,0-.001,0,0,0,0,0-.001,0,0,0,0,0-.001h0c.003-.011.005-.019.007-.028.003-.014.005-.025.004-.033h0s0,0,0,0c0-.008-.002-.01-.004-.01h0s0,0,0,0c0,0-.002,0-.003,0,0,0-.001,0-.002,0h-.003s-.005.001-.008.002" fill="#fff" stroke-width="0"/>
          <path d="M.711.495h.002c.03-.005.06-.009.091-.013h.004s0,0,0,0c.027-.004.054-.008.074-.011l.03-.004.028-.004c.031-.004.062-.009.094-.013.003,0,.005,0,.007-.001.003,0,.004-.002.005-.003h0s0-.001,0-.002c0-.002,0-.006-.002-.01h0s0,0,0,0h0s0,0,0,0c-.012-.035-.031-.065-.055-.091h0s-.003-.003-.003-.003c-.045-.046-.107-.071-.175-.071-.005,0-.01,0-.015,0-.068.003-.129.03-.172.078-.005.006-.01.012-.015.018-.004.005-.007.01-.012.017h0s0,.001,0,.001c-.011.018-.019.037-.025.057,0,.002,0,.003-.002.005-.001.004-.003.009-.004.014-.007.027-.009.046-.005.054h0s0,.002,0,.002c0,0,0,0,0,0h0s0,0,0,0c0,0,.001,0,.002,0,0,0,.002,0,.003,0h0s0,0,0,0c.016-.002.031-.004.047-.006.032-.004.064-.009.095-.013" fill="#d52d50" stroke-width="0"/>
          <path d="M1.124.432s.002.003.007.004c0,0,0,0,.001,0,.002,0,.004,0,.006,0,.018-.003.036-.005.053-.008l.015-.002h0c.018-.003.036-.005.053-.008l.03-.004c.025-.004.05-.007.074-.01h0s.004-.001.004-.001c.027-.004.054-.008.08-.011l.013-.002c.032-.004.064-.009.095-.014.016-.002.031-.004.047-.007h0s0,0,0,0c0,0,0,0,0,0,.002,0,.003,0,.003-.001h0s0,0,0,0c0,0,0,0,0,0h0s0-.002,0-.002c.001-.008-.006-.026-.02-.05-.003-.005-.007-.011-.01-.017-.016-.025-.035-.046-.057-.062-.007-.005-.013-.01-.02-.013-.037-.023-.08-.034-.125-.034-.021,0-.041.003-.062.007-.07.016-.13.06-.163.12,0,.001-.001.002-.002.004-.017.031-.026.066-.028.103,0,0,0,0,0,0h0v.003s0,.006,0,.007" fill="#d52d50" stroke-width="0"/>
          <path d="M1.455.947c-.05-.078-.136-.119-.23-.118-.106-.002-.227.054-.263.161-.027.072.003.145.017.216.016.079.03.158.04.238.003.021.005.042.008.063,0,.007.003.014.003.021,0,.011.001.023.003.034.009.066.011.132.015.198.001.019.002.039.002.058.001.088.002.175-.002.263-.005.021-.002.043-.004.065-.003.035-.005.069-.008.104-.004.028-.003.055.007.082.026.074.128.09.168.018.01-.019.012-.04.018-.06.004-.016.003-.032.004-.049.002-.031.003-.062.005-.093.002-.062.006-.125.005-.188-.001-.084.003-.169-.002-.253,0-.016,0-.032,0-.048,0-.009,0-.009.01-.009.017,0,.034,0,.051-.002.028-.002.058,0,.086-.005.076-.02.097-.121.037-.171-.015-.013-.033-.021-.053-.024-.01-.001-.02-.005-.03-.003-.007.001-.014.002-.02.002-.019,0-.038.004-.057.003-.001,0-.002,0-.003,0-.01.003-.02.001-.029.002-.011,0-.008-.019-.009-.026-.015-.115-.028-.23-.049-.344-.002-.015-.002-.03.014-.04.025-.015.049-.014.074-.002.015.008.015.029.016.044.001.015.003.029.006.044.004.022.005.043.008.065.005.063.067.104.126.085.059-.015.085-.076.077-.133-.007-.067.001-.14-.037-.199" fill="#000" stroke-width="0"/>
          <path d="M2.704,2.321c-.042-.16-.066-.326-.056-.492.004-.052.014-.102.025-.153.012-.058.029-.115.049-.17.026-.08-.053-.148-.127-.131-.052.009-.084.054-.098.101-.002.006-.004.007-.01.005-.026-.008-.054-.008-.081-.007-.064,0-.127.03-.168.08-.042.048-.049.112-.049.173-.001.039-.004.079-.003.118.001.059-.002.118.002.178.001.026.003.051.003.077,0,.018.001.035.004.053.011.082.081.144.158.165.014.003.028.005.041.007.034.004.067-.003.1-.009.021.101.043.202.075.3.004.013.009.026.012.039.006.019-.002.028-.019.037-.015.009-.031.011-.047.008-.025-.004-.033-.009-.039-.034-.011-.042-.02-.086-.037-.126-.008-.019-.02-.035-.037-.047-.022-.015-.045-.021-.072-.016-.061.009-.099.072-.086.131.005.024.01.049.015.073.01.062.029.115.08.156.094.078.247.078.35.019.058-.032.11-.087.118-.155.004-.031,0-.063-.012-.093-.039-.093-.067-.19-.093-.287M2.421,2.154c-.012.002-.023-.002-.034-.008-.009-.004-.014-.011-.017-.02-.002-.007-.003-.013-.004-.02,0-.014-.002-.027-.003-.041-.003-.081-.007-.16-.004-.241,0-.045.004-.091.006-.136.002-.021.01-.033.032-.041.025-.008.048-.005.069.01.01.007.016.017.015.03-.006.089-.012.178-.009.268,0,.024,0,.048.003.071.002.015.004.03.003.045,0,.014.003.028.002.042,0,.029-.036.043-.061.04" fill="#000" stroke-width="0"/>
          <path d="M.654,2.144c-.051-.023-.114.003-.131.056-.007.018-.01.037-.005.057.004.017.007.033.009.05.006.044.009.102.058.119.035.012.077.021.111.001.019-.012.028-.031.034-.052.006-.021.008-.042.007-.065.004-.065-.017-.139-.082-.167" fill="#000" stroke-width="0"/>
          <path d="M2.045,2.326c-.003-.02-.003-.041-.006-.061-.002-.016,0-.033-.002-.05-.002-.026,0-.053-.002-.08-.003-.038-.002-.076-.002-.114,0-.085-.003-.171.001-.256.002-.034-.001-.068.002-.102.002-.018,0-.036.002-.053.002-.023,0-.045.002-.068.001-.016,0-.033,0-.049.008-.185-.191-.183-.194-.008,0,.029-.001.058-.002.086-.001.044,0,.077-.002.115-.003.062,0,.124-.002.186-.001.026,0,.053.001.08.002.064,0,.128,0,.192,0,.009-.003.015-.011.02-.02.013-.045.013-.066-.002-.003-.002-.005-.005-.005-.008,0-.007-.003-.014-.003-.021,0-.027,0-.055.002-.082.001-.182,0-.364,0-.547,0-.04-.002-.052-.001-.091.001-.078-.174-.11-.187.005-.002.02-.002.041-.002.06-.002.115,0,.239-.002.358h0c0,.109,0,.219,0,.328,0,.011.001.022.003.033.02.103.116.182.221.179.015,0,.03,0,.045-.002.009-.002.011-.001.014.008.007.019.017.037.03.053.027.033.06.05.104.045.024-.003.044-.013.058-.033.012-.017.017-.037.013-.058-.005-.021-.01-.042-.013-.063" fill="#000" stroke-width="0"/>
          <path d="M3.217,2.822s0-.002,0-.003c0-.011-.002-.021-.004-.032-.004-.029-.01-.059-.018-.088-.003-.01-.005-.019-.008-.029-.026-.083-.063-.164-.1-.244-.002-.005-.005-.01-.007-.015-.003-.005-.005-.011-.008-.016,0-.002-.002-.004-.003-.006-.004-.01-.009-.019-.013-.029-.002-.004-.004-.008-.006-.013-.003-.007-.007-.015-.01-.022-.003-.008-.006-.015-.01-.023-.002-.004-.004-.009-.005-.013-.004-.009-.007-.018-.011-.027,0-.001-.001-.003-.002-.004-.001-.003-.002-.006-.003-.008,0-.002-.002-.004-.002-.007-.001-.003-.002-.006-.003-.01-.001-.004-.003-.008-.004-.012,0-.002-.002-.005-.002-.007-.001-.005-.003-.009-.004-.014,0-.002-.001-.004-.002-.006-.002-.006-.003-.012-.005-.018,0,0,0,0,0-.001,0-.003-.001-.005-.002-.008-.002-.008-.004-.016-.005-.025-.001-.006-.002-.013-.003-.019,0-.005-.001-.01-.002-.015,0-.004-.001-.009-.001-.013h0c-.008-.091.014-.203.035-.312.018-.093.037-.189.039-.279,0-.01,0-.02,0-.03,0-.002,0-.004,0-.006,0-.01,0-.019-.002-.028,0,0,0-.002,0-.002,0-.009-.002-.018-.003-.027,0-.001,0-.002,0-.003-.001-.009-.003-.018-.005-.027,0,0,0-.001,0-.002-.004-.018-.009-.036-.015-.053,0,0,0,0,0,0,0,0,0,0,0,0-.006-.017-.013-.033-.022-.048h0c-.009-.017-.02-.033-.032-.048-.08-.1-.216-.151-.415-.156-.01,0-.024-.001-.04-.001-.002,0-.004,0-.006,0-.048,0-.092.006-.133.018h0s0,0,0,0c-.009.003-.017.006-.026.009-.002,0-.004.002-.006.002-.008.003-.017.007-.025.011-.007.003-.014.007-.022.011-.002,0-.003.002-.005.003-.005.003-.011.006-.016.009-.002.001-.004.003-.006.004-.005.003-.01.007-.015.01-.002.001-.004.003-.006.004-.007.005-.013.01-.02.015-.002-.002-.004-.005-.007-.007-.009-.009-.019-.018-.03-.025h0c-.011-.008-.022-.015-.035-.022-.006-.003-.013-.006-.019-.009-.04-.017-.085-.026-.129-.026-.007,0-.014,0-.02,0-.004,0-.008,0-.013.001-.009,0-.019.002-.028.004-.001,0-.003,0-.004,0-.008.002-.016.004-.024.007-.004.001-.008.003-.012.004-.008.003-.044.011-.081.011-.009,0-.017,0-.024-.001h0s-.005,0-.008-.001c0,0,0,0-.001,0,0,0-.002,0-.003,0-.002,0-.004,0-.005-.001,0,0,0,0,0,0-.004-.001-.007-.002-.01-.003,0,0,0,0,0,0,0,0,0,0-.001,0-.001,0-.002-.001-.003-.002l-.014-.014c.002-.013.004-.025.006-.037,0-.003,0-.006.001-.009.001-.009.002-.018.003-.027,0-.004,0-.008,0-.011,0-.009,0-.017.001-.025,0-.004,0-.007,0-.011,0-.011,0-.023,0-.034,0-.002,0-.005,0-.007,0-.012-.002-.024-.003-.036,0-.007-.002-.013-.003-.02,0-.004-.001-.007-.002-.011,0,0,0-.001,0-.002-.002-.01-.004-.02-.006-.03,0-.001,0-.002,0-.004-.005-.021-.011-.041-.019-.06,0,0,0-.002-.001-.003-.004-.009-.007-.018-.011-.026,0-.001,0-.002-.001-.003-.002-.003-.003-.007-.005-.01-.003-.006-.006-.011-.009-.017-.004-.007-.008-.014-.013-.021,0-.001-.002-.003-.003-.004-.004-.005-.007-.011-.011-.016-.001-.002-.003-.004-.004-.006-.004-.005-.007-.009-.011-.014-.001-.002-.003-.003-.004-.005-.005-.006-.011-.012-.016-.018-.002-.002-.004-.004-.005-.006.019-.029.033-.061.042-.095,0-.003.002-.007.002-.01.001-.005.002-.011.003-.016v-.002c.003-.013.003-.026.004-.039,0-.005,0-.01,0-.015.003-.009.016-.01.029-.011.006,0,.012,0,.016-.002.014-.002.029-.004.044-.006.016-.002.032-.004.048-.006.019-.003.033-.005.043-.006.016-.002.024-.003.028-.008.002-.002.003-.006.002-.01h0s-.001-.01-.002-.018c0-.004-.001-.009-.002-.014,0-.002,0-.003,0-.005,0-.001,0-.003,0-.004,0-.002,0-.003,0-.005,0,0,0,0,0-.001,0,0,0-.001,0-.002,0,0,0,0,0,0,0,0,0,0,0,0h0s-.001-.003-.002-.004c0,0,0,0,0,0,0,0,0,0-.001,0-.001,0-.002-.002-.004-.002-.002,0-.004,0-.006,0-.001,0-.003,0-.004,0l-.029.004c-.021.003-.042.006-.063.009-.015.002-.03.004-.045.007-.015.002-.031.005-.046.007,0,0-.002,0-.003,0-.004,0-.007,0-.009-.003-.001-.004-.003-.008-.004-.011-.003-.008-.006-.015-.009-.023,0,0,0,0,0,0-.003-.007-.007-.014-.01-.021,0,0,0-.001,0-.002-.003-.007-.007-.013-.011-.019,0-.001-.001-.002-.002-.003-.004-.006-.007-.012-.011-.017-.001-.002-.002-.003-.004-.005-.003-.005-.007-.01-.011-.014-.002-.002-.004-.005-.006-.007-.003-.004-.006-.008-.01-.011-.003-.003-.006-.006-.009-.009-.003-.003-.005-.005-.008-.008-.006-.005-.012-.011-.018-.016-.054-.044-.12-.068-.191-.068-.004,0-.008,0-.013,0-.007,0-.014,0-.021,0-.002,0-.004,0-.006,0-.005,0-.01,0-.014.002-.003,0-.005,0-.008.001-.004,0-.008.001-.012.002-.003,0-.006.001-.009.002-.003,0-.007.002-.01.003-.003,0-.006.002-.01.003-.003,0-.006.002-.009.003-.003.001-.007.002-.01.004-.003.001-.005.002-.008.003-.004.001-.007.003-.011.005-.002.001-.005.002-.007.003-.004.002-.007.003-.011.005,0,0-.001,0-.002.001-.006.003-.012.007-.018.01-.001,0-.002.001-.003.002-.005.003-.011.007-.016.011-.001,0-.002.002-.004.003-.005.004-.01.007-.014.011-.001.001-.003.002-.004.003-.004.004-.009.008-.013.012-.001.001-.003.003-.004.004-.004.004-.008.008-.011.012-.001.002-.003.003-.004.005-.004.004-.007.009-.01.013-.001.002-.002.003-.004.005-.003.005-.007.01-.01.014,0,.001-.002.003-.003.004-.004.006-.008.013-.011.02-.008.014-.013.025-.016.032-.002.005-.004.009-.005.01,0,0-.001,0-.002-.002,0,0,0,0,0,0,0,0,0,0-.001-.001,0,0,0,0-.001-.001,0-.001-.002-.002-.003-.004-.005-.006-.013-.015-.024-.026-.005-.005-.01-.01-.015-.015,0,0-.002-.002-.003-.003-.005-.005-.011-.009-.017-.014-.004-.003-.009-.007-.013-.01,0,0,0,0,0,0-.006-.004-.012-.008-.018-.011-.001,0-.002-.001-.003-.002-.012-.007-.025-.013-.039-.019-.001,0-.003-.001-.004-.002-.013-.005-.027-.009-.041-.013-.002,0-.003,0-.005-.001-.007-.002-.014-.003-.021-.004,0,0,0,0,0,0-.007-.001-.014-.002-.021-.002-.002,0-.004,0-.005,0-.007,0-.014,0-.022,0-.029,0-.057.004-.084.011,0,0,0,0,0,0-.008.002-.015.004-.023.007-.002,0-.005.002-.007.003-.005.002-.01.004-.015.006-.002.001-.005.002-.007.003-.007.003-.013.006-.019.009-.002.001-.004.002-.006.004-.005.003-.009.005-.013.008-.003.002-.006.004-.008.006-.003.002-.007.005-.01.007-.003.002-.006.004-.008.006-.004.003-.008.007-.012.01-.001,0-.002.002-.003.003,0,0,0,0,0,0-.005.005-.011.01-.016.016-.003.003-.005.006-.008.009-.002.003-.004.005-.006.008-.003.004-.007.009-.01.013-.002.003-.005.006-.007.01-.002.003-.004.006-.006.009-.003.005-.006.011-.009.016-.001.003-.003.005-.004.008-.002.005-.005.009-.007.014,0,.002-.002.004-.003.006-.003.007-.005.013-.008.02,0,.002-.001.004-.002.006-.002.007-.005.015-.007.022,0,0,0,.002,0,.003-.002.007-.004.015-.005.023,0,.001,0,.003,0,.004-.002.008-.003.017-.004.025,0,.002,0,.003,0,.005,0,.009-.002.018-.002.027,0,0,0,.001-.002.002,0,0,0,0,0,0-.002.002-.006.003-.009.004-.015.002-.031.004-.046.006s-.03.004-.046.006c-.007,0-.013.002-.02.003-.014.002-.029.004-.043.006l-.03.004s-.001,0-.002,0c-.003,0-.005.001-.007.003,0,0,0,0,0,0-.001,0-.002.002-.003.003,0,0-.001.002-.002.003,0,0,0,.002,0,.003,0,0,0,.002,0,.002H.277s0,.002,0,.002c0,0,0,.001,0,.002,0,0,0,.002,0,.002,0,0,0,0,0,0,0,.004.001.008.002.012,0,0,0,0,0,0,0,.001,0,.003,0,.004,0,.002,0,.005,0,.007,0,.002,0,.003,0,.005,0,.001,0,.002,0,.003H.282s0,.001,0,.002c0,0,0,0,0,0,0,0,0,.002,0,.002,0,.001,0,.002,0,.003,0,0,0,.001,0,.001.002.008.006.011.014.011.005,0,.011-.001.02-.003.01-.002.024-.004.043-.006.016-.002.032-.005.048-.007.014-.002.029-.005.044-.007.005,0,.01-.001.016-.003.006-.001.013-.003.018-.003.006,0,.01.002.013.005,0,.002.002.005.002.007,0,.002.002.005.002.007.004.012.008.025.014.036h0s0,.001,0,.001c.003.007.007.013.01.019,0,0,0,0,0,0,.001.002.002.004.003.005.001.002.003.004.004.006.002.003.004.006.006.009,0,.001.001.002.002.003,0,0,0,.001.001.002,0,0,0,0,0,0,0,0,.001.002.002.002.008.012.017.023.027.033,0,0,0,0,0,0,0,0,0,0,0,0,0,0,0,0,0,0-.001.002-.002.003-.003.005-.004.007-.008.014-.011.021-.002.004-.004.008-.006.013-.001.003-.003.006-.004.009-.002.004-.004.008-.006.012-.002.003-.003.007-.004.01-.002.004-.003.008-.005.012-.003.007-.005.014-.008.021-.018.053-.029.109-.032.167,0,.011,0,.023,0,.035,0,.004,0,.008,0,.011,0,.009,0,.017,0,.026,0,.009.001.018.002.028,0,.007.001.014.002.021.002.013.004.025.006.038,0,.002,0,.004.001.006,0,.005.002.01.003.015,0,.003.001.006.002.008.001.005.002.009.003.014,0,.002,0,.004.001.006.002.009.005.018.007.028,0,0,0,.001,0,.002.003.01.006.021.01.031,0,.001,0,.002.001.003.022.068.054.137.094.206.046.079.056.156.057.196h-.002s0,0,0,0c-.007-.001-.014-.003-.021-.004-.004,0-.008-.001-.012-.002-.005,0-.01-.001-.016-.002-.01-.001-.02-.002-.03-.002-.001,0-.002,0-.003,0-.011,0-.022,0-.033,0h-.007c-.011,0-.022,0-.032.001-.004,0-.009,0-.013.001-.006,0-.012,0-.017.002-.005,0-.01.001-.015.002-.005,0-.009.001-.014.002-.005,0-.01.002-.016.003-.004,0-.007.002-.011.002-.006.001-.011.003-.016.004-.003,0-.006.002-.009.002-.006.002-.011.004-.017.005-.002,0-.004.001-.006.002-.006.002-.012.005-.018.007,0,0-.002,0-.003.001-.007.003-.013.006-.019.009-.053.026-.092.059-.121.091h0s-.006.007-.009.01c-.003.003-.006.007-.008.01-.067.085-.103.199-.102.33,0,.009,0,.018,0,.028,0,.003,0,.006,0,.009,0,.006,0,.012.001.018,0,.004,0,.008.001.012,0,.005,0,.01.002.015,0,.004.001.009.002.013,0,.005.001.009.002.014,0,.005.002.01.002.015,0,.004.001.008.002.012.001.005.002.011.003.016,0,.003.001.006.002.009.001.006.003.012.004.018,0,.002.001.004.002.006.013.05.03.098.052.144,0,0,0,0,0,0,.004.007.007.015.011.022,0,0,0,.002.001.002.004.007.007.014.011.021,0,.001.001.002.002.003.004.006.007.013.011.019.001.002.002.004.003.006.003.005.006.01.01.015.005.007.009.014.014.021.01.014.021.028.031.041.099.121.227.188.364.188.064,0,.129-.014.192-.043v.003s.049.01.049.01c.006.001.057.012.131.012.107,0,.263-.022.401-.126.067.036.17.06.256.06.009,0,.017,0,.026,0,.01.019.022.037.036.054.022.025.048.044.077.058,0,.013,0,.026,0,.039,0,.007,0,.014,0,.021.008.143.058.267.147.36.114.119.287.185.487.185.234,0,.463-.089.61-.234,0,0,0,0,0,0,.01-.009.019-.019.027-.029h0s0,0,0,0h0c.005-.007.01-.013.015-.019.008-.01.015-.019.022-.029,0,0,0,0,0,0,.034-.048.058-.1.072-.153.002-.006.003-.012.004-.018.002-.008.003-.016.005-.025,0-.002,0-.005.001-.007.001-.006.002-.013.003-.019,0-.003,0-.006,0-.009,0-.004,0-.008.001-.011,0-.005,0-.01,0-.015,0-.005,0-.01,0-.015,0,0,0-.002,0-.003,0-.005,0-.011,0-.016,0-.01,0-.021-.002-.031M1.614.437s.002,0,.003,0h0s0,0,0,0c.001,0,.004.002.004.01h0c0,.008,0,.019-.004.033-.002.008-.004.017-.007.027h0s0,.002,0,.002c0,0,0,0,0,.001,0,0,0,0,0,.001-.002.005-.004.011-.006.017,0,0,0,.001,0,.002,0,0,0,.001,0,.002-.003.008-.006.014-.009.02-.001.003-.003.005-.004.008-.027.048-.068.084-.118.105h0s-.006.003-.009.004c-.002,0-.004.001-.006.002,0,0-.002,0-.003.001-.025.008-.05.012-.077.012-.011,0-.021,0-.032-.002h0s0,0,0,0c-.032-.004-.061-.012-.088-.026-.002,0-.003-.002-.005-.003,0,0,0,0-.001,0h-.001c-.025-.015-.047-.034-.066-.057-.002-.002-.004-.005-.006-.007,0,0-.001-.001-.002-.002-.005-.006-.009-.013-.014-.021-.002-.004-.005-.008-.007-.013,0,0,0-.001-.001-.002,0,0,0-.001-.001-.002,0-.001-.001-.002-.002-.004h0s-.001-.004-.002-.005c-.001-.002-.002-.004-.003-.006-.003-.006-.007-.013-.008-.019,0-.006.001-.008.003-.009.002-.001.005-.002.01-.002.005,0,.011-.001.017-.002.001,0,.004,0,.004,0,.004,0,.007-.001.011-.002.006,0,.011-.002.017-.003h.003c.007-.002.014-.003.022-.004.009-.001.015-.002.02-.002h0c.006,0,.009.002.012.007.002.004.005.009.009.017h0s0,.001,0,.001c.012.025.033.046.058.058.009.005.019.008.029.01.007.002.014.002.021.003.002,0,.004,0,.006,0,.002,0,.003,0,.005,0,.004,0,.007,0,.011,0,.004,0,.007-.001.011-.002,0,0,.001,0,.001,0,.006-.001.012-.003.017-.005.017-.007.032-.017.045-.03.005-.005.009-.011.013-.016.002-.003.005-.007.007-.011.004-.007.007-.015.01-.023.001-.004.002-.008.003-.012.001-.005.002-.009.002-.013,0-.004,0-.007,0-.011,0-.001,0-.002,0-.003h0s0-.002,0-.002h0s0-.002.001-.003h0s0,0,0,0v-.003s0,.002,0,.002c0,0,.001,0,.001,0h0s.002,0,.004,0h.007c.011-.003.023-.004.034-.006.013-.002.025-.004.038-.005.003,0,.007-.001.01-.002h0s.005-.001.008-.002h.003s.002,0,.002,0M1.123.422c.002-.037.011-.072.028-.103,0-.001.001-.002.002-.004.033-.06.092-.104.163-.12.02-.005.041-.007.062-.007.045,0,.088.012.125.034.006.004.013.008.02.014.022.017.041.038.057.062.004.006.007.011.01.017.014.024.021.042.02.05h0s0,.002,0,.002c0,0,0,0,0,0h0s0,0,0,0c0,0-.002.001-.004.001h-.001c-.015.002-.031.005-.047.007-.032.005-.063.009-.095.014l-.013.002c-.027.004-.054.008-.08.011h-.004s0,.001,0,.001c-.025.003-.049.007-.074.01l-.03.004c-.018.003-.036.005-.053.008h0l-.014.002c-.018.002-.036.005-.053.008-.002,0-.004,0-.006,0,0,0,0,0-.001,0-.005,0-.006-.002-.007-.004,0-.001-.001-.004,0-.007v-.003ZM.569.515h0s-.002,0-.003,0c0,0-.001,0-.002,0h0s0,0,0,0c0,0,0,0,0,0h0s0-.002,0-.002c-.003-.008-.001-.027.005-.054.001-.005.002-.009.004-.014,0-.002.001-.003.002-.005.006-.021.014-.04.025-.057h0c.004-.008.008-.014.012-.018.005-.007.01-.013.015-.018.043-.047.104-.075.172-.078.005,0,.01,0,.015,0,.067,0,.13.025.175.071l.003.003h0c.025.026.044.056.055.091h0s0,0,0,0h0s0,0,0,0c.002.004.002.008.002.01,0,0,0,.001,0,.002h0s-.002.003-.005.004c-.002,0-.004.001-.007.002-.031.004-.062.009-.094.013l-.028.004-.03.004c-.021.003-.047.007-.074.011h0s-.004,0-.004,0c-.03.004-.061.008-.091.013h-.002c-.032.005-.064.009-.095.014-.016.002-.031.004-.047.006h0ZM.573.597h0s0,0,0,0c-.003-.008,0-.01,0-.011h0s0,0,0,0c.001-.001.003-.002.005-.002h.003s.006,0,.009-.001c.003,0,.007,0,.01-.001.013-.002.026-.004.038-.005.011-.002.023-.003.034-.005h.007s.003-.001.004-.001h0s.001,0,.002,0h0s0,0,.001,0c0,0,.001,0,.002.002,0,0,0,0,0,0,0,0,0,0,0,.001,0,0,0,0,0,0,0,0,0,.002,0,.003,0,.004.002.007.003.01.001.004.003.008.006.012.008.015.018.027.031.038.005.004.011.008.017.012.005.003.011.006.016.008.002,0,.004.001.006.002,0,0,.002,0,.003,0,.01.003.019.005.027.006.004,0,.007,0,.011,0,.002,0,.005,0,.007,0h0s0,0,0,0c.004,0,.007,0,.011-.001.004,0,.007-.001.01-.002.003,0,.007-.002.01-.003.007-.002.013-.005.019-.008.009-.005.018-.011.025-.018.02-.019.034-.044.039-.071h0v-.002c.001-.009.002-.014.004-.019.002-.006.004-.009.01-.01.005-.001.011-.002.021-.004.007,0,.014-.002.021-.002h.003c.006-.001.011-.002.017-.002.004,0,.007,0,.011-.001h.004c.007-.002.012-.002.018-.003.002,0,.005,0,.006,0,.001,0,.002,0,.003,0,.002,0,.005.002.005.008,0,.006,0,.013-.002.021,0,.002,0,.004-.001.007,0,.002,0,.003,0,.005,0,.003-.001.007-.002.01-.001.005-.002.01-.003.015-.002.008-.005.016-.008.024v.003s-.003.005-.004.008c-.011.028-.027.052-.048.073h0s0,.002-.001.002c-.001.001-.003.002-.004.004-.021.021-.047.037-.077.05h0c-.032.014-.064.021-.098.021-.003,0-.006,0-.009,0-.001,0-.002,0-.004,0-.002,0-.004,0-.006,0-.003,0-.006,0-.01,0h0c-.054-.006-.104-.03-.143-.068h0s0,0,0,0c-.002-.002-.004-.004-.006-.006-.004-.004-.008-.009-.012-.013l-.002-.002h-.001s0-.003-.001-.003h-.001c-.004-.006-.007-.011-.01-.016,0-.001-.001-.002-.002-.003h0c-.006-.01-.01-.017-.014-.025-.007-.013-.011-.023-.013-.03M3.013,3.123c-.062.07-.148.128-.25.168-.098.039-.205.06-.31.06-.171,0-.317-.054-.411-.152-.084-.088-.124-.206-.118-.351l.141-.126-.02.01c-.046.024-.089.036-.125.036-.091,0-.121-.076-.125-.085l.041-.111c-.035.053-.104.064-.156.064-.096,0-.198-.036-.227-.061.003-.013.021-.092.021-.092l.004-.015-.009.013c-.056.084-.132.145-.224.181-.067.027-.141.04-.221.04-.054,0-.094-.007-.106-.009.002-.005.043-.115.043-.115l-.003.002c-.103.093-.206.139-.307.139-.116,0-.226-.065-.308-.183-.075-.107-.12-.249-.12-.381,0-.106.027-.198.079-.264.06-.075.148-.114.261-.116h.006c.206,0,.314.118.315.119l-.093-.162c.002-.014.016-.154-.07-.301-.073-.124-.113-.244-.119-.358-.006-.101.014-.194.061-.276.045.023.096.035.147.035.065,0,.128-.018.181-.053.056-.037.098-.089.123-.153h0s0,0,0,0c.061.081.154.128.256.128.072,0,.144-.024.2-.067.045.049.075.108.089.177.011.056.011.118.001.185-.018.114-.061.203-.061.204l-.006.012.11-.09c.034.032.088.039.128.039.05,0,.101-.011.119-.018.017-.007.038-.01.061-.01.055,0,.124.022.154.07.02.033.02.072-.003.117l-.007.015.142-.136c.079-.065.156-.074.213-.074.002,0,.005,0,.007,0,.01,0,.021,0,.034.001.166.004.276.042.335.115,0,0,0,0,.001.001.089.11.055.284.018.468-.023.116-.047.237-.037.342.01.122.068.247.123.367.05.109.102.221.118.33.017.122-.014.227-.096.322" fill="#000" stroke-width="0"/>
          <path d="M2.767.809h.059l.034.096c.004.015.008.03.013.05h0c.005-.018.009-.035.014-.049l.034-.097h.056l.015.197h-.039l-.007-.116c0-.015,0-.034-.001-.055h-.002c-.005.017-.011.041-.017.059l-.035.109h-.041l-.035-.112c-.004-.015-.009-.038-.014-.056h-.002c0,.018,0,.037-.001.055l-.007.116h-.038l.014-.197Z" fill="#000" stroke-width="0"/>
          <polygon points="2.576 .809 2.741 .809 2.741 .841 2.678 .841 2.678 1.006 2.639 1.006 2.639 .841 2.576 .841 2.576 .809" fill="#000" stroke-width="0"/>
        </g>
      </g>
    </g>
  </g>
</svg>