<?xml version="1.0" encoding="UTF-8"?>
<svg id="b" data-name="Layer 2" xmlns="http://www.w3.org/2000/svg" width="838.027" height="818.551" viewBox="0 0 838.027 818.551">
  <g id="c" data-name="Layer 1">
    <g>
      <g>
        <path d="M289.959,563.365c-.076,5.019-.484,9.6-1.431,14.148-.607,2.915-.284,3.379,2.55,4.514,10.246,4.101,20.517,8.141,30.773,12.217,7.738,3.076,7.1,2.175,4.159,9.646-.367.933-.718,1.876-1.131,2.789-1.201,2.658-1.774,2.956-4.656,1.859-5.25-1.999-10.456-4.116-15.679-6.187-5.969-2.367-11.927-4.762-17.909-7.096-3.792-1.48-4.072-1.487-6.237,2.147-6.14,10.309-14.774,17.88-25.243,23.507-35.388,19.018-85.643,1.155-95.442-45.873-1.335-6.408-2.1-4.937-6.056-2.263-21.428,14.481-44.051,16.162-67.438,5.433-18.787-8.619-29.613-24.031-35.103-43.474-2.493-8.827-2.354-17.865-.777-26.877.138-.79.371-1.565.496-2.357.533-3.356.392-3.756-2.722-5.013-9.118-3.68-18.267-7.281-27.403-10.918-2.609-1.039-5.233-2.048-7.81-3.162-1.691-.731-2.099-1.628-1.459-3.355,1.046-2.821,2.204-5.602,3.373-8.375.56-1.33,1.608-1.657,2.949-1.148,1.688.64,3.397,1.225,5.074,1.891,9.138,3.63,18.268,7.279,27.403,10.918,1.491.594,2.978,1.201,4.488,1.74,1.312.468,2.343.012,3.077-1.148.644-1.018,1.235-2.072,1.924-3.058,15.886-22.728,37.854-32.907,65.065-28.691,27.729,4.296,45.658,21.095,53.833,48.048.696,2.294,1.005,4.705,1.505,7.06.479,2.256,1.273,2.576,3.312,1.13,3.443-2.442,6.98-4.714,10.702-6.716,24.458-13.159,60.932-8.097,80.754,16.852,8.881,11.178,15.517,25.254,15.058,41.812ZM63.245,519.59c.033,13.909,4.935,26.036,14.648,35.797,15.539,15.617,39.029,21.824,62.501,9.366,7.414-3.935,13.299-9.597,17.817-16.668,1.631-2.553,1.469-3.084-1.532-4.325-5-2.068-10.037-4.047-15.059-6.063-5.827-2.338-5.228-2.22-8.781,2.364-6.61,8.529-17.35,11.67-27.486,8.6-10.196-3.089-21.323-15.704-17.771-29.017.631-2.363.509-3.092-2.033-4.141-4.261-1.758-8.509-3.558-12.836-5.14-8.767-3.205-8.096-5.161-9.452,6.221-.118.989-.016,2.003-.016,3.006ZM268.362,588.994c-.629-1.201-1.79-1.578-2.91-2.024-5.398-2.148-10.778-4.343-16.196-6.44-3.314-1.282-3.531-1.3-5.276,1.733-3.348,5.82-8.53,8.805-14.835,10.311-2.372.566-4.758.58-7.163.641-13.672.349-27.123-13.389-24.663-27.946.134-.79.276-1.584.332-2.381.152-2.161-.154-2.84-2.229-3.694-5.927-2.439-11.892-4.788-17.855-7.138-1.055-.415-2.125-1.194-3.323-.341-7.639,24.193,9.322,51.592,31.049,59.283,13.343,4.723,26.649,5.268,39.833-.598,10.484-4.665,20.176-13.645,23.237-21.408Z" fill="#810100" stroke-width="0"/>
        <path d="M745.786,284.159c17.271.022,32.164,6.012,44.718,17.855,4.774,4.503,3.937,4.806,9.903.688,8.26-5.703,16.516-11.411,24.779-17.109,1.322-.911,2.663-1.794,4.011-2.667,1.184-.766,2.273-.609,3.202.45.396.452.759.937,1.098,1.433,6.192,9.064,6.556,7.391-2.177,13.481-7.41,5.168-14.858,10.279-22.288,15.417-1.156.799-2.343,1.558-3.45,2.421-1.997,1.555-2.208,2.318-1.395,4.649.264.756.601,1.489.938,2.217,9.647,20.819,8.623,54.212-18.191,76.442-19.674,16.311-42.079,19.584-66.196,11.253-1.701-.588-3.363-1.298-5.084-1.814-.85-.255-1.636.219-1.72,1.144-.145,1.592-.14,3.201-.155,4.803-.207,23.589-10.138,41.796-29.23,55.752-19.274,14.089-49.366,14.129-68.597,3.159-4.913-2.803-9.363-6.18-13.441-10.101-4.797-4.613-3.658-4.879-9.823-.644-8.439,5.797-16.857,11.625-25.285,17.437-1.157.798-2.294,1.628-3.493,2.357-1.636.995-2.528.9-3.615-.589-1.774-2.43-3.446-4.936-5.106-7.447-.806-1.218-.394-2.312.68-3.143,1.269-.982,2.576-1.917,3.897-2.829,7.434-5.133,14.877-10.253,22.315-15.379,1.488-1.025,2.99-2.031,4.451-3.092,3.466-2.516,3.527-2.557,1.858-6.349-2.357-5.356-4.155-10.862-5.067-16.656-2.124-13.488-.335-26.466,5.541-38.743,14.844-31.011,50.424-45.514,82.846-33.646.188.069.373.148.557.228,7.722,3.399,6.944,2.492,7.039-4.543.38-28.033,13.83-47.961,38.451-60.591,8.735-4.481,18.292-5.847,28.027-5.842ZM796.717,349.107c-.239-6.212-1.125-13.149-4.064-19.669-1.1-2.44-2.045-2.784-4.134-1.378-5.324,3.584-10.587,7.259-15.867,10.909-2.064,1.427-2.154,2.513-1.047,4.553,3.93,7.237,2.628,14.324-.767,21.328-7.726,15.936-28.767,18.101-38.837,8.513-.58-.552-1.206-1.062-1.846-1.543-2.148-1.614-2.602-1.703-4.809-.22-4.495,3.02-8.937,6.121-13.383,9.213-5.376,3.738-5.311,4.055-.193,8.541,18.428,16.153,50.881,17.036,70.72-4.591,9.052-9.867,14.092-21.314,14.227-35.656ZM645.023,467.949c17.283.057,29.289-5.436,39.405-15.017,10.616-10.055,15.219-22.906,15.605-37.295.162-6.052-1.194-11.964-3.448-17.613-1.813-4.544-2.506-4.787-6.405-2.182-4.002,2.674-7.956,5.424-11.91,8.17-4.683,3.252-5.122,3.005-3.155,9.206,3.216,10.14.654,19.243-7.178,26.28-7.98,7.17-17.505,8.38-27.585,4.97-2.894-.979-5.149-3.024-7.333-5.14-2.221-2.153-2.552-2.18-5.154-.429-4.992,3.36-9.946,6.778-14.85,10.266-2.418,1.719-2.442,2.704-.372,4.777.99.991,2.058,1.912,3.153,2.787,9.445,7.545,20.209,11.298,29.227,11.22Z" fill="#9b2b00" stroke-width="0"/>
        <path d="M221.087,130.293c-13.37.863-25.218-3.688-36.428-10.427-.687-.413-1.346-.877-2-1.342-3.362-2.394-4.47-2.569-5.315,2.028-2.776,15.105-9.885,28.009-21.558,38.002-10.424,8.923-22.62,14.568-36.316,16.224-9.055,1.095-17.993-.324-26.743-2.95-13.556-4.068-24.414-11.896-32.842-23.196-1.32-1.769-2.606-3.564-3.952-5.312-1.238-1.608-2.874-2.171-4.802-1.457-3.386,1.254-6.767,2.526-10.114,3.878-7.255,2.932-14.485,5.926-21.734,8.874-.925.376-1.881.725-2.856.915-1.718.335-3.191-.137-4.145-1.716-.414-.686-.824-1.384-1.135-2.12-3.496-8.278-2.444-7.905,4.135-10.578,8.924-3.625,17.868-7.198,26.827-10.737,5.918-2.337,6.689-3.055,5.771-9.649-2.433-17.478.445-34.113,10.893-48.732,10.63-14.874,25.176-23.707,43.198-27.121,14.455-2.738,27.916.155,40.892,6.259,3.604,1.696,6.824,4.204,10.249,6.291,1.875,1.142,3.056.701,3.481-1.477,1.079-5.527,2.341-10.978,4.641-16.161,4.129-9.304,9.807-17.329,17.752-23.885,8.223-6.786,17.423-11.342,27.59-14.226,7.298-2.07,14.767-1.896,22.126-1.226,11.797,1.075,22.736,5.126,32.275,12.208,5.796,4.303,10.886,9.491,15.01,15.51.793,1.158,1.482,2.39,2.288,3.538,1.407,2.004,2.167,2.283,4.6,1.334,6.168-2.408,12.304-4.9,18.448-7.368,4.469-1.795,8.929-3.612,13.399-5.403.93-.373,1.875-.723,2.836-1.003,2.406-.7,3.362-.338,4.36,1.832.837,1.821,1.633,3.68,2.219,5.592.81,2.644.141,4.224-2.247,5.512-1.406.759-2.92,1.325-4.408,1.923-8.564,3.445-17.138,6.865-25.699,10.314-1.673.674-3.334,1.388-4.95,2.186-.967.477-1.425,1.408-1.36,2.487.049.796.219,1.589.388,2.371,2.929,13.577,1.506,26.751-3.885,39.481-5.239,12.369-13.643,22.063-25.003,29.284-7.043,4.476-14.604,7.502-22.734,9.208-1.373.288-2.744.737-4.128.794-3.004.122-6.017.038-9.026.038ZM222.029,117.216c8.773.338,16.625-2.524,24.111-6.647,10.522-5.795,18.569-13.886,23.161-25.168,2.14-5.256,2.964-10.769,3.87-16.334.705-4.326.233-8.378-.64-12.498-.499-2.352-1.745-3.218-3.898-2.41-5.818,2.183-11.601,4.475-17.312,6.924-2.38,1.02-2.768,2.058-2.18,4.921.616,3,.913,5.947.066,8.927-2.782,9.796-8.768,16.673-18.676,19.485-9.407,2.67-17.872.714-24.864-6.403-1.12-1.14-2.102-2.424-3.086-3.69-1.419-1.826-3.202-2.366-5.325-1.523-5.781,2.295-11.566,4.583-17.3,6.991-2.066.868-2.391,2.308-1.166,4.443,1.399,2.44,3.023,4.724,4.976,6.776,10.426,10.954,23.51,15.564,38.262,16.206ZM112.363,160.787c3.198-.193,6.495.05,9.575-.654,14.39-3.29,26.407-10.076,34.412-23.144,6.453-10.535,8.842-21.792,7.759-33.937-.087-.979-.394-1.967-.759-2.887-.661-1.666-2.092-2.335-3.906-1.922-.583.133-1.156.333-1.712.556-4.836,1.942-9.692,3.839-14.493,5.865-3.99,1.684-4.452,2.29-3.671,6.299,2.424,12.438-7.497,23.915-16.402,27.176-3.384,1.239-6.92,2.205-10.596,1.713-8.241-1.102-15.619-3.752-19.92-11.636-.096-.175-.222-.334-.328-.504-.728-1.172-1.805-1.669-3.074-1.17-5.969,2.343-11.945,4.677-17.848,7.178-2.258.957-2.766,2.903-1.413,4.961,2.651,4.033,5.676,7.751,9.537,10.741,9.672,7.493,20.401,11.831,32.839,11.365Z" fill="#4e0000" stroke-width="0"/>
        <path d="M385.277,377.428c8.041-.544,15.528,1.376,22.634,5.021.712.365,1.44.734,2.203.956,1.097.319,2.005.023,2.26-1.23.479-2.358.928-4.722,1.352-7.091,1.369-7.635,4.377-14.462,9.03-20.755,5.708-7.719,13.067-13.194,21.933-16.188,15.814-5.341,31.186-4.378,45.456,5.179,2.187,1.465,4.111,3.198,5.955,5.047,1.558,1.563,3.106,3.136,4.682,4.681,1.279,1.254,2.798,1.574,4.42.818,1.633-.761,3.225-1.618,4.8-2.495,5.079-2.831,10.135-5.705,15.218-8.529,1.225-.681,2.493-1.303,3.792-1.825,1.545-.621,2.74-.269,3.627,1.17,3.689,5.987,3.239,6.804-2.183,9.9-5.398,3.082-10.914,5.956-16.378,8.921-1.41.765-2.855,1.474-4.221,2.311-1.338.82-1.81,2.059-1.418,3.623.634,2.526,1.331,5.042,1.828,7.597,3.203,16.437-1.8,30.478-12.752,42.655-8.791,9.775-20.292,14.181-32.999,15.508-7.699.804-15.132-1.154-22.243-4.164-1.66-.703-3.26-1.555-4.944-2.19-1.534-.578-2.72.223-3.009,1.93-.167.986-.155,2.001-.294,2.993-3.145,22.464-19.528,38.717-40.73,42.74-16.53,3.136-30.412-1.911-42.523-12.978-1.479-1.352-2.875-2.803-4.231-4.28-1.612-1.755-3.363-1.924-5.391-.798-5.785,3.213-11.583,6.402-17.383,9.587-1.756.964-3.487,1.998-5.32,2.793-2.042.886-3.275.365-4.577-1.581-3.142-4.7-2.8-6.285,2.095-8.982,5.445-3,10.929-5.93,16.394-8.893,1.234-.669,2.479-1.32,3.687-2.034,1.94-1.147,2.752-2.715,2.148-5.052-.701-2.712-1-5.531-1.742-8.229-1.719-6.243-.704-12.394.715-18.437,2.003-8.531,5.978-16,12.211-22.402,7.232-7.43,15.591-12.466,25.727-14.648,3.385-.729,6.781-.574,10.173-.647ZM423.477,425.891c-.181-3.257.079-6.485-1.166-9.556-.952-2.349-2.344-3.077-4.741-2.098-3.343,1.365-6.467,3.16-9.513,5.112-2.098,1.345-2.917,3.156-2.807,5.562.082,1.8-.014,3.609.073,5.408.497,10.287-10.55,19.501-21.775,17.912-4.5-.637-8.449-2.475-11.448-6.002-1.243-1.462-2.606-1.685-4.254-.833-2.135,1.104-4.331,2.1-6.413,3.295-7.803,4.479-8.514,5.178-1.053,11.04,12.609,9.906,26.826,11.55,41.249,4.681,14.245-6.784,21.413-18.703,21.848-34.522ZM500.492,383.848c-.089-2.994.201-6.015-.761-8.941-1.025-3.12-2.496-3.999-5.396-2.657-3.079,1.425-5.995,3.204-8.974,4.843-2.202,1.211-3.094,2.914-2.355,5.486,1.624,5.652-.318,10.585-3.137,15.408-3.158,5.403-13.896,9.95-20.103,7.574-3.603-1.379-7.052-2.832-9.793-5.623-1.442-1.468-3.072-1.79-4.896-.764-3.837,2.158-7.699,4.276-11.485,6.519-1.393.825-1.509,2.294-.45,3.622.746.936,1.567,1.828,2.448,2.639,9.53,8.766,21.022,11.922,33.404,9.615,19.052-3.551,32.015-19.622,31.496-37.72Z" fill="#4e0000" stroke-width="0"/>
        <path d="M728.402,182.622c-11.494.212-22.285-4.396-31.509-12.956-1.322-1.227-2.547-2.562-3.913-3.735-.7-.601-1.552-.394-1.981.45-.726,1.429-1.328,2.92-2.005,4.375-14.616,31.371-59.093,38.076-82.449,8.07-2.733-3.511-4.605-7.502-6.284-11.607-1.249-3.052-1.707-3.234-5.073-2.63-6.908,1.24-13.803,2.554-20.711,3.8-1.772.32-3.562.584-5.356.712-1.063.076-1.978-.476-2.208-1.62-1.719-8.568-2.775-7.546,5.731-9.206,6.888-1.345,13.815-2.492,20.713-3.785,3.349-.628,3.4-.794,3.676-4.344.186-2.397.429-4.791.694-7.182,2.18-19.619,20.969-40.238,46.212-40.431,14.008-.107,25.916,4.44,35.839,14.287.85.843,1.735,1.658,2.659,2.418.558.458,1.136.135,1.575-.283.28-.267.479-.64.653-.995.53-1.081,1.015-2.184,1.546-3.264,10.398-21.178,28.637-28.728,48.076-27.348,16.492,1.171,28.996,9.736,37.51,23.959.924,1.544,1.665,3.202,2.419,4.841q2.336,5.083,8.082,4.007c7.1-1.31,14.205-2.588,21.31-3.873.592-.107,1.189-.193,1.788-.246,1.847-.165,2.725.357,3.101,2.039.35,1.564.58,3.159.784,4.75.286,2.242-.014,2.799-2.399,3.265-7.478,1.462-14.98,2.804-22.473,4.189-.394.073-.797.102-1.191.176-4.759.898-4.902.915-5.029,5.73-.234,8.861-2.774,16.956-7.529,24.413-9.15,14.351-23.237,21.929-42.258,22.024ZM643.577,187.959c18.384-.043,32.911-10.518,38.001-26.386,1.106-3.449,1.858-6.992,1.604-10.653-.078-1.13-.865-1.955-1.993-1.776-4.754.752-9.493,1.608-14.227,2.481-1.569.29-2.402,1.336-2.492,2.949-.033.601-.085,1.202-.134,1.802-.961,11.719-13.962,18.813-23.97,15.338-5.391-1.872-9.69-4.673-11.868-10.211-.903-2.296-1.381-2.554-3.585-2.191-4.551.751-9.078,1.655-13.6,2.564-.877.176-1.341.99-1.061,1.839.501,1.515,1.016,3.067,1.813,4.436,7.363,12.647,18.466,19.112,31.513,19.808ZM727.704,172.563c20.069.056,35.416-12.315,39.3-29.935.476-2.16.922-4.311.764-6.538-.101-1.422-.887-2.227-2.339-2.118-4.804.36-9.495,1.391-14.157,2.561-.882.221-1.293.904-1.412,1.735-.113.789-.154,1.594-.16,2.392-.049,6.67-6.775,13.888-13.742,15.791-7.588,2.072-15.916-.746-20.307-6.969-.69-.977-1.344-2.014-1.801-3.112-1.242-2.98-2.513-2.915-5.284-2.425-3.153.558-6.287,1.222-9.43,1.834-.982.191-1.98.314-2.948.559-1.15.291-1.667,1.117-1.317,2.243.354,1.141.815,2.268,1.378,3.322,7.165,13.426,18.703,19.765,31.457,20.661Z" fill="#350100" stroke-width="0"/>
        <path d="M653.951,780.383c-2.238,1.892-3.896,3.297-5.558,4.697-6.556,5.523-13.834,9.69-22.386,11.063-30.134,4.838-54.999-16.311-56.853-44.099-.155-2.32.858-5.02-.983-6.886-1.594-1.616-4.139-1.322-6.271-1.791-6.657-1.466-13.342-2.808-20.014-4.205-.782-.164-1.579-.308-2.326-.579-.825-.299-1.324-1.032-1.207-1.863.309-2.182.705-4.356,1.174-6.509.303-1.39,1.1-1.787,2.735-1.447,7.656,1.591,15.305,3.214,22.96,4.812,1.176.246,2.366.428,3.55.633,1.595.276,2.716-.325,3.376-1.813.406-.917.899-1.797,1.267-2.727,7.141-18.038,31.499-34.59,58.942-24.891,12.591,4.45,21.597,12.771,27.368,24.719.697,1.443,1.264,2.949,1.944,4.401.733,1.566,1.437,1.735,2.735.633,1.682-1.428,3.269-2.968,4.977-4.363,7.822-6.385,16.615-10.54,26.836-10.886,29.139-.986,47.046,18.26,50.805,40.12.506,2.944.345,5.999.535,9.001.147,2.323.397,2.762,2.731,3.276,7.244,1.597,14.495,3.179,21.778,4.583,8.269,1.594,6.335,1.761,5.374,8.072-.422,2.771-1.248,3.212-4.228,2.617-6.292-1.255-12.569-2.582-18.852-3.883-.589-.122-1.167-.311-1.76-.398-7.464-1.094-6.318-2.513-9.749,4.958-8.016,17.456-30.294,32.114-56.266,24.322-13.219-3.966-22.861-12.154-29.155-24.368-1.098-2.131-2.091-4.315-3.481-7.195ZM702.135,803.872c10.894-.453,21.301-5.559,28.752-16.166,1.368-1.948,2.356-4.181,3.369-6.353.634-1.361.115-2.311-1.421-2.653-4.302-.959-8.634-1.788-12.941-2.729-1.685-.368-2.727.273-3.278,1.802-1.127,3.125-3.081,5.579-5.788,7.488-11.347,7.999-28.525,1.192-29.745-13.053-.051-.599-.074-1.202-.083-1.803-.025-1.663-.961-2.591-2.484-2.935-3.126-.706-6.258-1.39-9.402-2.01-6.076-1.199-6.602-2.384-6.103,5.671.074,1.195.261,2.397.535,3.564,4.016,17.122,19.017,29.048,38.589,29.18ZM617.88,786.829c13.435-.826,24.282-6.967,31.555-19.11.308-.514.548-1.07.8-1.616,1.562-3.387,1.192-4.276-2.285-5.057-2.931-.658-5.918-1.08-8.831-1.804-5-1.242-5.238-1.001-7.464,3.33-3.86,7.51-13.403,9.983-19.581,8.552-7.563-1.751-14.303-8.491-15.006-16.144-.405-4.407-.514-4.402-4.607-5.318-2.736-.612-5.475-1.216-8.218-1.797-.782-.166-1.58-.274-2.376-.346-1.465-.133-2.315.577-2.385,1.984-.03.598.015,1.2.044,1.8.955,19.659,17.81,35.506,38.354,35.527Z" fill="#810100" stroke-width="0"/>
        <path d="M423.684,195.075c-2.018.458-3.338,2.076-4.912,3.259-3.075,2.31-6.399,4.171-9.973,5.525-19.266,7.297-42.606-4.459-47.507-24.702-.668-2.759-.776-5.551-.912-8.358-.24-4.956-.399-5.166-5.35-6.416-3.694-.933-7.417-1.753-11.129-2.616-.976-.227-1.969-.389-2.938-.644-4.074-1.071-4.6-2.131-3.149-5.917.607-1.582,1.75-2.154,3.285-1.981,1.589.179,3.172.471,4.735.819,4.111.916,8.212,1.879,12.312,2.844,2.459.579,4.26-.064,5.468-2.447.995-1.961,2.167-3.852,3.433-5.651,6.564-9.329,15.701-14.11,26.97-14.783,11.675-.698,21.718,2.946,29.677,11.76,2.171,2.405,3.869,5.113,5.321,7.992.722,1.432,1.372,2.907,2.19,4.282.566.951,1.522,1.349,2.543.648,1.154-.793,2.237-1.692,3.334-2.566,16.083-12.817,39.456-9.365,51.948,6.95,4.143,5.41,6.375,11.611,6.642,18.401.31,7.902.08,7.215,8.08,9.126,4.291,1.025,8.607,1.953,12.878,3.053,2.069.533,2.517,1.462,2.135,3.584-.142.788-.317,1.579-.577,2.334-.453,1.316-1.476,1.9-2.808,1.722-1.386-.185-2.754-.524-4.122-.83-4.502-1.008-8.988-2.086-13.503-3.029-3.258-.68-3.434-.529-5.194,2.533-.699,1.217-1.333,2.475-2.075,3.665-11.952,19.165-40.887,24.371-58.896,4.12-2.29-2.575-3.832-5.622-5.33-8.698-.679-1.396-.89-3.124-2.575-3.977ZM397.067,198.121c8.272-.05,15.114-3.378,20.84-9.185,1.695-1.719,3.077-3.692,3.933-5.98.571-1.526.062-2.879-1.491-3.355-2.482-.761-5.017-1.356-7.544-1.96-1.976-.472-3.465.147-4.559,1.969-.711,1.185-1.645,2.286-2.659,3.232-7.011,6.548-18.969,4.116-22.698-4.675-.683-1.611-.736-3.499-1.02-5.269-.204-1.266-.642-2.387-1.978-2.715-3.103-.762-6.217-1.488-9.354-2.088-1.104-.211-1.927.533-2.094,1.659-.144.977-.19,1.999-.08,2.978,1.662,14.706,13.856,25.474,28.703,25.388ZM459.137,212.585c9.695-.019,18.437-4.355,23.772-11.856.805-1.132,1.478-2.376,2.074-3.633.629-1.328.188-2.453-1.192-2.851-2.689-.774-5.415-1.422-8.138-2.073-1.779-.425-3.097.202-3.99,1.84-.475.872-1.047,1.717-1.703,2.461-5.149,5.842-14.094,6.414-20.017,1.341-3.051-2.613-4.761-5.875-4.977-9.895-.098-1.829-.949-2.97-2.785-3.382-2.733-.614-5.438-1.357-8.182-1.912-1.977-.399-2.925.572-2.894,2.707.213,14.795,13.058,27.282,28.032,27.252Z" fill="#cc9400" stroke-width="0"/>
        <path d="M446.976,602.915c5.616.147,13.696,3.279,20.351,9.659,4.045,3.878,4.637,3.76,7.165-1.085,4.59-8.797,11.532-15.001,21.306-17.277,18.418-4.29,34.177,1.496,43.331,19.422.182.357.309.742.487,1.102,1.726,3.482,2.398,3.88,6.075,3.293,5.15-.823,10.292-1.703,15.435-2.57,1.43-.241,2.95-.442,3.73,1.072.852,1.652,1.002,3.486.103,5.212-.5.961-1.516,1.252-2.521,1.427-4.546.791-9.094,1.575-13.642,2.353-.593.102-1.2.124-1.791.236-3.552.674-3.954,1.097-4.494,4.551-.278,1.782-.538,3.57-.894,5.337-5.381,26.734-37.787,37.801-59.186,19.57-1.068-.91-2.034-1.944-3.114-2.838-1.165-.963-2.283-.815-3.05.415-.848,1.361-1.566,2.802-2.37,4.191-4.879,8.426-11.92,14.285-21.498,16.128-16.365,3.149-27.387.188-38.642-13.215-2.082-2.479-3.198-5.552-4.602-8.441-1.235-2.54-1.981-2.959-4.74-2.561-4.962.716-9.91,1.533-14.864,2.305-.793.124-1.586.28-2.385.334-2.03.138-3.018-.62-3.392-2.545-.076-.393-.135-.793-.159-1.192-.143-2.346.554-3.399,2.835-3.82,4.735-.873,9.489-1.642,14.236-2.445.791-.134,1.594-.2,2.384-.34,2.011-.357,3.188-1.5,3.462-3.584.21-1.591.624-3.156.814-4.748,1.749-14.657,15.001-30.007,39.633-29.948ZM440.158,666.7c9.886-.017,16.207-2.314,21.546-6.936,5.352-4.634,8.406-10.643,9.409-17.648.365-2.552-.868-3.765-3.421-3.516-1.793.175-3.577.453-5.362.701-3.052.423-4.842,1.746-5.573,5.157-1.369,6.381-5.992,10.106-12.251,10.734-5.65.567-10.741-1.577-13.59-6.957-1.53-2.888-3.655-3.399-6.483-2.783-1.566.341-3.156.581-4.705.985-2.12.553-2.934,2.041-2.161,4.113.485,1.299,1.135,2.576,1.929,3.712,5.684,8.132,13.602,12.107,20.66,12.437ZM506.046,656.565c12.682-.722,22.756-7.057,27.307-19.898.68-1.919.972-3.879.708-5.907-.202-1.554-1.26-2.568-2.876-2.388-2.58.288-5.142.759-7.702,1.21-1.316.232-2.088,1.106-2.339,2.411-.151.786-.172,1.604-.388,2.369-1.632,5.775-5.527,9.292-11.309,10.342-5.823,1.057-11.04-.847-14.037-5.938-2.023-3.437-4.15-4.392-7.694-3.462-1.542.405-3.17.485-4.705.908-2.648.73-3.284,2.034-2.051,4.45,5.219,10.227,13.82,15.183,25.084,15.903Z" fill="#e6c900" stroke-width="0"/>
        <path d="M8.744,776.158c2.585.315,5.186.541,7.753.966,4.377.723,5.206-.174,6.477-3.461,1.613-4.172,4.041-7.789,7.335-10.888,8.642-8.129,21.696-10.209,33.012-4.535,4.727,2.37,8.794,5.615,11.445,10.359.488.874,1.013,1.739,1.626,2.527.543.697,1.361.943,2.09.331.918-.771,1.7-1.701,2.576-2.525,12.991-12.205,29.022-9.438,39.611-1.332,4.261,3.262,6.813,7.841,8.456,12.91.371,1.143.662,2.32.893,3.5,1.082,5.533.788,5.206,6.391,6.219,2.163.391,4.388.424,6.574.71,1.579.207,3.18.428,4.696.889,1.429.435,2.024,1.846,1.754,3.421-.253,1.477-1.382,2.591-2.929,2.471-4.194-.327-8.375-.826-12.565-1.216-3.319-.309-3.448-.208-4.951,2.988-.598,1.271-1.125,2.58-1.79,3.814-6.032,11.194-18.447,17.098-30.978,14.723-7.852-1.488-14.232-5.27-18.617-12.112-.541-.845-1.107-1.679-1.726-2.466-1.155-1.469-2.217-1.65-3.574-.561-.936.751-1.803,1.595-2.66,2.439-13.86,13.646-42.399,8.244-47.835-14.741-.185-.781-.453-1.55-.56-2.342-.5-3.694-1.14-4.493-5.501-4.812-3.595-.263-7.175-.782-10.745-1.302-2.299-.335-3.221-1.699-2.789-3.765.342-1.638,1.297-2.482,2.92-2.42,1.2.046,2.395.241,3.592.37.007-.054.013-.107.019-.161ZM51.191,806.454c7.172-.372,13.615-4.229,18.279-11.126.651-.962.941-2.19,1.286-3.329.258-.852-.119-1.731-.886-2.009-2.444-.885-4.951-1.658-7.607-1.201-2.04.351-2.665,2.259-3.777,3.622-.253.31-.519.61-.756.932-4.278,5.807-14.76,4.631-18.322-2.084-.466-.879-.816-1.827-1.141-2.771-.666-1.93-2.137-2.882-4.016-3.16-1.568-.232-3.177-.3-4.763-.262-1.278.031-2.111,1.225-1.957,2.513.047.396.133.789.222,1.178,2.326,10.176,11.796,17.723,23.438,17.697ZM101.673,811.488c9.284.011,16.898-4.541,20.411-12.234.329-.721.605-1.495.727-2.273.134-.852-.269-1.642-1.087-1.929-2.316-.811-4.721-.765-7.119-.465-1.844.231-2.436,1.926-3.466,3.105-.527.603-1.043,1.223-1.627,1.767-5.741,5.349-14.112,3.954-17.766-2.979-.558-1.058-.902-2.227-1.38-3.33-.421-.97-1.161-1.683-2.18-1.909-2.36-.524-4.754-.708-7.151-.246-.896.172-1.361.877-1.392,1.714-.029.786.122,1.597.303,2.371,2.462,10.543,13.097,17.215,21.727,16.407Z" fill="#e6c900" stroke-width="0"/>
        <path d="M71.194,344.538c1.868-1.391,3.76-2.838,5.69-4.231,13.2-9.534,32.696-4.307,39.698,10.02,1.705,3.489,2.619,7.17,2.88,10.999.183,2.678.95,3.336,3.659,3.888,3.735.76,7.499,1.388,11.22,2.213,2.119.47,2.581,1.376,2.219,3.49-.31,1.814-1.112,2.519-2.832,2.303-1.791-.225-3.571-.553-5.349-.867-1.186-.21-2.354-.525-3.543-.709-6.449-.996-6.095-1.093-9.066,4.026-6.891,11.873-19.538,16.606-32.64,12.476-4.931-1.555-8.986-4.424-12.138-8.512-1.099-1.425-2.124-2.941-2.954-4.534-1.953-3.752-2.299-4.305-5.952-.888-.438.41-.934.761-1.418,1.119-11.426,8.434-27.688,6.662-37.043-4.032-2.564-2.931-4.299-6.31-5.178-10.081-.545-2.337-.875-4.732-1.178-7.117-.204-1.608-.965-2.597-2.537-2.919-2.359-.484-4.726-.933-7.089-1.398-1.772-.349-3.558-.639-5.312-1.064-2.26-.547-2.718-1.564-2.047-4.009.377-1.374,1.218-2.088,2.616-1.851,3.759.639,7.513,1.308,11.251,2.057,2.669.535,4.774.116,5.809-2.746.202-.558.579-1.054.881-1.575,6.266-10.79,15.836-14.973,27.936-13.611,8.298.934,14.56,5.316,19.038,12.336,1.063,1.666,1.496,3.733,3.379,5.219ZM92.168,383.586c6.364-.041,11.695-2.458,15.898-7.199,1.552-1.751,3.942-3.785,2.849-6.166-1.034-2.252-4.16-1.756-6.441-2.233-.193-.04-.403-.05-.599-.027-.802.095-1.578.247-2.067,1.002-.435.672-.841,1.369-1.333,1.998-5.176,6.631-16.34,5.26-18.643-3.331-.871-3.25-2.277-4.865-5.569-4.954-.989-.027-1.965-.392-2.957-.472-1.205-.098-1.868.666-1.976,1.761-.221,2.234.265,4.366,1.097,6.448,3.205,8.022,10.912,13.178,19.74,13.174ZM45.47,374.842c7.529-.726,14.097-4.218,18.007-11.895.68-1.335.235-2.396-1.083-2.846-.565-.193-1.145-.351-1.727-.483-3.4-.771-6.767-1.419-8.522,2.81-5.562,6.12-15.048,4.477-18.155-3.158-.299-.736-.562-1.518-.652-2.3-.188-1.623-1.051-2.542-2.618-2.809-1.767-.301-3.534-.664-5.316-.783-1.109-.074-1.862.722-1.89,1.865-.024.988.045,2.013.288,2.966,2.226,8.725,8.925,16.129,21.668,16.632Z" fill="#9b2b00" stroke-width="0"/>
        <path d="M695.407,560.559c1.651-.833,2.364-2.595,3.431-3.995,8.685-11.396,29.157-9.66,35.305,4.064,2.488,5.553,2.057,5.081,8.65,4.622,1.599-.111,3.185-.403,4.783-.516,1.741-.124,2.654.655,2.88,2.299.178,1.296-.409,2.026-2.146,2.264-2.978.408-5.971.712-8.962,1.017-1.587.161-2.574.874-2.873,2.521-.214,1.18-.588,2.331-.892,3.494-3.94,15.06-23.034,18.61-32.705,11.059-1.82-1.421-3.046-3.751-5.656-4.096-1.415,1.677-2.814,3.368-4.248,5.029-8.314,9.624-26.342,8.057-33-2.814-.314-.513-.774-.993-.909-1.55-1.347-5.565-5.097-6.4-10.01-5.316-1.545.341-3.194.248-4.797.272-1.214.018-1.731-.719-1.824-1.892-.087-1.098.13-2.174,1.216-2.448,1.539-.389,3.165-.439,4.755-.615.597-.066,1.201-.077,1.801-.12,5.745-.413,5.683-.554,6.816-5.574,3.096-13.713,18.163-18.062,27.341-14.736,3.07,1.113,5.732,2.829,8.117,5.037.846.783,1.462,1.942,2.928,1.995ZM677.323,589.907c7.101.032,11.831-3.161,14.985-8.853.946-1.708,2.31-3.842.919-5.515-1.377-1.655-3.759-.598-5.679-.293-1.718.273-1.674,2.036-2.299,3.211-2.353,4.421-6.001,6.003-10.42,4.509-1.974-.667-3.607-1.807-4.514-3.7-.941-1.965-2.42-2.493-4.414-2.082-.195.04-.397.04-.596.06-3.501.35-4.124,1.566-2.15,4.622,3.407,5.273,8.414,7.752,14.169,8.04ZM715.183,586.529c7.635.102,14.429-5.193,16.192-12.62.405-1.703-.329-2.52-2.193-2.602-3.057-.134-4.874.761-6.269,4.012-2.346,5.466-9.401,6.211-13.518,1.951-.549-.568-1.047-1.228-1.403-1.93-.752-1.481-1.981-1.844-3.485-1.719-.994.083-1.993.133-2.981.268-1.474.201-1.936,1.112-1.368,2.586,2.266,5.876,8.377,9.966,15.024,10.054Z" fill="#350100" stroke-width="0"/>
        <path d="M268.298,252.253c1.384-1.096,1.418-2.593,1.869-3.891,4.353-12.517,18.674-13.698,25.47-7.347.44.411.925.776,1.336,1.213,1.344,1.432,2.756,1.239,4.336.376,1.755-.959,3.565-1.83,5.405-2.613.776-.33,1.568-.055,1.983.819.404.851.191,1.657-.526,2.114-1.858,1.183-3.796,2.24-5.693,3.361-1.138.672-1.686,1.668-1.525,3.002.096.796.243,1.586.347,2.382,1.273,9.691-8.13,19.957-19.875,17.179-.972-.23-1.906-.62-2.87-.892-1.088-.306-1.962-.088-2.36,1.114-.378,1.143-.708,2.306-1.156,3.422-3.956,9.869-15.978,13.338-24.517,7.071-.805-.591-1.543-1.287-2.244-2.001-1.196-1.22-2.422-1.068-3.8-.326-1.763.95-3.571,1.82-5.384,2.673-.814.383-1.57.082-2.152-.541-.612-.654-.285-1.967.638-2.571.669-.439,1.349-.895,2.085-1.193,3.752-1.52,6.156-3.746,4.521-8.216-.313-10.322,8.873-18.28,19.052-16.451,1.75.314,3.452.891,5.059,1.316ZM259.893,278.886c7.615.109,13.367-6.097,12.595-13.589-.179-1.74-1.306-2.212-2.99-1.451-1.876.848-2.4,2.236-2.716,4.217-.808,5.069-4.437,7.031-9.177,5.262-.55-.205-.985-.71-1.531-.937-1.507-.627-3.778.215-4.619,1.645-.379.644-.044,1.198.333,1.63,2.14,2.456,5.004,3.152,8.105,3.223ZM284.943,265.532c7.232-.025,12.728-5.519,12.765-12.589.005-.99-.069-2.09-1.021-2.664-1.287-.776-2.223.331-3.238.846-.764.388-1.12,1.119-1.252,1.933-.096.589-.041,1.206-.159,1.789-1.02,5.029-4.563,6.847-9.324,4.782-.545-.236-1-.688-1.55-.904-1.375-.54-4.005.53-4.504,1.972-.51,1.471.851,2.09,1.747,2.769,1.979,1.499,4.265,2.142,6.536,2.067Z" fill="#350100" stroke-width="0"/>
        <path d="M235.627,712.577c-1.958.462-4.595-1.865-6.476-.309-1.489,1.232-1.705,3.921-2.695,5.856-3.355,6.555-12.25,9.671-19.178,6.776-.919-.384-1.981-.731-2.622-1.423-3.152-3.401-6.283-2.637-9.562-.262-.621.45-1.466.742-2.228.79-.456.029-1.046-.475-1.405-.888-.447-.513-.293-1.27.17-1.626,1.418-1.091,2.906-2.096,4.412-3.066,1.477-.951,2.265-2.197,2.104-3.998-.089-.997-.037-2.008-.157-2.999-1.03-8.505,8.215-17.389,17.808-15.436.784.16,1.552.413,2.341.534,1.897.29,2.589-.065,3.303-1.739.392-.918.603-1.913.992-2.833,3.707-8.755,13.863-12.099,22.067-7.273.689.405,1.388.83,1.974,1.365,1.937,1.769,3.897,1.613,6.044.367,1.368-.794,2.847-1.427,4.34-1.95.352-.123,1.073.39,1.424.787.419.474.407,1.283-.08,1.64-1.602,1.175-3.272,2.265-4.966,3.305-1.544.948-2.257,2.199-1.857,4.016.129.586.244,1.182.286,1.779.67,9.484-6.155,16.732-16.036,16.584ZM236.228,709.079c6.576.121,11.878-4.888,12.102-11.47.02-.581-.148-1.18-.301-1.751-.243-.907-1.473-1.488-2.411-1.181-.972.319-1.873.803-2.28,1.772-.302.718-.351,1.539-.542,2.306-1.191,4.795-3.43,6.132-8.274,4.919-.767-.192-1.491-.584-2.264-.719-1.026-.179-1.933.223-2.766.849-.832.626-1.017,1.877-.326,2.584,1.941,1.985,4.38,2.653,7.061,2.691ZM212.552,722.334c4.542.092,8.086-1.737,10.558-5.558,1.473-2.277,1.912-4.763,1.314-7.421-.275-1.222-1.618-1.728-2.82-1.101-.922.481-1.642,1.111-1.866,2.166-.207.971-.275,1.983-.584,2.918-1.012,3.072-3.162,4.463-6.374,4.101-.97-.109-1.899-.545-2.864-.753-.759-.164-1.575-.387-2.309-.259-.987.172-1.84.787-2.069,1.87-.182.86.314,1.529.918,2.069,1.737,1.551,3.862,1.939,6.098,1.969Z" fill="#cc9400" stroke-width="0"/>
        <path d="M809.015,634.048c-2.75.033-5.084-.955-6.97-2.938-1.23-1.293-2.623-1.624-4.351-1.202-1.346.329-2.759.588-4.135.556-4.125-.097-7.376-1.608-8.75-5.893-.3-.936-.655-1.93-1.255-2.681-2.373-2.972-2.301-3.324,1.336-5.455.855-.501,1.564-1.242,2.381-1.815,3.869-2.713,7.974-2.997,11.667-.074,2.467,1.953,4.714,2.243,7.702,1.788,5.937-.903,8.33.481,11.041,5.886.939,1.872,1.999,3.39,3.873,4.339.535.271.85.848.684,1.493-.165.642-.694.977-1.313,1.022-2.307.166-4.138,1.245-5.853,2.729-1.708,1.479-3.765,2.237-6.059,2.244Z" fill="#4e0000" stroke-width="0"/>
        <path d="M531.804,49.792c1.416-.635,2.288-1.1,3.209-1.426,5.609-1.984,10.258-.146,12.064,5.392.862,2.641,1.878,4.257,4.639,4.668.547.081,1.146.715.793,1.333-.204.357-1.031.667-1.445.546-2.446-.716-3.976.219-5.726,2.023-4.294,4.428-9.16,4.288-13.61-.31-1.519-1.57-2.56-1.981-4.546-.964-4.447,2.275-10.829.405-12.301-4.913-.793-2.867-2.261-4.459-5.009-5.153-.245-.062-.557-.603-.511-.864.048-.273.48-.66.762-.676.793-.044,1.601.039,2.394.141,1.322.17,2.339-.239,3.085-1.373.328-.499.733-.963,1.168-1.373,3.575-3.37,8.2-3.68,11.986-.626,1.21.976,2.063,2.396,3.047,3.575ZM538.87,63.189c1.986-.061,4.034-.62,5.123-2.9.14-.292.042-.811-.137-1.11-.173-.29-.602-.615-.902-.599-.558.03-1.125.247-1.651.471q-3.479,1.481-5.912-1.227c-.392-.436-.728-1.013-1.221-1.24-.465-.214-1.251-.26-1.622.005-.369.264-.663,1.084-.532,1.525.94,3.166,3.419,5.033,6.853,5.077ZM523.071,59.475c1.863.005,3.582-.368,4.75-1.989.329-.457.628-1.05.117-1.556-.239-.237-.815-.495-.996-.376-3.545,2.33-6.278,1.44-8.469-1.988-.083-.129-.782-.04-1.02.158-.245.202-.449.706-.374,1.003.786,3.086,2.839,4.685,5.992,4.749Z" fill="#810100" stroke-width="0"/>
        <path d="M338.577,799.998c-4.956,3.315-8.374,3.378-12.26-.632-1.921-1.983-3.221-2.067-5.639-1.141-4.891,1.874-9.403-.153-11.542-4.644q-2.025-4.251-5.43-6.344c-.164-.941.626-1.01,1.117-.952,2.335.277,4.275-.082,5.812-2.171,2.909-3.955,10.005-4.113,13.29-.07,1.763,2.17,3.293,1.93,5.701,1.124,5.291-1.771,9.789-.045,11.299,4.85,1.043,3.382,3.152,4.759,5.901,5.839-.34,1.793-1.551,1.38-2.377,1.181-2.072-.498-3.466.466-4.757,1.835l-1.333-1.283c-.937-2.037-1.05-2.25-2.776-1.333-2.491,1.323-4.509,1.303-6.138-1.173-.568-.864-1.132-1.688-2.304-1.369-.827.225-.731,1.998.128,3.167,1.807,2.46,4.146,3.61,7.203,2.829.952-.243,1.857-.67,2.783-1.013.44.434.881.867,1.321,1.301ZM322.487,793.376c-.185-.314-.299-.797-.569-.911-.79-.334-1.516-.007-2.229.419-2.553,1.524-4.566.92-6.074-1.603-.2-.334-.454-.69-.774-.882-.311-.186-.969-.349-1.075-.213-.325.42-.744,1.071-.624,1.486,1.473,5.069,7.059,6.474,10.892,2.768.255-.246.306-.703.452-1.064Z" fill="#9b2b00" stroke-width="0"/>
      </g>
      <g>
        <path d="M63.245,519.59c0-1.003-.102-2.017.016-3.006,1.356-11.383.685-9.426,9.452-6.221,4.327,1.582,8.575,3.382,12.836,5.14,2.542,1.049,2.664,1.777,2.033,4.141-3.553,13.313,7.574,25.929,17.771,29.017,10.136,3.07,20.875-.071,27.486-8.6,3.553-4.584,2.954-4.703,8.781-2.364,5.022,2.015,10.059,3.995,15.059,6.063,3.001,1.241,3.163,1.773,1.532,4.325-4.518,7.071-10.403,12.733-17.817,16.668-23.471,12.458-46.961,6.25-62.501-9.366-9.713-9.761-14.614-21.888-14.648-35.797Z" fill="#ff7900" stroke-width="0"/>
        <path d="M268.362,588.994c-3.06,7.763-12.752,16.743-23.237,21.408-13.184,5.866-26.49,5.322-39.833.598-21.727-7.691-38.688-35.091-31.049-59.283,1.198-.853,2.268-.074,3.323.341,5.963,2.35,11.928,4.699,17.855,7.138,2.075.854,2.382,1.533,2.229,3.694-.056.798-.199,1.591-.332,2.381-2.46,14.557,10.991,28.295,24.663,27.946,2.405-.061,4.792-.075,7.163-.641,6.305-1.506,11.487-4.491,14.835-10.311,1.745-3.033,1.962-3.015,5.276-1.733,5.418,2.096,10.798,4.291,16.196,6.44,1.121.446,2.282.822,2.91,2.024Z" fill="#ff7900" stroke-width="0"/>
        <path d="M796.717,349.107c-.134,14.342-5.175,25.789-14.227,35.656-19.839,21.627-52.292,20.744-70.72,4.591-5.118-4.486-5.183-4.803.193-8.541,4.446-3.092,8.888-6.192,13.383-9.213,2.207-1.483,2.662-1.394,4.809.22.641.481,1.266.991,1.846,1.543,10.07,9.588,31.111,7.423,38.837-8.513,3.395-7.004,4.697-14.091.767-21.328-1.107-2.04-1.017-3.126,1.047-4.553,5.28-3.65,10.542-7.326,15.867-10.909,2.089-1.406,3.034-1.062,4.134,1.378,2.939,6.519,3.825,13.457,4.064,19.669Z" fill="#ff7900" stroke-width="0"/>
        <path d="M645.023,467.949c-9.018.078-19.782-3.675-29.227-11.22-1.095-.875-2.164-1.796-3.153-2.787-2.071-2.074-2.046-3.058.372-4.777,4.904-3.487,9.858-6.905,14.85-10.266,2.602-1.752,2.933-1.724,5.154.429,2.184,2.117,4.439,4.161,7.333,5.14,10.08,3.41,19.605,2.2,27.585-4.97,7.833-7.038,10.395-16.14,7.178-26.28-1.967-6.2-1.527-5.953,3.155-9.206,3.954-2.746,7.907-5.495,11.91-8.17,3.899-2.605,4.592-2.363,6.405,2.182,2.254,5.649,3.611,11.561,3.448,17.613-.386,14.389-4.99,27.24-15.605,37.295-10.116,9.582-22.122,15.075-39.405,15.017Z" fill="#ff7900" stroke-width="0"/>
        <path d="M222.029,117.216c-14.752-.642-27.836-5.252-38.262-16.206-1.953-2.052-3.577-4.336-4.976-6.776-1.224-2.135-.9-3.576,1.166-4.443,5.734-2.408,11.519-4.696,17.3-6.991,2.123-.842,3.906-.303,5.325,1.523.984,1.266,1.966,2.549,3.086,3.69,6.992,7.117,15.458,9.073,24.864,6.403,9.908-2.812,15.894-9.689,18.676-19.485.847-2.981.55-5.927-.066-8.927-.588-2.863-.199-3.901,2.18-4.921,5.711-2.449,11.494-4.74,17.312-6.924,2.153-.808,3.4.057,3.898,2.41.873,4.12,1.345,8.173.64,12.498-.907,5.564-1.731,11.078-3.87,16.334-4.593,11.282-12.639,19.373-23.161,25.168-7.486,4.123-15.338,6.985-24.111,6.647Z" fill="#ff7900" stroke-width="0"/>
        <path d="M112.363,160.787c-12.438.466-23.167-3.872-32.839-11.365-3.861-2.991-6.886-6.709-9.537-10.741-1.352-2.058-.845-4.004,1.413-4.961,5.903-2.502,11.879-4.835,17.848-7.178,1.269-.498,2.346-.002,3.074,1.17.106.17.232.329.328.504,4.301,7.884,11.678,10.533,19.92,11.636,3.676.492,7.212-.473,10.596-1.713,8.905-3.262,18.826-14.739,16.402-27.176-.781-4.009-.319-4.615,3.671-6.299,4.801-2.026,9.657-3.923,14.493-5.865.556-.223,1.129-.423,1.712-.556,1.814-.413,3.245.255,3.906,1.922.365.92.672,1.908.759,2.887,1.082,12.145-1.306,23.402-7.759,33.937-8.005,13.068-20.022,19.854-34.412,23.144-3.081.704-6.378.461-9.575.654Z" fill="#ff7900" stroke-width="0"/>
        <path d="M423.477,425.891c-.435,15.819-7.602,27.738-21.848,34.522-14.423,6.869-28.64,5.226-41.249-4.681-7.461-5.862-6.751-6.561,1.053-11.04,2.082-1.195,4.278-2.192,6.413-3.295,1.648-.852,3.011-.629,4.254.833,2.999,3.527,6.948,5.366,11.448,6.002,11.226,1.588,22.273-7.625,21.775-17.912-.087-1.8.009-3.608-.073-5.408-.11-2.406.709-4.217,2.807-5.562,3.046-1.953,6.17-3.747,9.513-5.112,2.397-.979,3.789-.251,4.741,2.098,1.245,3.071.985,6.299,1.166,9.556Z" fill="#ff7900" stroke-width="0"/>
        <path d="M500.492,383.848c.519,18.097-12.444,34.169-31.496,37.72-12.382,2.308-23.874-.848-33.404-9.615-.881-.81-1.702-1.702-2.448-2.639-1.058-1.328-.942-2.797.45-3.622,3.787-2.243,7.648-4.361,11.485-6.519,1.824-1.026,3.454-.703,4.896.764,2.742,2.791,6.19,4.244,9.793,5.623,6.207,2.376,16.945-2.172,20.103-7.574,2.819-4.823,4.76-9.757,3.137-15.408-.739-2.572.153-4.275,2.355-5.486,2.979-1.639,5.895-3.418,8.974-4.843,2.9-1.342,4.37-.462,5.396,2.657.962,2.926.671,5.947.761,8.941Z" fill="#ff7900" stroke-width="0"/>
        <path d="M643.577,187.959c-13.046-.696-24.15-7.161-31.513-19.808-.797-1.369-1.311-2.921-1.813-4.436-.28-.848.184-1.662,1.061-1.839,4.523-.909,9.049-1.814,13.6-2.564,2.204-.363,2.682-.105,3.585,2.191,2.178,5.538,6.477,8.339,11.868,10.211,10.008,3.475,23.009-3.619,23.97-15.338.049-.6.1-1.201.134-1.802.089-1.613.923-2.66,2.492-2.949,4.734-.874,9.473-1.729,14.227-2.481,1.128-.178,1.915.647,1.993,1.776.254,3.66-.498,7.203-1.604,10.653-5.089,15.869-19.617,26.344-38.001,26.386Z" fill="#ff7900" stroke-width="0"/>
        <path d="M727.704,172.563c-12.753-.896-24.292-7.235-31.457-20.661-.562-1.054-1.023-2.181-1.378-3.322-.35-1.126.168-1.952,1.317-2.243.968-.245,1.966-.368,2.948-.559,3.143-.612,6.277-1.277,9.43-1.834,2.771-.49,4.042-.555,5.284,2.425.458,1.098,1.112,2.136,1.801,3.112,4.391,6.223,12.719,9.042,20.307,6.969,6.967-1.903,13.693-9.12,13.742-15.791.006-.798.048-1.603.16-2.392.118-.831.53-1.514,1.412-1.735,4.662-1.17,9.353-2.201,14.157-2.561,1.451-.109,2.238.697,2.339,2.118.158,2.226-.288,4.378-.764,6.538-3.883,17.621-19.231,29.992-39.3,29.935Z" fill="#ff7900" stroke-width="0"/>
        <path d="M702.135,803.872c-19.572-.131-34.573-12.058-38.589-29.18-.274-1.166-.46-2.369-.535-3.564-.499-8.054.027-6.869,6.103-5.671,3.144.62,6.276,1.304,9.402,2.01,1.522.344,2.458,1.272,2.484,2.935.009.601.032,1.204.083,1.803,1.22,14.245,18.398,21.052,29.745,13.053,2.707-1.908,4.661-4.363,5.788-7.488.551-1.529,1.593-2.17,3.278-1.802,4.307.941,8.638,1.77,12.941,2.729,1.536.342,2.055,1.292,1.421,2.653-1.013,2.172-2.001,4.405-3.369,6.353-7.451,10.607-17.858,15.713-28.752,16.166Z" fill="#ff7900" stroke-width="0"/>
        <path d="M617.88,786.829c-20.544-.02-37.399-15.867-38.354-35.527-.029-.599-.074-1.202-.044-1.8.071-1.408.92-2.118,2.385-1.984.796.072,1.594.181,2.376.346,2.743.581,5.482,1.185,8.218,1.797,4.093.915,4.202.911,4.607,5.318.703,7.653,7.443,14.392,15.006,16.144,6.178,1.431,15.721-1.042,19.581-8.552,2.226-4.331,2.465-4.572,7.464-3.33,2.913.724,5.9,1.145,8.831,1.804,3.477.781,3.847,1.671,2.285,5.057-.252.546-.492,1.102-.8,1.616-7.274,12.144-18.121,18.284-31.555,19.11Z" fill="#ff7900" stroke-width="0"/>
        <path d="M397.067,198.121c-14.847.085-27.041-10.683-28.703-25.388-.111-.979-.065-2.001.08-2.978.166-1.126.99-1.87,2.094-1.659,3.137.6,6.252,1.326,9.354,2.088,1.336.328,1.774,1.45,1.978,2.715.285,1.77.337,3.657,1.02,5.269,3.729,8.791,15.687,11.222,22.698,4.675,1.013-.946,1.947-2.047,2.659-3.232,1.094-1.823,2.583-2.441,4.559-1.969,2.527.603,5.062,1.199,7.544,1.96,1.554.476,2.062,1.829,1.491,3.355-.857,2.288-2.238,4.261-3.933,5.98-5.726,5.808-12.569,9.136-20.84,9.185Z" fill="#ff7900" stroke-width="0"/>
        <path d="M459.137,212.585c-14.974.03-27.819-12.457-28.032-27.252-.031-2.135.917-3.107,2.894-2.707,2.744.554,5.449,1.298,8.182,1.912,1.837.412,2.687,1.554,2.785,3.382.216,4.02,1.926,7.282,4.977,9.895,5.923,5.072,14.868,4.501,20.017-1.341.656-.744,1.228-1.589,1.703-2.461.893-1.638,2.211-2.265,3.99-1.84,2.722.651,5.449,1.299,8.138,2.073,1.38.398,1.822,1.522,1.192,2.851-.596,1.257-1.269,2.501-2.074,3.633-5.334,7.501-14.077,11.836-23.772,11.856Z" fill="#ff7900" stroke-width="0"/>
        <path d="M440.158,666.7c-7.058-.33-14.976-4.305-20.66-12.437-.793-1.135-1.444-2.413-1.929-3.712-.773-2.072.041-3.561,2.161-4.113,1.549-.404,3.139-.644,4.705-.985,2.828-.616,4.953-.106,6.483,2.783,2.849,5.38,7.94,7.524,13.59,6.957,6.259-.628,10.882-4.353,12.251-10.734.732-3.412,2.521-4.734,5.573-5.157,1.786-.248,3.569-.526,5.362-.701,2.552-.249,3.786.964,3.421,3.516-1.003,7.005-4.058,13.015-9.409,17.648-5.339,4.623-11.66,6.919-21.546,6.936Z" fill="#ff7900" stroke-width="0"/>
        <path d="M506.045,656.565c-11.264-.72-19.865-5.677-25.084-15.903-1.233-2.416-.597-3.72,2.051-4.45,1.535-.423,3.163-.504,4.705-.908,3.544-.93,5.67.024,7.694,3.462,2.997,5.091,8.213,6.995,14.037,5.938,5.781-1.05,9.677-4.567,11.309-10.342.216-.765.236-1.584.388-2.369.251-1.305,1.023-2.179,2.339-2.411,2.56-.451,5.122-.922,7.702-1.21,1.616-.18,2.674.834,2.876,2.388.263,2.028-.028,3.988-.708,5.907-4.55,12.842-14.625,19.177-27.307,19.899Z" fill="#ff7900" stroke-width="0"/>
        <path d="M51.191,806.454c-11.642.026-21.112-7.521-23.438-17.697-.089-.39-.175-.782-.222-1.178-.153-1.288.679-2.482,1.957-2.513,1.586-.039,3.195.03,4.763.262,1.879.278,3.35,1.229,4.016,3.16.326.943.675,1.892,1.141,2.771,3.561,6.715,14.043,7.892,18.322,2.084.237-.322.503-.622.756-.932,1.113-1.363,1.738-3.27,3.777-3.622,2.657-.457,5.163.316,7.607,1.201.767.278,1.144,1.157.886,2.009-.345,1.139-.636,2.367-1.286,3.329-4.664,6.897-11.107,10.754-18.279,11.126Z" fill="#ff7900" stroke-width="0"/>
        <path d="M101.673,811.488c-8.629.808-19.265-5.864-21.727-16.407-.181-.774-.332-1.585-.303-2.371.03-.837.495-1.541,1.392-1.714,2.397-.461,4.792-.277,7.151.246,1.019.226,1.759.939,2.18,1.909.478,1.102.822,2.271,1.38,3.33,3.654,6.932,12.025,8.327,17.766,2.979.584-.544,1.1-1.165,1.627-1.767,1.03-1.179,1.622-2.874,3.466-3.105,2.397-.301,4.803-.346,7.119.465.819.287,1.222,1.077,1.087,1.929-.123.778-.398,1.552-.727,2.273-3.514,7.693-11.127,12.244-20.411,12.234Z" fill="#ff7900" stroke-width="0"/>
        <path d="M92.168,383.586c-8.828.004-16.535-5.152-19.74-13.174-.832-2.082-1.318-4.214-1.097-6.448.108-1.095.771-1.859,1.976-1.761.992.081,1.968.445,2.957.472,3.292.09,4.698,1.705,5.569,4.954,2.303,8.591,13.466,9.961,18.643,3.331.491-.629.898-1.326,1.333-1.998.488-.755,1.265-.907,2.067-1.002.196-.023.405-.014.599.027,2.282.477,5.407-.019,6.441,2.233,1.093,2.381-1.296,4.415-2.849,6.166-4.203,4.742-9.535,7.158-15.898,7.199Z" fill="#ff7900" stroke-width="0"/>
        <path d="M45.47,374.842c-12.743-.502-19.442-7.907-21.668-16.632-.243-.954-.312-1.979-.288-2.966.028-1.144.781-1.939,1.89-1.865,1.782.119,3.549.482,5.316.783,1.566.267,2.43,1.186,2.618,2.809.091.782.353,1.565.652,2.3,3.107,7.635,12.592,9.279,18.155,3.158,1.755-4.229,5.122-3.581,8.522-2.81.583.132,1.162.29,1.727.483,1.318.45,1.763,1.511,1.083,2.846-3.91,7.677-10.478,11.168-18.007,11.895Z" fill="#ff7900" stroke-width="0"/>
        <path d="M677.323,589.907c-5.755-.288-10.762-2.766-14.169-8.04-1.974-3.056-1.351-4.272,2.15-4.622.199-.02.402-.02.596-.06,1.994-.412,3.472.117,4.414,2.082.907,1.893,2.54,3.033,4.514,3.7,4.419,1.493,8.067-.089,10.42-4.509.626-1.175.581-2.938,2.299-3.211,1.92-.305,4.302-1.362,5.679.293,1.392,1.673.028,3.807-.919,5.515-3.154,5.692-7.884,8.886-14.985,8.853Z" fill="#ff7900" stroke-width="0"/>
        <path d="M715.183,586.529c-6.647-.089-12.758-4.179-15.024-10.054-.568-1.474-.106-2.384,1.368-2.586.987-.135,1.986-.185,2.981-.268,1.504-.125,2.733.238,3.485,1.719.356.702.854,1.362,1.403,1.93,4.117,4.259,11.172,3.515,13.518-1.951,1.395-3.251,3.212-4.146,6.269-4.012,1.864.082,2.598.898,2.193,2.602-1.763,7.426-8.557,12.721-16.192,12.62Z" fill="#ff7900" stroke-width="0"/>
        <path d="M259.893,278.888c-3.1-.073-5.964-.769-8.104-3.225-.377-.432-.711-.986-.333-1.63.841-1.43,3.112-2.272,4.619-1.645.546.227.981.732,1.531.937,4.74,1.769,8.37-.193,9.177-5.262.315-1.98.839-3.368,2.716-4.217,1.684-.761,2.811-.289,2.99,1.451.771,7.492-4.98,13.698-12.596,13.59Z" fill="#ff7900" stroke-width="0"/>
        <path d="M284.943,265.532c-2.271.075-4.557-.568-6.536-2.067-.896-.679-2.256-1.297-1.747-2.769.499-1.442,3.129-2.512,4.504-1.972.55.216,1.005.667,1.55.904,4.76,2.065,8.304.247,9.324-4.782.118-.583.063-1.2.159-1.789.133-.814.488-1.545,1.252-1.933,1.015-.515,1.952-1.622,3.238-.846.953.574,1.026,1.674,1.021,2.664-.037,7.07-5.533,12.564-12.765,12.589Z" fill="#ff7900" stroke-width="0"/>
        <path d="M236.227,709.08c-2.68-.039-5.12-.707-7.061-2.691-.691-.707-.507-1.958.326-2.584.833-.626,1.74-1.029,2.766-.849.773.135,1.497.527,2.264.719,4.844,1.212,7.083-.125,8.274-4.919.191-.768.24-1.589.542-2.306.407-.969,1.308-1.453,2.28-1.772.937-.308,2.168.274,2.411,1.181.153.571.32,1.171.301,1.751-.224,6.582-5.526,11.591-12.103,11.471Z" fill="#ff7900" stroke-width="0"/>
        <path d="M212.551,722.334c-2.235-.029-4.36-.417-6.097-1.969-.604-.54-1.1-1.209-.918-2.069.229-1.083,1.082-1.698,2.069-1.87.734-.128,1.55.096,2.309.259.965.208,1.894.644,2.864.753,3.213.362,5.362-1.028,6.374-4.101.308-.935.377-1.947.584-2.918.224-1.055.944-1.684,1.866-2.166,1.202-.627,2.546-.121,2.82,1.101.597,2.658.159,5.145-1.314,7.421-2.472,3.821-6.016,5.65-10.559,5.557Z" fill="#ff7900" stroke-width="0"/>
        <path d="M538.87,63.189c-3.434-.044-5.914-1.911-6.853-5.077-.131-.441.163-1.261.532-1.525.37-.265,1.157-.219,1.622-.005.493.227.829.804,1.221,1.24q2.437,2.715,5.912,1.227c.527-.224,1.093-.441,1.651-.471.299-.016.729.31.902.599.179.3.276.818.137,1.11-1.09,2.281-3.138,2.84-5.123,2.9Z" fill="#ff7900" stroke-width="0"/>
        <path d="M523.07,59.473c-3.152-.062-5.205-1.661-5.992-4.747-.075-.296.13-.801.374-1.003.239-.197.938-.286,1.02-.158,2.191,3.427,4.924,4.317,8.469,1.988.181-.119.757.139.996.376.511.506.212,1.099-.117,1.556-1.168,1.621-2.887,1.994-4.751,1.987Z" fill="#ff7900" stroke-width="0"/>
        <path d="M322.487,793.376c-.146.36-.197.817-.452,1.063-3.833,3.707-9.42,2.301-10.892-2.768-.121-.415.299-1.066.624-1.486.106-.137.764.027,1.075.213.321.192.575.548.774.882,1.508,2.522,3.521,3.127,6.074,1.603.713-.426,1.439-.753,2.229-.419.27.114.384.597.568.912Z" fill="#ff7900" stroke-width="0"/>
        <path d="M338.36,797.59c-.368.369-.735.739-1.103,1.108-.927.342-1.832.769-2.783,1.012-3.057.781-5.396-.369-7.203-2.829-.858-1.169-.954-2.942-.128-3.167,1.171-.319,1.736.506,2.304,1.369,1.629,2.476,3.647,2.496,6.138,1.173,1.726-.917,1.839-.704,2.776,1.333Z" fill="#ff7900" stroke-width="0"/>
      </g>
    </g>
  </g>
</svg>