<?xml version="1.0" encoding="UTF-8"?>
<svg id="b" data-name="Layer 2" xmlns="http://www.w3.org/2000/svg" width="1046.299" height="820.809" viewBox="0 0 1046.299 820.809">
  <g id="c" data-name="Layer 1">
    <g>
      <path d="M1024.924,720.573c4.067-20.758,3.5-42.763-3.847-64.48-4.49-13.271-10.269-25.931-17.205-38.06-6.922-12.104-14.069-24.08-21.165-36.084-8.175-13.828-15.681-27.983-21.211-43.108-5.305-14.508-8.827-29.366-8.574-44.935.16-9.827,1.53-19.437,5.049-28.69,1.651-4.342,3.168-8.744,4.534-13.184,1.229-3.994,2.278-8.051,3.214-12.125,2.169-9.44.946-18.563-3.464-27.102-7.848-15.197-17.723-28.908-30.67-40.244-4.756-4.165-10.008-7.536-15.893-9.905-12.853-5.173-26.307-2.052-35.54,8.342-5.681,6.395-9.007,14.028-11.354,22.141-2.473,8.544-3.207,17.348-3.818,26.166-.531,7.651-1.19,15.277-2.398,22.868-2.028,12.747-7.551,23.797-15.39,33.891-5.557,7.156-12.683,10.658-21.734,10.245-7.696-.352-15.316.375-22.888,1.686-17.884,3.097-29.495,21.044-24.883,38.51,3.189,12.08,10.403,20.584,22.368,24.726,3.29,1.139,6.607,2.23,9.967,3.136,10.54,2.844,18.431,8.768,22.161,19.302,3.84,10.844,3.311,21.481-2.461,31.605-5.129,8.996-12.873,15.169-21.973,19.748-7.355,3.701-15.24,5.599-23.402,6.407-11.421,1.131-22.755.233-34-1.763-24.251-4.303-48.48-8.726-72.715-13.111-3.434-.621-6.867-1.069-10.376-1.129-7.07-.122-13.261,2.104-18.607,6.632-2.298,1.947-4.513,4.038-6.507,6.292-14.167,16.019-23.756,34.313-27.239,55.575-3.043,18.577-.306,36.1,9.617,52.303,9.024,14.735,21.819,24.554,38.434,29.229,8.446,2.377,17,2.123,25.507.026,7.496-1.847,14.601-4.732,21.319-8.477,7.711-4.299,15.297-8.825,22.902-13.312,5.611-3.311,11.319-6.428,17.295-9.028,6.427-2.796,13.073-4.825,20.077-5.543,9.81-1.006,18.933.932,27.303,6.256,8.138,5.176,12.996,12.484,14.304,22.044.724,5.292,1.448,10.602,1.764,15.928.969,16.328,9.41,27.662,22.985,35.987,10.565,6.478,22.035,9.947,34.217,10.87,22.172,1.68,44.1-.137,65.632-5.895,14.485-3.874,28.092-9.716,40.4-18.39,18.167-12.804,30.982-29.907,39.973-50.029,3.419-7.652,6.081-15.582,8.294-25.321Z" fill="#b46100" stroke-width="0"/>
      <path d="M30.143,445.995c10.906,5.692,22.644,7.174,34.568,7.357,26.004.397,50.689-5.588,74.402-15.982,27.956-12.255,52.575-29.552,75.378-49.665,13.274-11.708,25.184-24.769,37.741-37.188,4.962-4.908,10.053-9.647,15.964-13.454,7.339-4.728,15.272-7.816,23.849-9.363,5.26-.949,10.516-1.947,15.734-3.101,3.167-.701,6.314-1.587,9.377-2.655,15.7-5.476,22.989-17.334,24.463-33.202,1.039-11.189-3.517-20.393-11.336-28.128-5.669-5.608-12.466-9.661-19.23-13.744-7.555-4.561-15.228-8.937-21.801-14.938-4.56-4.163-7.993-9.064-9.812-14.981-2.611-8.497-1.112-16.541,3.015-24.218,5.755-10.709,14.673-17.897,25.69-22.551,6.206-2.622,12.597-4.766,19.239-6.132,9.106-1.872,18.194-3.844,27.251-5.936,8.945-2.066,17.153-5.778,24.349-11.582,3.679-2.967,6.481-6.559,8.564-10.838,2.824-5.803,2.961-11.583.821-17.574-2.64-7.388-7.32-13.428-12.496-19.137-6.643-7.327-14.541-13.217-23.427-17.278-11.937-5.455-24.459-8.921-37.892-6.12-4.128.86-8.071,2.128-11.91,3.838-5.955,2.651-12.015,4.978-18.502,6.059-7.295,1.215-14.385.311-21.306-1.973-7.574-2.499-13.351-7.349-17.582-14.104-2.488-3.971-4.249-8.257-5.785-12.655-2.222-6.364-4.321-12.775-6.704-19.078-2.268-5.998-5.806-11.088-11.507-14.422-5.095-2.979-10.387-3.703-16.071-1.902-6.171,1.955-11.147,5.7-15.606,10.195-4.747,4.785-9.302,9.76-14.028,14.565-1.949,1.981-4.015,3.885-6.227,5.56-3.716,2.815-7.765,3.832-12.446,2.257-4.619-1.554-9.366-2.593-14.354-2.434-7.255.231-12.317,3.314-15.204,10.131-2.717,6.416-3.167,13.108-2.645,19.848.52,6.709,1.425,13.408,2.547,20.046,1.471,8.707,3.156,17.386,5.052,26.01,1.722,7.834.628,15.038-2.734,22.331-5.628,12.207-14.453,20.902-26.583,26.398-5.351,2.425-10.962,3.817-16.855,3.982-3.485.097-6.973.147-10.454.315-6.808.329-12.546,3.078-17.414,7.798-3.525,3.417-6.752,7.133-9.249,11.312-11.412,19.1-18.556,39.49-18.004,62.08.137,5.624,1.384,11.029,3.038,16.392,4.485,14.548,23.743,26.746,40.355,21.627,5.552-1.711,11.159-3.24,16.729-4.892,3.596-1.066,7.254-1.567,11.004-1.541,5.115.036,9.545,2.021,13.493,5.006,3.69,2.79,5.76,6.661,5.994,11.353.271,5.454-.795,10.67-3.442,15.45-5.63,10.166-14.014,17.186-24.809,21.423-8.466,3.323-17.19,5.721-26.069,7.623-8.634,1.85-17.272,3.674-25.722,6.315-8.28,2.588-16.046,6.199-23.114,11.206-5.939,4.209-10.923,9.301-14.303,15.91-5.61,10.967-5.285,21.98-.383,32.948,4.823,10.792,12.755,18.726,23.343,23.988,1.041.517,2.1.997,3.049,1.446Z" fill="#670100" stroke-width="0"/>
      <path d="M142.479,713.777c13.36-1.452,24.88-4.153,36.411-6.842,18.124-4.227,36.474-7.305,55.047-8.314,18.018-.978,35.156,2.988,50.714,12.37,10.858,6.548,18.736,15.726,23.06,27.897,3.104,8.735,1.881,16.922-2.023,24.941-4.191,8.607-11.157,14.746-18.605,20.411-2.773,2.109-5.453,4.381-8.406,6.206-8.988,5.557-8.109,23.377,3.878,28.189,3.723,1.495,7.555,2.162,11.582,1.886,7.773-.533,15.038-2.79,21.968-6.248,4.365-2.178,8.761-4.3,13.064-6.596,5.182-2.765,10.771-4.369,16.407-5.71,6.405-1.524,12.963-.785,19.421-.233,9.485.81,18.915,2.327,28.407,2.975,14.676,1.001,29.159-.551,43.544-3.783,12.082-2.714,23.702-6.595,34.928-11.726,17.526-8.011,32.934-19.077,46.367-32.844,6.934-7.107,11.997-15.499,14.203-25.229,3.215-14.181-3.878-25.686-17.454-28.396-4.838-.966-9.746-.985-14.508.397-6.695,1.943-13.319,4.124-19.45,7.549-9.732,5.437-19.427,10.942-29.215,16.277-6.115,3.334-12.336,6.481-18.573,9.584-11.085,5.514-22.782,6.58-34.611,3.431-27.104-7.216-44.727-24.787-53.377-51.175-2.747-8.379-3.196-17.328-1.571-26.219.934-5.111,2.772-9.826,5.415-14.253,3.215-5.386,6.691-10.628,9.665-16.142,4.984-9.241,8.887-18.823,9.705-29.548.668-8.754-1.606-16.657-5.805-23.998-4.438-7.759-10.373-14.284-18.574-18.359-1.66-.825-3.362-1.582-5.095-2.237-4.335-1.636-8.22-.912-11.515,2.435-4.236,4.304-8.516,8.567-12.671,12.949-4.994,5.265-11.017,8.447-18.205,9.359-4.369.555-8.712,1.288-13.17.525-14.426-2.467-26.8-12.167-30.472-28.761-1.395-6.306-.184-12.486,1.586-18.558,1.17-4.013,2.731-7.929,3.655-11.994,2.438-10.721.827-20.769-5.768-29.776-4.041-5.518-9.119-9.84-15.096-13.195-9.881-5.545-20.602-8.48-31.659-10.28-5.351-.871-10.647.2-15.81,1.716-5.142,1.51-10.027,3.675-14.845,5.999-5.862,2.828-11.816,5.43-17.935,7.67-5.551,2.032-11.268,2.891-17.113,2.483-12.06-.843-24.143-.852-36.184-.291-13.562.633-26.652,3.784-38.835,10.033-14.229,7.299-24.005,18.773-30.713,33.08-6.506,13.877-9.217,28.711-10.746,43.788-1.769,17.431-1.163,34.854,2.059,52.06,5.318,28.407,18.319,52.454,41.531,70.362,11.475,8.853,24.514,14.056,38.785,16.247,12.732,1.956,25.458,1.705,36.602-.114Z" fill="#350100" stroke-width="0"/>
      <path d="M706.621,38.18c10.545-13.277,23.192-24.01,38.615-31.255,15.285-7.182,31.192-8.979,47.541-4.443,16.969,4.709,30.643,14.121,40.1,29.246,5.571,8.91,9.64,18.53,13.529,28.238,4.408,11.005,9.238,21.813,14.727,32.327,13.643,26.134,30.709,49.773,51.615,70.58,20.821,20.721,44.744,36.903,71.727,48.548,10.662,4.602,21.342,9.178,31.321,15.189,8.449,5.09,15.87,11.32,21.552,19.482,4.179,6.004,7.004,12.591,8.292,19.773,2.546,14.199-2.351,25.536-13.573,34.308-1.457,1.139-3.042,2.143-4.66,3.042-13.657,7.593-24.658,17.97-33.436,30.907-6.134,9.04-15.168,13.422-25.965,14.112-7.358.471-13.69-2.015-18.864-7.311-2.273-2.326-4.493-4.704-6.743-7.053-4.209-4.395-8.913-8.081-14.409-10.814-11.309-5.624-22.745-5.896-34.4-1.298-8.075,3.186-15.217,7.918-21.978,13.276-8.201,6.499-15.761,13.713-23.319,20.928-5.545,5.292-11.138,10.538-17.267,15.153-12.861,9.685-27.219,15.854-43.203,18.178-15.465,2.249-27.192-3.549-35.754-16.364-3.271-4.895-5.42-10.256-6.791-15.942-1.288-5.343-.816-10.577.959-15.772,1.89-5.532,4.553-10.708,7.518-15.676,5.544-9.288,9.275-19.143,11.252-29.79,1.908-10.279,3.878-20.527,4.939-30.945,1.15-11.297.139-22.277-4.049-32.882-2.474-6.264-4.811-12.596-7.611-18.713-7.792-17.024-19.693-30.831-34.061-42.641-5.921-4.867-11.975-9.556-17.445-14.976-8.1-8.028-13.911-17.408-17.308-28.225-5.036-16.038-6.081-32.329-2.68-48.876,1.702-8.284,4.772-16.031,8.851-23.356,3.272-5.877,6.528-11.806,10.978-16.956Z" fill="#f2e400" stroke-width="0"/>
      <path d="M645.596,550.831c-4.17.336-8.336.815-12.513.975-5.641.216-11.023,1.731-16.386,3.181-10.066,2.722-17.855,8.761-23.559,17.442-4.622,7.035-4.729,14.497-1.124,21.882,2.133,4.37,4.996,8.381,7.478,12.585,2.265,3.836,4.044,7.845,4.219,12.413.081,2.118-.055,4.169-.854,6.16-2.002,4.986-5.383,7.949-11.019,8.099-3.575.095-6.935-.487-10.142-2.014-4.483-2.134-8.206-5.23-11.38-9.028-2.831-3.388-5.605-6.832-8.581-10.089-5.513-6.033-12.538-8.68-20.606-8.43-7.222.224-14.271,1.32-21.165,3.797-15.963,5.734-32.044,11.137-48.07,16.695-10.558,3.662-21.44,6.121-32.34,8.422-7.328,1.547-14.787,1.335-22.176-.044-5.345-.997-10.299-3.073-14.636-6.268-11.895-8.763-12.48-24.104-4.941-33.264,4.52-5.492,9.768-9.988,16.342-12.701,5.793-2.391,11.719-4.418,17.898-5.704,6.819-1.419,13.542-3.227,20.129-5.565,9.271-3.291,15.094-9.797,17.977-18.977,1.818-5.788,2.717-11.766,2.112-17.893-.365-3.701-.633-7.413-.885-11.125-.483-7.109-2.703-13.716-6.324-19.75-12.278-20.456-30.457-31.066-54.234-32.898-8.816-.679-17.073.79-25.377,3.117-7.173,2.01-14.431,3.458-21.917,3.793-12.852.575-24.281-3.106-34.42-10.957-13.478-10.436-20.942-24.578-25.149-40.744-1.585-6.09-2.785-12.234-2.908-18.548-.275-14.082,3.687-26.669,13.655-36.885,6.258-6.414,13.917-10.82,22.338-13.844,15.409-5.534,31.309-6.429,47.425-4.688,11.858,1.281,23.236,4.331,34.063,9.502,9.006,4.301,16.575,10.253,22.503,18.246,12.197,16.446,27.755,29.28,44.107,41.267,4.307,3.157,8.587,6.369,13.068,9.264,5.676,3.666,11.727,6.657,18.265,8.507,9.241,2.615,18.273,2.2,27.285-1.396,11.062-4.413,20.512-10.93,27.7-20.426,5.517-7.289,9.752-15.251,11.09-24.513.598-4.136,1.424-8.248,2.351-12.324,1.444-6.354,4.793-11.59,10.037-15.464,12.924-9.548,26.745-11.507,41.199-3.918,13.939,7.319,21.414,19.517,24.456,34.623.711,3.533-.433,6.895-2.612,9.837-1.834,2.476-4.165,4.352-6.819,5.869-4.248,2.429-8.168,5.318-12.027,8.324-4.224,3.29-6.964,7.587-8.295,12.595-3.052,11.478-.522,21.616,8.14,29.997,1.694,1.639,3.675,2.858,5.866,3.692,4.558,1.735,9.11,3.497,13.718,5.091,10.634,3.679,20.634,8.51,29.058,16.115,7.92,7.15,12.367,16.221,13.672,26.731,1.494,12.036-3.52,21.26-13.135,28.147-7.933,5.682-17.037,8.426-26.581,9.693-5.293.702-10.651.909-15.98,1.339l.005.058Z" fill="#cd9600" stroke-width="0"/>
      <path d="M378.779,238.11c7.318.11,14.23-1.901,21.11-4.09,7.751-2.467,15.47-5.068,23.627-5.911,6.636-.686,13.036.188,18.888,3.485,4.175,2.352,6.477,6.063,5.879,10.98-.576,4.738-3.103,8.214-7.729,9.858-1.522.541-3.145.793-4.716,1.204-2.019.527-4.089.93-6.027,1.672-1.492.572-2.96,1.412-4.186,2.434-4.107,3.427-4.215,8.472-.337,12.118,3.453,3.245,7.713,4.202,12.266,3.863,2.538-.189,5.051-.772,7.561-1.25,1.825-.347,3.66-.703,5.434-1.242,8.01-2.437,15.141-.23,21.853,4.09,5.172,3.329,9.242,7.805,12.478,12.968,3.329,5.312,6.41,10.782,9.52,16.229,6.141,10.754,13.202,20.789,22.411,29.186,9.669,8.818,20.783,14.836,33.733,17.125,11.128,1.967,21.802.592,31.616-5.3,10.202-6.125,16.29-14.992,17.413-27.011.043-.463.073-.927.102-1.391.51-8.277,5.095-12.643,15.193-12.366,4.918.135,9.615,1.638,14.027,3.853,3.738,1.877,7.423,3.858,11.132,5.792,3.091,1.612,6.152,3.286,9.28,4.823,22.106,10.864,43.056,8.062,62.148-6.64,15.494-11.932,24.49-28.274,28.195-47.503,1.279-6.638.403-13.007-2.311-19.072-5.915-13.219-13.386-25.483-22.839-36.519-10.48-12.235-23.838-18.956-39.648-21.193-8.087-1.145-16.208-1.247-24.351-1.115-10.919.178-21.824.521-32.763.016-23.606-1.09-43.588-10.303-60.911-25.955-14.503-13.105-25.618-28.754-34.603-45.999-3.328-6.388-6.49-12.861-9.817-19.25-2.912-5.593-6.432-10.789-10.952-15.222-11.021-10.812-24.17-13.513-38.62-9.099-16.953,5.178-26.573,23.471-21.787,40.569.81,2.895,2.115,5.649,3.1,8.499.985,2.85,2.175,5.681,2.709,8.623.911,5.022-.917,9.168-5.181,12.054-3.13,2.118-6.681,3.178-10.402,3.774-5.735.918-11.529,1.614-17.168,2.954-22.457,5.338-41.123,16.834-55.6,34.926-4.566,5.706-7.933,12.009-9.413,19.227-1.089,5.31-1.142,10.62.184,15.897,2.904,11.559,12.031,19.209,23.929,20.011,1.847.125,3.715-.06,5.574-.102Z" fill="#4e0000" stroke-width="0"/>
    </g>
  </g>
</svg>