<?xml version="1.0" encoding="UTF-8"?>
<svg id="b" data-name="Layer 2" xmlns="http://www.w3.org/2000/svg" width="949.481" height="1088.729" viewBox="0 0 949.481 1088.729">
  <g id="c" data-name="Layer 1">
    <g id="d" data-name="c">
      <g>
        <g>
          <path d="M360.876,1088.729c-.031-.17-.03-.471-.099-.489-.71-.178-1.425-.364-2.15-.445-10.626-1.184-20.649-4.368-30.193-9.115-6.524-3.245-12.67-7.095-18.319-11.713-10.207-8.345-18.068-18.529-23.722-30.418-1.222-2.57-2.257-5.23-3.37-7.851-.323-.761-.601-1.542-.933-2.299-.385-.879-1.029-1.192-2.011-1.025-.181.031-.361.07-.541.109-9.433,2.023-18.866,4.049-28.3,6.069-7.548,1.616-15.098,3.219-22.645,4.838-2.156.462-4.303.962-6.458,1.428-.354.077-.727.102-1.089.089-.155-.006-.353-.139-.444-.273-.15-.222-.276-.482-.332-.743-1.145-5.299-2.279-10.601-3.413-15.903-.038-.179-.054-.364-.081-.546-.105-.714.086-1.092.729-1.267,1.24-.337,2.482-.679,3.738-.948,11.501-2.46,23.006-4.902,34.509-7.356,6.2-1.323,12.398-2.655,18.594-3.994.717-.155,1.441-.323,2.122-.585.533-.205.905-.671.928-1.268.029-.732-.004-1.468-.054-2.2-.662-9.615.152-19.105,2.442-28.463,1.182-4.834,2.929-9.477,4.929-14.027,3.195-7.27,7.146-14.092,12.006-20.384,6.246-8.086,13.676-14.882,22.259-20.409,8.795-5.663,18.208-9.961,28.365-12.555,4.012-1.025,8.085-1.676,12.209-2.111,4.679-.493,9.358-.585,14.049-.493,5.548.108,11.02.815,16.445,1.965,7.051,1.494,13.913,3.837,20.382,7.013,11.32,5.557,21.229,12.973,29.613,22.386.489.549.983,1.094,1.491,1.624.323.337.872.158,1.037-.326.566-1.652,1.103-3.315,1.695-4.957,3.102-8.606,7.162-16.721,12.473-24.188,7.809-10.979,17.686-19.63,29.458-26.145,8.25-4.566,16.943-8.006,26.13-10.147,4.479-1.044,9.006-1.832,13.616-2.038,1.745-.078,3.488-.24,5.233-.256,10.109-.095,19.951,1.491,29.544,4.69,8.417,2.806,16.38,6.545,23.779,11.447,12.119,8.03,21.597,18.494,28.618,31.203,2.404,4.351,4.491,8.849,6.232,13.506.225.602.466,1.199.714,1.792.188.449.608.651,1.129.539,4.403-.942,8.806-1.886,13.208-2.834,6.557-1.411,13.112-2.828,19.67-4.238,7.277-1.564,14.555-3.124,21.833-4.68,1.436-.307,2.876-.602,4.317-.882.492-.096.934.198,1.046.666.254,1.072.502,2.146.734,3.223.889,4.133,1.773,8.267,2.649,12.402.114.537.175,1.086.244,1.632.041.328-.247.717-.599.811-.799.214-1.595.443-2.402.617-7.725,1.663-15.453,3.312-23.178,4.974-7.276,1.565-14.548,3.148-21.824,4.71-3.235.694-6.477,1.35-9.713,2.037-.627.133-1.246.316-1.858.51-.376.119-.57.441-.69.802-.24.717-.148,1.451-.124,2.186.089,2.757.181,5.514.225,8.271.104,6.474-.74,12.846-2.26,19.124-3.205,13.229-9.004,25.243-17.232,36.067-6.703,8.818-14.944,15.942-24.406,21.668-5.36,3.244-10.943,6.027-16.87,8.1-1.584.554-3.127,1.224-4.698,1.818-.546.207-1.465.465-2.036.589-3.821.826-7.644,1.645-11.47,2.449-.839.176-1.686.32-2.54.395-1.575.137-3.157.203-4.732.345-4.502.405-9.034.494-13.54.147-12.422-.955-24.19-4.273-35.281-9.885-7.593-3.842-14.569-8.578-20.85-14.323-2.444-2.236-4.762-4.6-6.951-7.088-.485-.551-.99-1.086-1.5-1.615-.33-.342-.9-.163-1.065.336-.26.784-.499,1.576-.75,2.363-1.315,4.12-2.889,8.137-4.714,12.059-3.319,7.134-7.657,13.608-12.683,19.639-7.015,8.419-15.209,15.447-24.722,20.91-4.713,2.706-9.67,4.88-14.742,6.833-3.922,1.51-7.944,2.57-12.053,3.357-1.712.328-4.498.948-6.196,1.342-1.306.303-2.621.434-3.957.504-.915.048-1.825.199-2.737.302-.363.041-.358.337-.412.592h-15.453l-.002.004ZM531.884,1034.749c4.091-.063,8.218-.414,12.282-1.206,10.967-2.136,21.082-6.376,30.31-12.672,10.91-7.444,18.986-17.256,24.273-29.361,2.587-5.922,4.38-12.081,5.577-18.426.822-4.358,1.155-8.744.935-13.171-.041-.825-.127-1.65-.245-2.467-.129-.897-.683-1.329-1.526-1.17-1.715.324-3.424.681-5.132,1.043-4.854,1.028-9.706,2.059-14.557,3.099-4.222.904-8.441,1.82-12.66,2.737-.266.058-.523.165-.777.267-.492.197-.885.791-.856,1.307.02.366.025.742.116,1.093.469,1.801.455,3.64.496,5.479.103,4.625-1.106,8.905-3.345,12.919-2.82,5.055-6.587,9.274-11.225,12.729-2.89,2.153-5.963,3.976-9.353,5.228-4.008,1.481-8.159,2.21-12.425,2.159-2.669-.032-5.319-.383-7.926-.969-3.51-.789-6.898-1.925-10.066-3.664-5.039-2.766-9.013-6.64-11.905-11.594-1.203-2.061-2.236-4.222-3.352-6.334-.386-.731-.778-1.458-1.186-2.177-.25-.441-.693-.627-1.16-.612-.639.02-1.284.095-1.912.221-1.981.399-3.957.83-5.933,1.254-4.85,1.041-9.699,2.085-14.548,3.127-3.414.734-6.829,1.457-10.239,2.208-.533.117-1.042.347-1.556.539-.257.096-.537.669-.459.934.129.438.25.881.418,1.304,1.701,4.283,3.814,8.361,6.233,12.276,4.994,8.082,11.265,14.979,19.197,20.272,7.157,4.776,14.872,8.408,23.133,10.826,6.299,1.844,12.753,2.725,19.371,2.801h.002ZM367.596,1069.158c7.452.046,14.6-.899,20.601-2.349,9.6-2.319,18.377-6.385,26.145-12.523,6.393-5.052,11.88-10.966,16.503-17.673,4.098-5.946,7.221-12.373,9.282-19.297,1.287-4.324,2.114-8.736,2.597-13.231.415-3.86.309-7.71.238-11.568-.023-1.266-.546-1.681-1.722-1.475-.634.111-1.269.219-1.898.352-9.525,2.018-19.049,4.037-28.571,6.064-.897.191-1.79.415-2.672.667-.774.221-1.255.839-1.269,1.617-.018,1.01.046,2.023.009,3.032-.072,1.927-.029,3.878-.316,5.776-1.453,9.613-5.994,17.478-13.718,23.411-6.25,4.801-13.37,7.176-21.259,7.286-3.149.044-6.236-.364-9.278-1.115-4.398-1.086-8.571-2.741-12.424-5.148-4.048-2.529-7.341-5.803-9.728-9.958-1.29-2.245-2.206-4.642-2.904-7.129-.148-.527-.321-1.05-.531-1.554-.151-.364-.491-.575-.879-.537-.819.08-1.644.167-2.447.338-7.366,1.567-14.729,3.151-22.092,4.732-2.515.54-5.03,1.079-7.54,1.64-.625.14-1.233.355-1.843.555-.37.121-.593.518-.476.874.343,1.046.652,2.108,1.078,3.12,1.106,2.628,2.408,5.163,3.818,7.64,5.41,9.498,12.535,17.431,21.602,23.581,6.048,4.102,12.589,7.177,19.506,9.515,6.771,2.289,13.695,3.507,20.188,3.357h0Z" fill="#b100cf" stroke-width="0"/>
          <path d="M894.859,970.725c-.129-.125-.241-.33-.39-.363-2.151-.475-4.304-.936-6.462-1.376-.484-.099-.9.09-1.171.524-.291.467-.573.94-.859,1.41-3.339,5.484-9.187,7.56-15.246,5.438-2.327-.815-4.216-2.199-5.665-4.185-.378-.518-.68-1.093-1.066-1.604-.475-.629-.453-1.603-1.348-1.934-.758.166-1.173.846-1.801,1.208-.238.137-.456.309-.687.459-2.914,1.901-6.086,2.589-9.469,1.742-4.338-1.086-7.647-3.493-9.272-7.829-.519-1.386-.701-2.847-.829-4.314-.031-.361-.072-.725-.166-1.073-.042-.156-.2-.326-.349-.397-.244-.116-.522-.162-.788-.226-1.963-.472-3.928-.936-5.89-1.413-.604-.147-.823-.582-.634-1.276.095-.349.229-.695.4-1.014.074-.139.277-.276.433-.291.265-.026.543.028.81.079,1.983.378,3.966.758,5.946,1.15.526.104.885-.106,1.146-.528.337-.547.648-1.11.989-1.655.635-1.016,1.386-1.941,2.248-2.773,1.14-1.1,2.465-1.91,3.953-2.443,5.844-2.093,12.391.303,15.486,5.668.321.556.58,1.146.874,1.717.247.482.674.587,1.099.262.583-.445,1.138-.93,1.74-1.348,2.012-1.398,4.249-2.168,6.703-2.194,1.19-.013,2.385.071,3.57.187.922.09,1.795.431,2.554.959.978.68,1.959,1.374,2.841,2.17,2.189,1.973,3.536,4.429,3.946,7.369.076.545.16,1.094.168,1.642.022,1.399.466,1.532,1.596,1.833.886.236,1.78.446,2.679.627,1.34.27,2.639.66,3.889,1.211l-.977,2.581h-.001ZM850.2,968.801c.398.074,1.288.324,2.192.392,3.906.294,6.95-1.205,9.059-4.524.19-.299.255-.68.369-1.025.069-.209-.11-.656-.295-.703-1.058-.269-2.113-.553-3.182-.768-.209-.042-.526.147-.704.321-.324.318-.581.705-.866,1.062-1.203,1.507-2.767,2.039-4.638,1.678-1.949-.376-3.335-1.437-3.948-3.379-.11-.347-.204-.711-.228-1.072-.051-.763-.462-1.15-1.181-1.275-.811-.141-1.621-.289-2.433-.427-.388-.066-.739.22-.734.585.051,4.094,2.392,7.524,6.59,9.135h-.001ZM871.759,973.524c1.578.645,3.224.683,4.863.407,2.735-.46,5.004-1.727,6.511-4.136.911-1.456.838-2.001-1.037-2.412-.089-.02-.177-.047-.265-.07-1.961-.513-1.945-.41-2.958,1.026-1.251,1.772-3.1,2.163-5.137,1.696-1.733-.397-2.942-1.437-3.481-3.163-.19-.608-.262-1.254-.465-1.857-.072-.213-.349-.455-.571-.504-1.067-.233-2.146-.416-3.226-.582-.121-.019-.345.155-.399.288-.098.245-.134.525-.144.792-.151,3.774,3.316,7.595,6.309,8.514h0Z" fill="#b100cf" stroke-width="0"/>
          <path d="M92.709,703.159c-.203-4.841.478-9.469,1.467-14.067.134-.622.184-1.267.221-1.904.023-.389-.206-.732-.532-.908-.562-.304-1.153-.566-1.752-.792-5.499-2.081-11.004-4.147-16.504-6.224-7.305-2.759-14.607-5.525-21.909-8.289-.602-.228-1.201-.46-1.798-.702-.279-.113-.5-.64-.389-.937,1.48-3.958,2.964-7.915,4.448-11.872.032-.086.078-.166.117-.249.14-.296.616-.503.93-.385,3.526,1.324,7.051,2.648,10.574,3.979,9.712,3.667,19.424,7.335,29.135,11.007,2.903,1.098,2.842,1.317,4.49-1.53,3.238-5.594,7.039-10.771,11.677-15.301,7.904-7.72,17.163-13.188,27.676-16.533,7.874-2.506,15.954-3.579,24.207-3.128,9.477.518,18.498,2.87,27.038,7.02,10.98,5.336,19.989,12.997,27.002,22.99,4.102,5.845,7.063,12.247,9.145,19.061.994,3.254,1.774,6.562,2.344,9.918.062.362.131.724.208,1.083.201.937.603,1.12,1.288.585.362-.283.712-.582,1.068-.873,7.867-6.438,16.717-10.97,26.503-13.697,5.704-1.59,11.52-2.301,17.437-2.31,8.929-.014,17.556,1.635,25.882,4.792,8.541,3.238,15.958,8.29,22.628,14.472,8.185,7.586,14.105,16.655,17.709,27.223,1.487,4.36,2.531,8.823,3.198,13.383.426,2.916.747,5.837.801,8.781.083,4.521-.413,8.992-1.247,13.43-.22,1.173-.455,2.344-.636,3.524-.074.483.153.929.595,1.151.736.369,1.492.708,2.262,1,6.958,2.638,13.922,5.263,20.884,7.891,5.501,2.077,11.002,4.151,16.501,6.231.687.26,1.365.544,2.041.832.551.235.735.575.593,1.072-.101.353-.23.698-.339,1.049-1.03,3.342-2.333,6.58-3.722,9.785-.181.417-.401.832-.681,1.186-.144.182-.495.36-.695.31-.799-.2-1.586-.46-2.357-.751-6.876-2.595-13.746-5.205-20.621-7.804-5.843-2.209-11.689-4.411-17.537-6.608-.514-.193-1.04-.371-1.575-.482-.365-.076-.76.046-.983.364-.42.6-.806,1.226-1.173,1.86-2.215,3.827-4.699,7.465-7.522,10.874-6.762,8.163-15.072,14.229-24.823,18.332-4.241,1.784-8.596,3.247-13.091,4.256-3.14.704-6.299,1.308-9.523,1.489-1.652.093-3.301.294-4.953.306-9.226.066-18.084-1.743-26.553-5.399-7.565-3.265-14.505-7.546-20.707-12.987-8.695-7.629-14.853-16.96-18.645-27.873-1.512-4.352-2.629-8.8-3.344-13.351-.071-.452-.203-.894-.315-1.339-.067-.266-.441-.431-.636-.279-.652.507-1.304,1.014-1.947,1.533-6.573,5.311-13.856,9.333-21.868,12.027-4.895,1.646-9.897,2.776-15.046,3.284-2.383.235-4.76.407-7.154.404-10.47-.012-20.441-2.272-29.832-6.863-10.23-5.002-18.929-11.974-25.948-20.972-6.516-8.353-10.595-17.801-12.492-28.205-.843-4.624-1.293-9.284-1.22-13.87h0ZM162.197,758.574c6.751-.208,12.606-1.302,18.289-3.248,12.448-4.262,21.792-12.303,28.459-23.558.231-.39.405-.821.553-1.251.041-.118-.066-.373-.181-.444-.463-.286-.936-.578-1.441-.774-2.911-1.126-5.833-2.227-8.751-3.335-4.465-1.694-8.928-3.391-13.396-5.076-1.032-.389-1.542-.227-2.13.63-.364.53-.67,1.101-1.054,1.615-1.043,1.398-2.037,2.844-3.189,4.148-3.113,3.523-6.943,5.938-11.461,7.319-2.857.873-5.756,1.142-8.71,1.075-6.196-.141-11.69-2.215-16.468-6.13-4.061-3.327-7.035-7.478-8.989-12.35-.828-2.064-1.268-4.213-1.348-6.441-.09-2.504.242-4.949.93-7.352.125-.438.228-.884.321-1.331.062-.3-.185-.815-.452-.943-.495-.237-.99-.482-1.503-.677-6.783-2.57-13.569-5.134-20.358-7.691-.599-.226-1.22-.396-1.835-.58-.31-.092-.547.088-.688.318-.188.31-.362.649-.449.999-.618,2.501-1.104,5.024-1.173,7.611-.089,3.312-.009,6.607.477,9.898,1.213,8.212,3.941,15.855,8.544,22.773,6.85,10.295,16.233,17.387,27.814,21.596,6.103,2.218,12.434,3.202,18.186,3.197l.003.002ZM278.52,802.725c3.643.111,7.247-.332,10.79-1.109,8.965-1.966,17.339-6.135,24.335-12.075,4.47-3.794,8.315-8.098,11.077-13.273.898-1.683.863-1.857-.924-2.614-7.108-3.011-14.33-5.728-21.603-8.312-.343-.122-.71-.178-1.069-.253-.342-.072-.737.115-.919.454-.479.889-.937,1.789-1.419,2.676-2.175,4.01-5.309,7.055-9.453,8.938-7.205,3.274-14.813,3.984-22.831,1.2-1.771-.615-3.461-1.463-5.002-2.531-3.86-2.675-6.89-6.058-9.145-10.019-1.659-2.912-2.655-6.033-2.946-9.394-.224-2.586-.11-5.153.248-7.702.419-2.976.162-3.238-2.531-4.262-6.869-2.613-13.741-5.218-20.616-7.816-.426-.161-.882-.258-1.333-.327-.128-.02-.361.131-.422.261-.592,1.26-.841,2.626-1.086,3.978-.997,5.492-.854,10.991.151,16.459,1.087,5.915,3.081,11.526,5.904,16.843,4.5,8.472,10.739,15.327,18.954,20.322,9.161,5.571,19.124,8.394,29.839,8.555h.001Z" fill="#b100cf" stroke-width="0"/>
          <path d="M944.272,372.754c.256,1.358.557,2.891.831,4.428.452,2.533.89,5.068,1.327,7.603.061.352-.226.736-.585.805-2.888.553-5.775,1.116-8.667,1.65-3.706.685-7.415,1.348-11.124,2.016-3.347.603-6.696,1.193-10.041,1.799-4.34.787-8.679,1.581-13.017,2.381-.647.119-1.158.709-1.161,1.363-.005,1.01.04,2.019.061,3.029.117,5.631-.377,11.201-1.721,16.681-1.59,6.481-4.166,12.556-7.579,18.278-3.744,6.277-8.233,11.953-13.715,16.816-4.99,4.427-10.553,7.935-16.668,10.611-6.378,2.79-13.045,4.386-19.931,5.221-6.144.745-12.279.793-18.413-.033-11.477-1.546-21.739-5.983-30.882-13.052-4.525-3.499-8.629-7.44-12.283-11.84-.545-.656-.904-.305-1.127.264-.37.941-.721,1.89-1.082,2.834-2.574,6.747-5.996,13.02-10.485,18.693-5.017,6.34-11.039,11.527-17.965,15.685-4.431,2.66-9.088,4.848-13.992,6.454-2.964.971-6,1.715-9.092,2.252-7.029,1.221-14.066,1.366-21.136.513-10.611-1.279-20.308-4.988-29.13-10.996-5.191-3.536-9.87-7.662-14.044-12.355-3.441-3.87-6.218-8.178-8.533-12.807-1.484-2.968-2.68-6.047-3.859-9.139-.131-.344-.262-.687-.408-1.025-.361-.836-.852-1.151-1.707-1.073-.641.059-1.283.12-1.916.231-1.72.302-3.433.636-5.151.948-5.154.938-10.31,1.867-15.463,2.809-4.883.892-9.763,1.797-14.645,2.693-1.627.299-3.254.597-4.885.872-.356.06-.728.03-1.093.022-.314-.007-.551-.231-.604-.48-.325-1.528-.614-3.063-.902-4.598-.458-2.439-.908-4.88-1.353-7.322-.048-.266-.078-.547-.042-.811.021-.156.158-.357.297-.424.325-.158.675-.293,1.03-.358,4.702-.857,9.406-1.695,14.109-2.548,3.437-.623,6.87-1.266,10.306-1.892,3.707-.675,7.416-1.34,11.123-2.013,1.899-.344,3.799-.685,5.694-1.05.538-.104,1.077-.246,1.581-.455.216-.089.479-.387.487-.598.035-.916-.022-1.835-.035-2.754-.075-5.534.391-11.015,1.562-16.431,2.343-10.839,7.26-20.392,14.48-28.767,5.014-5.816,10.76-10.784,17.386-14.716,4.212-2.5,8.655-4.467,13.325-5.916,11.941-3.705,24.046-4.071,36.235-1.518,11.518,2.412,21.535,7.816,30.282,15.636,2.538,2.269,4.924,4.688,7.157,7.258.3.345.627.668.946.996.156.16.622.075.709-.129.326-.759.664-1.512.979-2.275,2.682-6.484,5.971-12.63,10.161-18.276,4.42-5.957,9.63-11.093,15.825-15.204,3.533-2.344,7.26-4.296,11.196-5.896,4.11-1.671,8.352-2.877,12.671-3.773,4.228-.877,8.527-1.292,12.85-1.519,9.732-.512,19.049,1.192,27.941,5.119,8.93,3.944,16.866,9.354,23.558,16.505,4.042,4.319,7.395,9.126,10.128,14.377,1.701,3.269,3.178,6.627,4.393,10.105.151.433.322.859.495,1.283.115.281.568.531.907.504.365-.029.733-.05,1.092-.116,3.074-.562,6.145-1.139,9.219-1.698,2.984-.543,5.97-1.068,8.955-1.603,3.709-.665,7.417-1.333,11.126-1.999,3.981-.715,7.961-1.428,11.942-2.142.271-.049.543-.097.817-.134.646-.087,1.048.19,1.253,1.001h0ZM731.586,470.991c2.536-.786,4.923-1.779,7.228-2.91,4.729-2.319,8.995-5.322,12.775-9.024,5.05-4.945,9.095-10.603,12.118-16.968,3.169-6.67,4.534-13.759,4.49-21.127-.004-.729-.138-1.459-.222-2.187-.033-.29-.53-.665-.81-.621-1.361.216-2.725.42-4.082.658-2.262.397-4.519.822-6.78,1.228-3.256.585-6.514,1.159-9.769,1.747-1.266.228-2.529.472-3.789.727-.538.109-.995.624-1.051,1.148-.039.365-.05.734-.075,1.101-.108,1.558-.162,3.121-.336,4.672-.673,6.008-3.309,11.024-7.73,15.128-2.108,1.958-4.511,3.452-7.089,4.707-3.106,1.512-6.373,2.299-9.813,2.505-6.475.387-14.762-2.727-19.233-6.436-3.046-2.527-5.299-5.588-6.446-9.411-.238-.792-.47-1.587-.72-2.376-.082-.26-.164-.544-.331-.747-.16-.193-.432-.415-.653-.414-.637.004-1.28.075-1.907.189-3.436.627-6.865,1.291-10.301,1.912-3.346.605-6.7,1.169-10.048,1.761-.633.112-1.257.275-1.886.416-.09.02-.178.046-.267.07-.677.179-.972.595-.751,1.198.441,1.206.925,2.398,1.403,3.59,1.831,4.561,4.422,8.665,7.538,12.447,4.502,5.463,9.971,9.75,16.121,13.202,5.017,2.816,10.352,4.72,16.037,5.669,8.973,1.497,17.761.56,26.378-1.855h0ZM850.243,449.445c5.384-1.736,10.449-4.119,15.004-7.453,12.846-9.404,20.24-22.031,22.122-37.859.218-1.83.23-3.665.106-5.501-.031-.454-.141-.904-.231-1.352-.069-.343-.437-.598-.827-.56-.914.089-1.833.152-2.737.302-2.99.497-5.979.999-8.959,1.552-3.793.703-7.578,1.448-11.362,2.199-.532.106-1.045.327-1.548.539-.133.056-.28.28-.277.424.018.823.054,1.648.131,2.467.201,2.123.079,4.223-.423,6.295-.748,3.088-2.171,5.845-4.149,8.321-1.149,1.438-2.442,2.742-3.78,4.004-4.596,4.336-10.091,6.646-16.355,7.052-6.162.4-11.845-1.168-16.959-4.645-4.143-2.816-7.085-6.624-9.004-11.236-.318-.763-.6-1.542-.935-2.297-.359-.809-.923-1.156-1.732-1.055-1.002.125-2.003.27-2.996.453-3.433.631-6.86,1.291-10.293,1.924-3.433.633-6.869,1.245-10.303,1.872-.269.049-.53.143-.794.219-.2.058-.483.448-.447.629.07.359.11.73.233,1.071,1.558,4.345,3.598,8.444,6.249,12.232,5.276,7.54,12.062,13.319,20.34,17.313,12.899,6.223,26.216,7.264,39.923,3.088l.003.002Z" fill="#b100cf" stroke-width="0"/>
          <path d="M353.221,256.669c-7.917.917-15.592-.165-23.082-2.723-11.615-3.966-20.451-11.372-26.8-21.814-.857-1.41-1.649-2.86-2.475-4.289-.133-.231-.542-.286-.695-.108-.179.208-.367.409-.535.626-.337.437-.659.885-.994,1.323-3.075,4.036-6.491,7.749-10.414,10.981-4.289,3.533-8.975,6.383-14.208,8.303-5.045,1.851-10.226,2.907-15.62,3.033-5.178.121-10.273-.389-15.321-1.49-.717-.157-1.44-.313-2.132-.552-5.679-1.962-11.041-4.549-15.909-8.11-7.073-5.174-12.274-11.825-15.696-19.874-1.951-4.588-3.311-9.349-4.029-14.289-.132-.91-.267-1.819-.415-2.726-.096-.59-.498-.904-1.165-.943-.183-.011-.368-.005-.551-.014-6.054-.327-12.108-.664-18.163-.981-3.762-.197-7.528-.33-11.288-.56-3.295-.201-3.19.239-2.943-3.247.11-1.558.17-3.119.254-4.679.025-.459.043-.918.081-1.376.12-1.446.299-1.619,1.63-1.558,1.377.063,2.753.139,4.129.208,5.138.26,10.277.514,15.414.782,3.762.196,7.522.412,11.284.618.275.015.551.027.826.033.51.01.931-.255,1.062-.696.209-.704.4-1.414.598-2.121,1.065-3.814,2.411-7.523,4.136-11.092,2.255-4.665,5.051-8.962,8.586-12.767,5.097-5.486,11.2-9.472,18.158-12.176,3.52-1.368,7.135-2.418,10.858-3.082,2.907-.518,5.836-.683,8.787-.659,3.41.028,6.791.317,10.14.942,10.577,1.972,19.45,7.011,26.734,14.897,3.069,3.322,5.676,6.981,8.008,10.85,1.718,2.851,1.28,3.269,3.539.248,3.093-4.137,6.593-7.9,10.604-11.177,4.747-3.879,9.986-6.871,15.828-8.746,5.026-1.613,10.193-2.347,15.479-2.32,4.245.021,8.427.509,12.584,1.334,1.538.305,3.031.732,4.502,1.263,4.515,1.632,8.802,3.715,12.796,6.391,8.106,5.43,13.941,12.713,17.65,21.708,1.333,3.232,2.386,6.557,3.084,9.995.402,1.982.891,3.944,1.128,5.957.032.267.122.538.24.781.071.146.233.316.381.347.628.132,1.262.273,1.9.307,4.496.242,8.994.453,13.49.686,3.945.205,7.888.431,11.833.639,1.835.097,3.671.17,5.506.264.497.026.851.425.824.905-.168,3.027-.339,6.054-.514,9.08-.019.331-.423.73-.725.723-.919-.022-1.838-.039-2.756-.085-6.424-.321-12.848-.649-19.272-.974-3.303-.167-6.606-.332-9.909-.492-.366-.018-.749-.053-1.096.034-.224.056-.507.288-.57.499-.29.966-.515,1.952-.757,2.933-1.903,7.705-5.249,14.691-10.382,20.781-4.38,5.198-9.663,9.277-15.623,12.502-3.981,2.154-8.188,3.743-12.582,4.8-1.783.429-3.619.638-5.431.947h-.001ZM307.605,212.491c.288,1.726.693,3.419,1.16,5.105,1.809,6.528,5.109,12.166,10.013,16.839,4.38,4.173,9.447,7.273,15.098,9.42,1.892.719,3.832,1.279,5.819,1.671,4.367.861,8.756,1.036,13.149.288,2.353-.401,4.68-.955,6.944-1.741,3.395-1.178,6.711-2.548,9.69-4.574,6.598-4.489,11.655-10.332,15.089-17.554.792-1.666,1.404-3.399,1.74-5.213.166-.897.21-1.819.269-2.732.008-.128-.187-.324-.333-.396-.241-.118-.517-.212-.783-.226-5.594-.296-11.188-.587-16.782-.862-1.328-.065-1.725-.018-1.863,1.665-.03.364-.123.723-.191,1.083-.714,3.764-2.573,6.835-5.564,9.232-1.949,1.562-4.064,2.842-6.381,3.768-4.332,1.732-8.746,1.976-13.217.591-1.852-.574-3.571-1.441-5.207-2.486-3.796-2.424-6.313-5.792-7.677-10.082-.533-1.677-.794-3.395-1.125-5.107-.098-.507-.442-.819-.935-.845-2.751-.144-5.502-.283-8.253-.419-3.026-.15-6.053-.28-9.079-.449-1.905-.106-2.009-.215-1.715,1.929.05.364.089.729.132,1.094h.002ZM225.666,205.125c-2.567-.132-5.134-.264-7.701-.396-.183-.009-.367-.019-.55-.025-.507-.016-.857.326-.829.836.193,3.511.925,6.907,2.2,10.185,2.311,5.94,5.977,10.975,10.588,15.374,1.429,1.363,2.971,2.615,4.628,3.69,7.078,4.593,14.731,6.419,22.774,6.607,3.298.077,6.605-.293,9.786-1.168,8.814-2.424,15.958-7.221,21.565-14.09,3.17-3.882,5.565-8.197,6.892-13.064.314-1.152.618-2.305.669-3.508.014-.346-.282-.77-.59-.816-.18-.027-.36-.07-.541-.079-4.399-.238-8.798-.477-13.198-.705-1.557-.081-3.116-.151-4.675-.18-.222-.004-.522.202-.656.398-.201.296-.307.664-.419,1.012-.365,1.136-.654,2.3-1.082,3.411-1.535,3.99-4.109,7.127-7.79,9.341-2.893,1.74-6.057,2.567-9.384,2.938-3.589.4-6.947-.325-10.128-1.943-2.393-1.217-4.502-2.842-6.396-4.739-1.717-1.72-2.971-3.744-3.678-6.065-.345-1.135-.507-2.328-.703-3.504-.121-.723-.143-1.461-.222-2.191-.045-.417-.307-.699-.664-.741-.456-.054-.911-.121-1.369-.145-2.842-.148-5.684-.286-8.527-.428,0,0,0-.004,0-.006Z" fill="#b100cf" stroke-width="0"/>
          <path d="M458.02,590.88c-7.284-1.03-14.042-3.766-20.193-8.014-4.036-2.787-7.548-6.151-10.676-9.921-1.588-1.913-3.05-3.918-4.411-5.998-.351-.536-.737-1.051-1.142-1.548-.07-.086-.407-.104-.46-.033-.551.732-1.089,1.476-1.594,2.24-2.545,3.849-5.458,7.393-8.776,10.601-3.663,3.542-7.75,6.487-12.325,8.745-5.943,2.933-12.258,4.413-18.85,4.751-6.012.308-11.946-.337-17.781-1.772-3.494-.859-6.816-2.238-9.947-4.009-7.567-4.28-13.858-9.971-18.682-17.225-3.614-5.434-5.843-11.438-7.133-17.81-.219-1.081-.407-2.168-.616-3.251-.065-.337-.418-.641-.78-.648-1.286-.026-2.572-.055-3.858-.053-5.974.013-11.948.04-17.923.053-3.584.008-7.167.003-10.751,0-.452,0-.836-.399-.843-.908-.023-1.562-.01-3.124-.046-4.686-.034-1.466.045-2.939-.304-4.387-.109-.453.308-.862.81-.862.276,0,.552-.002.827.016,3.397.22,6.798.145,10.198.129,2.757-.013,5.514.019,8.271.017,2.665-.002,5.33-.016,7.996-.034,1.562-.01,3.124-.058,4.685-.047,1.157.008,1.526-.51,1.728-1.39.454-1.97.882-3.947,1.324-5.92,1.303-5.82,3.803-11.1,7.143-16.017,5.702-8.396,15.864-16.356,26.339-19.542,3.623-1.102,7.306-1.801,11.088-2.029,4.422-.266,8.817-.122,13.193.599,8.341,1.375,15.832,4.684,22.439,9.942,4.417,3.515,8.27,7.568,11.308,12.358.689,1.087,1.425,2.144,2.152,3.206.303.443.766.398,1.095-.1.405-.614.784-1.245,1.192-1.856,3.131-4.684,6.696-8.995,10.965-12.695,8.136-7.053,17.587-10.883,28.333-11.524,5.259-.314,10.483.029,15.644,1.056,5.274,1.049,10.235,2.971,14.813,5.805,5.767,3.569,10.73,8.05,14.825,13.458,4.692,6.196,7.588,13.197,9.1,20.793.161.811.276,1.631.428,2.443.13.692.448.995,1.081,1.035.642.041,1.286.09,1.929.088,4.963-.011,9.925-.04,14.888-.05,4.779-.01,9.559-.006,14.338.002.457,0,.915.059,1.369.119.294.039.529.258.538.531.067,2.021.105,4.042.145,6.063.013.643-.026,1.289.014,1.93.115,1.837-.112,2.032-1.941,2.013-4.502-.047-9.005-.01-13.508.009-4.871.021-9.742.059-14.613.093-1.01.007-2.021.01-3.03.048-.513.019-.857.342-.973.826-.236.982-.469,1.967-.63,2.963-.983,6.068-3.109,11.711-6.284,16.962-5.794,9.585-16.9,19.733-31.459,22.997-6.181,1.386-13.553,1.739-20.672.437h.003ZM458.752,580.392c5.147.722,6.336.963,11.176.529,7.581-.68,14.546-3.082,20.645-7.722,8.082-6.148,13.291-14.127,15.205-24.162.118-.621.126-1.267.138-1.902.002-.129-.188-.299-.329-.383-.149-.088-.345-.133-.52-.133-5.606,0-11.211.002-16.817.019-.454,0-.91.093-1.362.166-.304.049-.487.29-.526.561-.091.635-.124,1.279-.19,1.918-.282,2.72-1.284,5.167-2.9,7.351-5.342,7.225-15.188,10.345-24.483,6.457-5.803-2.427-9.439-6.851-11.08-12.914-.216-.797-.371-1.611-.578-2.412-.149-.576-.604-.982-1.174-.995-1.745-.042-3.491-.069-5.237-.07-3.033,0-6.066.015-9.098.04-1.283.01-2.565.061-3.848.094-.181.005-.518.399-.512.582.01.275-.007.554.037.824.719,4.494,2.135,8.755,4.455,12.675,6.425,10.856,15.998,17.215,26.997,19.474v.003ZM369.467,580.684c.653.083,1.744.265,2.842.348,1.282.097,2.57.129,3.856.15,4.355.072,8.618-.515,12.738-1.949,8.826-3.073,15.71-8.626,20.849-16.399,2.411-3.647,4.033-7.621,5.031-11.864.254-1.081.356-2.175.338-3.283-.008-.536-.327-.905-.798-.906-4.501-.012-9.002-.028-13.503-.03-1.195,0-2.39.022-3.584.069-1.63.064-1.676.115-2.029,1.629-.104.448-.164.909-.305,1.344-.455,1.396-.836,2.829-1.43,4.166-1.962,4.417-5.39,7.37-9.712,9.342-3.796,1.733-7.787,2.215-11.854,1.331-4.319-.939-8.054-3.057-11.19-6.187-2.421-2.416-3.907-5.309-4.362-8.713-.097-.728-.15-1.465-.302-2.181-.044-.209-.338-.468-.558-.515-.533-.114-1.089-.155-1.636-.157-4.41-.01-8.821-.01-13.231,0-1.191.003-2.382.058-3.573.088-.181.005-.549.383-.539.554.022.366.015.738.079,1.097.601,3.365,1.605,6.603,3.078,9.691,2.246,4.706,5.371,8.753,9.158,12.322,5.719,5.391,12.436,8.729,20.636,10.05v.002Z" fill="#b100cf" stroke-width="0"/>
          <path d="M738.309,121.325c.266.024.535.082.799.065,2.412-.153,4.823-.195,7.235-.011.263.02.532-.042.798-.066,2.621.462,5.247.871,7.808,1.648,6.276,1.903,11.765,5.115,16.49,9.658,2.736,2.63,5.045,5.591,6.992,8.842.329.549.673,1.089,1.018,1.628.123.193.566.177.709-.02.377-.52.76-1.037,1.124-1.566,1.36-1.971,2.86-3.829,4.464-5.605,2.665-2.951,5.658-5.52,9.031-7.629,4.587-2.868,9.566-4.604,14.947-5.279,6.032-.756,11.917-.058,17.742,1.487,4.205,1.116,8.158,2.814,11.806,5.196,5.192,3.391,9.181,7.881,12.134,13.312,2.434,4.478,4.019,9.258,5.034,14.239.128.628.287,1.251.449,1.872.088.336.438.59.821.611,1.101.058,2.202.136,3.303.156,6.067.108,12.133.199,18.2.3,1.195.02,2.39.052,3.584.094.559.02,1.015.469,1.077,1.054.221,2.111.186,4.221-.039,6.33-.01.091-.032.181-.06.268-.188.595-.332.965-1.134.954-2.482-.033-4.964-.056-7.446-.108-5.514-.115-11.027-.247-16.54-.366-.457-.01-.925-.023-1.37.062-.23.044-.544.263-.606.468-.322,1.052-.566,2.128-.852,3.191-1.079,4.008-2.547,7.862-4.559,11.5-4.906,8.873-12.237,14.787-21.889,17.805-5.391,1.686-10.925,2.476-16.585,2.21-7.846-.37-14.921-2.874-21.161-7.675-4.346-3.344-7.887-7.422-10.91-11.972-.456-.687-.925-1.365-1.395-2.043-.134-.193-.554-.166-.701.038-.647.893-1.281,1.795-1.938,2.68-2.755,3.711-5.891,7.051-9.608,9.823-5.028,3.75-10.606,6.176-16.83,7.121-4.491.682-8.961.596-13.46.061-8.643-1.028-15.956-4.804-22.183-10.73-6.748-6.422-10.868-14.275-12.227-23.521-.321-2.182-.497-2.244-2.583-2.275-5.975-.087-11.949-.189-17.923-.308-2.021-.04-4.041-.138-6.061-.229-.72-.033-.945-.276-.933-1.055.034-2.204.093-4.408.156-6.612.01-.363.363-.712.701-.726.733-.032,1.467-.077,2.2-.061,7.443.161,14.887.334,22.33.497.457.01.925.008,1.369-.08.234-.047.55-.251.62-.456.268-.779.51-1.576.656-2.386,2.557-14.158,14.155-27.582,30.527-31.476,1.606-.382,3.247-.612,4.872-.913l-.003-.002ZM718.666,165.624v-.076c-2.02,0-4.04-.006-6.06.005-.453.003-.91.043-1.354.119-.162.028-.316.188-.337.351-.045.359-.06.735-.003,1.092.365,2.272.94,4.487,1.83,6.615,1.799,4.303,4.491,7.982,7.813,11.225,2.387,2.33,5.096,4.19,8.108,5.625,3.183,1.517,6.542,2.34,10.026,2.804,5.531.737,10.881.052,16.017-2.043,6.589-2.687,12.095-7.56,15.77-13.654,1.411-2.339,2.503-4.83,3.077-7.503.191-.889.258-1.809.308-2.719.01-.187-.274-.462-.487-.57-.228-.115-.531-.103-.803-.108-4.315-.079-8.63-.153-12.945-.222-.273-.004-.566-.011-.814.082-.237.088-.509.261-.62.473-.21.401-.314.857-.466,1.289-.612,1.735-1.336,3.422-2.317,4.984-1.65,2.629-3.802,4.707-6.693,5.936-3.051,1.297-6.224,1.528-9.451.921-3.049-.574-5.696-2.03-8.043-4.015-2.474-2.092-4.043-4.721-4.482-7.973-.074-.546-.171-1.088-.268-1.631-.083-.465-.478-.809-.95-.823-2.285-.067-4.571-.123-6.857-.183h0ZM792.666,166.725v-.038c-.643,0-1.286.005-1.928-.001-1.745-.017-3.491-.049-5.236-.054-.689-.002-1.047.394-.974,1.002.011.091.012.184.026.274.67,4.321,2.108,8.358,4.487,12.041,6.471,10.02,19.361,17.042,33.908,14.049,6.099-1.255,11.688-4.379,16.086-8.786,3.751-3.758,6.495-8.15,7.998-13.31.332-1.141.658-2.288.687-3.492.005-.229-.084-.353-.308-.393-.178-.032-.352-.114-.53-.119-4.498-.126-8.997-.247-13.496-.36-.272-.007-.577-.01-.811.102-.223.106-.467.335-.535.561-.13.433-.135.902-.205,1.354-.482,3.127-1.923,5.71-4.37,7.729-1.209.998-2.484,1.895-3.895,2.582-3.322,1.619-6.784,2.211-10.434,1.383-6.284-1.424-10.436-5.123-12.174-11.397-.196-.708-.336-1.43-.514-2.143-.173-.693-.373-.858-1.166-.874-2.205-.047-4.409-.075-6.614-.11h-.003Z" fill="#b100cf" stroke-width="0"/>
          <path d="M868.178,695.91c-5.625-2.874-9.518-6.578-12.746-11.032-1.786-2.464-3.303-5.085-4.575-7.847-.346-.751-.683-1.507-1.007-2.268-.462-1.086-.859-1.393-1.698-.436-.363.413-.773.786-1.17,1.168-2.057,1.975-4.221,3.819-6.569,5.447-9.682,6.716-20.195,8.425-31.503,5.195-4.988-1.425-9.657-3.577-13.844-6.667-5.311-3.92-9.143-8.993-11.506-15.161-1.794-4.682-2.647-9.553-2.859-14.548-.035-.826-.045-1.654-.077-2.48-.012-.318-.347-.73-.665-.799-.986-.216-1.973-.431-2.965-.618-6.678-1.26-13.358-2.513-20.037-3.766-.181-.034-.365-.045-.545-.084-.462-.099-.724-.507-.626-1.042.316-1.716.649-3.428.975-5.142.069-.361.12-.725.199-1.084.103-.473.497-.709,1.046-.647.274.031.55.049.82.099,6.772,1.261,13.543,2.525,20.313,3.789.271.051.54.113.812.157,1.898.303,2.127.579,3.065-1.641,1.8-4.256,4.223-8.156,7.185-11.71,5.774-6.927,13.116-11.104,22.03-12.498,5.036-.787,10.084-.831,15.088.138,9.659,1.87,17.279,6.946,22.969,14.947,1.819,2.558,3.28,5.316,4.479,8.214.281.679.555,1.362.843,2.038.18.423.557.542.859.269.408-.369.803-.751,1.197-1.135,2.637-2.574,5.449-4.928,8.571-6.902,5.974-3.777,12.465-5.805,19.559-5.785,4.167.012,8.228.725,12.194,1.975,1.313.414,2.607.896,3.889,1.398,5.98,2.343,10.756,6.244,14.655,11.3,5.114,6.631,7.744,14.124,7.935,22.484.019.827.032,1.655,0,2.481-.051,1.355.272,1.384,1.353,1.585,5.418,1.007,10.833,2.027,16.247,3.051,2.256.427,4.509.869,6.762,1.313.496.098.73.48.623,1.029-.387,1.983-.779,3.966-1.186,5.945-.157.764-.579,1.017-1.42.865-2.44-.443-4.877-.901-7.316-1.352-4.787-.884-9.574-1.77-14.362-2.645-.538-.098-1.086-.151-1.632-.183-.154-.009-.379.091-.464.214-.257.374-.489.772-.683,1.183-1.174,2.497-2.404,4.964-3.836,7.324-2.309,3.806-5.17,7.141-8.624,9.948-4.589,3.729-9.817,6.109-15.631,7.148-7.265,1.298-14.449,1.013-21.522-1.241-1.854-.591-3.56-1.483-4.602-1.988v-.003ZM872.104,688.725c.676.321,1.559.754,2.423,1.143.335.15.678.286,1.026.404,6.597,2.253,13.257,2.527,19.9.303,7.929-2.655,13.88-7.715,17.712-15.181.499-.973.809-2.043,1.194-3.073.113-.302-.179-.743-.528-.811-1.711-.333-3.421-.667-5.135-.984-2.344-.433-4.696-.827-7.036-1.284-1.18-.231-1.533-.02-1.893.974-.219.603-.479,1.192-.735,1.781-1.063,2.449-2.798,4.284-5.135,5.552-.725.394-1.463.778-2.229,1.079-6.169,2.429-11.678,1.341-16.552-3.133-1.599-1.468-2.666-3.25-3.333-5.296-.4-1.227-.659-2.483-.778-3.768-.068-.731-.123-1.463-.196-2.194-.055-.544-.311-.84-.838-.94-2.614-.495-5.229-.981-7.844-1.469-1.623-.303-3.245-.609-4.87-.901-.609-.109-1.005.258-1.055.937-.014.183-.041.365-.044.548-.086,4.584.878,8.943,2.93,13.038,2.884,5.753,7.211,10.12,13.015,13.275h.001ZM804.752,675.983c2.105,1.14,3.861,1.84,7.726,2.745,6.089,1.426,12.053.971,17.821-1.469,6.182-2.615,11.114-6.731,14.666-12.459.978-1.577,1.578-3.31,2.118-5.068.091-.296-.209-.8-.501-.874-.266-.067-.533-.136-.803-.186-3.789-.711-7.585-1.388-11.366-2.142-1.502-.3-1.654-.091-2.273,1.243-.309.666-.638,1.326-1.001,1.964-.545.957-1.111,1.897-1.88,2.708-2.94,3.099-6.576,4.626-10.804,4.737-2.614.069-5.136-.463-7.403-1.808-1.823-1.082-3.418-2.468-4.797-4.097-1.985-2.346-2.949-5.048-2.907-8.114.009-.64.056-1.28.039-1.919-.004-.146-.175-.316-.311-.421-.138-.107-.322-.179-.495-.212-3.971-.736-7.944-1.465-11.917-2.193-.269-.049-.541-.086-.813-.118-.371-.044-.762.238-.787.573-.033.457-.091.913-.098,1.371-.071,4.605,1.068,8.915,3.215,12.967,2.863,5.404,6.767,9.803,12.57,12.772h0Z" fill="#b100cf" stroke-width="0"/>
          <path d="M597.592,745.596c7.042-.003,12.646,2.009,17.659,5.759,2.219,1.66,4.183,3.589,6.001,5.672.422.484.846.966,1.275,1.444.178.199.496.137.663-.138.38-.628.75-1.262,1.122-1.894,1.12-1.905,2.371-3.72,3.787-5.418,1.956-2.346,4.19-4.379,6.779-6.014,3.394-2.145,7.079-3.428,11.072-3.913,5.39-.655,10.633-.076,15.752,1.686,5.48,1.887,9.843,5.264,13.186,9.977,2.144,3.023,3.741,6.329,4.856,9.85.596,1.884.813,1.826,2.52,1.678,2.746-.238,5.488-.527,8.232-.787,2.562-.243,5.124-.484,7.687-.708.453-.04.923-.048,1.365.036.218.041.516.299.56.505.171.805.274,1.627.37,2.446.397,3.382.607,3.131-2.711,3.468-3.565.362-7.133.7-10.701,1.038-.915.087-1.836.107-2.75.202-.912.094-1.818.243-2.727.37-.315.044-.504.29-.552.542-.207,1.083-.36,2.175-.544,3.263-.508,3.002-1.354,5.903-2.6,8.686-2.745,6.128-7.187,10.6-13.23,13.473-3.938,1.872-8.111,2.967-12.456,3.278-6.463.464-12.379-1.205-17.732-4.845-2.52-1.714-4.764-3.749-6.782-6.033-.547-.618-1.099-1.232-1.656-1.841-.198-.217-.559-.205-.689.01-.567.944-1.125,1.895-1.698,2.835-1.392,2.285-2.995,4.41-4.871,6.32-4.756,4.841-10.471,7.659-17.273,8.237-4.922.418-9.721-.112-14.402-1.685-5.299-1.78-9.611-4.931-12.979-9.381-2.239-2.958-3.859-6.245-5.086-9.732-1.034-2.938-.44-2.66-3.579-2.435-2.75.197-5.49.517-8.236.769-2.654.244-5.309.475-7.964.703-.527.045-.923-.244-.976-.74-.168-1.552-.315-3.107-.458-4.661-.042-.46.328-.876.816-.925,2.194-.218,4.389-.436,6.585-.637,2.654-.243,5.311-.455,7.965-.705,1.189-.112,2.373-.277,3.557-.432.483-.063.778-.377.863-.921.114-.726.188-1.458.303-2.184.579-3.649,1.566-7.171,3.22-10.495,2.539-5.1,6.315-9.005,11.338-11.669,4.953-2.626,10.25-3.977,15.118-4.055h0ZM650.715,793.792c1.286-.092,2.495-.074,3.665-.279,8.164-1.429,14.146-5.82,17.849-13.268,1.206-2.425,1.8-5.002,1.957-7.691.011-.18.008-.382-.062-.541-.068-.153-.227-.37-.354-.376-.73-.035-1.467-.066-2.194-.005-2.106.175-4.208.39-6.311.597-.457.045-.911.118-1.364.194-.769.129-.977.331-1.054,1.028-.05.457-.059.918-.12,1.373-.331,2.473-1.412,4.544-3.347,6.145-.495.41-.985.832-1.512,1.197-1.536,1.064-3.242,1.762-5.089,1.983-4.5.538-10.023-1.475-12.291-6.945-.211-.509-.384-1.033-.59-1.544-.312-.773-.561-.951-1.482-.875-3.022.249-6.042.528-9.063.796-.091.008-.18.034-.27.051-.463.087-.774.549-.677,1.008.516,2.466,1.534,4.724,2.984,6.764,4.743,6.673,11.253,10.064,19.326,10.386v.002ZM598.396,798.628c2.375-.041,4.422-.371,6.526-1.02,4.734-1.461,8.487-4.307,11.508-8.165,2.068-2.641,3.504-5.599,4.213-8.892.233-1.084.339-2.177.251-3.285-.03-.37-.344-.728-.68-.725-.642.006-1.287-.005-1.926.05-2.29.195-4.578.411-6.865.63-.364.035-.726.114-1.084.191-.395.085-.654.371-.759.725-.316,1.055-.599,2.121-.871,3.188-.781,3.062-2.8,5.115-5.45,6.617-1.375.779-2.887,1.159-4.483,1.197-1.297.031-2.563-.139-3.831-.39-3.817-.756-6.461-2.93-7.964-6.504-.249-.592-.439-1.208-.67-1.808-.197-.511-.496-.727-1.053-.68-3.113.265-6.226.542-9.337.826-.473.043-.803.508-.736.975.209,1.463.577,2.878,1.213,4.22.875,1.847,2.034,3.501,3.473,4.94,5.117,5.114,11.339,7.656,18.526,7.912v-.002Z" fill="#b100cf" stroke-width="0"/>
          <path d="M398.05,43.513c-.045-2.775.244-5.513.922-8.201,1.57-6.229,5.038-11.175,10.246-14.898,3.241-2.317,6.784-4.014,10.636-5.086,5.604-1.561,11.093-1.225,16.495.852,2.849,1.095,5.461,2.627,7.912,4.438.517.382,1.015.79,1.522,1.186,1.134.887,1.342.629,1.713-.46.326-.956.639-1.918,1.008-2.858.978-2.489,2.2-4.852,3.736-7.048,3.688-5.27,8.707-8.635,14.883-10.271,3.301-.874,6.68-1.297,10.105-1.132,6.787.326,12.699,2.704,17.57,7.527,2.105,2.084,3.877,4.419,5.411,6.942.334.55.646,1.113.957,1.676.35.634.669.861,1.572.59,4.839-1.456,9.689-2.872,14.537-4.298.616-.181,1.237-.347,1.861-.501.367-.09.782.135.888.476.408,1.316.806,2.635,1.206,3.954.027.088.035.181.054.27.111.517-.076.844-.637,1.042-.519.183-1.045.345-1.572.505-4.745,1.445-9.491,2.888-14.237,4.332-.263.08-.564.118-.772.275-.198.15-.411.426-.42.654-.036.916-.002,1.834.019,2.752.074,3.137-.138,6.244-.892,9.303-1.663,6.749-5.489,11.957-11.247,15.778-2.694,1.788-5.598,3.154-8.687,4.124-6.523,2.048-12.878,1.566-19.077-1.253-2.861-1.301-5.479-2.992-7.92-4.969-.273-.221-.626-.346-.95-.498-.061-.029-.209,0-.236.048-.132.24-.253.488-.349.744-.485,1.289-.941,2.59-1.444,3.872-.775,1.975-1.784,3.832-2.954,5.599-3.601,5.439-8.572,9.042-14.833,10.791-4.468,1.248-9.019,1.644-13.653.96-5.45-.804-10.16-3.081-14.164-6.841-2.023-1.899-3.719-4.069-5.196-6.411-.441-.699-.835-1.427-1.25-2.143-.66-1.138-.746-1.434-2.39-.926-4.826,1.492-9.68,2.893-14.528,4.314-.522.153-1.07.228-1.611.292-.15.017-.328-.127-.477-.222-.067-.043-.112-.142-.137-.225-.436-1.403-.876-2.805-1.294-4.213-.146-.494.076-.829.633-1.027.432-.154.869-.296,1.308-.429,4.835-1.467,9.671-2.929,14.504-4.401.345-.105.684-.254.998-.432.138-.078.257-.269.292-.43.058-.264.061-.545.053-.818-.031-1.102-.074-2.205-.113-3.307v.002ZM426.611,64.725c2.758-.13,5.563-.55,8.257-1.577,7.982-3.042,13.204-10.87,13.973-18.703.115-1.176-.052-2.382-.114-3.572-.014-.27-.133-.535-.204-.803-.124-.467-.572-.747-1.036-.612-2.469.721-4.936,1.445-7.398,2.19-1.86.563-1.861.582-2.035,2.422-.129,1.371-.168,2.747-.519,4.098-.432,1.663-1.253,3.047-2.593,4.121-1.223.981-2.531,1.828-3.925,2.549-1.257.651-2.601.959-3.997.849-1.134-.089-2.264-.287-3.38-.516-2.05-.42-3.873-1.596-5.111-3.283-.614-.837-1.227-1.674-1.845-2.508-.265-.357-.727-.51-1.152-.381-2.726.826-5.448,1.666-8.171,2.5-.735.225-1.029.452-.601,1.415,1.064,2.395,2.589,4.446,4.549,6.166,4.343,3.811,9.503,5.442,15.3,5.645h.002ZM474.765,50.389c2.039-.058,3.782-.104,5.489-.551,8.311-2.173,13.824-7.314,16.456-15.504.915-2.847,1.093-5.761.677-8.716-.047-.332-.49-.635-.807-.566-.09.019-.182.032-.269.058-2.904.864-5.807,1.727-8.709,2.596-.35.105-.622.48-.604.824.029.549.07,1.098.115,1.647.196,2.414-.531,4.535-2.057,6.389-.524.637-1.063,1.273-1.668,1.831-5.159,4.76-13.137,3.326-16.468-1.711-.304-.46-.593-.929-.892-1.391-.568-.877-.706-.948-1.816-.618-2.288.681-4.552,1.442-6.85,2.085-2.68.75-2.401.962-1.16,3.091.644,1.104,1.401,2.169,2.256,3.117,4.43,4.911,10.008,7.305,16.306,7.42h.001Z" fill="#b100cf" stroke-width="0"/>
          <path d="M137.006,462.948c-3.895.068-7.144-.861-10.296-2.217-.84-.362-1.673-.741-2.509-1.112-.193-.086-.61.135-.654.351-.129.628-.268,1.256-.365,1.889-.322,2.099-.895,4.13-1.691,6.093-1.862,4.593-4.952,8.116-9.25,10.592-1.923,1.108-3.959,1.949-6.081,2.559-3.91,1.126-7.812.88-11.694-.208-4.289-1.202-7.851-3.53-10.718-6.923-1.817-2.151-1.45-1.974-3.771-.756-3.091,1.623-6.173,3.263-9.263,4.887-.484.254-.985.483-1.496.675-.129.049-.419-.038-.482-.149-.628-1.113-1.239-2.236-1.816-3.376-.133-.263.064-.557.292-.705.539-.348,1.1-.665,1.666-.969,2.915-1.563,5.836-3.114,8.749-4.68.565-.304,1.129-.625,1.642-1.006.177-.132.286-.479.271-.718-.029-.452-.151-.903-.269-1.344-.769-2.873-.955-5.804-.769-8.753.224-3.559,1.319-6.867,3.349-9.796,3.238-4.673,7.544-8.001,12.981-9.76,2.833-.916,5.733-1.167,8.709-.729,2.666.393,5.186,1.179,7.606,2.333.663.316,1.33.625,1.998.93.204.094.578-.136.611-.366.039-.272.092-.542.132-.814.107-.727.2-1.457.316-2.183,1.509-9.501,9.242-16.877,18.094-18.537,5.393-1.011,10.406-.046,15.171,2.534,1.384.75,2.58,1.76,3.719,2.834,1.137,1.071,2.246,2.172,3.368,3.258.497.481.817.534,1.479.185,3.169-1.671,6.333-3.352,9.502-5.025.73-.386,1.468-.759,2.206-1.129.281-.141.56-.05.726.174.768,1.037,1.42,2.142,1.779,3.392.039.135-.055.39-.171.471-.523.368-1.058.725-1.619,1.03-3.068,1.665-6.148,3.309-9.218,4.973-.48.26-.937.567-1.377.889-.122.09-.21.32-.198.478.025.361.115.718.19,1.074.362,1.709.655,3.425.854,5.164.264,2.317.036,4.595-.405,6.854-.407,2.087-1.148,4.081-2.281,5.884-3.74,5.949-8.941,9.902-15.878,11.423-.448.098-.901.195-1.357.235-.732.063-1.468.078-1.78.093h-.002ZM134.973,457.879c3.559.108,7.493-.642,10.3-2.425,5.636-3.581,8.405-8.778,8.66-15.387.054-1.391-.234-2.738-.557-4.078-.064-.265-.203-.511-.303-.768-.22-.564-.558-.737-1.047-.486-1.549.797-3.103,1.586-4.632,2.422-1.809.989-1.959.811-1.601,2.912.107.628.126,1.284.089,1.921-.048.819-.065,1.675-.318,2.442-2.045,6.206-9.626,7.917-13.872,4.158-.549-.486-1.071-1.002-1.623-1.483-.302-.263-.686-.293-1.027-.111-2.1,1.124-4.191,2.267-6.284,3.404-.183.099-.278.56-.161.742.197.307.372.634.607.911,3.372,3.972,7.812,5.605,11.767,5.825h.002ZM100.72,476.759c1.527.096,3.249-.197,4.932-.66,3.943-1.084,7.142-3.269,9.507-6.628,2.236-3.177,3.305-6.734,3.296-10.597-.004-1.555-.176-3.113-.763-4.59-.261-.657-.678-.889-1.256-.58-1.941,1.038-3.868,2.101-5.811,3.134-.593.316-.687.804-.596,1.386.071.453.189.9.235,1.355.346,3.371-.765,6.128-3.49,8.193-.219.166-.446.323-.674.477-1.251.846-2.641,1.246-4.142,1.295-1.111.036-2.183-.211-3.269-.395-1.045-.177-1.902-.648-2.651-1.352-.534-.502-1.028-1.046-1.547-1.565-.324-.324-.668-.419-.985-.249-2.016,1.087-4.029,2.178-6.037,3.277-.295.161-.386.667-.207.979.136.238.268.48.422.706,1.222,1.794,2.898,3.057,4.824,3.986,2.513,1.213,5.178,1.829,8.213,1.827h0Z" fill="#b100cf" stroke-width="0"/>
          <path d="M39.182,919.168c3.457.499,6.501,1.912,9.219,4.069,1.811,1.437,3.366,3.12,4.761,4.957.333.438.669.873,1.011,1.304.156.197.516.153.698-.085.445-.584.875-1.18,1.328-1.759,1.248-1.598,2.623-3.075,4.208-4.347,3.017-2.422,6.441-3.892,10.3-4.233,2.57-.227,5.141-.173,7.656.534,1.502.423,3.018.777,4.453,1.434,3.981,1.823,7.027,4.634,9.132,8.465.932,1.697,1.662,3.48,2.195,5.342.202.706.372,1.421.574,2.127.15.523.489.783.985.788,1.378.013,2.755.025,4.133.034,2.756.017,5.511.029,8.267.046.463.003.828.375.859.882.028.458.051.917.045,1.375-.028,2.269-.053,2.258-2.32,2.26-3.581.003-7.163.047-10.744.086-.858.009-1.056.217-1.31,1.095-.357,1.234-.681,2.482-1.119,3.688-2.424,6.678-7.028,11.055-13.868,13.064-2.946.866-5.923,1.242-8.981.782-5.705-.858-10.378-3.523-14.006-8.005-.577-.713-1.08-1.486-1.622-2.228-.248-.34-.696-.377-.926-.078-.503.655-1.001,1.314-1.499,1.972-1.002,1.324-2.137,2.524-3.39,3.61-3.764,3.263-8.117,4.883-13.124,4.864-3.558-.013-6.935-.753-10.157-2.187-3.721-1.657-6.588-4.305-8.638-7.826-1.068-1.835-1.877-3.784-2.434-5.834-.192-.709-.354-1.426-.542-2.136-.145-.547-.471-.826-.949-.833-1.286-.018-2.572-.041-3.858-.043-2.847-.003-5.694.005-8.541.007-.091,0-.181-.026-.272-.032-.235-.014-.568-.282-.577-.498-.049-1.098-.093-2.197-.129-3.296-.01-.297.421-.699.733-.707.459-.011.917-.022,1.376-.026,3.765-.032,7.531-.06,11.296-.094.384-.004.698-.247.808-.62.286-.969.554-1.943.835-2.913.749-2.583,1.907-4.967,3.505-7.132,1.779-2.41,4.008-4.3,6.701-5.607,4.412-2.141,9.06-2.905,13.929-2.27v.004ZM70.588,956.576c2.882.363,5.249.202,7.555-.548,4.447-1.446,7.995-4.052,10.333-8.169.78-1.373,1.277-2.842,1.364-4.433.036-.659-.292-1.061-.937-1.07-2.018-.03-4.036-.047-6.054-.061-.51-.004-.871.23-1.03.731-.362,1.141-.818,2.241-1.46,3.257-1.194,1.891-2.876,3.024-5.095,3.411-1.206.21-2.376.069-3.559-.095-1.725-.239-3.122-1.08-4.199-2.404-.573-.705-1.032-1.515-1.461-2.32-.299-.561-.459-1.196-.686-1.797-.176-.467-.489-.772-1.013-.769-2.109.012-4.219.029-6.328.056-.175.002-.372.052-.515.147-.131.087-.291.269-.285.402.024.545.028,1.112.181,1.628,2.037,6.868,6.869,10.59,13.188,12.034h0ZM33.75,956.562c2.598.35,5.128.141,7.582-.837,3.053-1.217,5.617-3.087,7.693-5.632.758-.93,1.377-1.948,1.883-3.032.59-1.265.882-2.601.865-4.001-.004-.382-.298-.776-.615-.776-2.201,0-4.401-.004-6.602.011-.394.003-.684.255-.852.6-.2.411-.347.848-.54,1.263-.541,1.168-1.139,2.3-2.007,3.272-1.359,1.521-3.071,2.307-5.083,2.417-1.106.06-2.22-.082-3.26-.455-2.541-.911-4.5-2.457-5.287-5.178-.127-.441-.264-.879-.38-1.323-.082-.316-.333-.45-.593-.488-.543-.079-1.095-.127-1.644-.134-1.377-.017-2.754-.008-4.13,0-.274.002-.548.039-.821.066-.448.044-.773.473-.732.974.03.365.04.736.111,1.094.395,2.017,1.222,3.845,2.49,5.463,3.044,3.885,7.084,6.014,11.921,6.698h0Z" fill="#b100cf" stroke-width="0"/>
        </g>
        <path d="M531.884,1034.749c-6.618-.075-13.072-.957-19.371-2.801-8.261-2.419-15.976-6.05-23.133-10.826-7.932-5.293-14.203-12.19-19.197-20.272-2.419-3.915-4.532-7.993-6.233-12.276-.168-.424-.29-.866-.418-1.304-.078-.264.202-.838.459-.934.515-.192,1.024-.422,1.556-.539,3.41-.751,6.826-1.474,10.239-2.208,4.849-1.042,9.699-2.087,14.548-3.127,1.976-.424,3.951-.855,5.933-1.254.627-.126,1.272-.201,1.912-.221.467-.014.91.172,1.16.612.408.719.8,1.446,1.186,2.177,1.116,2.113,2.148,4.273,3.352,6.334,2.892,4.953,6.866,8.827,11.905,11.594,3.167,1.739,6.556,2.875,10.066,3.664,2.607.586,5.257.937,7.926.969,4.267.051,8.418-.678,12.425-2.159,3.39-1.252,6.462-3.075,9.353-5.228,4.638-3.455,8.406-7.673,11.225-12.729,2.239-4.014,3.449-8.294,3.345-12.919-.041-1.839-.027-3.678-.496-5.479-.091-.351-.096-.727-.116-1.093-.029-.516.364-1.109.856-1.307.254-.102.511-.209.777-.267,4.219-.917,8.438-1.832,12.66-2.737,4.851-1.039,9.704-2.071,14.557-3.099,1.708-.362,3.417-.719,5.132-1.043.843-.159,1.397.272,1.526,1.17.118.817.204,1.642.245,2.467.22,4.427-.113,8.812-.935,13.171-1.197,6.345-2.991,12.504-5.577,18.426-5.287,12.105-13.363,21.916-24.273,29.361-9.228,6.296-19.342,10.536-30.31,12.672-4.065.792-8.192,1.142-12.282,1.206h-.002Z" fill="#fc00cf" stroke-width="0"/>
        <path d="M367.596,1069.158c-6.493.15-13.417-1.068-20.188-3.357-6.917-2.339-13.459-5.414-19.506-9.515-9.067-6.15-16.192-14.082-21.602-23.581-1.411-2.477-2.712-5.012-3.818-7.64-.426-1.012-.735-2.075-1.078-3.12-.117-.356.107-.753.476-.874.61-.2,1.218-.415,1.843-.555,2.51-.561,5.025-1.099,7.54-1.64,7.363-1.582,14.726-3.166,22.092-4.732.804-.171,1.628-.258,2.447-.338.388-.038.728.173.879.537.21.505.383,1.028.531,1.554.697,2.487,1.614,4.884,2.904,7.129,2.387,4.155,5.68,7.43,9.728,9.958,3.853,2.407,8.026,4.062,12.424,5.148,3.042.751,6.129,1.159,9.278,1.115,7.888-.11,15.009-2.485,21.259-7.286,7.723-5.933,12.265-13.798,13.718-23.411.287-1.898.245-3.848.316-5.776.037-1.009-.027-2.022-.009-3.032.014-.778.495-1.395,1.269-1.617.882-.253,1.774-.476,2.672-.667,9.522-2.027,19.047-4.047,28.571-6.064.629-.133,1.264-.241,1.898-.352,1.175-.206,1.698.209,1.722,1.475.071,3.858.176,7.708-.238,11.568-.483,4.495-1.31,8.907-2.597,13.231-2.061,6.925-5.184,13.352-9.282,19.297-4.623,6.707-10.11,12.621-16.503,17.673-7.768,6.138-16.545,10.204-26.145,12.523-6.001,1.45-13.15,2.395-20.601,2.349h0Z" fill="#fc00cf" stroke-width="0"/>
        <path d="M850.2,968.801c-4.198-1.61-6.54-5.041-6.59-9.135-.005-.365.346-.651.734-.585.812.138,1.622.286,2.433.427.72.125,1.13.512,1.181,1.275.024.361.118.724.228,1.072.613,1.942,1.999,3.004,3.948,3.379,1.871.36,3.435-.171,4.638-1.678.285-.358.542-.744.866-1.062.177-.174.495-.363.704-.321,1.069.215,2.125.498,3.182.768.185.047.364.494.295.703-.114.346-.179.726-.369,1.025-2.109,3.319-5.153,4.818-9.059,4.524-.903-.068-1.793-.318-2.192-.392h.001Z" fill="#fc00cf" stroke-width="0"/>
        <path d="M871.759,973.524c-2.993-.919-6.46-4.74-6.309-8.514.011-.267.046-.548.144-.792.053-.134.278-.307.399-.288,1.08.166,2.159.349,3.226.582.223.049.5.29.571.504.203.603.275,1.249.465,1.857.539,1.726,1.748,2.765,3.481,3.163,2.037.467,3.886.076,5.137-1.696,1.014-1.436.997-1.539,2.958-1.026.089.023.176.051.265.07,1.874.41,1.948.956,1.037,2.412-1.507,2.409-3.776,3.676-6.511,4.136-1.639.276-3.285.238-4.863-.407h0Z" fill="#fc00cf" stroke-width="0"/>
        <path d="M162.197,758.574c-5.752.005-12.083-.979-18.186-3.197-11.581-4.209-20.964-11.3-27.814-21.596-4.603-6.919-7.331-14.561-8.544-22.773-.486-3.291-.566-6.586-.477-9.898.069-2.588.555-5.11,1.173-7.611.086-.35.26-.688.449-.999.14-.231.378-.411.688-.318.615.183,1.235.354,1.835.58,6.788,2.557,13.574,5.121,20.358,7.691.513.194,1.007.439,1.503.677.267.128.514.644.452.943-.093.447-.196.893-.321,1.331-.688,2.404-1.019,4.848-.93,7.352.08,2.227.52,4.377,1.348,6.441,1.954,4.872,4.927,9.023,8.989,12.35,4.779,3.915,10.272,5.989,16.468,6.13,2.954.067,5.853-.201,8.71-1.075,4.518-1.381,8.348-3.795,11.461-7.319,1.152-1.304,2.146-2.75,3.189-4.148.384-.514.69-1.085,1.054-1.615.588-.857,1.098-1.019,2.13-.63,4.468,1.685,8.932,3.382,13.396,5.076,2.919,1.107,5.84,2.208,8.751,3.335.505.196.978.487,1.441.774.114.071.221.325.181.444-.148.43-.321.861-.553,1.251-6.668,11.255-16.011,19.296-28.459,23.558-5.683,1.946-11.538,3.04-18.289,3.248l-.003-.002Z" fill="#fc00cf" stroke-width="0"/>
        <path d="M278.52,802.725c-10.715-.161-20.678-2.984-29.839-8.555-8.215-4.995-14.454-11.849-18.954-20.322-2.824-5.317-4.817-10.928-5.904-16.843-1.005-5.469-1.148-10.967-.151-16.459.245-1.352.494-2.717,1.086-3.978.061-.13.294-.281.422-.261.451.069.907.166,1.333.327,6.875,2.598,13.747,5.202,20.616,7.816,2.694,1.025,2.95,1.286,2.531,4.262-.358,2.548-.473,5.116-.248,7.702.291,3.361,1.287,6.482,2.946,9.394,2.249,3.948,5.265,7.32,9.109,9.996,1.544,1.075,3.24,1.928,5.017,2.546,8.027,2.791,15.639,2.085,22.852-1.193,4.144-1.883,7.278-4.928,9.453-8.938.481-.888.939-1.788,1.419-2.676.183-.338.578-.525.919-.454.358.075.726.131,1.069.253,7.273,2.584,14.495,5.3,21.603,8.312,1.787.757,1.822.93.924,2.614-2.765,5.181-6.615,9.488-11.09,13.285-7,5.939-15.377,10.106-24.345,12.068-3.536.774-7.131,1.215-10.767,1.104h-.001Z" fill="#fc00cf" stroke-width="0"/>
        <path d="M731.586,470.991c-8.617,2.415-17.405,3.353-26.378,1.855-5.685-.949-11.02-2.852-16.037-5.669-6.15-3.452-11.62-7.739-16.121-13.202-3.116-3.782-5.707-7.886-7.538-12.447-.479-1.192-.962-2.384-1.403-3.59-.22-.603.074-1.019.751-1.198.089-.023.177-.05.267-.07.628-.141,1.252-.304,1.886-.416,3.348-.593,6.702-1.157,10.048-1.761,3.437-.621,6.866-1.284,10.301-1.912.628-.115,1.271-.185,1.907-.189.221-.001.493.22.653.414.167.203.249.487.331.747.249.789.482,1.583.72,2.376,1.147,3.823,3.4,6.884,6.446,9.411,4.471,3.709,12.758,6.823,19.233,6.436,3.44-.206,6.707-.993,9.813-2.505,2.578-1.255,4.981-2.75,7.089-4.707,4.421-4.104,7.057-9.12,7.73-15.128.174-1.55.227-3.114.336-4.672.025-.367.036-.735.075-1.101.056-.524.513-1.039,1.051-1.148,1.261-.255,2.524-.499,3.789-.727,3.255-.588,6.513-1.162,9.769-1.747,2.261-.406,4.518-.831,6.78-1.228,1.357-.238,2.721-.442,4.082-.658.281-.044.777.33.81.621.084.728.217,1.457.222,2.187.044,7.368-1.322,14.456-4.49,21.127-3.024,6.365-7.068,12.023-12.118,16.968-3.78,3.702-8.046,6.704-12.775,9.024-2.305,1.13-4.691,2.123-7.228,2.91h0Z" fill="#fc00cf" stroke-width="0"/>
        <path d="M850.243,449.445c-13.708,4.176-27.024,3.135-39.923-3.088-8.278-3.994-15.065-9.773-20.34-17.313-2.651-3.788-4.691-7.887-6.249-12.232-.122-.341-.162-.712-.233-1.071-.036-.181.247-.572.447-.629.264-.076.525-.17.794-.219,3.434-.627,6.87-1.239,10.303-1.872,3.432-.633,6.86-1.293,10.293-1.924.993-.183,1.994-.327,2.996-.453.809-.101,1.373.245,1.732,1.055.335.755.618,1.534.935,2.297,1.919,4.612,4.861,8.42,9.004,11.236,5.114,3.477,10.797,5.044,16.959,4.645,6.264-.406,11.759-2.717,16.355-7.052,1.337-1.262,2.631-2.565,3.78-4.004,1.978-2.476,3.401-5.233,4.149-8.321.502-2.072.624-4.172.423-6.295-.078-.819-.113-1.644-.131-2.467-.003-.144.144-.368.277-.424.503-.212,1.016-.434,1.548-.539,3.784-.751,7.569-1.496,11.362-2.199,2.98-.552,5.969-1.055,8.959-1.552.904-.15,1.823-.213,2.737-.302.39-.038.758.217.827.56.09.449.2.898.231,1.352.124,1.836.111,3.671-.106,5.501-1.882,15.827-9.276,28.454-22.122,37.859-4.555,3.334-9.619,5.718-15.004,7.453l-.003-.002Z" fill="#fc00cf" stroke-width="0"/>
        <path d="M307.605,212.491c-.044-.365-.082-.73-.132-1.094-.295-2.144-.191-2.036,1.715-1.929,3.025.169,6.052.299,9.079.449,2.751.137,5.502.276,8.253.419.492.026.837.338.935.845.331,1.712.591,3.43,1.125,5.107,1.364,4.29,3.882,7.658,7.677,10.082,1.636,1.045,3.355,1.913,5.207,2.486,4.471,1.385,8.885,1.141,13.217-.591,2.317-.926,4.433-2.206,6.381-3.768,2.991-2.397,4.849-5.468,5.564-9.232.068-.36.161-.72.191-1.083.138-1.683.535-1.73,1.863-1.665,5.595.275,11.189.565,16.782.862.266.014.542.108.783.226.146.071.341.267.333.396-.059.913-.103,1.835-.269,2.732-.336,1.814-.948,3.547-1.74,5.213-3.434,7.222-8.491,13.065-15.089,17.554-2.978,2.026-6.295,3.397-9.69,4.574-2.264.785-4.591,1.34-6.944,1.741-4.393.748-8.783.573-13.149-.288-1.987-.392-3.927-.952-5.819-1.671-5.651-2.147-10.718-5.247-15.098-9.42-4.904-4.672-8.204-10.311-10.013-16.839-.467-1.686-.872-3.379-1.16-5.105h-.002Z" fill="#fc00cf" stroke-width="0"/>
        <path d="M225.666,205.131c0,2.635,8.31.385,9.896.573.357.042.618.324.664.741.08.73.102,1.469.222,2.191.196,1.175.358,2.369.703,3.504.706,2.32,1.961,4.345,3.678,6.065,1.894,1.897,4.003,3.521,6.396,4.739,3.182,1.618,6.539,2.343,10.128,1.943,3.327-.371,6.49-1.198,9.384-2.938,3.681-2.214,6.255-5.351,7.79-9.341.427-1.111.716-2.275,1.082-3.411.112-.348.218-.716.419-1.012.134-.197.434-.403.656-.398,1.559.029,3.117.099,4.675.18,4.4.228,8.799.467,13.198.705.181.01.361.053.541.079.308.046.604.47.59.816-.05,1.203-.354,2.356-.669,3.508-1.327,4.867-3.722,9.182-6.892,13.064-5.608,6.868-12.751,11.665-21.565,14.089-3.177.874-6.48,1.244-9.774,1.168-7.398-.171-14.471-1.73-21.066-5.549-2.837-1.643-5.401-3.728-7.691-6.074-3.982-4.079-7.164-8.696-9.246-14.048-1.275-3.278-2.007-6.673-2.2-10.185-.028-.51.322-.852.829-.836.183.006.367.016.55.025,2.567.132,7.701.4,7.701.402h0Z" fill="#fc00cf" stroke-width="0"/>
        <path d="M458.752,580.392c-10.999-2.259-20.572-8.618-26.997-19.474-2.32-3.92-3.737-8.182-4.455-12.675-.043-.27-.027-.549-.037-.824-.007-.184.33-.577.512-.582,1.283-.033,2.565-.084,3.848-.094,3.033-.025,6.065-.04,9.098-.04,1.746,0,3.492.028,5.237.07.57.014,1.025.419,1.174.995.207.8.362,1.614.578,2.412,1.641,6.063,5.277,10.487,11.08,12.914,9.295,3.888,19.14.769,24.483-6.457,1.615-2.185,2.618-4.631,2.9-7.351.066-.639.099-1.283.19-1.918.039-.272.222-.512.526-.561.451-.073.907-.165,1.362-.166,5.606-.017,11.211-.02,16.817-.019.175,0,.372.045.52.133.141.084.332.254.329.383-.012.635-.019,1.281-.138,1.902-1.914,10.036-7.123,18.014-15.205,24.162-6.099,4.64-13.064,7.041-20.645,7.722-4.84.434-6.03.193-11.176-.529v-.003Z" fill="#fc00cf" stroke-width="0"/>
        <path d="M369.467,580.684c-8.199-1.32-14.917-4.659-20.636-10.05-3.787-3.569-6.912-7.616-9.158-12.322-1.473-3.088-2.478-6.327-3.078-9.691-.064-.359-.057-.731-.079-1.097-.01-.17.358-.549.539-.554,1.191-.03,2.382-.085,3.573-.088,4.41-.012,8.821-.011,13.231,0,.547,0,1.103.043,1.636.157.22.047.514.306.558.515.152.716.205,1.453.302,2.181.455,3.404,1.941,6.297,4.362,8.713,3.136,3.13,6.871,5.248,11.19,6.187,4.067.884,8.058.401,11.854-1.331,4.322-1.973,7.75-4.925,9.712-9.342.594-1.337.975-2.769,1.43-4.166.142-.435.201-.897.305-1.344.353-1.513.4-1.565,2.029-1.629,1.194-.047,2.389-.07,3.584-.069,4.501.002,9.002.018,13.503.03.471,0,.789.37.798.906.017,1.108-.084,2.202-.338,3.283-.998,4.243-2.62,8.216-5.031,11.864-5.139,7.773-12.023,13.327-20.849,16.399-4.12,1.434-8.383,2.021-12.738,1.949-1.286-.021-2.574-.053-3.856-.15-1.099-.083-2.19-.266-2.842-.348v-.002Z" fill="#fc00cf" stroke-width="0"/>
        <path d="M718.665,165.624c2.285.061,4.57.118,6.855.183.472.014.868.358.951.822.097.542.194,1.085.268,1.631.439,3.252,2.008,5.881,4.482,7.973,2.348,1.985,4.994,3.441,8.043,4.015,3.228.608,6.401.376,9.451-.921,2.891-1.229,5.042-3.307,6.693-5.936.981-1.562,1.704-3.248,2.317-4.984.152-.432.256-.888.466-1.289.111-.212.383-.384.62-.473.247-.092.541-.086.814-.082,4.315.069,8.63.143,12.945.222.271.005.575-.007.803.108.213.108.497.383.487.57-.05.91-.117,1.83-.308,2.719-.574,2.673-1.666,5.164-3.077,7.503-3.675,6.093-9.181,10.967-15.77,13.654-5.137,2.095-10.487,2.78-16.017,2.043-3.484-.464-6.844-1.286-10.026-2.804-3.012-1.436-5.721-3.295-8.108-5.625-3.321-3.242-6.014-6.922-7.813-11.225-.89-2.128-1.465-4.344-1.83-6.615-.057-.356-.043-.732.003-1.092.021-.163.177-.323.339-.351.445-.076.9-.116,1.352-.118,2.02-.011,4.04-.005,6.06-.005v.076h0Z" fill="#fc00cf" stroke-width="0"/>
        <path d="M792.669,166.725c2.205.035,4.41.063,6.614.11.793.017.993.181,1.166.874.178.713.318,1.436.514,2.143,1.738,6.274,5.89,9.973,12.174,11.397,3.65.827,7.113.236,10.434-1.383,1.41-.687,2.686-1.585,3.895-2.582,2.447-2.019,3.888-4.602,4.37-7.729.07-.452.075-.922.205-1.354.068-.225.312-.455.535-.561.234-.111.539-.108.811-.102,4.499.113,8.997.234,13.496.36.177.005.352.087.53.119.225.041.314.164.308.393-.029,1.204-.354,2.351-.687,3.492-1.503,5.158-4.245,9.549-7.994,13.306-4.398,4.408-9.987,7.533-16.086,8.789-14.549,2.997-27.442-4.027-33.914-14.048-2.379-3.683-3.817-7.72-4.487-12.041-.014-.091-.015-.183-.026-.274-.073-.608.285-1.004.974-1.002,1.745.005,3.491.037,5.236.054.643.006,1.286.001,1.928.001v.038h.003Z" fill="#fc00cf" stroke-width="0"/>
        <path d="M872.104,688.725c-5.804-3.155-10.131-7.522-13.015-13.275-2.053-4.095-3.016-8.453-2.93-13.038.003-.183.031-.365.044-.548.05-.679.446-1.046,1.055-.937,1.625.292,3.247.598,4.87.901,2.615.488,5.23.974,7.844,1.469.527.1.783.396.838.94.073.73.128,1.463.196,2.194.12,1.285.378,2.541.778,3.768.667,2.045,1.734,3.828,3.333,5.296,4.875,4.474,10.383,5.562,16.552,3.133.766-.302,1.504-.686,2.229-1.079,2.336-1.268,4.072-3.103,5.135-5.552.256-.589.516-1.178.735-1.781.36-.994.714-1.204,1.893-.974,2.339.457,4.691.851,7.036,1.284,1.714.317,3.424.651,5.135.984.349.068.641.509.528.811-.385,1.03-.694,2.101-1.194,3.073-3.832,7.466-9.783,12.526-17.712,15.181-6.609,2.213-13.236,1.952-19.8-.269-.344-.116-.899-.335-1.23-.485-.83-.376-1.669-.786-2.318-1.095h-.001Z" fill="#fc00cf" stroke-width="0"/>
        <path d="M804.752,675.983c-5.803-2.969-9.707-7.368-12.57-12.772-2.147-4.053-3.286-8.363-3.215-12.967.007-.457.065-.914.098-1.371.024-.334.416-.616.787-.573.272.032.544.069.813.118,3.973.728,7.945,1.457,11.917,2.193.174.032.357.105.495.212.136.105.307.276.311.421.017.639-.03,1.279-.039,1.919-.042,3.066.922,5.768,2.907,8.114,1.378,1.629,2.973,3.016,4.797,4.097,2.267,1.345,4.789,1.876,7.403,1.808,4.228-.111,7.864-1.638,10.804-4.737.769-.811,1.336-1.751,1.88-2.708.363-.638.692-1.297,1.001-1.964.619-1.334.77-1.542,2.273-1.243,3.781.754,7.577,1.431,11.366,2.142.27.051.537.119.803.186.292.074.592.578.501.874-.541,1.758-1.14,3.491-2.118,5.068-3.552,5.728-8.483,9.844-14.666,12.459-5.768,2.44-11.732,2.895-17.821,1.469-3.865-.905-5.621-1.605-7.726-2.745h0Z" fill="#fc00cf" stroke-width="0"/>
        <path d="M650.715,793.792c-8.073-.322-14.584-3.714-19.326-10.386-1.45-2.04-2.468-4.298-2.984-6.764-.096-.459.214-.921.677-1.008.09-.017.179-.043.27-.051,3.021-.269,6.041-.547,9.063-.796.921-.076,1.171.102,1.482.875.206.511.379,1.035.59,1.544,2.269,5.469,7.791,7.483,12.291,6.945,1.847-.221,3.554-.919,5.089-1.983.527-.365,1.017-.788,1.512-1.197,1.935-1.601,3.015-3.672,3.347-6.145.061-.455.07-.916.12-1.373.077-.697.285-.899,1.054-1.028.453-.076.908-.149,1.364-.194,2.103-.208,4.206-.423,6.311-.597.727-.06,1.464-.03,2.194.005.128.006.286.223.354.376.07.159.072.36.062.541-.157,2.689-.752,5.265-1.957,7.691-3.703,7.448-9.685,11.839-17.849,13.268-1.17.205-2.379.187-3.665.279v-.002Z" fill="#fc00cf" stroke-width="0"/>
        <path d="M598.396,798.628c-7.187-.256-13.409-2.799-18.526-7.912-1.44-1.438-2.598-3.093-3.473-4.94-.636-1.342-1.004-2.757-1.213-4.22-.067-.468.264-.932.736-.975,3.112-.284,6.224-.561,9.337-.826.557-.047.857.168,1.053.68.231.6.421,1.216.67,1.808,1.503,3.574,4.147,5.749,7.964,6.504,1.268.251,2.535.421,3.831.39,1.596-.038,3.108-.418,4.483-1.197,2.651-1.502,4.67-3.555,5.45-6.617.272-1.067.555-2.133.871-3.188.106-.353.364-.639.759-.725.359-.077.72-.156,1.084-.191,2.288-.219,4.576-.434,6.865-.63.639-.054,1.284-.044,1.926-.05.336-.003.65.354.68.725.088,1.109-.017,2.202-.251,3.285-.709,3.294-2.146,6.251-4.213,8.892-3.02,3.858-6.773,6.704-11.508,8.165-2.104.649-4.151.979-6.526,1.02v.002Z" fill="#fc00cf" stroke-width="0"/>
        <path d="M426.611,64.725c-5.797-.202-10.957-1.834-15.3-5.645-1.96-1.72-3.486-3.77-4.549-6.166-.428-.963-.134-1.19.601-1.415,2.723-.834,5.445-1.674,8.171-2.5.426-.129.888.024,1.153.381.617.834,1.229,1.671,1.844,2.508,1.234,1.679,3.041,2.858,5.083,3.277,1.126.231,2.265.431,3.408.522,1.396.11,2.74-.198,3.997-.849,1.393-.721,2.702-1.569,3.925-2.549,1.34-1.075,2.161-2.458,2.593-4.121.351-1.351.39-2.727.519-4.098.174-1.839.175-1.859,2.035-2.422,2.462-.745,4.929-1.469,7.398-2.19.445-.13.915.129,1.028.579.069.278.198.554.212.836.062,1.191.229,2.396.114,3.572-.769,7.832-5.991,15.661-13.973,18.703-2.694,1.027-5.499,1.447-8.257,1.577h-.002Z" fill="#fc00cf" stroke-width="0"/>
        <path d="M474.765,50.389c-6.297-.115-11.875-2.509-16.306-7.42-.855-.948-1.612-2.013-2.256-3.117-1.241-2.129-1.52-2.34,1.16-3.091,2.298-.643,4.562-1.404,6.85-2.085,1.11-.331,1.248-.259,1.816.618.3.462.588.932.892,1.391,3.331,5.038,11.309,6.471,16.468,1.711.605-.558,1.143-1.194,1.668-1.831,1.526-1.854,2.253-3.975,2.057-6.389-.044-.548-.086-1.097-.115-1.647-.018-.344.254-.719.604-.824,2.902-.869,5.806-1.732,8.709-2.596.088-.026.18-.039.269-.058.317-.069.76.234.807.566.416,2.955.238,5.869-.677,8.716-2.633,8.19-8.145,13.331-16.456,15.504-1.707.446-3.45.492-5.489.551h-.001Z" fill="#fc00cf" stroke-width="0"/>
        <path d="M134.973,457.879c-3.956-.221-8.396-1.854-11.767-5.825-.234-.276-.41-.604-.607-.911-.117-.182-.022-.642.161-.742,2.093-1.137,4.184-2.28,6.284-3.404.341-.182.725-.152,1.027.111.552.481,1.074.998,1.623,1.483,4.246,3.759,11.826,2.048,13.872-4.158.253-.767.27-1.623.318-2.442.037-.637.018-1.293-.089-1.921-.357-2.101-.207-1.923,1.601-2.912,1.528-.836,3.083-1.625,4.632-2.422.489-.251.827-.079,1.047.486.1.257.239.503.303.768.323,1.34.611,2.687.557,4.078-.255,6.609-3.024,11.807-8.66,15.387-2.807,1.783-6.741,2.533-10.3,2.425h-.002Z" fill="#fc00cf" stroke-width="0"/>
        <path d="M100.72,476.759c-3.035.002-5.699-.614-8.213-1.827-1.926-.929-3.602-2.192-4.824-3.986-.154-.226-.286-.468-.422-.706-.179-.312-.087-.818.207-.979,2.009-1.099,4.022-2.191,6.037-3.277.316-.171.66-.075.985.249.519.518,1.013,1.062,1.547,1.565.748.704,1.606,1.174,2.651,1.352,1.086.184,2.158.432,3.269.395,1.501-.049,2.891-.449,4.142-1.295.228-.154.455-.311.674-.477,2.725-2.065,3.836-4.822,3.49-8.193-.047-.455-.165-.902-.235-1.355-.091-.582.003-1.07.596-1.386,1.943-1.034,3.87-2.096,5.811-3.134.578-.309.995-.077,1.256.58.586,1.478.759,3.036.763,4.59.01,3.863-1.059,7.42-3.296,10.597-2.365,3.359-5.564,5.545-9.507,6.628-1.683.463-3.405.756-4.932.66h0Z" fill="#fc00cf" stroke-width="0"/>
        <path d="M70.588,956.576c-6.319-1.444-11.152-5.166-13.188-12.034-.153-.517-.156-1.083-.181-1.628-.006-.133.154-.315.285-.402.143-.095.34-.145.515-.147,2.109-.027,4.218-.044,6.328-.056.525-.003.837.302,1.013.769.226.601.387,1.236.686,1.797.43.805.888,1.615,1.461,2.32,1.077,1.325,2.474,2.166,4.199,2.404,1.184.164,2.353.305,3.559.095,2.219-.387,3.901-1.519,5.095-3.411.642-1.017,1.097-2.116,1.46-3.257.159-.501.52-.735,1.03-.731,2.018.015,4.036.032,6.054.061.645.009.973.411.937,1.07-.087,1.591-.584,3.06-1.364,4.433-2.338,4.117-5.886,6.722-10.333,8.169-2.306.75-4.674.911-7.555.548h0Z" fill="#fc00cf" stroke-width="0"/>
        <path d="M33.75,956.562c-4.837-.683-8.877-2.813-11.921-6.698-1.268-1.618-2.095-3.445-2.49-5.463-.07-.358-.081-.729-.111-1.094-.041-.501.283-.93.732-.974.273-.027.547-.064.821-.066,1.377-.007,2.754-.016,4.13,0,.549.007,1.101.054,1.644.134.26.038.511.173.593.488.115.444.252.882.38,1.323.786,2.722,2.746,4.268,5.287,5.178,1.04.373,2.154.515,3.26.455,2.012-.109,3.724-.896,5.083-2.417.868-.972,1.465-2.104,2.007-3.272.192-.415.34-.852.54-1.263.168-.345.458-.597.852-.6,2.201-.016,4.401-.013,6.602-.011.316,0,.61.395.615.776.016,1.4-.275,2.736-.865,4.001-.506,1.084-1.124,2.102-1.883,3.032-2.076,2.545-4.639,4.415-7.693,5.632-2.454.978-4.983,1.187-7.582.837h0Z" fill="#fc00cf" stroke-width="0"/>
      </g>
    </g>
  </g>
</svg>