<?xml version="1.0" encoding="UTF-8"?>
<svg id="b" data-name="Layer 2" xmlns="http://www.w3.org/2000/svg" width="700" height="700" xmlns:xlink="http://www.w3.org/1999/xlink" viewBox="0 0 700 700">
  <defs>
    <pattern id="d" data-name="New Pattern 44" x="0" y="0" width="720" height="720" patternTransform="translate(-6795 -4956)" patternUnits="userSpaceOnUse" viewBox="0 0 720 720">
      <g>
        <rect width="720" height="720" fill="none" stroke-width="0"/>
        <g id="e" data-name="c">
          <rect x="704.52" y="710.538" width="745.994" height="741.729" fill="#fff1c2" stroke-width="0"/>
        </g>
        <g id="f" data-name="c">
          <rect x="-15.48" y="710.538" width="745.994" height="741.729" fill="#fff1c2" stroke-width="0"/>
        </g>
        <g id="h" data-name="c">
          <rect x="-735.48" y="710.538" width="745.994" height="741.729" fill="#fff1c2" stroke-width="0"/>
        </g>
        <g id="i" data-name="c">
          <rect x="704.52" y="-9.462" width="745.994" height="741.729" fill="#fff1c2" stroke-width="0"/>
        </g>
        <g>
          <g id="j" data-name="c">
            <rect x="-15.48" y="-9.462" width="745.994" height="741.729" fill="#fff1c2" stroke-width="0"/>
          </g>
          <g>
            <path d="M502.409,213.112l.384,5.382c.687.848.436,1.937.749,2.892,1.044,3.185,2.706,6,4.9,8.522,2.462,2.83,5.361,5.176,8.367,7.399,2.759,2.041,5.551,4.037,8.306,6.084,4.956,3.683,9.062,8.377,11.988,13.792,1.882,3.483,3.503,7.084,4.808,10.81,2.494,7.122,4.81,14.308,7.401,21.396,6.089,16.654,13.616,32.628,23.336,47.528,9.523,14.598,20.809,27.623,34.851,38.149,8.227,6.167,16.994,11.421,26.746,14.888,8.238,2.93,16.671,4.394,25.425,2.766,7.605-1.414,14.125-4.855,19.289-10.606,4.77-5.313,6.949-11.568,6.371-18.704-.334-4.122-1.614-7.974-3.49-11.634-3.334-6.506-8.087-11.888-13.556-16.688-4.119-3.616-8.544-6.853-12.861-10.224-5.176-4.043-10.208-8.229-14.537-13.204-4.471-5.138-7.338-10.945-7.928-17.759-.334-3.861-.092-7.671,1.574-11.265,1.678-3.621,4.455-5.939,8.425-6.682,4.15-.776,8.038-.049,11.623,2.217,2.509,1.586,4.721,3.527,6.896,5.52,2.395,2.195,4.759,4.421,7.333,6.417,5.833,4.526,12.421,5.274,19.389,3.659,5.652-1.31,9.957-4.73,13.476-9.191,4.089-5.182,6.624-11.118,8.454-17.383,2.32-7.944,3.319-16.074,3.247-24.32-.051-5.771-.745-11.465-2.572-16.995-1.701-5.151-4.757-9.091-9.739-11.467-1.723-.822-3.415-1.707-5.121-2.565-2.066-1.04-4.031-2.28-5.783-3.785-8.6-7.387-12.902-16.756-13.061-27.94-.074-5.211,1.151-10.082,4.472-14.311,1.968-2.506,3.77-5.14,5.678-7.693,4.14-5.541,8.309-11.062,11.819-17.032,2.259-3.841,4.269-7.793,5.291-12.168.413-1.767.605-3.553.416-5.351-.409-3.896-2.541-6.641-5.944-8.477-3.235-1.746-6.748-2.629-10.379-2.904-3.169-.24-5.258-1.841-6.744-4.459-.921-1.622-1.668-3.323-2.251-5.09-1.39-4.208-2.734-8.432-4.141-12.635-.8-2.388-1.786-4.704-3.005-6.918-1.074-1.95-2.349-3.76-3.973-5.327-4.271-4.122-10.77-5.001-16.098-2.346-3.083,1.537-5.621,3.768-7.993,6.186-2.613,2.664-5.149,5.403-7.766,8.064-2.582,2.626-5.362,5.021-8.59,6.855-4.618,2.624-9.542,3.592-14.821,2.78-7.175-1.104-13.277-4.232-18.276-9.449-2.152-2.247-4.234-4.561-6.383-6.812-4.216-4.415-9.562-7.646-15.48-9.23-11.69-3.13-23.125-2.375-34.288,2.094-4.679,1.873-9.048,4.297-12.696,7.827-3.72,3.6-5.484,7.948-4.97,13.148.381,3.853,1.878,7.287,3.906,10.521,3.2,5.102,7.413,9.276,12.175,12.933,4.537,3.483,9.122,6.903,13.62,10.433,4.558,3.578,8.774,7.516,12.223,12.199,3.784,5.137,6.082,10.845,6.749,17.199,1.184,11.282-4.572,20.117-15.443,23.667-3.518,1.148-7.139,1.782-10.804,2.187-4.141.459-8.294.816-12.432,1.299-3.54.413-7.039,1.066-10.447,2.146-10.803,3.423-17.266,11.745-17.855,23.018-.013.246-.047.473-.258.634h0Z" fill="#ed2124" stroke-width="0"/>
            <path d="M374.815,18.402h-5.074c-.223.251-.525.282-.824.32-5.284.677-9.963,2.85-14.207,6.149-9.941,7.729-16.989,17.729-21.587,29.665-2.446,6.35-3.712,12.974-4.339,19.76-.26,2.82-.768,5.602-1.974,8.18-1.857,3.969-5.166,5.726-9.357,5.076-1.324-.205-2.597-.573-3.849-1.028-1.652-.6-3.288-1.246-4.927-1.882-4.301-1.669-8.707-1.973-13.178-.978-12.274,2.734-20.074,13.752-17.96,27.692,1.013,6.679,4.456,11.839,9.451,15.981,3.615,2.997,7.679,5.206,11.853,7.211,4.711,2.263,9.509,4.327,14.128,6.801,10.756,5.76,20.663,12.744,29.094,21.851,6.702,7.239,11.964,15.427,15.16,24.977,2.453,7.328,3.185,14.937,3.377,22.618.129,5.151.063,10.307.076,15.461.015,5.472.286,10.925,1.093,16.34,1.589,10.654,6.046,19.684,14.079,26.624,7.917,6.84,16.85,11.939,26.291,16.075,4.99,2.186,10.227,2.356,15.467,1.039,9.145-2.299,17.254-6.734,24.356-13.141,4.431-3.997,8.028-8.695,10.543-14.231,3.45-7.595,4.737-15.515,3.134-23.835-.865-4.488-2.684-8.586-4.842-12.529-1.852-3.384-3.797-6.713-5.651-10.096-1.376-2.51-2.687-5.066-3.444-7.869-.844-3.124-1.248-6.276-.246-9.457.883-2.802,2.693-4.56,5.478-5.17.823-.181,1.665-.287,2.503-.376,1.802-.192,3.605-.38,5.337-.973,8.475-2.899,13.75-9.094,16.385-17.745,2.119-6.956,1.401-13.905-.884-20.719-2.932-8.742-8.263-15.69-14.976-21.588-5.384-4.73-11.385-8.464-17.658-11.754-3.718-1.95-7.475-3.829-10.976-6.196-3.899-2.635-7.298-5.797-9.591-10.079-1.872-3.496-2.84-7.202-2.073-11.226.528-2.769,1.171-5.515,1.67-8.289.648-3.609.225-7.027-2.072-9.979-2.698-3.468-6.895-3.273-9.307.412-.93,1.421-1.492,3.015-1.835,4.683-.278,1.348-.416,2.727-.693,4.076-.738,3.601-3.327,5.985-7.063,6.567-3.223.501-6.387-1.155-8.034-4.246-.912-1.711-1.563-3.535-1.972-5.447-.982-4.588-.482-9.121.514-13.626.975-4.409,2.423-8.678,3.612-13.024,1.299-4.749,1.996-9.56,1.674-14.514-.552-8.489-5.783-14.909-13.721-16.839-.987-.24-2.045-.176-2.964-.718v-.002Z" fill="#59caec" stroke-width="0"/>
            <path d="M29.163,566.661c-3.383,5.363-6.297,11.4-8.357,17.82-6.072,18.922-5.646,37.823.962,56.598,5.341,15.175,14.486,27.654,27.502,37.261,6.197,4.575,12.892,8.276,19.94,11.371,11.567,5.079,23.617,8.45,36.079,10.281,11.332,1.666,22.086-.121,32.134-5.653,5.53-3.044,9.44-7.451,11.742-13.335,1.682-4.299,3.103-8.689,4.519-13.074,2.305-7.14,6.904-11.937,13.992-14.344,5.679-1.928,11.45-2.079,17.255-.434,7.12,2.017,13.122,6.015,18.741,10.673,4.695,3.893,9.01,8.196,13.455,12.358,5.296,4.959,10.795,9.657,17.224,13.141,7.126,3.861,14.689,5.495,22.701,4.236,14.043-2.208,24.626-9.765,32.297-21.422,5.192-7.89,7.5-16.793,8.01-26.179.634-11.676-1.713-22.831-6.367-33.55-1.874-4.318-4.022-8.492-6.85-12.29-3.177-4.266-7.373-6.855-12.632-7.731-2.565-.427-5.147-.599-7.738-.695-16.38-.605-32.763-1.15-49.14-1.841-8.085-.341-16.089-1.381-23.829-3.969-8.509-2.846-15.809-7.466-21.264-14.683-4.867-6.44-7.189-13.605-5.692-21.673,1.059-5.708,3.606-10.637,8.048-14.482,2.603-2.253,5.614-3.638,9.04-4.166,3.098-.478,6.205-.78,9.34-.942,9.775-.505,16.82-5.305,21.139-13.909,3.545-7.062,2.909-14.052-1.392-20.715-1.447-2.241-3.271-4.167-5.32-5.881-.882-.737-1.769-1.415-2.863-1.86-5.487-2.231-11.046-4.182-16.912-5.176-5.666-.96-9.95-3.971-12.507-9.136-3.676-7.426-6.113-15.18-5.949-23.569.1-5.114.721-10.169,1.444-15.217.748-5.223,1.644-10.43,1.798-15.722.177-6.108-.382-12.123-2.524-17.926-4.358-11.801-14.813-17.358-27.002-14.335-3.884.963-7.503,2.568-10.949,4.562-9.134,5.286-16.871,12.239-23.816,20.078-3.535,3.989-6.148,8.559-7.178,13.897-.688,3.562-.785,7.16-.438,10.76.421,4.367.974,8.721,1.465,13.081.581,5.159.559,10.304-.144,15.447-1.566,11.451-6.083,21.779-12.05,31.506-5.245,8.549-11.503,16.356-18.24,23.786-7.603,8.386-15.603,16.405-23.074,24.911-6.017,6.851-11.749,13.921-16.599,22.149v-.004Z" fill="#86c546" stroke-width="0"/>
            <path d="M425.693,700.286c8.122-.027,16.127-1.02,24.025-2.882,5.047-1.189,10.043-2.578,15.132-3.607,8.004-1.619,15.832-1.211,23.504,1.681,2.989,1.126,6.004,2.185,9.019,3.24,4.521,1.582,9.134,2.726,13.973,2.662,3.246-.043,6.364-.666,9.213-2.273,3.508-1.979,5.543-4.981,5.79-8.984.301-4.873-1.739-8.619-6.055-11.007-3.375-1.867-6.793-3.65-9.974-5.843-2.988-2.06-5.772-4.349-8.137-7.107-4.403-5.134-6.497-10.984-5.666-17.776.673-5.498,2.886-10.365,6.108-14.801,5.239-7.214,12.344-12.041,20.469-15.526,9.354-4.013,19.217-5.414,29.31-5.649,8.472-.198,16.895.55,25.308,1.372,8.352.816,16.696,1.68,25.089,1.989,7.379.272,14.722.008,22.021-1.164,14.744-2.367,27.149-8.969,36.978-20.186,10.132-11.562,15.698-25.144,17.866-40.197.994-6.904,1.194-13.84.802-20.804-.622-11.053-2.489-21.89-5.717-32.48-2.372-7.782-5.635-15.173-10.4-21.845-6.683-9.355-15.515-15.608-26.781-18.431-8.909-2.232-17.926-2.259-26.989-1.487-7.22.614-14.359,1.816-21.49,3.058-13.079,2.277-31.85-11.041-44.56-7.162-6.307,1.925-12.448,4.233-18.046,7.779-4.541,2.876-8.432,6.418-11.239,11.025-2.879,4.725-4.508,9.778-3.958,15.388.297,3.03,1.327,5.829,2.582,8.563,1.226,2.67,2.605,5.273,3.647,8.024,4.868,12.855-1.699,27.221-14.645,31.911-7.223,2.616-14.349,2.228-21.259-1.131-3.033-1.474-13.174-11.128-15.623-11.832-7.983-2.295-33.892,20.49-16.198,47.721,1.207,3.914,13.055,16.58,14.879,20.902,2.324,5.507,3.32,11.233,3.046,17.194-.287,6.254-1.827,12.202-4.557,17.817-6.076,12.496-15.36,21.679-28.563,26.642-5.069,1.905-10.331,2.952-15.794,2.282-3.849-.472-7.549-1.58-11.198-2.856-7.463-2.61-14.619-5.957-21.91-8.981-6.908-2.865-13.842-5.669-21.277-6.918-4.201-.705-8.407-.849-12.527.574-6.213,2.146-10.479,7.862-10.459,14.124.009,2.728.668,5.342,1.756,7.842,2.671,6.136,6.825,11.169,12.048,15.287,16.742,13.198,35.857,20.708,57.043,23.162,4.472.23,8.945.459,13.417.689h-.001Z" fill="#c091ff" stroke-width="0"/>
            <path d="M461.797,462.986c.864-.077,1.367-.118,1.869-.167,5.384-.523,10.574-1.725,15.314-4.322,8.153-4.467,11.9-11.269,11.346-20.088-.455-7.259-3.554-13.519-8.675-18.848-3.681-3.83-8.088-6.783-12.849-9.282-3.581-1.88-7.348-3.379-11.09-4.937-9.287-3.869-14.42-13.367-12.261-22.693,1.381-5.965,4.944-10.451,10.566-13.437,2.371-1.26,4.852-2.321,7.176-3.672,4.346-2.527,6.231-6.136,5.581-10.941-1.137-8.391-4.731-15.625-11.384-21.248-7.443-6.289-16.059-8.237-25.625-4.975-7.355,2.508-12.455,7.205-14.307,14.667-.333,1.343-.708,2.676-1.054,4.016-.647,2.505-1.145,5.059-2.211,7.444-5.162,11.557-14.124,19.335-26.422,23.624-8.163,2.846-16.108,2.119-23.718-1.778-2.274-1.164-4.436-2.486-6.515-3.938-4.975-3.474-9.401-7.545-13.942-11.496-9.69-8.432-18.323-17.681-24.971-28.532-3.804-6.21-9.369-10.696-15.916-14.143-9.489-4.997-19.707-7.721-30.515-8.555-8.498-.656-16.871-.034-25.022,2.587-6.904,2.221-12.946,5.714-17.563,11.187-5.592,6.63-7.636,14.372-7.844,22.672-.149,5.987.807,11.828,2.404,17.577,1.765,6.353,4.437,12.322,8.589,17.612,5.767,7.347,13.095,12.462,22.772,14.165,6.103,1.074,12.187.614,18.218-.561,5.084-.99,10.161-1.849,15.37-1.557,12.823.717,23.588,5.574,32.111,14.621,7.682,8.154,11.471,17.825,11.42,28.856-.027,5.746-1.009,11.326-3.064,16.753-2.163,5.711-6.273,9.458-12.295,11.409-3.609,1.169-7.331,1.781-11.069,2.34-4.675.698-9.345,1.407-13.89,2.718-5.412,1.561-10.266,3.993-14.108,8.077-6.831,7.263-6.5,16.625.863,23.278,2.637,2.383,5.684,4.103,9.158,5.168,5.059,1.55,10.263,1.749,15.508,1.345,7.688-.593,15.225-2.115,22.713-3.834,10.794-2.478,21.413-5.593,32.135-8.335,4.886-1.25,9.801-2.314,14.897-2.259,5.763.063,10.704,1.868,14.563,6.041,1.79,1.937,3.286,4.071,4.782,6.209,1.287,1.84,2.531,3.715,4.075,5.372,2.87,3.077,6.278,5.317,10.695,5.865,4.463.554,8.317-1.884,9.479-6.023.63-2.242.582-4.504.058-6.766-.574-2.48-1.666-4.755-2.869-6.991-1.115-2.073-2.275-4.121-3.234-6.271-2.813-6.301-1.73-12.089,2.766-17.337,4.466-5.212,10.371-8.119,17.222-9.428,5.74-1.097,11.533-1.032,17.331-.985,4.598.038,9.198.224,13.429-.203v.002Z" fill="#ed2087" stroke-width="0"/>
            <path d="M55.754,305.834c.703,3.111,1.827,6.075,3.169,8.96,5.365,11.538,14.236,19.418,25.882,24.374,7.424,3.159,15.178,4.871,23.134,5.663,9.007.896,23.334-.73,31.761-4.044,11.323-4.453,20.531-11.723,28-21.319,6.004-7.714,9.47-16.377,10.252-26.108.394-4.902.455-9.812.618-14.72.292-8.792,1.52-17.416,4.468-25.764,3.105-8.792,7.713-16.783,12.893-24.511,3.106-4.635,7-8.39,11.568-11.533,7.173-4.935,14.839-9.002,22.695-12.727,3.211-1.522,6.366-3.168,9.825-4.132,3.799-1.059,7.705-1.469,11.568-2.147,3.269-.573,6.55-1.103,9.725-2.112,3.77-1.198,7.008-3.156,9.506-6.284,3.167-3.964,5.5-8.328,6.66-13.263.989-4.207,1.121-8.405-.115-12.612-1.146-3.901-3.295-7.17-6.107-10.032-5.673-5.773-12.346-10.111-19.743-13.395-6.722-2.984-13.853-4.445-21.076-5.591-7.439-1.18-14.916-2.151-22.276-3.784-5.725-1.27-11.334-2.883-16.583-5.54-6.417-3.247-11.577-7.762-14.462-14.478-2.372-5.523-3.041-11.296-2.308-17.252.351-2.855.955-5.671,1.244-8.538.492-4.87-.887-9.113-4.075-12.799-3.764-4.352-8.554-6.876-14.199-7.971-2.432-.472-4.816.029-7.215.1-9.432.279-18.493-1.292-27.176-4.955-1.108-.468-2.234-.905-3.38-1.273-10.092-3.243-19.633-.438-26.313,7.769-4.905,6.026-7.462,12.992-8.085,20.651-.685,8.415.851,16.602,2.777,24.729,1.381,5.83,2.986,11.61,4.22,17.469,2.492,11.83,3.583,23.812,3.265,35.909-.444,16.877-3.327,33.36-8.334,49.498-4.898,15.788-11.718,30.729-20.088,44.997-3.287,5.603-6.473,11.261-9.026,17.246-2.944,6.903-4.447,14.05-3.893,21.561.408,2.653.817,5.306,1.225,7.959v-.002Z" fill="#ffc60a" stroke-width="0"/>
          </g>
        </g>
        <g id="l" data-name="c">
          <rect x="-735.48" y="-9.462" width="745.994" height="741.729" fill="#fff1c2" stroke-width="0"/>
        </g>
        <g id="n" data-name="c">
          <rect x="704.52" y="-729.462" width="745.994" height="741.729" fill="#fff1c2" stroke-width="0"/>
        </g>
        <g id="o" data-name="c">
          <rect x="-15.48" y="-729.462" width="745.994" height="741.729" fill="#fff1c2" stroke-width="0"/>
        </g>
        <g id="q" data-name="c">
          <rect x="-735.48" y="-729.462" width="745.994" height="741.729" fill="#fff1c2" stroke-width="0"/>
        </g>
      </g>
    </pattern>
  </defs>
  <g id="c" data-name="Layer 2">
    <rect width="700" height="700" fill="url(#d)" stroke-width="0"/>
  </g>
</svg>