<?xml version="1.0" encoding="UTF-8"?>
<svg id="b" data-name="Layer 2" xmlns="http://www.w3.org/2000/svg" width="322.66" height="345.631" xmlns:xlink="http://www.w3.org/1999/xlink" viewBox="0 0 322.66 345.631">
  <defs>
    <clipPath id="e">
      <rect width="322.66" height="345.631" fill="none" stroke-width="0"/>
    </clipPath>
    <clipPath id="f">
      <rect width="322.66" height="345.631" fill="none" stroke-width="0"/>
    </clipPath>
    <clipPath id="h">
      <rect width="720" height="720" fill="none" stroke-width="0"/>
    </clipPath>
    <pattern id="g" data-name="Unnamed Pattern 8" x="0" y="0" width="720" height="720" patternTransform="translate(-12351.08 -11501.353) scale(.149 -.149)" patternUnits="userSpaceOnUse" viewBox="0 0 720 720">
      <g>
        <rect width="720" height="720" fill="none" stroke-width="0"/>
        <g clip-path="url(#h)">
          <rect x="709.431" y="-725.401" width="744" height="732.661" fill="#fff1c2" stroke-width="0"/>
          <rect x="-10.569" y="-725.401" width="744" height="732.661" fill="#fff1c2" stroke-width="0"/>
          <rect x="-730.569" y="-725.401" width="744" height="732.661" fill="#fff1c2" stroke-width="0"/>
          <rect x="709.431" y="-5.401" width="744" height="732.661" fill="#fff1c2" stroke-width="0"/>
          <rect x="-10.569" y="-5.401" width="744" height="732.661" fill="#fff1c2" stroke-width="0"/>
          <path d="M76.684,249.273c2.49,0,4.855.665,7.032,1.977,3.134,1.889,5.241,4.673,6.261,8.275.233.823.462,1.648.691,2.472.348,1.253.696,2.506,1.059,3.754.097.33.251.578.721.793.16.074.318.107.514.107.178,0,.388-.029.622-.086l.238-.059c.498-.123,1.062-.263,1.715-.329.552-.057,1.103-.086,1.638-.086,2.821,0,5.407.787,7.685,2.338,3.416,2.326,5.439,5.519,6.015,9.493.574,3.957-.484,7.715-3.06,10.868-1.786,2.187-4.142,3.708-7.004,4.523-.738.21-1.124.903-.918,1.647.199.721.98,3.506.98,3.506.013.045.024.092.035.137.08.349.207.776.341,1.229.268.899.571,1.919.74,3.052.263,1.753.203,3.479-.177,5.133-.713,3.104-2.318,5.687-4.77,7.678-2.015,1.635-4.105,2.587-6.39,2.909-.685.097-1.378.146-2.062.146-6.196,0-11.573-4.02-13.378-10.004-.439-1.453-.842-2.924-1.232-4.346-.183-.669-.366-1.337-.553-2.004-.017-.061-.069-.245-.077-.271-.257-.471-.689-.741-1.185-.741-.131,0-.265.019-.402.056-.691.187-1.278.309-1.849.384-.682.09-1.362.135-2.023.135-2.825,0-5.427-.813-7.732-2.416-3.535-2.459-5.605-5.954-5.989-10.106-.364-3.935.837-7.589,3.472-10.565,1.758-1.986,3.947-3.358,6.508-4.076.514-.144.686-.335.744-.399.403-.445.484-.765.332-1.312-.578-2.08-1.159-4.159-1.747-6.237-.211-.751-.315-1.468-.381-2.008-.42-3.427.3-6.566,2.141-9.329,2.345-3.519,5.706-5.64,9.722-6.131.576-.07,1.156-.106,1.724-.106h0Z" fill="#ed2087" stroke-width="0"/>
          <path d="M351.996,568.599c2.85,0,5.715.566,8.514,1.682,5.031,2.004,8.966,5.396,11.697,10.081,3.183,5.462,4.064,11.437,2.618,17.76-.366,1.601-.741,3.201-1.116,4.8-.566,2.417-1.151,4.917-1.694,7.372-.346,1.569-.037,2.933.974,4.288.76,1.02,1.847,1.693,3.419,2.117l.47.125c.867.228,1.85.488,2.837.904,5.573,2.35,9.704,6.097,12.278,11.138,3.253,6.367,3.674,12.886,1.255,19.376-2.446,6.561-7.045,11.248-13.67,13.933-2.765,1.119-5.679,1.688-8.663,1.688-1.859,0-3.777-.221-5.699-.659-.418-.095-.84-.142-1.256-.142-2.508,0-4.585,1.675-5.171,4.169-.338,1.435-.67,2.869-1.041,4.475l-.549,2.37c-.01.045-.022.092-.035.137-.211.749-.401,1.629-.602,2.563-.362,1.679-.772,3.583-1.467,5.474-1.059,2.879-2.578,5.444-4.516,7.624-3.657,4.114-8.229,6.697-13.59,7.677-1.613.294-3.19.444-4.685.444-2.564,0-5.03-.439-7.328-1.305-11.503-4.338-17.769-15.759-15.237-27.775.598-2.831,1.273-5.674,1.927-8.425.309-1.305.619-2.61.922-3.917.105-.452.193-.851.193-1.155.006-2.64-1.64-4.744-4.191-5.36-1.218-.293-2.212-.596-3.129-.95-5.882-2.28-10.221-6.159-12.896-11.53-3.369-6.764-3.607-13.586-.71-20.278,2.753-6.355,7.476-10.774,14.037-13.134,2.57-.925,5.218-1.394,7.87-1.394,1.764,0,3.558.209,5.331.619.555.128,1.084.193,1.575.193.575,0,1.1-.086,1.604-.261,2.009-.698,3.115-1.908,3.586-3.921.95-4.058,1.891-8.116,2.823-12.178.293-1.279.736-2.46,1.088-3.344,2.207-5.545,5.893-9.701,10.957-12.352,3.712-1.943,7.504-2.929,11.272-2.929h-.002Z" fill="#ed2124" stroke-width="0"/>
          <path d="M334.684,137.507c3.222,0,6.447.662,9.584,1.966,5.426,2.258,9.642,6.004,12.529,11.135,3.363,5.975,4.22,12.465,2.551,19.292-.403,1.647-.815,3.292-1.227,4.937-.635,2.539-1.271,5.078-1.873,7.626-.304,1.286-.072,2.372.754,3.515.62.86,1.511,1.419,2.894,1.813l.49.139c.929.26,1.981.555,3.067,1.033,5.996,2.635,10.411,6.768,13.124,12.285,3.419,6.954,3.768,14.03,1.036,21.033-2.762,7.077-7.824,12.086-15.047,14.887-2.901,1.123-5.945,1.693-9.05,1.693-2.139,0-4.341-.272-6.543-.808-.37-.089-.743-.135-1.11-.135-2.018,0-3.714,1.352-4.219,3.365-.366,1.455-.727,2.911-1.128,4.532l-.627,2.536c-.016.065-.034.129-.053.193-.221.738-.428,1.631-.646,2.576-.409,1.773-.874,3.781-1.654,5.806-1.195,3.102-2.885,5.861-5.028,8.199-4.034,4.401-9.035,7.129-14.867,8.104-1.611.268-3.189.405-4.69.405-2.938,0-5.752-.522-8.362-1.551-12.399-4.891-19.004-17.374-16.062-30.36.667-2.938,1.413-5.881,2.135-8.726.341-1.348.682-2.695,1.016-4.044.067-.271.18-.723.183-.935.038-2.182-1.293-3.941-3.389-4.48-1.311-.337-2.383-.68-3.377-1.083-6.336-2.567-10.978-6.848-13.794-12.724-3.541-7.386-3.684-14.788-.429-22.005,3.088-6.846,8.281-11.56,15.434-14.012,2.683-.92,5.44-1.387,8.197-1.387,2.04,0,4.108.257,6.149.761.514.128.998.192,1.439.192.437,0,.835-.061,1.217-.187,1.697-.562,2.6-1.515,3.018-3.191,1.047-4.188,2.086-8.38,3.115-12.573.343-1.398.84-2.667,1.235-3.616,2.483-5.977,6.553-10.424,12.098-13.221,3.927-1.982,7.934-2.986,11.909-2.986h.001Z" fill="#c091ff" stroke-width="0"/>
          <path d="M150.659,426.402c7.07,0,13.976,1.8,20.527,5.348,9.049,4.904,15.721,12.181,19.832,21.632,4.796,11.03,5.125,22.529.977,34.176-1.116,3.134-2.249,6.262-3.382,9.389-1.723,4.757-3.504,9.676-5.191,14.527-1.372,3.946-.984,7.694,1.187,11.46,1.659,2.879,4.182,4.919,7.937,6.421l.921.365c1.681.661,3.421,1.346,5.126,2.315,10.031,5.696,17.011,13.694,20.744,23.77,4.731,12.771,4.081,25.183-1.931,36.894-6.082,11.85-15.823,19.683-28.952,23.282-3.78,1.037-7.656,1.562-11.522,1.562-5.21,0-10.54-.954-15.84-2.834-1.575-.558-3.196-.842-4.819-.842-5.89,0-11.023,3.653-13.075,9.308-1.013,2.792-2.018,5.587-3.137,8.705l-1.703,4.737c-.016.044-.033.089-.051.132-.643,1.552-1.251,3.329-1.894,5.211-1.097,3.205-2.34,6.839-4.094,10.295-2.644,5.209-6.083,9.715-10.221,13.394-7.828,6.958-17.039,10.82-27.378,11.476-1.176.075-2.344.113-3.473.113-7.066,0-13.259-1.429-18.932-4.368-20.785-10.766-30.086-33.759-22.618-55.913,1.865-5.532,3.898-11.09,5.864-16.464.938-2.567,1.878-5.133,2.802-7.705.384-1.069.711-2.029.824-2.965.806-6.705-2.889-12.774-9.195-15.105-2.262-.837-4.076-1.63-5.709-2.494-10.619-5.625-17.955-13.913-21.806-24.636-4.864-13.544-3.802-26.487,3.156-38.472,6.616-11.394,16.529-18.693,29.461-21.694,3.363-.78,6.763-1.175,10.107-1.175,5.029,0,10.062.891,14.961,2.65,1.89.679,3.719,1.023,5.436,1.023.92,0,1.834-.099,2.715-.293,5.232-1.154,8.642-4.11,10.426-9.038,3.07-8.483,5.884-16.305,8.6-23.916.825-2.31,1.928-4.448,2.796-6.052,5.409-9.991,13.29-17.021,23.425-20.893,5.78-2.208,11.534-3.327,17.101-3.327h-.002Z" fill="#59caec" stroke-width="0"/>
          <path d="M623.3,72.598c4.4,0,8.655.723,12.648,2.15,22.05,7.879,34.325,29.944,29.85,53.659-1.12,5.93-2.402,11.914-3.643,17.701-.593,2.768-1.186,5.536-1.764,8.307-.243,1.163-.443,2.207-.431,3.2.086,7.012,4.549,12.686,11.106,14.118,2.356.514,4.266,1.052,6.012,1.695,11.297,4.158,19.682,11.53,24.92,21.91,6.597,13.074,7.254,26.417,1.952,39.66-5.048,12.607-13.907,21.538-26.329,26.541-5.268,2.123-10.713,3.199-16.182,3.199-2.952,0-5.959-.315-8.939-.936-1.201-.25-2.367-.376-3.467-.376-1.651,0-3.226.287-4.682.855-5.071,1.978-8.086,5.547-9.218,10.912-1.878,8.902-3.687,17.563-5.376,25.744-.512,2.475-1.32,4.816-1.967,6.578-4.036,10.992-10.913,19.338-20.441,24.808-7.437,4.27-15.043,6.435-22.607,6.435-5.018,0-10.088-.958-15.069-2.845-9.643-3.656-17.235-10.097-22.564-19.141-6.203-10.526-8.045-22.193-5.475-34.678.694-3.375,1.406-6.747,2.118-10.118,1.081-5.12,2.199-10.412,3.232-15.623.851-4.293-.035-8.105-2.708-11.654-2.024-2.688-4.787-4.39-8.695-5.357l-.967-.235c-1.759-.424-3.578-.863-5.404-1.599-10.722-4.321-18.712-11.449-23.748-21.186-6.365-12.305-7.359-25.047-2.957-37.872,4.458-12.988,13.075-22.434,25.61-28.078,5.625-2.532,11.592-3.816,17.737-3.816,3.141,0,6.382.336,9.635,1,.935.191,1.886.289,2.822.289,6.688,0,12.381-4.827,13.846-11.737.633-2.988,1.256-5.977,1.95-9.308l1.078-5.163c.009-.045.019-.09.031-.133.434-1.69.803-3.602,1.194-5.626.664-3.436,1.416-7.33,2.696-11.113,1.929-5.7,4.737-10.805,8.346-15.172,6.84-8.278,15.467-13.604,25.643-15.83,3.535-.773,6.969-1.165,10.206-1.165h0Z" fill="#ffc60a" stroke-width="0"/>
          <path d="M126.606,10.552c4.478,0,8.888.982,13.107,2.919,7.683,3.528,13.245,9.392,16.53,17.43.858,2.099,1.705,4.201,2.551,6.305,1.289,3.2,2.621,6.51,3.969,9.739.985,2.356,2.695,3.908,5.231,4.742.83.273,1.659.405,2.533.405,1.18,0,2.42-.243,3.792-.743l.634-.234c1.185-.439,2.411-.894,3.783-1.191,2.588-.562,5.146-.847,7.604-.847,5.06,0,9.905,1.204,14.401,3.578,8.46,4.468,13.938,11.274,16.282,20.231,2.369,9.059.942,17.727-4.244,25.763-3.521,5.455-8.542,9.55-14.923,12.167-4.437,1.82-6.508,6.739-4.716,11.197.751,1.871,1.509,3.74,2.354,5.822l1.3,3.208c.018.043.035.088.05.132.37,1.053.864,2.219,1.387,3.454.913,2.157,1.948,4.601,2.646,7.22,1.057,3.966,1.368,7.939.925,11.811-.837,7.313-3.851,13.655-8.959,18.848-4.203,4.272-8.705,6.983-13.765,8.286-2.791.72-5.637,1.084-8.46,1.084-13.026,0-24.363-7.57-29.588-19.757-1.574-3.671-3.072-7.427-4.52-11.059-.69-1.729-1.379-3.457-2.079-5.182-.268-.662-.516-1.247-.826-1.691-1.687-2.41-4.275-3.792-7.101-3.792-1.114,0-2.225.216-3.303.641-1.565.619-2.886,1.053-4.157,1.37-2.823.699-5.628,1.054-8.339,1.054-5.123,0-10.047-1.259-14.636-3.741-8.892-4.811-14.404-12.09-16.379-21.633-1.877-9.07-.108-17.539,5.256-25.172,3.509-4.993,8.163-8.69,13.832-10.99,1.798-.73,3.125-1.714,4.057-3.009,1.953-2.714,2.294-5.389,1.074-8.417-2.157-5.357-4.325-10.711-6.507-16.059-.657-1.61-1.082-3.244-1.377-4.487-1.851-7.767-1.017-15.146,2.479-21.933,4.545-8.821,11.499-14.4,20.67-16.584,2.475-.589,4.975-.887,7.431-.887v.002Z" fill="#86c546" stroke-width="0"/>
          <path d="M597.769,527.698c3.193,0,6.315.742,9.279,2.205,5.063,2.501,8.665,6.521,10.706,11.951.538,1.428,1.067,2.86,1.597,4.292.801,2.164,1.628,4.4,2.468,6.584.623,1.622,1.756,2.708,3.463,3.324.611.22,1.226.327,1.881.327.752,0,1.542-.141,2.416-.432l.428-.144c.801-.272,1.629-.553,2.549-.725,1.523-.285,3.028-.43,4.475-.43,3.609,0,7.028.899,10.165,2.67,5.564,3.143,9.093,7.791,10.487,13.815,1.411,6.092.294,11.853-3.321,17.12-2.453,3.575-5.883,6.213-10.194,7.84-3.049,1.151-4.552,4.453-3.42,7.517.468,1.269.941,2.537,1.468,3.95l.809,2.171c.011.028.021.057.03.086.229.715.537,1.507.865,2.346.57,1.46,1.217,3.115,1.633,4.878.631,2.667.763,5.326.394,7.902-.697,4.868-2.83,9.044-6.338,12.415-2.887,2.773-5.943,4.496-9.344,5.271-1.668.379-3.365.572-5.044.572-8.982,0-16.648-5.273-20.005-13.76-.985-2.488-1.916-5.032-2.818-7.493-.429-1.172-.858-2.344-1.294-3.514-.17-.454-.327-.856-.531-1.166-1.136-1.725-2.928-2.715-4.917-2.715-.701,0-1.404.126-2.089.375-1.06.384-1.95.649-2.802.835-1.689.368-3.367.555-4.986.555-3.642,0-7.108-.936-10.301-2.782-5.847-3.38-9.389-8.344-10.527-14.754-1.081-6.09.26-11.711,3.986-16.705,2.437-3.267,5.614-5.647,9.442-7.075,1.233-.461,2.153-1.103,2.811-1.965,1.379-1.807,1.662-3.617.892-5.698-1.344-3.631-2.695-7.261-4.056-10.886-.407-1.087-.66-2.186-.834-3.021-1.089-5.221-.392-10.131,2.07-14.596,3.201-5.803,7.949-9.396,14.112-10.68,1.467-.306,2.946-.46,4.395-.46Z" fill="#86c546" stroke-width="0"/>
          <path d="M228.257,339.042c.844,0,1.705.109,2.56.322,2.31.578,4.306,1.878,5.771,3.76,1.702,2.187,2.466,4.833,2.209,7.653-.055.597-.112,1.193-.17,1.789-.087.901-.174,1.802-.25,2.729.009.005.074.034.237.055l.16.02c.37.045.832.103,1.343.242,2.58.7,4.619,2.11,6.061,4.19,1.78,2.57,2.365,5.498,1.691,8.467-.679,2.997-2.472,5.4-5.186,6.95-1.587.905-3.341,1.365-5.213,1.365-.347,0-.702-.016-1.057-.048l-.054.049-.241,2.55c-.005.047-.01.094-.017.14-.037.258-.056.541-.08.838-.051.654-.115,1.468-.303,2.318-.295,1.329-.816,2.553-1.545,3.635-1.368,2.031-3.233,3.441-5.54,4.192-1.132.369-2.251.556-3.327.556-.704,0-1.406-.08-2.088-.237-5.318-1.227-8.751-5.882-8.349-11.319.08-1.066.185-2.13.291-3.194.049-.483.145-1.481.147-1.496-.011-.014-.029-.024-.06-.033-.541-.056-.996-.132-1.429-.236-2.72-.653-4.862-2.11-6.368-4.331-1.855-2.734-2.375-5.812-1.504-8.901.823-2.92,2.691-5.209,5.401-6.618,1.505-.782,3.118-1.179,4.794-1.179.332,0,.672.016,1.009.047.031.004.061.005.103.018.026-.013.046-.024.061-.033,0-.01.003-.022.004-.034.146-1.514.289-3.026.428-4.538.056-.609.179-1.15.279-1.554.643-2.572,2.028-4.625,4.116-6.103,1.905-1.349,3.962-2.034,6.113-2.034l.003.003Z" fill="#ffc60a" stroke-width="0"/>
          <path d="M446.804,37.999c2.078,0,4.111.506,6.042,1.502,2.773,1.431,4.839,3.597,6.141,6.435,1.516,3.303,1.688,6.767.511,10.296-.269.803-.541,1.607-.814,2.409-.415,1.222-.83,2.444-1.229,3.67-.103.318-.115.601.145,1.032.109.179.31.415.909.64l.231.086c.476.177,1.015.377,1.589.688,3.047,1.651,5.198,4.029,6.392,7.066,1.503,3.82,1.377,7.574-.373,11.159-1.743,3.568-4.714,6.062-8.594,7.21-1.231.364-2.498.548-3.767.548-1.489,0-3.007-.253-4.512-.754-.149-.049-.298-.074-.442-.074-.552,0-1.011.343-1.199.893l-1.155,3.422c-.015.044-.031.089-.048.133-.128.33-.263.75-.405,1.194-.284.889-.606,1.894-1.101,2.919-.766,1.586-1.78,2.971-3.017,4.116-2.323,2.149-5.085,3.372-8.212,3.635-.448.037-.893.056-1.322.056-2.009,0-3.877-.418-5.553-1.244-6.334-3.121-9.279-10.001-7.159-16.73.453-1.439.945-2.872,1.42-4.257.222-.647.445-1.296.664-1.945.033-.098.071-.194.086-.259.067-.672-.269-1.204-.899-1.423-.674-.233-1.226-.462-1.733-.719-3.233-1.63-5.499-4.097-6.733-7.331-1.526-3.995-1.271-8.022.737-11.645,1.903-3.434,4.933-5.762,8.764-6.732,1.099-.278,2.217-.42,3.321-.42,1.444,0,2.891.241,4.299.715.226.075.426.114.595.114.079,0,.152-.009.225-.026.569-.137.809-.35.987-.873.688-2.027,1.371-4.055,2.051-6.086.246-.734.562-1.381.811-1.864,1.572-3.047,3.919-5.22,6.977-6.46,1.794-.726,3.601-1.095,5.369-1.095h.001Z" fill="#59caec" stroke-width="0"/>
          <path d="M414.593,295.879c21.426,0,39.574,13.327,46.233,33.953,1.833,5.677,3.54,11.466,5.192,17.065.786,2.667,1.573,5.335,2.374,7.996.301.999.58,1.881.96,2.547,2.309,4.053,6.375,6.473,10.877,6.473,1.228,0,2.471-.181,3.694-.536,2.441-.711,4.481-1.179,6.421-1.472,2.743-.415,5.471-.626,8.11-.626,9.411,0,18.142,2.644,25.954,7.858,12.658,8.451,19.903,20.13,21.534,34.714,1.55,13.857-2.281,26.304-11.387,36.996-5.958,6.997-13.451,11.893-22.272,14.551-2.699.814-4.746,2.054-6.259,3.79-3.18,3.653-4.031,7.462-2.681,11.987,2.467,8.264,4.949,16.522,7.453,24.774.761,2.508,1.168,5.016,1.44,6.92,1.693,11.899-.588,22.845-6.777,32.536-8.041,12.588-19.246,19.981-33.302,21.975-2.315.329-4.645.495-6.924.495-8.28,0-16.215-2.155-23.585-6.405-11.026-6.358-18.545-15.922-22.347-28.427-.987-3.243-1.956-6.493-2.925-9.741-1.47-4.931-2.992-10.031-4.547-15.011-1.1-3.522-3.357-5.983-6.897-7.523-1.51-.658-3.072-.977-4.774-.977-1.374,0-2.818.203-4.416.624l-.979.26c-1.834.492-3.729,1.002-5.836,1.257-2.309.281-4.602.424-6.817.424-9.4,0-18.076-2.554-25.785-7.59-12.057-7.876-19.319-18.844-21.583-32.597-2.29-13.91,1.057-26.703,9.95-38.024,6.04-7.69,14.136-13.127,24.066-16.161,6.633-2.027,10.274-8.833,8.292-15.497-.866-2.907-1.741-5.812-2.718-9.056l-1.466-4.87c-.022-.074-.042-.148-.061-.222-.401-1.604-.972-3.399-1.576-5.3-1.064-3.346-2.27-7.138-2.95-11.156-1.031-6.092-.943-12.091.261-17.834,2.274-10.848,7.677-19.933,16.059-27.006,6.896-5.818,14.028-9.255,21.803-10.505,2.72-.438,5.477-.659,8.192-.659h-.001Z" fill="#ed2087" stroke-width="0"/>
          <rect x="-730.569" y="-5.401" width="744" height="732.661" fill="#fff1c2" stroke-width="0"/>
          <rect x="709.431" y="714.599" width="744" height="732.661" fill="#fff1c2" stroke-width="0"/>
          <rect x="-10.569" y="714.599" width="744" height="732.661" fill="#fff1c2" stroke-width="0"/>
          <rect x="-730.569" y="714.599" width="744" height="732.661" fill="#fff1c2" stroke-width="0"/>
        </g>
      </g>
    </pattern>
  </defs>
  <g id="c" data-name="Layer 1">
    <g id="d" data-name="Artwork 235">
      <g clip-path="url(#e)">
        <g clip-path="url(#f)">
          <path d="M289.452,239.121c-5.381-11.63-10.941-23.66-11.921-35.51-.92-10.14,1.37-21.79,3.591-33.05,3.5-17.78,6.799-34.57-1.781-45.26-.03-.05-.07-.09-.11-.13-5.79-7.09-16.41-10.73-32.46-11.11-1.26-.07-2.3-.11-3.27-.12-.24-.01-.49-.01-.72-.01-5.579,0-12.969.81-20.639,7.13l-13.75,13.14.719-1.46c2.16-4.35,2.25-8.17.27-11.36-2.889-4.66-9.549-6.75-14.86-6.75-2.23,0-4.29.35-5.95,1.01-1.78.72-6.67,1.77-11.53,1.77-3.83,0-9.049-.66-12.339-3.74l-10.661,8.75.581-1.18c.049-.09,4.23-8.68,5.94-19.71,1-6.46.959-12.49-.11-17.91-1.321-6.67-4.221-12.44-8.62-17.14-5.5,4.15-12.38,6.44-19.391,6.44-9.85,0-18.85-4.5-24.799-12.36l-.02.05-.04-.05c-2.371,6.19-6.46,11.31-11.861,14.85-5.17,3.38-11.24,5.17-17.559,5.17-5,0-9.931-1.16-14.27-3.36-4.48,7.97-6.451,16.97-5.861,26.74.66,10.95,4.54,22.59,11.56,34.6,8.29,14.21,6.901,27.78,6.741,29.1l8.969,15.71c-.099-.12-10.5-11.5-30.44-11.5h-.58c-10.99.12-19.49,3.88-25.27,11.18-5.059,6.4-7.71,15.23-7.65,25.53.07,12.73,4.42,26.5,11.64,36.85,7.98,11.44,18.581,17.74,29.851,17.74,9.73,0,19.719-4.54,29.71-13.5l.25-.22s-3.951,10.65-4.15,11.13c1.129.21,4.98.85,10.23.85,7.719,0,14.92-1.3,21.409-3.87,8.97-3.56,16.281-9.46,21.7-17.56l.86-1.28-.34,1.5c-.02.05-1.74,7.7-2.02,8.92,2.75,2.38,12.701,5.87,21.96,5.87,5.02,0,11.73-1.07,15.13-6.19l-3.949,10.72c.329.93,3.239,8.26,12.079,8.26,3.53,0,7.6-1.16,12.1-3.45l1.95-1-13.62,12.21c-.56,14.05,3.301,25.49,11.46,33.99,9.11,9.49,23.241,14.72,39.79,14.72,10.15,0,20.53-2,30.011-5.78,9.79-3.9,18.139-9.53,24.159-16.3,7.89-9.17,10.921-19.36,9.27-31.13-1.489-10.54-6.52-21.42-11.389-31.94M70.664,229.857c-.611,1.998-1.463,3.839-3.309,5.034-3.268,1.912-7.34,1.024-10.702-.14-4.818-1.654-5.093-7.227-5.656-11.52-.202-1.628-.514-3.25-.888-4.847-.447-1.911-.125-3.746.531-5.498,1.678-5.157,7.783-7.676,12.694-5.424,6.292,2.708,8.341,9.835,7.967,16.145.132,2.152-.019,4.228-.637,6.25M136.943,123.8c-5.778,1.874-11.71-2.184-12.233-8.235-.252-2.1-.372-4.214-.769-6.307-.265-1.389-.443-2.81-.57-4.234-.14-1.466-.07-3.427-1.56-4.231-2.395-1.2-4.74-1.262-7.12.147-1.589.94-1.612,2.35-1.382,3.837,2.02,11.03,3.306,22.169,4.774,33.281.132.669-.158,2.559.912,2.477.946-.073,1.911.127,2.845-.18.103-.034.22-.04.328-.034,1.84.112,3.654-.303,5.493-.243.656.02,1.305-.019,1.965-.155.984-.201,1.969.121,2.937.262,1.915.279,3.664,1.03,5.146,2.313,5.733,4.843,3.741,14.643-3.618,16.559-2.731.555-5.569.267-8.326.505-1.654.159-3.298.112-4.946.166-.929.031-.95.032-.954.914-.006,1.544-.06,3.091.026,4.631.451,8.154.095,16.312.201,24.466.13,6.059-.217,12.111-.456,18.152-.214,2.997-.266,6.003-.492,8.995-.119,1.561.06,3.155-.369,4.696-.536,1.933-.701,3.963-1.698,5.77-3.818,7.026-13.68,5.43-16.24-1.719-.939-2.584-1.008-5.221-.646-7.907.272-3.353.479-6.714.772-10.067.148-2.08-.091-4.186.357-6.244.344-8.48.305-16.974.184-25.458-.027-1.86-.052-3.739-.193-5.6-.39-6.389-.62-12.786-1.45-19.14-.155-1.073-.349-2.173-.286-3.276.039-.707-.167-1.383-.261-2.068-.28-2.024-.517-4.058-.764-6.082-.996-7.719-2.354-15.376-3.889-23.004-1.325-6.901-4.203-13.932-1.628-20.909,3.49-10.382,15.239-15.775,25.499-15.598,9.094-.117,17.484,3.822,22.285,11.374,3.738,5.708,2.926,12.815,3.62,19.303.703,5.476-1.828,11.388-7.494,12.843M197.933,236.88c-1.362,1.912-3.282,2.925-5.642,3.198-4.231.492-7.458-1.221-10.071-4.392-1.277-1.546-2.222-3.284-2.879-5.167-.328-.946-.552-.959-1.39-.802-1.465.277-2.93.171-4.393.182-10.119.211-19.459-7.438-21.374-17.361-.205-1.025-.324-2.092-.322-3.163.015-10.591.009-21.183.009-31.774h.012c.115-11.531-.021-23.51.187-34.616.036-1.907-.018-3.915.187-5.841,1.185-11.151,18.175-8.078,18.053-.526-.061,3.689.125,4.91.104,8.769-.065,17.636.059,35.283-.046,52.912-.141,2.641-.145,5.28-.185,7.922-.012.709.191,1.375.273,2.065.038.32.24.604.52.818,1.995,1.517,4.423,1.499,6.369.221.69-.452,1.027-1.084,1.024-1.947-.022-6.178.091-12.36-.075-18.533-.068-2.567-.246-5.143-.115-7.699.305-5.987-.045-11.982.233-17.96.172-3.71.075-6.902.21-11.118.09-2.798.168-5.577.203-8.363.213-16.922,19.529-17.097,18.728.785-.072,1.579.096,3.172-.036,4.742-.186,2.2-.039,4.409-.241,6.594-.161,1.726-.024,3.452-.19,5.163-.321,3.3-.057,6.61-.224,9.908-.416,8.266-.211,16.536-.122,24.8.038,3.667-.056,7.347.194,11.006.177,2.572.011,5.143.221,7.698.132,1.615.023,3.237.214,4.831.235,1.96.243,3.933.542,5.896.313,2.068.786,4.09,1.234,6.123.456,2.072-.022,3.957-1.212,5.629M271.853,261.352c-.735,6.633-5.804,11.873-11.424,15.008-10.027,5.721-24.8,5.725-33.916-1.797-4.927-3.916-6.826-9.007-7.769-15.053-.469-2.366-.978-4.724-1.433-7.092-1.312-5.701,2.384-11.729,8.28-12.635,2.592-.457,4.88.109,6.981,1.57,1.633,1.136,2.785,2.707,3.583,4.511,1.636,3.928,2.451,8.124,3.539,12.22.55,2.419,1.375,2.964,3.76,3.333,1.567.242,3.158.079,4.574-.809,1.657-.82,2.425-1.655,1.82-3.54-.352-1.271-.799-2.517-1.207-3.772-3.135-9.502-5.279-19.28-7.264-29.057-3.251.571-6.397,1.3-9.71.875-1.331-.211-2.678-.321-3.995-.657-7.489-2.017-14.242-8.065-15.33-15.978-.274-1.702-.401-3.422-.416-5.135-.023-2.498-.165-4.992-.302-7.477-.314-5.731-.059-11.461-.166-17.188-.077-3.818.167-7.634.279-11.45.035-5.953.669-12.082,4.736-16.755,3.906-4.815,10.001-7.78,16.238-7.749,2.646-.063,5.294-.051,7.851.715.556.159.785.059.956-.496,1.422-4.611,4.523-8.942,9.528-9.816,7.209-1.661,14.808,4.94,12.309,12.634-1.94,5.38-3.528,10.861-4.712,16.461-1.046,4.9-1.995,9.814-2.424,14.808-.964,16.011,1.356,32.097,5.452,47.568,2.52,9.408,5.29,18.782,9.024,27.79,1.199,2.885,1.524,5.922,1.158,8.963" fill="#000" stroke-width="0"/>
          <path d="M239.64,196.141c-.246-2.301-.233-4.61-.31-6.905-.361-8.651.224-17.302.825-25.923.06-1.266-.505-2.197-1.497-2.888-2.066-1.434-4.307-1.756-6.693-.937-2.122.727-2.908,1.943-3.058,3.969-.229,4.38-.615,8.771-.621,13.159-.246,7.837.077,15.496.394,23.326.03,1.315.205,2.625.259,3.943.027.63.14,1.3.341,1.937.285.904.839,1.542,1.673,1.936,1.071.505,2.18.884,3.33.73,2.432.209,5.841-1.144,5.887-3.911.046-1.366-.283-2.699-.239-4.055.047-1.471-.136-2.937-.291-4.381" fill="#000" stroke-width="0"/>
          <path d="M68.831,47.891l.22-.03c2.92-.41,5.85-.83,8.78-1.23l.36-.05v.05c2.62-.38,5.2-.75,7.19-1.02l2.95-.41,2.71-.38c3.02-.409,6.04-.83,9.06-1.25.26-.04.48-.09.65-.15.25-.08.41-.19.49-.33l.02-.03c.02-.04.04-.1.05-.16.03-.22-.03-.53-.19-.96l-.01-.02v-.03l-.02-.03v-.01c-1.15-3.37-2.95-6.32-5.36-8.77l-.02-.03-.26-.26c-4.39-4.43-10.4-6.87-16.93-6.87-.47,0-.94.02-1.41.04-6.55.28-12.45,2.951-16.62,7.52-.5.53-.96,1.12-1.46,1.77-.35.47-.7.99-1.13,1.68v.04l-.06.06c-1.05,1.7-1.86,3.56-2.43,5.55-.05.17-.1.331-.15.49-.13.44-.26.88-.36,1.341-.65,2.619-.83,4.459-.52,5.189l.02.05v.14c.02.01.05.02.09.02l.05.01.03.02c.05.03.11.04.17.04.07,0,.16-.02.26-.06l.03-.01h.03c1.52-.21,3.03-.42,4.55-.62,3.07-.43,6.14-.86,9.22-1.3" fill="red" stroke-width="0"/>
          <path d="M109.451,42.191c.03.01.07.01.11.01.16,0,.35-.02.56-.05,1.72-.25,3.44-.5,5.17-.74l1.4-.21h.02c1.719-.25,3.45-.5,5.17-.75l2.95-.42c2.4-.34,4.79-.68,7.18-1.01l-.01-.05.37-.05c2.59-.38,5.19-.75,7.78-1.11l1.21-.17c3.08-.44,6.15-.88,9.22-1.32,1.54-.21,3.04-.43,4.54-.66h.14c.16,0,.27-.03.34-.1l.03-.03.04-.02c.04-.02.06-.04.08-.05l-.04-.13.01-.06c.1-.79-.59-2.5-1.94-4.83-.3-.53-.64-1.08-.99-1.63-1.51-2.4-3.37-4.43-5.52-6.03-.64-.49-1.28-.93-1.89-1.31-3.56-2.18-7.73-3.33-12.06-3.33-2,0-4.01.24-5.99.72-6.81,1.57-12.54,5.81-15.73,11.64-.06.12-.12.23-.18.35-1.65,3.04-2.56,6.39-2.73,9.96v.33c-.011.34.02.57.09.71.07.15.21.32.67.34" fill="red" stroke-width="0"/>
          <path d="M58.111,63.121c.07.1.13.21.21.32.31.46.64.93.99,1.37l.11.14c.05.07.09.13.14.19l.11.14.18.19c.36.43.72.87,1.12,1.28.19.19.38.39.57.58l.02.01v.01c3.82,3.72,8.6,6,13.84,6.61l.08.01c.3.03.61.06.92.08.2.02.4.03.6.04.11.01.23.01.34.01.29.01.58.02.87.02,3.26,0,6.45-.67,9.5-1.98l.03-.01c2.89-1.2,5.4-2.81,7.48-4.8.12-.12.25-.24.37-.36.04-.04.07-.08.11-.11l.08-.09c1.96-1.99,3.51-4.36,4.62-7.04.11-.27.22-.53.32-.8l.1-.27c.29-.79.52-1.6.73-2.36.11-.45.21-.9.32-1.41.07-.31.13-.62.19-.94.02-.15.06-.3.09-.46.05-.22.09-.42.12-.64.15-.72.27-1.45.2-1.99-.07-.55-.31-.69-.51-.75-.09-.03-.2-.04-.33-.04-.18,0-.39.03-.62.09-.52.09-1.05.17-1.72.27l-.41.05c-.35.05-.7.1-1.05.14-.55.07-1.1.13-1.65.2l-.33.04c-.69.08-1.38.15-2.06.24-.92.12-1.58.2-2.03.34-.53.17-.76.42-.94,1.01-.13.41-.22.96-.36,1.81v.16l-.03.02c-.49,2.64-1.83,5.08-3.8,6.89-.74.68-1.56,1.26-2.44,1.73-.58.32-1.2.59-1.84.81-.32.11-.64.2-.97.28-.33.09-.67.15-1.01.21-.33.05-.68.09-1.03.11-.02,0-.05.01-.08.01h-.04c-.22.01-.45.02-.68.02-.36,0-.72-.02-1.08-.05-.79-.08-1.64-.27-2.59-.58-.09-.03-.17-.05-.26-.08-.18-.05-.36-.11-.54-.18-.54-.22-1.07-.48-1.57-.77-.59-.34-1.16-.73-1.68-1.16-1.26-1.03-2.28-2.27-3.03-3.69-.24-.44-.41-.82-.55-1.19-.13-.31-.24-.64-.33-.98-.03-.09-.06-.17-.09-.25-.01-.02-.02-.05-.03-.08-.03-.04-.04-.08-.06-.12-.02-.02-.03-.03-.03-.05-.06-.08-.12-.14-.19-.17-.04-.02-.07-.04-.1-.04l-.03-.01c-.05-.01-.1-.02-.15-.02h-.03c-.14.01-.26.02-.4.04l-.65.1c-1.14.15-2.31.32-3.33.48-1.11.17-2.39.37-3.67.52-.32.04-.64.08-.96.12-.29.03-.58.06-.87.08l-.27.03c-.24.02-.4.09-.51.21l-.01.02-.02.02c-.09.08-.34.28-.06,1.04l.01.02v.02c.16.72.57,1.68,1.25,2.93.37.73.79,1.47,1.34,2.32l.06.09Z" fill="red" stroke-width="0"/>
          <path d="M154.971,42.511l-.08.01c-.32.06-.64.11-.95.16-1.23.18-2.449.35-3.67.52-1.11.14-2.24.29-3.33.45l-.66.09c-.14.02-.27.04-.38.07l-.01.01h-.04c-.03.01-.08.03-.13.06l-.16-.24.13.26c-.03.01-.05.03-.08.05l-.02.02c-.05.05-.09.12-.12.21l-.01.04c-.01.06-.02.1-.03.14l-.01.1c-.01.08-.01.17-.01.27,0,.34-.01.68-.05,1.03-.03.39-.09.8-.2,1.29-.08.39-.18.78-.3,1.17-.25.76-.57,1.5-.95,2.2-.2.35-.419.7-.64,1.02-.38.55-.82,1.08-1.29,1.57-1.23,1.28-2.72,2.29-4.32,2.92-.55.22-1.12.4-1.69.52,0,0-.09.03-.11.03-.34.08-.69.13-1.03.18-.339.04-.68.07-1.02.08-.15.01-.3.01-.46.01-.18,0-.37,0-.55-.01-.67-.03-1.34-.12-1.99-.27-.98-.21-1.93-.54-2.83-.99-2.42-1.21-4.41-3.22-5.6-5.66l-.05-.05v-.06c-.36-.75-.6-1.24-.83-1.6-.34-.52-.63-.69-1.19-.7h-.069c-.471,0-1.121.1-1.951.22-.72.12-1.41.24-2.11.35l-.28.05c-.55.09-1.1.18-1.64.27-.35.05-.7.11-1.05.16,0,0-.29.04-.42.06-.65.09-1.19.16-1.69.21-.44.02-.75.09-.95.22-.17.11-.37.31-.29.86.08.55.42,1.24.74,1.85.09.21.2.4.3.6.08.14.15.27.22.41l.04.08c.06.12.12.25.16.35.04.07.08.14.11.21.05.07.09.14.12.21.25.46.47.87.71,1.27.47.79.91,1.46,1.35,2.06.05.08.11.15.16.22.18.24.36.47.54.69,1.81,2.27,3.96,4.12,6.39,5.49l.1.06c.05.02.09.05.14.07.15.09.301.17.46.25,2.54,1.33,5.39,2.18,8.48,2.53h.02l.04.01c1.03.13,2.07.19,3.1.19,2.53,0,5.02-.39,7.41-1.18.1-.03.33-.11.33-.11.19-.06.38-.13.56-.2.29-.11.58-.22.87-.34l.07-.03c4.86-2.03,8.83-5.55,11.461-10.18.139-.25.269-.5.399-.75.3-.57.601-1.2.91-1.93.03-.07.05-.14.08-.21.02-.06.04-.11.06-.17.22-.55.42-1.08.58-1.6.02-.05.04-.1.06-.14.01-.04.02-.08.04-.11,0-.04.02-.1.03-.15l.01-.05c.3-.99.5-1.81.65-2.61.31-1.4.44-2.44.39-3.17v-.04c.05-.81-.24-.94-.35-.98l-.02-.01-.02-.02c-.09-.06-.2-.09-.33-.09-.07,0-.14.01-.22.02l-.269.06c-.25.03-.511.08-.771.14" fill="red" stroke-width="0"/>
          <path d="M289.452,239.121c-5.381-11.63-10.941-23.66-11.921-35.51-.92-10.14,1.37-21.79,3.591-33.05,3.5-17.78,6.799-34.57-1.781-45.26-.03-.05-.07-.09-.11-.13-5.79-7.09-16.41-10.73-32.46-11.11-1.26-.07-2.3-.11-3.27-.12-.24-.01-.49-.01-.72-.01-5.579,0-12.969.81-20.639,7.13l-13.75,13.14.719-1.46c2.16-4.35,2.25-8.17.27-11.36-2.889-4.66-9.549-6.75-14.86-6.75-2.23,0-4.29.35-5.95,1.01-1.78.72-6.67,1.77-11.53,1.77-3.83,0-9.049-.66-12.339-3.74l-10.661,8.75.581-1.18c.049-.09,4.23-8.68,5.94-19.71,1-6.46.959-12.49-.11-17.91-1.321-6.67-4.221-12.44-8.62-17.14-5.5,4.15-12.38,6.44-19.391,6.44-9.85,0-18.85-4.5-24.799-12.36l-.02.05-.04-.05c-2.371,6.19-6.46,11.31-11.861,14.85-5.17,3.38-11.24,5.17-17.559,5.17-5,0-9.931-1.16-14.27-3.36-4.48,7.97-6.451,16.97-5.861,26.74.66,10.95,4.54,22.59,11.56,34.6,8.29,14.21,6.901,27.78,6.741,29.1l8.969,15.71c-.099-.12-10.5-11.5-30.44-11.5h-.58c-10.99.12-19.49,3.88-25.27,11.18-5.059,6.4-7.71,15.23-7.65,25.53.07,12.73,4.42,26.5,11.64,36.85,7.98,11.44,18.581,17.74,29.851,17.74,9.73,0,19.719-4.54,29.71-13.5l.25-.22s-3.951,10.65-4.15,11.13c1.129.21,4.98.85,10.23.85,7.719,0,14.92-1.3,21.409-3.87,8.97-3.56,16.281-9.46,21.7-17.56l.86-1.28-.34,1.5c-.02.05-1.74,7.7-2.02,8.92,2.75,2.38,12.701,5.87,21.96,5.87,5.02,0,11.73-1.07,15.13-6.19l-3.949,10.72c.329.93,3.239,8.26,12.079,8.26,3.53,0,7.6-1.16,12.1-3.45l1.95-1-13.62,12.21c-.56,14.05,3.301,25.49,11.46,33.99,9.11,9.49,23.241,14.72,39.79,14.72,10.15,0,20.53-2,30.011-5.78,9.79-3.9,18.139-9.53,24.159-16.3,7.89-9.17,10.921-19.36,9.27-31.13-1.489-10.54-6.52-21.42-11.389-31.94M70.664,229.857c-.611,1.998-1.463,3.839-3.309,5.034-3.268,1.912-7.34,1.024-10.702-.14-4.818-1.654-5.093-7.227-5.656-11.52-.202-1.628-.514-3.25-.888-4.847-.447-1.911-.125-3.746.531-5.498,1.678-5.157,7.783-7.676,12.694-5.424,6.292,2.708,8.341,9.835,7.967,16.145.132,2.152-.019,4.228-.637,6.25M136.943,123.8c-5.778,1.874-11.71-2.184-12.233-8.235-.252-2.1-.372-4.214-.769-6.307-.265-1.389-.443-2.81-.57-4.234-.14-1.466-.07-3.427-1.56-4.231-2.395-1.2-4.74-1.262-7.12.147-1.589.94-1.612,2.35-1.382,3.837,2.02,11.03,3.306,22.169,4.774,33.281.132.669-.158,2.559.912,2.477.946-.073,1.911.127,2.845-.18.103-.034.22-.04.328-.034,1.84.112,3.654-.303,5.493-.243.656.02,1.305-.019,1.965-.155.984-.201,1.969.121,2.937.262,1.915.279,3.664,1.03,5.146,2.313,5.733,4.843,3.741,14.643-3.618,16.559-2.731.555-5.569.267-8.326.505-1.654.159-3.298.112-4.946.166-.929.031-.95.032-.954.914-.006,1.544-.06,3.091.026,4.631.451,8.154.095,16.312.201,24.466.13,6.059-.217,12.111-.456,18.152-.214,2.997-.266,6.003-.492,8.995-.119,1.561.06,3.155-.369,4.696-.536,1.933-.701,3.963-1.698,5.77-3.818,7.026-13.68,5.43-16.24-1.719-.939-2.584-1.008-5.221-.646-7.907.272-3.353.479-6.714.772-10.067.148-2.08-.091-4.186.357-6.244.344-8.48.305-16.974.184-25.458-.027-1.86-.052-3.739-.193-5.6-.39-6.389-.62-12.786-1.45-19.14-.155-1.073-.349-2.173-.286-3.276.039-.707-.167-1.383-.261-2.068-.28-2.024-.517-4.058-.764-6.082-.996-7.719-2.354-15.376-3.889-23.004-1.325-6.901-4.203-13.932-1.628-20.909,3.49-10.382,15.239-15.775,25.499-15.598,9.094-.117,17.484,3.822,22.285,11.374,3.738,5.708,2.926,12.815,3.62,19.303.703,5.476-1.828,11.388-7.494,12.843M197.933,236.88c-1.362,1.912-3.282,2.925-5.642,3.198-4.231.492-7.458-1.221-10.071-4.392-1.277-1.546-2.222-3.284-2.879-5.167-.328-.946-.552-.959-1.39-.802-1.465.277-2.93.171-4.393.182-10.119.211-19.459-7.438-21.374-17.361-.205-1.025-.324-2.092-.322-3.163.015-10.591.009-21.183.009-31.774h.012c.115-11.531-.021-23.51.187-34.616.036-1.907-.018-3.915.187-5.841,1.185-11.151,18.175-8.078,18.053-.526-.061,3.689.125,4.91.104,8.769-.065,17.636.059,35.283-.046,52.912-.141,2.641-.145,5.28-.185,7.922-.012.709.191,1.375.273,2.065.038.32.24.604.52.818,1.995,1.517,4.423,1.499,6.369.221.69-.452,1.027-1.084,1.024-1.947-.022-6.178.091-12.36-.075-18.533-.068-2.567-.246-5.143-.115-7.699.305-5.987-.045-11.982.233-17.96.172-3.71.075-6.902.21-11.118.09-2.798.168-5.577.203-8.363.213-16.922,19.529-17.097,18.728.785-.072,1.579.096,3.172-.036,4.742-.186,2.2-.039,4.409-.241,6.594-.161,1.726-.024,3.452-.19,5.163-.321,3.3-.057,6.61-.224,9.908-.416,8.266-.211,16.536-.122,24.8.038,3.667-.056,7.347.194,11.006.177,2.572.011,5.143.221,7.698.132,1.615.023,3.237.214,4.831.235,1.96.243,3.933.542,5.896.313,2.068.786,4.09,1.234,6.123.456,2.072-.022,3.957-1.212,5.629M271.853,261.352c-.735,6.633-5.804,11.873-11.424,15.008-10.027,5.721-24.8,5.725-33.916-1.797-4.927-3.916-6.826-9.007-7.769-15.053-.469-2.366-.978-4.724-1.433-7.092-1.312-5.701,2.384-11.729,8.28-12.635,2.592-.457,4.88.109,6.981,1.57,1.633,1.136,2.785,2.707,3.583,4.511,1.636,3.928,2.451,8.124,3.539,12.22.55,2.419,1.375,2.964,3.76,3.333,1.567.242,3.158.079,4.574-.809,1.657-.82,2.425-1.655,1.82-3.54-.352-1.271-.799-2.517-1.207-3.772-3.135-9.502-5.279-19.28-7.264-29.057-3.251.571-6.397,1.3-9.71.875-1.331-.211-2.678-.321-3.995-.657-7.489-2.017-14.242-8.065-15.33-15.978-.274-1.702-.401-3.422-.416-5.135-.023-2.498-.165-4.992-.302-7.477-.314-5.731-.059-11.461-.166-17.188-.077-3.818.167-7.634.279-11.45.035-5.953.669-12.082,4.736-16.755,3.906-4.815,10.001-7.78,16.238-7.749,2.646-.063,5.294-.051,7.851.715.556.159.785.059.956-.496,1.422-4.611,4.523-8.942,9.528-9.816,7.209-1.661,14.808,4.94,12.309,12.634-1.94,5.38-3.528,10.861-4.712,16.461-1.046,4.9-1.995,9.814-2.424,14.808-.964,16.011,1.356,32.097,5.452,47.568,2.52,9.408,5.29,18.782,9.024,27.79,1.199,2.885,1.524,5.922,1.158,8.963" fill="url(#g)" stroke-width="0"/>
          <path d="M239.64,196.141c-.246-2.301-.233-4.61-.31-6.905-.361-8.651.224-17.302.825-25.923.06-1.266-.505-2.197-1.497-2.888-2.066-1.434-4.307-1.756-6.693-.937-2.122.727-2.908,1.943-3.058,3.969-.229,4.38-.615,8.771-.621,13.159-.246,7.837.077,15.496.394,23.326.03,1.315.205,2.625.259,3.943.027.63.14,1.3.341,1.937.285.904.839,1.542,1.673,1.936,1.071.505,2.18.884,3.33.73,2.432.209,5.841-1.144,5.887-3.911.046-1.366-.283-2.699-.239-4.055.047-1.471-.136-2.937-.291-4.381" fill="url(#g)" stroke-width="0"/>
          <path d="M308.841,230.141c-4.81-10.39-9.35-20.2-10.04-28.56-.64-7.02,1.36-17.14,3.29-26.919,1.76-9,3.77-19.201,4.01-28.821.33-13.37-2.96-24.53-9.64-33.2v-32.47c0-6.6-5.4-12-12-12h-29c-6.6,0-12,5.4-12,12v12.41l-2.07.04c-5.34.11-10.12.81-14.62,2.16-2.05.61-4.08,1.36-6.04,2.23l-4.3,1.91-4.95-2.22c-5.79-2.45-12.23-3.65-18.46-3.4l-9.71.4-1.18-9.64c-.85-6.91-2.76-13.37-5.67-19.2l-6.37-12.79,14.1-2.31c3.87-.63,6.63-2.18,8.69-4.88,3.24-4.25,2.55-8.75,2.17-11.17l-.21-1.61c-.04-.43-.1-.86-.18-1.29-.4-2.21-1.23-4.07-2.5-5.66-2.34-2.96-6.02-4.71-9.86-4.71-.73,0-1.44.06-1.82.12l-10.19,1.47-3.74-5.06c-2.2-2.99-4.74-5.66-7.53-7.93C151.421,2.831,141.961-.209,132.121.011c-9.54.14-18.78,3.54-26.15,9.59l-4.97,4.07-5.9-2.55c-8.68-3.76-18.52-4.459-27.61-1.99-13.37,3.39-23.73,12.82-28.6,25.9l-2.19,5.89-10.07,1.4c-4.65.65-8.43,3.53-10.08,7.71-.76,1.87-1.04,3.92-.83,5.95.05.56.11,1,.2,1.431l.24,1.579c1.28,9.96,7.48,12.33,12.45,12.58l12.58.63-2.84,12.27c-1.52,6.55-2.08,13.5-1.66,20.63.63,10.74,3.53,21.85,8.61,33l5.12,11.25-11.91,3.28c-10.59,2.91-19.67,8.85-26.25,17.17C4.161,180.041-.079,193.491.001,208.701c.09,17.14,5.73,34.98,15.48,48.95,12.09,17.34,28.92,26.89,47.37,26.89,5.57,0,11.2-.9,16.72-2.65l2.53-.8,2.61.49c2.41.45,7.45,1.21,14.18,1.21,9.14,0,22.82-1.48,36.17-8.54l3.79-2,4.11,1.21c3.89,1.15,7.93,1.97,12,2.451l3.73.449,2.61,2.7c.23.24.47.48.71.71l2.74,2.67.39,3.81c1.54,15.09,7.28,27.9,17.06,38.09,13.17,13.73,32.77,21.29,55.19,21.29,27.22,0,54.1-11.2,70.15-29.24l.23-.26c6.27-7.3,10.61-15.31,12.91-23.83,2.09-7.72,2.52-15.65,1.31-24.23-1.93-13.68-7.9-26.56-13.15-37.93M311.5,277.87c-.006.487-.014.974-.035,1.457-.019.474-.048.944-.081,1.414-.028.371-.062.741-.098,1.11-.022.23-.039.461-.065.69-.009.076-.023.15-.032.226-.072.624-.16,1.244-.258,1.862-.035.225-.066.451-.105.676-.138.799-.294,1.595-.475,2.386-.13.57-.26,1.14-.42,1.71-1.39,5.15-3.73,10.1-6.98,14.79-.02.02-.03.04-.04.07-.67.96-1.4,1.901-2.14,2.84-.47.59-.94,1.18-1.44,1.77l-.08.08-.03.04c-.86.96-1.74,1.89-2.66,2.8-.03.03-.05.06-.08.08-14.23,14.041-36.46,22.63-59.08,22.63-19.36,0-36.11-6.35-47.17-17.87-8.65-9.01-13.52-20.96-14.26-34.81-.07-1.26-.1-2.53-.1-3.82,0-.68.01-1.37.03-2.06-2.87-1.3-5.39-3.18-7.49-5.57-1.38-1.57-2.55-3.32-3.47-5.19-.81.04-1.65.06-2.48.06-8.35,0-18.29-2.329-24.81-5.81-13.28,10.1-28.4,12.231-38.76,12.231-7.2,0-12.17-1.031-12.71-1.141l-4.58-.99-.14-.26c-6.15,2.74-12.41,4.13-18.61,4.13-13.27,0-25.62-6.41-35.22-18.15-1.03-1.26-2.05-2.58-3.02-3.97-.467-.666-.919-1.347-1.361-2.036-.313-.485-.616-.981-.919-1.476-.086-.14-.175-.277-.26-.418-.027-.043-.05-.088-.077-.132-.365-.61-.72-1.227-1.069-1.849-.063-.113-.126-.226-.189-.339-.363-.656-.715-1.318-1.06-1.987-.039-.076-.077-.153-.116-.229-.36-.705-.709-1.416-1.048-2.135-.01-.021-.02-.043-.03-.064-2.093-4.46-3.771-9.159-4.992-13.966-.048-.19-.099-.379-.146-.569-.145-.589-.279-1.181-.41-1.774-.068-.304-.136-.607-.2-.913-.11-.527-.213-1.054-.312-1.583-.071-.379-.139-.757-.205-1.137-.082-.478-.161-.957-.234-1.437-.066-.438-.128-.875-.187-1.314-.058-.435-.116-.87-.167-1.306-.058-.497-.107-.993-.154-1.49-.037-.385-.078-.77-.109-1.155-.047-.584-.081-1.167-.114-1.749-.017-.305-.04-.609-.053-.914-.039-.891-.063-1.78-.068-2.668-.07-12.65,3.34-23.7,9.86-31.94.248-.313.51-.629.783-.947.264-.312.54-.625.824-.939.001-.001.002-.003.003-.004,0-.001.002-.001.003-.002,3.141-3.485,7.556-7.083,13.602-9.641.094-.04.187-.08.282-.12.565-.234,1.144-.456,1.737-.671.19-.069.381-.136.574-.203.537-.185,1.083-.362,1.643-.531.271-.081.549-.158.826-.236.517-.144,1.038-.284,1.575-.412.347-.083.706-.158,1.062-.235.499-.107.998-.214,1.513-.307.429-.077.873-.14,1.312-.207.477-.072.948-.149,1.438-.209.542-.066,1.104-.112,1.663-.162.419-.038.827-.086,1.255-.114,1.002-.066,2.028-.108,3.085-.12h.69c1.056,0,2.111.033,3.163.087.112.006.223.017.334.023.977.056,1.95.136,2.919.239.005.001.01.001.014.001.41.04.81.09,1.22.14.095.012.19.028.285.04.397.053.793.107,1.188.168.69.105,1.378.219,2.061.351.082.015.165.025.246.041-.13-3.93-1.04-11.319-5.54-19.01-3.92-6.73-6.98-13.39-9.14-19.95-.37-1.118-.704-2.234-1.022-3.346-.017-.058-.033-.117-.049-.175-.254-.897-.491-1.792-.711-2.684-.024-.098-.054-.197-.078-.295-.021-.086-.038-.172-.059-.258-.109-.458-.213-.915-.313-1.372-.059-.268-.116-.536-.172-.804-.101-.483-.198-.965-.288-1.446-.012-.063-.026-.126-.038-.19-.024-.128-.043-.256-.066-.384-.507-2.816-.852-5.607-1.014-8.366-.04-.71-.05-1.41-.07-2.11-.003-.146-.006-.29-.011-.436-.008-.366-.028-.735-.029-1.099v-.015c0-1.12.02-2.24.08-3.34.27-5.64,1.3-11.06,3.09-16.2.23-.65.48-1.3.73-1.95.01-.026.022-.052.032-.078.156-.396.32-.789.484-1.181.14-.333.282-.665.428-.996.176-.397.355-.792.54-1.186.029-.062.056-.126.086-.189.106-.225.222-.447.332-.671.2-.408.398-.818.608-1.222.289-.553.585-1.103.89-1.647.08-.13.15-.27.22-.4.1-.17.2-.33.3-.49.03-.05.06-.09.09-.13.01-.02.02-.04.03-.05-.93-.99-1.78-2.06-2.58-3.18-.17-.239-.321-.496-.485-.74-.149-.215-.301-.429-.435-.65-.049-.076-.093-.154-.141-.23-.242-.384-.475-.772-.702-1.168-.026-.044-.054-.085-.077-.132,0-.01-.01-.03-.02-.04-.31-.55-.62-1.1-.9-1.68l-.02-.03-.04-.07c-.59-1.12-.98-2.33-1.35-3.5-.07-.229-.15-.45-.23-.68-.07-.23-.15-.47-.23-.69-.24-.35-.63-.51-1.22-.51-.55,0-1.17.14-1.78.27-.57.131-1.11.24-1.57.25-1.41.19-2.83.42-4.21.64-1.51.241-3.08.48-4.63.69-1.83.19-3.19.42-4.18.58-.87.15-1.5.25-1.96.25-.81,0-1.16-.32-1.37-1.05-.039-.142-.073-.305-.105-.478-.015-.071-.028-.152-.042-.231-.004-.028-.009-.054-.014-.082-.009-.058-.02-.108-.029-.169v-.025c-.016-.109-.033-.22-.049-.339-.02-.14-.039-.286-.061-.446-.022-.193-.055-.427-.084-.65-.012-.083-.023-.164-.036-.25-.007-.046-.01-.085-.013-.126-.052-.366-.113-.766-.187-1.204,0-.02,0-.04-.01-.06-.03-.08-.04-.16-.05-.24,0-.02-.01-.03-.01-.05,0-.04,0-.07-.01-.1-.006-.039-.009-.122-.01-.219h0c0-.071,0-.151.01-.241.01-.11.03-.21.08-.3.03-.11.09-.21.17-.3.073-.093.172-.171.282-.243.003-.002.005-.005.008-.007.005-.003.012-.005.017-.008.178-.111.399-.194.656-.246.02-.005.036-.011.057-.016.04,0,.08-.01.12-.02l.11-.02,2.75-.38c2.03-.279,4.07-.56,6.1-.84,1.47-.21,2.94-.41,4.41-.6.83-.11,1.68-.22,2.53-.339.65-.091,1.3-.181,1.95-.271.2-.04.43-.11.63-.22.069-.039.145-.079.205-.136.062-.055.118-.114.155-.184.044-.874.123-1.731.219-2.581.018-.15.033-.301.052-.451.102-.823.227-1.633.376-2.428.025-.131.053-.258.079-.388.147-.739.312-1.468.5-2.184.025-.097.046-.196.073-.292.198-.734.422-1.45.662-2.157.069-.203.139-.404.211-.605.239-.665.492-1.321.768-1.961.088-.205.185-.403.277-.606.211-.465.433-.922.664-1.372.127-.248.251-.499.384-.743.288-.528.592-1.044.907-1.55.179-.288.364-.571.552-.852.21-.314.427-.621.647-.925.316-.439.644-.866.982-1.285.201-.25.405-.498.614-.74.246-.285.493-.569.749-.843.355-.382.719-.755,1.094-1.117.11-.1.2-.21.31-.32.036-.028.072-.057.108-.086.109-.101.227-.191.338-.29.383-.345.772-.684,1.173-1.008.262-.211.534-.41.803-.613.321-.24.646-.475.977-.702.269-.185.538-.368.814-.543.421-.268.852-.522,1.288-.769.209-.118.412-.244.624-.358.604-.322,1.225-.62,1.857-.902.236-.106.476-.203.716-.302.485-.201.976-.391,1.475-.568.233-.083.464-.167.7-.244.723-.238,1.455-.458,2.207-.645,2.65-.74,5.42-1.12,8.2-1.12.698,0,1.393.032,2.085.079.171.011.341.025.512.039.686.057,1.369.13,2.045.232.003,0,.005.001.007.001.691.104,1.373.24,2.05.39.148.033.296.067.443.102,1.356.322,2.683.733,3.972,1.231.123.048.245.097.368.146,1.292.519,2.544,1.124,3.747,1.814.11.063.219.128.328.192.586.346,1.163.706,1.723,1.092.007.004.014.008.02.012l.006.005c1.017.701,1.985,1.472,2.906,2.298.095.085.19.172.284.258.513.473,1.015.959,1.494,1.47,1.12,1.099,1.85,1.969,2.34,2.549.141.169.279.332.401.471.041.044.084.091.119.129.014.015.029.031.042.044.073.075.135.132.178.156.11-.099.3-.53.5-.98.31-.69.77-1.73,1.55-3.11.333-.655.696-1.292,1.077-1.916.089-.145.188-.282.279-.426.303-.475.614-.945.943-1.4.115-.159.237-.311.355-.467.325-.431.658-.856,1.007-1.268.125-.149.256-.293.385-.439.36-.409.729-.809,1.111-1.197.129-.132.26-.26.391-.389.401-.393.813-.774,1.235-1.144.126-.11.251-.22.379-.328.446-.378.904-.741,1.372-1.093.117-.088.231-.177.349-.263.499-.364,1.01-.711,1.532-1.046.097-.062.191-.128.289-.189.569-.356,1.149-.693,1.741-1.011.049-.026.096-.058.145-.084.011-.006.022-.01.033-.016.344-.182.696-.348,1.047-.517.226-.109.45-.223.679-.326.341-.155.687-.296,1.034-.438.254-.104.507-.209.765-.307.33-.125.663-.241.997-.355.29-.099.582-.195.875-.286.313-.096.626-.187.942-.273.334-.091.669-.175,1.007-.255.286-.068.571-.136.86-.196.389-.081.779-.149,1.172-.214.249-.041.496-.087.747-.123.464-.066.932-.114,1.4-.159.189-.017.376-.043.566-.057.665-.05,1.334-.082,2.006-.088.4-.02.82-.02,1.22-.02,6.86,0,13.25,2.26,18.5,6.54.594.484,1.17.993,1.731,1.524.249.236.484.492.726.737.298.3.6.594.886.908.321.35.625.72.932,1.086.187.224.381.44.564.67.356.447.694.913,1.031,1.382.115.16.234.314.347.477.371.535.723,1.088,1.069,1.648.063.104.131.205.194.31.369.613.719,1.243,1.057,1.884.031.057.062.114.092.171.354.678.687,1.373,1.004,2.081.012.025.023.05.034.075.323.724.626,1.463.91,2.216.004.011.009.021.013.031.13.36.28.71.41,1.08.17.17.45.26.85.26.09,0,.18,0,.27-.01,1.48-.21,2.99-.44,4.45-.66,1.47-.22,2.93-.44,4.4-.65,2.05-.28,4.1-.58,6.14-.88l2.82-.41c.05,0,.1,0,.16-.01.07,0,.15-.01.22-.01.212,0,.4.034.564.095.149.051.267.135.375.23.011.01.03.014.041.025.02.02.05.03.07.05.03.03.06.05.08.08.08.101.14.23.18.351.01.009.01.029.02.039,0,.01,0,.02.01.04.01.06.03.11.04.16,0,.04.01.08.01.1.03.13.07.29.05.46.02.14.03.27.05.4.01.051.01.09.02.14.02.12.03.24.05.35.07.51.13.96.19,1.35.11.7.19,1.23.21,1.65v.061c.01.429-.05.739-.24.979-.39.51-1.17.6-2.74.78-1,.12-2.36.27-4.17.6-1.55.23-3.12.43-4.64.62-1.38.17-2.82.35-4.22.55-.45.12-1,.16-1.58.2-1.24.08-2.52.16-2.83,1.06-.02.48-.04.97-.05,1.45-.04,1.22-.08,2.49-.33,3.73l-.03.15c-.15.86-.34,1.71-.56,2.55-.85,3.3-2.2,6.38-4.05,9.19.18.18.35.38.52.57.544.58,1.064,1.175,1.572,1.776.141.166.275.334.413.501.369.45.728.904,1.076,1.365.143.19.287.379.428.57.365.501.718,1.007,1.059,1.52.09.135.187.268.275.404.005.008.011.016.017.024.43.67.85,1.35,1.25,2.05.296.522.575,1.058.848,1.6.161.317.318.636.472.958.026.054.054.108.08.162.023.048.041.099.064.147.393.837.761,1.689,1.103,2.556.033.082.067.163.099.245.726,1.87,1.335,3.809,1.828,5.811.029.116.055.233.084.35.226.948.429,1.908.603,2.883.006.03.014.059.019.088.005.028.009.056.014.083.06.342.117.685.171,1.03.103.641.199,1.285.275,1.937.13,1.15.24,2.31.31,3.48.01.24.02.47.04.71.04.9.06,1.8.06,2.72,0,.186-.011.377-.013.563-.003.348-.016.7-.025,1.05-.02.812-.054,1.63-.105,2.454-.022.366-.046.732-.075,1.101-.068.872-.156,1.75-.259,2.635-.035.306-.064.61-.104.918-.154,1.198-.331,2.402-.549,3.619l.3.29,1.03,1.02c.037.037.129.093.244.154.046.024.089.048.149.075.22.097.527.208.938.316.007.002.012.004.018.006.148.038.326.074.5.11.089.018.164.038.26.055.039.007.089.013.129.02.248.042.509.082.803.114h.009c.65.07,1.4.12,2.29.12,3.59,0,6.98-.78,7.8-1.06.36-.14.74-.25,1.1-.37.019-.006.039-.011.059-.017.74-.246,1.505-.458,2.299-.636.122-.028.243-.058.367-.083,1.251-.262,2.549-.442,3.888-.529.645-.049,1.296-.085,1.957-.085,4.33,0,8.66.87,12.53,2.511,1.917.816,3.658,1.802,5.228,2.937l.06.044c1.288.938,2.462,1.975,3.502,3.118.62-.504,1.251-.983,1.888-1.448.18-.131.363-.255.545-.383.474-.335.952-.66,1.435-.972.197-.128.395-.254.594-.377.511-.318,1.027-.624,1.548-.918.156-.087.309-.179.466-.264,1.469-.804,2.976-1.506,4.514-2.111.201-.079.402-.156.603-.231.831-.311,1.668-.604,2.517-.856,3.95-1.18,8.15-1.75,12.84-1.75h.19c.12,0,.25.01.37.01h.12c1.48.01,2.81.08,3.73.13,19.25.48,32.38,5.41,40.13,15.06,1.17,1.46,2.2,3.011,3.1,4.66v.01c.81,1.48,1.51,3.04,2.1,4.68.01.03.02.05.03.07.58,1.62,1.05,3.31,1.42,5.091.02.059.03.119.04.179.18.85.33,1.73.46,2.62.01.11.02.22.04.33.11.84.21,1.69.28,2.57.01.07.02.15.02.23.07.9.12,1.81.15,2.75,0,.2,0,.4.01.6.02.94.02,1.9,0,2.88-.22,8.68-2.05,17.97-3.82,26.96-2.07,10.56-4.22,21.47-3.43,30.16l.01.08c.03.43.08.86.13,1.29.06.49.13.99.2,1.48.09.6.2,1.21.32,1.82.153.788.334,1.582.525,2.377.068.279.132.559.204.84.153.592.315,1.186.488,1.78.051.18.109.362.163.542.132.442.265.884.407,1.327.071.225.147.451.221.677.126.383.254.766.386,1.152.107.309.215.618.326.928.076.214.153.429.231.644.148.406.299.813.453,1.221.33.87.676,1.746,1.031,2.625.171.423.344.846.52,1.271.303.728.614,1.46.931,2.194.311.72.627,1.443.949,2.168.179.405.36.81.542,1.216.42.935.846,1.874,1.278,2.817.095.208.19.416.286.625.466,1.014.936,2.032,1.409,3.056,3.55,7.67,7.18,15.52,9.66,23.57.28.92.55,1.84.8,2.771.76,2.799,1.37,5.619,1.77,8.469.149,1.051.257,2.084.346,3.11.009.111.018.223.026.334.124,1.536.181,3.047.17,4.536,0,.086-.002.173-.003.259" fill="#fff" stroke-width="0"/>
          <path d="M58.107,63.118c.069.108.138.216.21.323.313.464.649.927.998,1.375l.105.138c.047.063.095.126.145.188l.109.137.18.193c.355.425.721.865,1.114,1.275.189.198.381.396.577.587l.011.011.006.005c3.814,3.721,8.598,6.006,13.834,6.61l.08.009c.308.036.615.064.922.086.2.014.4.026.6.036.113.006.229.01.344.015.288.01.576.016.866.016,3.258,0,6.457-.667,9.505-1.983l.031-.012c2.884-1.196,5.394-2.808,7.474-4.796.127-.12.252-.24.376-.364.035-.035.07-.071.104-.107l.084-.087c1.956-1.992,3.512-4.363,4.623-7.046.11-.265.22-.527.32-.796l.099-.272c.292-.791.52-1.599.723-2.355.119-.449.219-.905.328-1.415.066-.309.126-.62.183-.933.028-.154.061-.309.094-.462.047-.22.091-.427.123-.643.147-.72.27-1.446.198-1.989-.071-.551-.312-.689-.514-.749-.093-.027-.203-.042-.325-.042-.18,0-.391.031-.628.089-.511.091-1.049.174-1.711.27l-.414.056c-.351.048-.7.092-1.051.136-.55.068-1.099.134-1.651.197l-.331.038c-.687.08-1.374.159-2.061.243-.92.12-1.574.205-2.022.347-.533.167-.762.411-.943,1.002-.127.412-.222.961-.362,1.811v.166l-.032.015c-.483,2.637-1.827,5.077-3.797,6.886-.74.68-1.559,1.265-2.435,1.738-.589.32-1.209.591-1.842.806-.32.109-.647.205-.974.286-.331.082-.669.149-1.004.202-.338.053-.685.092-1.031.115-.025.001-.054.003-.082.003h-.037c-.226.015-.458.022-.687.022-.356,0-.718-.018-1.074-.052-.795-.075-1.642-.263-2.592-.574-.087-.029-.176-.056-.265-.082-.176-.053-.358-.108-.537-.18-.54-.22-1.07-.478-1.574-.769-.588-.341-1.152-.731-1.674-1.158-1.263-1.032-2.284-2.274-3.034-3.691-.233-.44-.409-.816-.552-1.187-.122-.314-.233-.644-.327-.98-.027-.092-.055-.173-.086-.25-.011-.027-.023-.056-.037-.083-.021-.046-.04-.084-.061-.119-.013-.023-.021-.037-.03-.05-.057-.085-.114-.142-.182-.177-.045-.02-.076-.032-.106-.039l-.029-.006c-.053-.012-.101-.018-.15-.019l-.027.003c-.136.003-.261.014-.403.036l-.652.096c-1.136.15-2.301.328-3.329.485-1.105.17-2.391.364-3.672.523-.317.039-.634.078-.952.113-.29.031-.579.059-.868.084l-.279.028c-.233.021-.397.092-.502.215l-.016.019-.02.017c-.091.076-.335.277-.058,1.039l.006.017.004.019c.158.722.567,1.681,1.253,2.933.365.733.789,1.469,1.341,2.325l.052.083Z" fill="#fff" stroke-width="0"/>
          <path d="M154.975,42.508l-.082.016c-.322.057-.638.107-.954.157-1.224.178-2.447.35-3.671.516-1.107.144-2.232.291-3.33.457l-.655.089c-.145.018-.267.041-.377.071l-.014.004-.039.006c-.031.011-.08.03-.135.059l-.161-.238.136.253c-.028.016-.055.035-.079.055l-.023.019c-.046.046-.086.117-.116.211l-.011.038c-.015.058-.023.1-.029.145l-.014.1c-.007.078-.013.165-.013.263.003.34-.011.686-.042,1.03-.035.393-.099.804-.201,1.293-.081.391-.185.783-.306,1.165-.243.761-.563,1.501-.952,2.203-.197.354-.411.697-.635,1.021-.383.555-.816,1.085-1.288,1.574-1.228,1.282-2.725,2.291-4.327,2.921-.547.216-1.114.391-1.686.519,0,0-.087.023-.112.029-.342.074-.686.132-1.023.175-.34.043-.683.071-1.021.084-.153.006-.306.009-.459.009-.186,0-.372-.005-.557-.014-.664-.03-1.335-.119-1.991-.263-.973-.213-1.923-.548-2.823-.994-2.427-1.209-4.416-3.218-5.605-5.662l-.05-.05v-.055c-.36-.755-.599-1.246-.832-1.603-.337-.517-.625-.687-1.184-.701h-.077c-.464-.001-1.119.099-1.948.225-.713.115-1.41.232-2.107.349l-.284.048c-.547.091-1.093.179-1.64.268-.35.055-.698.108-1.047.16,0,0-.291.044-.415.06-.655.092-1.194.16-1.698.214-.432.018-.745.091-.949.222-.164.103-.371.305-.286.86.083.549.418,1.239.736,1.843.097.215.198.403.305.603.073.136.147.274.216.414l.038.078c.061.122.121.245.163.351.037.07.076.138.115.207.041.07.081.14.119.212.243.454.465.864.707,1.265.473.792.914,1.468,1.346,2.062.055.077.11.15.165.224.179.238.354.463.534.686,1.813,2.271,3.965,4.117,6.396,5.487l.1.059c.045.027.09.052.135.078.152.082.305.165.46.244,2.544,1.331,5.398,2.183,8.482,2.533h.017s.046.006.046.006c1.03.132,2.071.198,3.096.198,2.529,0,5.023-.398,7.413-1.184.099-.031.33-.109.33-.109.187-.065.375-.131.562-.2.291-.107.578-.221.863-.339l.076-.029c4.863-2.034,8.826-5.557,11.459-10.188.141-.248.274-.496.404-.746.299-.566.595-1.198.902-1.929.03-.069.057-.141.083-.213.022-.056.043-.112.065-.168.219-.545.414-1.084.579-1.6.016-.049.034-.097.052-.144.014-.035.028-.072.041-.11.008-.04.02-.092.032-.141l.012-.05c.296-.993.5-1.819.645-2.614.314-1.403.441-2.438.393-3.175l-.002-.019.002-.019c.054-.808-.235-.933-.344-.981l-.024-.009-.021-.015c-.091-.06-.2-.091-.333-.091-.065,0-.136.009-.212.022l-.271.052c-.257.037-.517.089-.77.141" fill="#fff" stroke-width="0"/>
          <path d="M68.831,47.893l.219-.031c2.926-.414,5.853-.827,8.781-1.232l.365-.05-.006.047c2.618-.38,5.204-.742,7.188-1.017l2.949-.411,2.713-.375c3.021-.416,6.041-.833,9.061-1.258.262-.033.481-.082.655-.141.244-.083.402-.192.484-.33l.019-.034c.019-.04.038-.096.048-.157.036-.22-.025-.535-.186-.964l-.006-.016-.008-.031-.014-.031v-.01c-1.151-3.368-2.955-6.319-5.361-8.776l-.021-.023c-.068-.068-.264-.262-.264-.262-4.387-4.428-10.398-6.865-16.927-6.865-.469,0-.943.013-1.412.039-6.548.278-12.449,2.946-16.618,7.514-.502.533-.955,1.12-1.454,1.775-.355.467-.708.987-1.137,1.679v.037l-.061.061c-1.043,1.696-1.86,3.562-2.43,5.551-.047.165-.096.329-.146.494-.13.43-.264.877-.356,1.335-.653,2.621-.839,4.459-.527,5.19l.022.051s.002.11,0,.135c.023.01.053.019.094.028l.042.007.038.021c.048.025.101.036.163.036.077,0,.166-.017.266-.055l.03-.011.03-.004c1.514-.204,3.029-.415,4.545-.623,3.072-.426,6.146-.859,9.221-1.293" fill="#d52d50" stroke-width="0"/>
          <path d="M108.776,41.847c.076.16.214.326.674.35.036.001.072.003.11.003.159,0,.347-.017.556-.049,1.725-.245,3.447-.495,5.17-.743l1.405-.205.022.003c1.722-.251,3.445-.502,5.17-.752l2.948-.423c2.395-.341,4.791-.682,7.184-1.014l-.018-.044.369-.053c2.592-.376,5.19-.743,7.785-1.111l1.212-.171c3.074-.434,6.147-.872,9.218-1.314,1.539-.217,3.043-.431,4.537-.661l.032-.004.032.002c.029.002.056.003.081.003.155,0,.264-.033.335-.103l.031-.03.039-.021c.038-.019.064-.037.083-.051l-.038-.13.007-.057c.1-.789-.589-2.504-1.937-4.829-.306-.528-.642-1.077-.997-1.633-1.505-2.399-3.361-4.427-5.517-6.032-.64-.489-1.275-.927-1.888-1.302-3.558-2.181-7.73-3.335-12.065-3.335-1.997,0-4.01.243-5.982.723-6.813,1.568-12.545,5.811-15.729,11.641-.066.117-.129.229-.19.342-1.642,3.048-2.557,6.396-2.725,9.962,0,0-.003.038-.003.041h.003l-.004.291c-.005.337.025.568.09.706" fill="#d52d50" stroke-width="0"/>
          <path d="M140.817,91.654c-4.802-7.553-13.191-11.492-22.286-11.374-10.259-.177-22.008,5.215-25.498,15.598-2.575,6.977.303,14.007,1.627,20.908,1.536,7.628,2.894,15.286,3.89,23.005.247,2.024.483,4.058.764,6.082.093.685.3,1.361.26,2.068-.062,1.103.131,2.203.286,3.276.831,6.354,1.061,12.751,1.451,19.14.14,1.86.166,3.739.193,5.6.121,8.484.16,16.977-.184,25.458-.448,2.058-.21,4.163-.357,6.244-.293,3.352-.5,6.714-.772,10.067-.362,2.685-.293,5.323.646,7.907,2.56,7.149,12.421,8.745,16.24,1.719.997-1.807,1.162-3.838,1.698-5.77.428-1.541.25-3.135.369-4.697.225-2.991.277-5.997.492-8.994.239-6.042.585-12.093.455-18.152-.106-8.154.25-16.313-.2-24.466-.086-1.54-.032-3.087-.026-4.631.004-.882.025-.884.953-.914,1.649-.054,3.292-.008,4.946-.166,2.758-.238,5.596.05,8.326-.506,7.359-1.916,9.352-11.715,3.619-16.559-1.483-1.282-3.231-2.033-5.146-2.312-.969-.141-1.954-.463-2.937-.262-.66.135-1.309.175-1.966.154-1.839-.06-3.653.356-5.492.244-.108-.006-.226,0-.328.034-.934.307-1.899.107-2.846.179-1.069.082-.78-1.807-.911-2.477-1.469-11.111-2.754-22.251-4.774-33.28-.231-1.487-.208-2.897,1.382-3.837,2.38-1.41,4.724-1.348,7.12-.147,1.49.803,1.42,2.765,1.559,4.231.127,1.423.305,2.844.571,4.234.397,2.092.517,4.207.769,6.307.523,6.05,6.455,10.109,12.232,8.235,5.667-1.456,8.197-7.368,7.494-12.843-.693-6.489.119-13.595-3.619-19.303" fill="#000" stroke-width="0"/>
          <path d="M261.67,224.599c-4.096-15.471-6.416-31.557-5.451-47.568.429-4.994,1.377-9.908,2.423-14.808,1.184-5.599,2.773-11.081,4.712-16.461,2.5-7.694-5.099-14.295-12.308-12.633-5.006.874-8.106,5.205-9.529,9.815-.171.556-.4.655-.955.497-2.558-.767-5.205-.779-7.851-.716-6.238-.03-12.333,2.934-16.239,7.749-4.066,4.673-4.7,10.803-4.735,16.756-.112,3.816-.356,7.631-.279,11.449.106,5.727-.149,11.457.166,17.188.137,2.485.279,4.979.301,7.477.016,1.713.142,3.434.416,5.135,1.088,7.913,7.841,13.962,15.33,15.979,1.318.335,2.664.445,3.996.656,3.312.425,6.459-.303,9.709-.875,1.985,9.777,4.13,19.555,7.264,29.058.409,1.254.855,2.5,1.207,3.771.605,1.885-.163,2.72-1.82,3.541-1.415.887-3.007,1.05-4.574.808-2.384-.369-3.21-.914-3.76-3.332-1.088-4.097-1.903-8.292-3.539-12.221-.797-1.804-1.95-3.375-3.583-4.51-2.101-1.462-4.389-2.028-6.98-1.571-5.897.907-9.592,6.934-8.281,12.635.455,2.368.964,4.727,1.433,7.092.944,6.046,2.842,11.138,7.769,15.053,9.116,7.523,23.89,7.518,33.916,1.797,5.621-3.135,10.689-8.374,11.424-15.008.366-3.041.041-6.078-1.158-8.963-3.734-9.008-6.504-18.381-9.024-27.79M234.282,208.488c-1.15.154-2.258-.225-3.329-.73-.835-.394-1.389-1.032-1.674-1.937-.2-.636-.313-1.306-.34-1.936-.055-1.318-.229-2.628-.26-3.943-.316-7.83-.639-15.489-.394-23.327.007-4.387.392-8.778.621-13.158.15-2.026.936-3.242,3.059-3.969,2.385-.819,4.627-.497,6.692.937.992.69,1.558,1.622,1.498,2.888-.602,8.621-1.187,17.272-.826,25.923.078,2.294.064,4.604.31,6.905.155,1.444.339,2.91.291,4.381-.044,1.356.286,2.689.24,4.055-.046,2.766-3.456,4.119-5.888,3.911" fill="#000" stroke-width="0"/>
          <path d="M63.334,207.462c-4.911-2.252-11.016.268-12.694,5.424-.656,1.752-.978,3.587-.531,5.498.374,1.597.686,3.219.888,4.847.563,4.293.838,9.866,5.656,11.52,3.362,1.164,7.434,2.052,10.702.14,1.846-1.195,2.698-3.036,3.309-5.034.618-2.021.769-4.098.637-6.25.374-6.31-1.675-13.437-7.967-16.145" fill="#000" stroke-width="0"/>
          <path d="M197.91,225.128c-.299-1.963-.307-3.936-.542-5.896-.19-1.594-.082-3.216-.213-4.831-.21-2.555-.044-5.126-.222-7.698-.25-3.658-.155-7.339-.194-11.006-.088-8.264-.294-16.534.123-24.8.166-3.298-.098-6.608.224-9.908.165-1.711.028-3.437.189-5.163.202-2.185.055-4.394.241-6.594.132-1.57-.035-3.163.036-4.742.801-17.882-18.515-17.707-18.727-.785-.036,2.786-.113,5.566-.204,8.363-.134,4.216-.037,7.408-.21,11.119-.278,5.978.073,11.972-.233,17.959-.131,2.556.047,5.132.116,7.699.166,6.173.052,12.355.074,18.533.003.863-.334,1.495-1.024,1.947-1.946,1.279-4.373,1.296-6.369-.22-.28-.215-.482-.498-.52-.819-.082-.69-.284-1.356-.273-2.065.04-2.642.044-5.28.186-7.922.105-17.629-.02-35.275.045-52.912.021-3.859-.164-5.08-.104-8.769.122-7.552-16.867-10.625-18.053.526-.204,1.926-.15,3.934-.186,5.841-.208,11.106-.073,23.085-.187,34.616h-.013c0,10.591.007,21.183-.008,31.774-.002,1.071.116,2.138.321,3.163,1.915,9.923,11.255,17.572,21.374,17.361,1.463-.011,2.928.095,4.393-.182.838-.157,1.063-.144,1.391.803.656,1.882,1.602,3.62,2.878,5.167,2.614,3.17,5.84,4.883,10.071,4.391,2.36-.273,4.28-1.285,5.642-3.198,1.19-1.672,1.668-3.557,1.212-5.628-.447-2.034-.921-4.056-1.234-6.124" fill="#000" stroke-width="0"/>
          <path d="M311.334,273.075c-.01-.112-.017-.223-.027-.335-.086-1.025-.198-2.059-.346-3.109-.4-2.85-1.01-5.67-1.77-8.47-.25-.93-.52-1.85-.8-2.77-2.48-8.05-6.11-15.9-9.66-23.57-.22-.49-.45-.98-.68-1.47-.246-.532-.485-1.057-.729-1.587-.095-.208-.191-.416-.286-.624-.433-.943-.858-1.883-1.278-2.817-.182-.406-.363-.812-.542-1.216-.322-.725-.638-1.449-.949-2.168-.317-.734-.628-1.466-.931-2.195-.176-.424-.348-.848-.519-1.27-.356-.879-.702-1.755-1.032-2.625-.052-.139-.112-.28-.164-.418-.099-.269-.192-.535-.289-.803-.078-.215-.155-.43-.231-.644-.11-.31-.219-.62-.325-.929-.133-.385-.261-.768-.387-1.152-.074-.225-.15-.451-.221-.676-.141-.444-.275-.886-.407-1.327-.054-.181-.111-.362-.163-.542-.173-.596-.335-1.189-.487-1.781-.01-.035-.021-.071-.03-.106-.061-.245-.116-.489-.175-.734-.192-.796-.373-1.588-.525-2.376-.12-.61-.23-1.22-.32-1.82-.07-.49-.14-.99-.2-1.48-.05-.43-.1-.86-.13-1.29l-.01-.08c-.79-8.69,1.36-19.6,3.43-30.16,1.77-8.99,3.6-18.28,3.82-26.96.02-.98.02-1.94,0-2.88-.01-.2-.01-.4-.01-.6-.03-.94-.08-1.85-.15-2.75,0-.08-.01-.16-.02-.23-.07-.88-.17-1.73-.28-2.57-.02-.11-.03-.22-.04-.33-.13-.89-.28-1.77-.46-2.62-.01-.06-.02-.12-.04-.18-.37-1.78-.84-3.47-1.42-5.09-.01-.01-.01-.02-.02-.04,0-.01,0-.02-.01-.03-.59-1.64-1.29-3.2-2.1-4.68v-.01c-.9-1.65-1.93-3.2-3.1-4.66-7.75-9.65-20.88-14.58-40.13-15.06-.94-.05-2.32-.12-3.85-.13-.19,0-.37-.01-.56-.01-4.69,0-8.88.57-12.83,1.75h-.01c-.01,0-.02.01-.03.01-.839.249-1.666.538-2.486.846-.202.075-.403.152-.603.231-.819.322-1.632.664-2.431,1.043-.702.333-1.396.692-2.084,1.068-.156.085-.31.177-.466.264-.52.294-1.037.599-1.548.918-.199.123-.396.249-.594.377-.483.312-.961.637-1.435.972-.182.128-.365.252-.545.383-.637.464-1.269.944-1.888,1.448-.21-.23-.42-.44-.64-.66-.87-.885-1.827-1.705-2.862-2.458l-.06-.044c-1.042-.753-2.162-1.438-3.358-2.048-.6-.31-1.22-.61-1.87-.89-3.87-1.64-8.2-2.51-12.53-2.51-.661,0-1.31.041-1.957.084-.41.031-.819.063-1.223.106-.91.096-1.8.24-2.665.423-.124.026-.244.056-.367.083-.791.18-1.561.391-2.299.636-.387.129-.789.242-1.159.388-.82.28-4.21,1.06-7.8,1.06-.89,0-1.651-.047-2.299-.12h-.041c-.28-.033-.525-.073-.761-.115-.041-.006-.09-.012-.13-.019-.095-.017-.171-.037-.259-.055-.176-.036-.352-.072-.5-.111-.007-.001-.012-.003-.019-.005-.41-.107-.721-.218-.938-.316-.006-.003-.017-.006-.023-.009-.05-.024-.084-.045-.126-.067-.117-.061-.207-.117-.244-.153l-1.33-1.31c.217-1.217.396-2.422.55-3.619.039-.308.068-.612.104-.919.102-.883.19-1.763.258-2.634.029-.369.053-.735.076-1.101.051-.824.085-1.642.105-2.454.008-.351.021-.702.024-1.05.01-1.105,0-2.202-.047-3.283-.02-.24-.03-.47-.04-.71-.07-1.17-.18-2.33-.31-3.48-.078-.652-.175-1.296-.275-1.938-.055-.343-.111-.687-.171-1.029-.01-.058-.022-.114-.032-.172-.174-.974-.378-1.934-.604-2.883-.028-.116-.055-.233-.083-.35-.494-2.001-1.103-3.941-1.829-5.81-.032-.082-.066-.163-.099-.245-.343-.867-.71-1.72-1.103-2.556-.049-.103-.095-.207-.144-.309-.154-.321-.312-.64-.472-.959-.275-.538-.552-1.075-.848-1.599-.399-.7-.822-1.391-1.267-2.074-.088-.137-.185-.269-.275-.405-.341-.511-.693-1.018-1.059-1.519-.14-.192-.285-.381-.428-.57-.349-.46-.707-.916-1.076-1.365-.137-.168-.273-.336-.413-.502-.508-.601-1.028-1.195-1.572-1.775-.17-.19-.34-.39-.52-.57,1.85-2.81,3.2-5.89,4.05-9.19.09-.33.17-.67.24-1,.12-.51.23-1.03.32-1.55l.03-.15c.25-1.24.29-2.51.33-3.73.01-.48.03-.97.05-1.45.31-.9,1.59-.98,2.83-1.06.58-.04,1.13-.08,1.58-.2,1.4-.2,2.84-.38,4.22-.55,1.52-.19,3.09-.39,4.64-.62,1.81-.33,3.17-.48,4.17-.6,1.57-.18,2.35-.27,2.74-.78.19-.24.25-.55.24-.98v-.06c-.02-.42-.1-.95-.21-1.65-.06-.39-.12-.84-.19-1.35-.03-.16-.05-.32-.07-.49-.02-.13-.03-.26-.05-.4.02-.17-.02-.33-.05-.46,0-.02-.01-.06-.01-.1-.01-.05-.03-.1-.04-.16-.01-.02-.01-.03-.01-.04-.01-.01-.01-.02-.02-.03v-.01c-.04-.12-.1-.25-.18-.35-.02-.03-.05-.05-.08-.08-.029-.033-.078-.046-.111-.076-.107-.094-.228-.175-.375-.229-.166-.058-.352-.095-.564-.095-.12,0-.25,0-.38.02l-2.82.41c-2.04.3-4.09.6-6.14.88-1.47.21-2.93.43-4.4.65-1.46.22-2.97.45-4.45.66-.09.01-.18.01-.27.01-.4,0-.68-.09-.85-.26-.13-.378-.283-.74-.422-1.111-.285-.753-.588-1.492-.911-2.216-.01-.026-.022-.051-.034-.076-.316-.708-.652-1.402-1.004-2.08-.03-.058-.061-.114-.091-.171-.338-.642-.69-1.271-1.058-1.884-.064-.105-.13-.206-.194-.31-.345-.561-.699-1.113-1.069-1.648-.113-.163-.232-.318-.347-.477-.336-.47-.676-.935-1.031-1.383-.183-.229-.376-.446-.564-.669-.307-.366-.611-.736-.931-1.087-.287-.313-.589-.607-.887-.907-.242-.246-.477-.501-.726-.738-.561-.53-1.137-1.04-1.731-1.523-5.25-4.28-11.64-6.54-18.5-6.54-.4,0-.82,0-1.22.02-.672.006-1.341.038-2.006.088-.19.014-.377.039-.566.057-.468.044-.936.093-1.4.159-.25.035-.498.081-.747.123-.392.065-.784.134-1.172.214-.288.06-.574.127-.86.195-.338.08-.673.164-1.007.256-.316.086-.629.177-.941.273-.294.091-.585.187-.875.286-.334.114-.668.229-.998.354-.257.098-.511.203-.765.308-.346.142-.693.283-1.033.437-.229.104-.454.218-.68.327-.351.169-.703.335-1.047.517-.06.031-.118.068-.178.1-.591.319-1.173.655-1.741,1.011-.098.061-.192.127-.289.189-.521.334-1.033.682-1.532,1.046-.118.086-.232.175-.348.263-.468.352-.927.715-1.373,1.093-.127.108-.253.218-.379.328-.422.37-.834.751-1.235,1.144-.131.128-.262.257-.391.388-.382.388-.751.789-1.111,1.198-.129.146-.259.29-.385.438-.349.412-.681.838-1.007,1.269-.117.156-.24.308-.355.466-.33.455-.64.926-.943,1.401-.091.143-.19.281-.279.426-.382.624-.743,1.261-1.077,1.916-.78,1.38-1.24,2.42-1.55,3.11-.2.45-.39.88-.5.98-.042-.023-.105-.083-.178-.156-.012-.013-.028-.03-.042-.044-.038-.041-.076-.081-.119-.13-.038-.041-.07-.074-.111-.12-.09-.11-.19-.23-.29-.35-.49-.58-1.22-1.45-2.34-2.55-.48-.512-.981-.997-1.494-1.469-.094-.086-.189-.173-.284-.258-.52-.466-1.051-.916-1.602-1.343-.428-.338-.856-.647-1.304-.956-.008-.006-.017-.011-.026-.017-.56-.385-1.137-.745-1.723-1.091-.109-.065-.218-.129-.328-.192-1.202-.689-2.455-1.295-3.747-1.814-.123-.049-.245-.099-.368-.146-1.289-.498-2.616-.91-3.972-1.231-.147-.036-.294-.07-.442-.102-.678-.151-1.361-.286-2.051-.391-.002,0-.004,0-.007,0-.676-.102-1.359-.174-2.044-.231-.171-.015-.342-.028-.513-.04-.692-.046-1.386-.078-2.085-.078-2.76,0-5.51.38-8.14,1.11-.02,0-.04,0-.06.01-.752.186-1.484.407-2.207.645-.236.077-.467.161-.7.244-.499.176-.99.367-1.475.568-.239.1-.48.196-.716.301-.632.282-1.252.581-1.856.903-.212.113-.416.239-.625.358-.436.246-.867.501-1.288.769-.275.175-.545.358-.814.543-.331.227-.656.462-.977.702-.269.202-.541.402-.803.613-.402.324-.789.663-1.173,1.007-.097.088-.2.168-.296.257-.014.011-.028.023-.042.034-.524.486-1.024.998-1.512,1.522-.256.275-.503.558-.749.844-.209.242-.412.49-.614.74-.338.418-.665.846-.982,1.285-.22.304-.437.611-.647.925-.187.281-.373.563-.552.852-.315.506-.619,1.021-.907,1.55-.133.243-.257.494-.384.742-.231.451-.453.908-.664,1.373-.092.202-.189.401-.277.606-.275.64-.529,1.295-.768,1.961-.072.2-.142.402-.211.604-.239.707-.464,1.424-.662,2.158-.027.096-.048.195-.073.291-.187.717-.353,1.445-.5,2.185-.026.129-.054.257-.079.387-.149.797-.273,1.607-.376,2.428-.019.15-.034.301-.051.452-.096.849-.175,1.707-.22,2.581-.04.07-.09.13-.15.18,0,.001-.003.002-.005.003-.219.196-.561.302-.835.357-1.49.21-3.01.42-4.48.61s-2.94.39-4.41.6c-.65.09-1.3.18-1.95.27-1.38.19-2.77.38-4.15.57l-2.86.4c-.063.008-.118.024-.177.036-.255.058-.473.139-.656.246-.008.005-.017.01-.025.015-.106.068-.204.146-.282.243-.08.09-.14.19-.17.3-.05.09-.07.19-.08.3-.009.083-.01.166-.01.241v.029c0,.09.01.15.01.19.01.04.01.1.02.15.01.08.02.16.05.24.01.02.01.04.01.06.07.41.13.79.18,1.14.004.02.005.043.007.064.02.138.032.248.049.375.033.23.062.453.084.651.021.157.041.303.061.445.016.116.031.227.049.335v.005c.01.064.019.133.029.194.005.028.01.055.014.082.014.081.028.156.042.231.024.12.048.235.075.338.01.05.02.1.03.14.21.73.56,1.05,1.37,1.05.46,0,1.09-.1,1.96-.25.99-.16,2.35-.39,4.18-.58,1.55-.21,3.12-.45,4.63-.69,1.38-.22,2.8-.45,4.21-.64.46-.01,1-.12,1.57-.25.61-.13,1.23-.27,1.78-.27.59,0,.98.16,1.22.51.08.22.16.46.23.69.08.23.16.45.23.68.37,1.17.76,2.38,1.35,3.5l.04.07.02.03c.305.638.651,1.245.997,1.851.008.013.016.025.023.039.1.17.2.34.3.51.124.211.252.415.379.62.188.297.38.589.576.879.073.106.139.215.215.321.03.06.07.11.11.17,0,.01.01.01.01.02.05.07.1.15.15.23.8,1.12,1.65,2.19,2.58,3.18-.01.01-.02.03-.03.05-.01.01-.02.03-.03.05-.02.03-.04.05-.06.08-.1.16-.2.32-.3.49-.387.676-.753,1.359-1.11,2.046-.211.405-.409.813-.608,1.223-.141.286-.282.572-.418.86-.186.393-.364.789-.54,1.186-.146.331-.287.663-.427.996-.164.392-.329.784-.485,1.18-.264.673-.523,1.346-.762,2.029-1.79,5.14-2.82,10.56-3.09,16.2-.058,1.111-.082,2.229-.079,3.355,0,.362.016.731.028,1.099.017.846.031,1.69.081,2.546.05.89.13,1.79.22,2.7.07.67.14,1.34.23,2.01.154,1.213.345,2.434.565,3.655.034.192.067.383.103.575.09.481.188.963.288,1.446.056.268.114.536.172.804.101.457.204.914.313,1.372.044.183.092.368.137.553.222.892.456,1.787.711,2.684.016.058.032.116.049.175.288,1.006.595,2.015.922,3.026.03.1.06.21.1.32,2.16,6.56,5.22,13.22,9.14,19.95,4.5,7.69,5.41,15.08,5.54,19.01l-.18-.03c-.022-.005-.043-.008-.065-.011-.683-.131-1.371-.245-2.062-.352-.395-.06-.791-.115-1.188-.167-.505-.066-1.011-.127-1.518-.181-.968-.105-1.942-.181-2.92-.239-.111-.006-.222-.018-.333-.023-1.051-.057-2.106-.087-3.164-.087h-.69c-1.057.011-2.082.054-3.085.12-.428.028-.836.076-1.255.114-.558.049-1.121.096-1.662.162-.491.06-.962.136-1.438.209-.441.067-.884.13-1.312.207-.515.093-1.015.2-1.514.307-.356.077-.714.151-1.062.235-.536.129-1.059.268-1.575.412-.277.077-.554.155-.826.236-.559.169-1.107.345-1.642.531-.193.066-.385.134-.575.203-.591.215-1.173.437-1.737.671-.095.039-.187.08-.282.12-.631.267-1.249.544-1.845.833-5.108,2.48-8.938,5.689-11.757,8.808-.002.002-.004.004-.006.006-.281.315-.557.628-.823.939-.268.317-.537.634-.784.947-6.52,8.24-9.93,19.29-9.86,31.94.005.887.029,1.777.068,2.668.013.304.037.609.054.913.032.583.066,1.166.113,1.749.031.386.071.771.109,1.156.048.497.096.993.154,1.49.051.435.109.87.168,1.306.059.438.12.876.187,1.314.073.479.151.958.233,1.437.065.379.134.758.206,1.137.099.528.201,1.056.312,1.583.063.305.131.609.199.913.132.592.265,1.185.41,1.774.047.19.099.379.146.569,1.224,4.805,2.899,9.505,4.993,13.965.009.022.019.043.029.065.339.719.689,1.429,1.048,2.135.039.076.077.152.116.229.344.668.698,1.331,1.06,1.987.063.113.127.225.189.338.349.623.705,1.24,1.069,1.85.111.184.225.366.337.55.303.495.607.989.92,1.476.444.687.894,1.369,1.36,2.036.97,1.39,1.99,2.71,3.02,3.97,9.6,11.74,21.95,18.15,35.22,18.15,6.2,0,12.46-1.39,18.61-4.13l.14.26,4.58.99c.54.11,5.51,1.14,12.71,1.14,10.36,0,25.48-2.13,38.76-12.23,6.52,3.48,16.46,5.81,24.81,5.81.83,0,1.67-.02,2.48-.06.92,1.87,2.09,3.62,3.47,5.19,2.1,2.39,4.62,4.27,7.49,5.57-.04,1.29-.03,2.56,0,3.82.02.69.03,1.38.07,2.06.74,13.85,5.61,25.8,14.26,34.81,11.06,11.52,27.81,17.87,47.17,17.87,22.62,0,44.85-8.59,59.08-22.63.03-.02.05-.05.08-.08.92-.91,1.8-1.84,2.66-2.8l.03-.04.03-.03.05-.05c.5-.59.97-1.18,1.44-1.77.74-.94,1.47-1.88,2.14-2.84.01-.03.02-.05.04-.07,3.25-4.69,5.59-9.64,6.98-14.79.16-.57.29-1.14.42-1.71.182-.792.337-1.588.475-2.386.039-.225.069-.451.105-.676.097-.618.187-1.238.259-1.862.035-.305.067-.611.096-.916.036-.369.071-.739.098-1.11.034-.47.061-.941.082-1.415.019-.482.029-.968.034-1.456.001-.087.003-.173.003-.26.003-.51,0-1.023-.012-1.539-.023-.989-.079-1.988-.157-2.996M156.231,42.291c.13,0,.24.03.33.09l.02.02.02.01c.11.04.4.17.35.98v.04c.05.73-.08,1.77-.39,3.17-.15.8-.35,1.62-.65,2.61l-.01.05c-.01.05-.03.11-.03.15-.02.03-.03.07-.04.11-.02.04-.04.09-.06.14-.16.52-.36,1.05-.58,1.6-.02.06-.04.11-.06.17-.03.07-.05.14-.08.21-.31.73-.61,1.36-.91,1.93-.13.25-.26.5-.4.75-2.63,4.63-6.6,8.15-11.46,10.18l-.07.03c-.29.12-.58.23-.87.34-.18.07-.37.14-.56.2,0,0-.23.08-.33.11-2.39.79-4.88,1.18-7.41,1.18-1.03,0-2.07-.06-3.1-.19l-.04-.01h-.02c-3.09-.35-5.94-1.2-8.48-2.53-.16-.08-.31-.16-.46-.25-.05-.02-.09-.05-.14-.07l-.1-.06c-2.43-1.37-4.58-3.22-6.39-5.49-.18-.22-.36-.45-.54-.69-.05-.07-.11-.14-.16-.22-.44-.6-.88-1.27-1.35-2.06-.24-.4-.46-.81-.71-1.27-.03-.07-.07-.14-.12-.21-.03-.07-.07-.14-.11-.21-.04-.1-.1-.23-.16-.35l-.04-.08c-.07-.14-.14-.27-.22-.41-.1-.2-.21-.39-.3-.6-.32-.61-.66-1.3-.74-1.85-.08-.55.12-.75.29-.86.2-.13.51-.2.95-.22.5-.05,1.04-.12,1.69-.21.13-.02.42-.06.42-.06.35-.05.7-.11,1.05-.16.54-.09,1.09-.18,1.64-.27l.28-.05c.7-.11,1.39-.23,2.11-.35.83-.12,1.48-.22,1.95-.22h.07c.56.01.85.18,1.19.7.23.36.47.85.83,1.6v.06l.05.05c1.19,2.44,3.18,4.45,5.6,5.66.9.45,1.85.78,2.83.99.65.15,1.32.24,1.99.27.18.01.37.01.55.01.16,0,.31,0,.46-.01.34-.01.68-.04,1.02-.08.34-.05.69-.1,1.03-.18.02,0,.11-.03.11-.03.57-.12,1.14-.3,1.69-.52,1.6-.63,3.09-1.64,4.32-2.92.47-.49.91-1.02,1.29-1.57.22-.32.44-.67.64-1.02.38-.7.7-1.44.95-2.2.12-.39.22-.78.3-1.17.11-.49.17-.9.2-1.29.04-.35.05-.69.05-1.03,0-.1,0-.19.01-.27l.01-.1c.01-.04.02-.08.03-.14l.01-.04c.03-.09.07-.16.12-.21l.02-.02c.03-.02.05-.04.08-.05l-.13-.26.16.24c.05-.03.1-.05.13-.06h.04l.01-.01c.11-.03.24-.05.38-.07l.66-.09c1.09-.16,2.22-.31,3.33-.45,1.22-.17,2.44-.34,3.67-.52.31-.05.63-.1.95-.16l.08-.01c.26-.06.52-.11.77-.14l.27-.06c.08-.01.15-.02.22-.02M108.691,40.811c.17-3.57,1.08-6.92,2.73-9.96.06-.12.12-.23.18-.35,3.19-5.83,8.92-10.07,15.73-11.64,1.98-.48,3.99-.72,5.99-.72,4.33,0,8.5,1.15,12.06,3.33.61.38,1.25.82,1.89,1.31,2.15,1.6,4.01,3.63,5.52,6.03.35.55.69,1.1.99,1.63,1.35,2.33,2.04,4.04,1.94,4.83l-.01.06.04.13c-.02.01-.04.03-.08.05l-.04.02-.03.03c-.07.07-.18.1-.34.1h-.14c-1.5.23-3,.45-4.54.66-3.07.44-6.14.88-9.22,1.32l-1.21.17c-2.59.36-5.19.73-7.78,1.11l-.37.05.01.05c-2.39.33-4.78.67-7.18,1.01l-2.95.42c-1.72.25-3.45.5-5.17.75h-.02l-1.4.21c-1.73.24-3.45.49-5.17.74-.21.03-.4.05-.56.05-.04,0-.08,0-.11-.01-.46-.02-.6-.19-.67-.34-.07-.14-.1-.37-.09-.71v-.33ZM55.031,49.811l-.03.01c-.1.04-.19.06-.26.06-.06,0-.12-.01-.17-.04l-.03-.02-.05-.01c-.04,0-.07-.01-.09-.02v-.14l-.02-.05c-.31-.73-.13-2.57.52-5.19.1-.46.23-.9.36-1.34.05-.16.1-.32.15-.49.57-1.99,1.38-3.85,2.43-5.55l.06-.06v-.04c.43-.69.78-1.21,1.13-1.68.5-.65.96-1.24,1.46-1.77,4.17-4.57,10.07-7.24,16.62-7.52.47-.02.94-.04,1.41-.04,6.53,0,12.54,2.44,16.93,6.87l.26.26.02.03c2.41,2.45,4.21,5.4,5.36,8.77v.01l.02.03v.03l.01.02c.16.43.22.74.19.96-.01.06-.03.12-.05.16l-.02.03c-.08.14-.24.25-.49.33-.17.06-.39.11-.65.15-3.02.42-6.04.84-9.06,1.25l-2.71.38-2.95.41c-1.99.27-4.57.64-7.19,1.02v-.05l-.36.05c-2.93.4-5.86.82-8.78,1.23l-.22.03c-3.08.44-6.15.87-9.22,1.3-1.52.2-3.03.41-4.55.62h-.03ZM55.461,57.781v-.02l-.01-.02c-.28-.76-.03-.96.06-1.04l.02-.02.01-.02c.11-.12.27-.19.51-.21l.27-.03c.29-.02.58-.05.87-.08.32-.04.64-.08.96-.12,1.28-.15,2.56-.35,3.67-.52,1.02-.16,2.19-.33,3.33-.48l.65-.1c.14-.02.26-.03.4-.04h.03c.05,0,.1.01.15.02l.03.01c.03,0,.06.02.1.04.07.03.13.09.19.17,0,.02.01.03.03.05.02.04.03.08.06.12.01.03.02.06.03.08.03.08.06.16.09.25.09.34.2.67.33.98.14.37.31.75.55,1.19.75,1.42,1.77,2.66,3.03,3.69.52.43,1.09.82,1.68,1.16.5.29,1.03.55,1.57.77.18.07.36.13.54.18.09.03.17.05.26.08.95.31,1.8.5,2.59.58.36.03.72.05,1.08.05.23,0,.46-.01.68-.02h.04c.03,0,.06-.01.08-.01.35-.02.7-.06,1.03-.11.34-.06.68-.12,1.01-.21.33-.08.65-.17.97-.28.64-.22,1.26-.49,1.84-.81.88-.47,1.7-1.05,2.44-1.73,1.97-1.81,3.31-4.25,3.8-6.89l.03-.02v-.16c.14-.85.23-1.4.36-1.81.18-.59.41-.84.94-1.01.45-.14,1.11-.22,2.03-.34.68-.09,1.37-.16,2.06-.24l.33-.04c.55-.07,1.1-.13,1.65-.2.35-.04.7-.09,1.05-.14l.41-.05c.67-.1,1.2-.18,1.72-.27.23-.06.44-.09.62-.09.13,0,.24.01.33.04.2.06.44.2.51.75.07.54-.05,1.27-.2,1.99-.03.22-.07.42-.12.64-.03.16-.07.31-.09.46-.06.32-.12.63-.19.94-.11.51-.21.96-.32,1.41-.21.76-.44,1.57-.73,2.36l-.1.27c-.1.27-.21.53-.32.8-1.11,2.68-2.66,5.05-4.62,7.04l-.08.09c-.04.03-.07.07-.11.11-.12.12-.25.24-.37.36-2.08,1.99-4.59,3.6-7.48,4.8l-.03.01c-3.05,1.31-6.24,1.98-9.5,1.98-.29,0-.58-.01-.87-.02-.11,0-.23,0-.34-.01-.2-.01-.4-.02-.6-.04-.31-.02-.62-.05-.92-.08l-.08-.01c-5.24-.61-10.02-2.89-13.84-6.61v-.01l-.02-.01c-.19-.19-.38-.39-.57-.58-.4-.41-.76-.85-1.12-1.28l-.18-.19-.11-.14c-.05-.06-.09-.12-.14-.19l-.11-.14c-.35-.44-.68-.91-.99-1.37-.08-.11-.14-.22-.21-.32l-.06-.09c-.55-.85-.97-1.59-1.34-2.32-.68-1.25-1.09-2.21-1.25-2.93M291.571,302.191c-6.02,6.77-14.37,12.4-24.16,16.3-9.48,3.78-19.86,5.78-30.01,5.78-16.55,0-30.68-5.23-39.79-14.72-8.16-8.5-12.02-19.94-11.46-33.99l13.62-12.21-1.95,1c-4.5,2.29-8.57,3.45-12.1,3.45-8.84,0-11.75-7.33-12.08-8.26l3.95-10.72c-3.4,5.12-10.11,6.19-15.13,6.19-9.26,0-19.21-3.49-21.96-5.87.28-1.22,2-8.87,2.02-8.92l.34-1.5-.86,1.28c-5.42,8.1-12.73,14-21.7,17.56-6.49,2.57-13.69,3.87-21.41,3.87-5.25,0-9.1-.64-10.23-.85.2-.48,4.15-11.13,4.15-11.13l-.25.22c-9.99,8.96-19.98,13.5-29.71,13.5-11.27,0-21.87-6.3-29.85-17.74-7.22-10.35-11.57-24.12-11.64-36.85-.06-10.3,2.59-19.13,7.65-25.53,5.78-7.3,14.28-11.06,25.27-11.18h.58c19.94,0,30.34,11.38,30.44,11.5l-8.97-15.71c.16-1.32,1.55-14.89-6.74-29.1-7.02-12.01-10.9-23.65-11.56-34.6-.59-9.77,1.38-18.77,5.86-26.74,4.34,2.2,9.27,3.36,14.27,3.36,6.32,0,12.39-1.79,17.56-5.17,5.4-3.54,9.49-8.66,11.86-14.85l.04.05.02-.05c5.95,7.86,14.95,12.36,24.8,12.36,7.01,0,13.89-2.29,19.39-6.44,4.4,4.7,7.3,10.47,8.62,17.14,1.07,5.42,1.11,11.45.11,17.91-1.71,11.03-5.89,19.62-5.94,19.71l-.58,1.18,10.66-8.75c3.29,3.08,8.51,3.74,12.34,3.74,4.86,0,9.75-1.05,11.53-1.77,1.66-.66,3.72-1.01,5.95-1.01,5.31,0,11.97,2.09,14.86,6.75,1.98,3.19,1.89,7.01-.27,11.36l-.72,1.46,13.75-13.14c7.67-6.32,15.06-7.13,20.64-7.13.23,0,.48,0,.72.01.97.01,2.01.05,3.27.12,16.05.38,26.67,4.02,32.46,11.11.04.04.08.08.11.13,8.58,10.69,5.28,27.48,1.78,45.26-2.22,11.26-4.51,22.91-3.59,33.05.98,11.85,6.54,23.88,11.92,35.51,4.87,10.52,9.9,21.4,11.39,31.94,1.65,11.77-1.38,21.96-9.27,31.13" fill="#000" stroke-width="0"/>
          <path d="M267.756,78.285h5.671l3.29,9.311c.42,1.469.77,2.87,1.26,4.831h.07c.49-1.751.91-3.362,1.33-4.761l3.291-9.381h5.46l1.471,19.042h-3.781l-.7-11.201c-.07-1.471-.07-3.291-.14-5.321h-.21c-.491,1.68-1.05,3.92-1.611,5.67l-3.429,10.572h-3.921l-3.43-10.852c-.35-1.47-.91-3.71-1.331-5.39h-.21c0,1.751-.069,3.57-.14,5.321l-.7,11.201h-3.64l1.4-19.042Z" fill="#000" stroke-width="0"/>
          <polygon points="249.275 78.285 265.236 78.285 265.236 81.435 259.146 81.435 259.146 97.327 255.365 97.327 255.365 81.435 249.275 81.435 249.275 78.285" fill="#000" stroke-width="0"/>
        </g>
      </g>
    </g>
  </g>
</svg>