<?xml version="1.0" encoding="UTF-8"?>
<svg id="b" data-name="Layer 2" xmlns="http://www.w3.org/2000/svg" width="1091.641" height="1159.716" viewBox="0 0 1091.641 1159.716">
  <g id="c" data-name="Layer 1">
    <g id="d" data-name="c">
      <g id="e" data-name="d">
        <g>
          <path d="M1091.641,456.943c-.373.247-.458.628-.509,1.042-2.34,19.015-14.198,32.326-32.763,36.818-5.857,1.417-11.815,2.1-17.813,2.372-7.012.318-14.034.421-21.048.698-6.207.244-12.369.879-18.418,2.399-18.694,4.698-29.424,18.963-28.787,38.208.359,10.839,3.538,20.782,9.281,29.936,5.234,8.344,11.848,15.522,19.078,22.13,7.135,6.521,14.432,12.865,21.638,19.31,7.564,6.766,14.143,14.343,18.91,23.367,3.022,5.72,5.126,11.715,5.304,18.285.241,8.867-3.245,16.016-9.927,21.663-6.552,5.536-14.184,9.113-22.272,11.719-19.295,6.219-38.601,6.118-57.871-.594-9.755-3.398-18.353-9.513-24.908-17.497-3.341-4.07-6.563-8.24-9.91-12.303-7.777-9.437-17.655-15.469-29.581-18.205-8.775-2.013-17.165-.968-25.24,2.918-5.644,2.715-10.604,6.434-15.257,10.569-4.716,4.19-9.306,8.521-14.017,12.717-4.276,3.808-8.808,7.28-14.174,9.51-9.272,3.853-20.089,1.579-26.771-5.915-2.542-2.851-4.467-6.069-6.038-9.5-1.783-3.896-3.163-7.936-4.221-12.076-1.861-7.286-3.612-14.6-5.444-21.893-.769-3.062-1.819-6.033-3.174-8.89-2.185-4.612-5.503-7.575-10.799-8.364-6.069-.904-11.867-2.823-17.093-6.17-5.5-3.52-8.754-8.426-8.974-15.071-.102-3.066.435-6.068,1.34-9.01,2.241-7.285,6.093-13.733,10.349-19.964,6.614-9.683,14.282-18.528,21.903-27.411,3.512-4.092,6.856-8.333,10.463-12.339,6.087-6.759,8.73-14.86,9.23-23.691,1.072-18.956-5.034-35.339-18.602-48.885-2.764-2.759-5.916-5.096-9.264-7.107-2.763-1.659-5.502-3.362-8.298-4.961-8.088-4.623-12.752-11.664-14.993-20.591-2.407-9.584-2.892-19.309-2.286-29.087.867-13.972,3.52-27.617,8.37-40.787,3.826-10.386,8.796-20.132,16.289-28.412,6.449-7.128,14.093-12.399,23.747-13.935,11.903-1.894,22.884.169,32.144,8.536,4.086,3.691,7.792,7.746,11.553,11.751,3.416,3.637,6.9,7.19,10.927,10.179,5.752,4.271,12.199,5.971,19.266,5.158,6.76-.779,11.704-4.368,14.959-10.296,3.231-5.884,4.093-12.305,3.995-18.883-.175-11.609-4.298-21.787-11.196-31.026-6.679-8.946-14.633-16.642-22.847-24.112-6.851-6.229-13.9-12.245-20.388-18.864-8.615-8.787-15.957-18.474-20.781-29.892-2.714-6.424-4.403-13.1-4.47-20.119-.116-12.153,4.294-22.48,12.947-30.9,9.367-9.113,20.735-14.152,33.684-15.629,14.905-1.699,28.901,1.798,42.394,7.753,15.973,7.049,30.075,17.003,43.163,28.438,22.336,19.517,39.741,42.932,53.995,68.8,14.549,26.402,25.284,54.357,33.521,83.291,3.505,12.313,6.537,24.76,9.874,37.12,1.746,6.467,4.038,12.76,6.785,18.884,4.27,9.523,10.607,17.965,18.493,24.8,4.383,3.798,8.837,7.515,13.228,11.304,4.785,4.126,9.375,8.448,13.173,13.538,3.385,4.536,5.841,9.503,7.214,15.021.412,1.656-.14,3.469.912,4.988v9.16h.001Z" fill="#f05325" stroke-width="0"/>
          <path d="M527.647.004c1.549.919,3.331.81,4.994,1.218,13.374,3.276,22.187,14.173,23.117,28.583.542,8.41-.632,16.576-2.821,24.638-2.003,7.377-4.444,14.625-6.086,22.109-1.678,7.647-2.52,15.343-.867,23.13.689,3.245,1.786,6.341,3.322,9.246,2.775,5.247,8.106,8.058,13.535,7.207,6.294-.987,10.655-5.033,11.899-11.147.466-2.29.699-4.631,1.167-6.92.579-2.83,1.525-5.537,3.092-7.949,4.064-6.255,11.134-6.586,15.68-.699,3.869,5.01,4.582,10.812,3.49,16.938-.84,4.709-1.925,9.371-2.813,14.071-1.293,6.831.338,13.122,3.492,19.056,3.863,7.268,9.589,12.635,16.158,17.108,5.899,4.017,12.228,7.207,18.492,10.517,10.569,5.583,20.679,11.922,29.749,19.952,11.309,10.011,20.29,21.807,25.23,36.646,3.85,11.565,5.06,23.362,1.489,35.169-4.44,14.685-13.325,25.2-27.604,30.121-2.919,1.006-5.955,1.325-8.992,1.652-1.413.152-2.83.331-4.218.638-4.691,1.036-7.742,4.02-9.229,8.776-1.689,5.4-1.008,10.751.414,16.054,1.276,4.757,3.485,9.096,5.802,13.357,3.124,5.743,6.401,11.393,9.521,17.138,3.636,6.694,6.7,13.65,8.157,21.269,2.7,14.124.532,27.568-5.281,40.46-4.238,9.397-10.298,17.372-17.763,24.156-11.965,10.875-25.626,18.404-41.033,22.306-8.828,2.236-17.65,1.948-26.058-1.763-15.905-7.019-30.955-15.676-44.293-27.286-13.532-11.78-21.041-27.109-23.719-45.193-1.361-9.191-1.817-18.448-1.842-27.737-.022-8.749.088-17.501-.128-26.244-.323-13.038-1.556-25.955-5.689-38.394-5.386-16.211-14.25-30.109-25.541-42.398-14.204-15.459-30.894-27.314-49.016-37.092-7.782-4.198-15.867-7.702-23.803-11.544-7.032-3.404-13.878-7.153-19.969-12.241-8.414-7.03-14.215-15.79-15.922-27.127-3.562-23.662,9.578-42.366,30.257-47.006,7.531-1.69,14.954-1.173,22.201,1.66,2.761,1.08,5.518,2.176,8.3,3.195,2.11.772,4.255,1.397,6.485,1.745,7.062,1.104,12.636-1.878,15.765-8.616,2.032-4.376,2.887-9.098,3.325-13.885,1.056-11.518,3.188-22.764,7.309-33.542,7.747-20.261,19.62-37.235,36.368-50.355,7.15-5.6,15.033-9.289,23.934-10.438.504-.065,1.012-.117,1.388-.543h8.549v.004h0Z" fill="#f05325" stroke-width="0"/>
          <path d="M42.104,1014.389c-.168-16.211,1.945-31.514,4.658-46.748,3.37-18.915,7.927-37.588,11.593-56.443,3.248-16.708,5.477-33.542,5.599-50.568.139-19.371-2.338-38.343-10.049-56.357-3.464-8.091-7.912-15.587-13.241-22.575-4.504-5.905-9.093-11.748-13.501-17.724-3.634-4.927-6.626-10.242-8.736-16.022-3.162-8.661-3.371-17.594-1.746-26.492,3.192-17.483,8.298-34.376,16.87-50.069,3.234-5.92,7.057-11.427,11.82-16.234,14.95-15.086,34.867-16.181,51.427-2.854,8.142,6.553,14.184,14.805,19.247,23.837,4.386,7.826,7.626,16.179,11.095,24.425,3.353,7.97,6.858,15.86,11.166,23.381,7.066,12.335,17.331,21.466,29.099,29.034,8.186,5.263,16.986,5.881,25.994,2.306,9.326-3.701,19.043-5.742,28.9-7.313,1.966-.313,3.836-.105,5.749.192,4.449.694,8.757,1.893,12.794,3.88,12.005,5.912,19.008,15.511,20.043,28.884,1.261,16.294-4.721,29.449-18.381,38.757-4.381,2.986-8.6,6.151-12.652,9.562-4.482,3.774-7.62,8.427-9.412,13.985-3.059,9.483-2.442,18.881,1,28.105,4.867,13.038,14.453,21.414,27.079,26.504,14.151,5.705,28.703,6.015,43.454,2.686,13.417-3.027,25.867-8.538,37.826-15.134,24.223-13.361,48.327-26.94,72.48-40.429,3.82-2.133,7.694-4.149,11.766-5.778,8.348-3.339,16.655-3.259,24.951.155,7.385,3.04,14.117,7.221,20.579,11.852,16.044,11.496,29.141,25.649,38.392,43.172,7.437,14.087,11.859,29.051,11.239,45.071-.917,23.67-9.601,43.935-27.934,59.463-10.459,8.858-22.791,13.118-36.43,13.757-12.307.577-24.327-1.427-36.283-3.988-10.036-2.149-20.007-4.618-30.167-6.157-12.16-1.841-24.298-2.387-36.323.928-9.803,2.702-17.996,7.983-24.509,15.767-8.128,9.715-10.585,20.72-7.694,33.119,1.776,7.614,3.547,15.24,4.864,22.964,1.802,10.57,0,20.403-5.326,29.678-9.676,16.853-23.632,28.884-41.426,36.403-19.568,8.271-39.884,13.942-60.989,16.707-12.861,1.686-25.739,2.178-38.66.967-27.138-2.545-51.192-12.657-72.107-30.026-25.876-21.488-42.946-48.583-50.661-81.408-2.618-11.137-3.672-22.468-3.46-33.229l.003.006h0Z" fill="#f05325" stroke-width="0"/>
          <path d="M613.365,1157.484c-7.535-.39-15.07-.78-22.605-1.169-35.692-4.165-67.897-16.913-96.102-39.317-8.799-6.99-15.798-15.533-20.298-25.949-1.833-4.243-2.943-8.681-2.958-13.311-.034-10.631,7.153-20.333,17.62-23.976,6.941-2.416,14.027-2.172,21.105-.975,12.525,2.119,24.207,6.879,35.846,11.743,12.283,5.132,24.339,10.813,36.912,15.244,6.147,2.167,12.381,4.047,18.866,4.848,9.204,1.137,18.068-.639,26.609-3.873,22.244-8.425,37.885-24.012,48.122-45.224,4.6-9.531,7.194-19.629,7.678-30.244.462-10.119-1.217-19.838-5.132-29.186-3.073-7.337-23.034-28.836-25.068-35.48-29.81-46.226,13.84-84.902,27.29-81.006,4.125,1.195,21.21,17.582,26.32,20.084,11.642,5.702,23.647,6.361,35.816,1.92,21.811-7.96,32.875-32.346,24.674-54.168-1.756-4.671-4.078-9.088-6.144-13.621-2.115-4.641-3.85-9.393-4.35-14.536-.925-9.523,1.818-18.099,6.669-26.12,4.73-7.82,11.285-13.834,18.935-18.715,9.43-6.018,19.777-9.937,30.403-13.204,21.413-6.584,53.036,16.024,75.071,12.158,12.014-2.107,24.042-4.148,36.205-5.191,15.268-1.31,30.459-1.265,45.468,2.525,18.981,4.792,33.861,15.406,45.119,31.286,8.028,11.325,13.525,23.871,17.521,37.081,5.439,17.977,8.584,36.373,9.632,55.135.661,11.821.324,23.595-1.351,35.314-3.653,25.552-13.03,48.607-30.099,68.233-16.558,19.04-37.457,30.248-62.297,34.265-12.296,1.988-24.667,2.437-37.099,1.975-14.14-.525-28.198-1.991-42.268-3.376-14.174-1.395-28.364-2.664-42.638-2.328-17.004.399-33.622,2.777-49.38,9.589-13.688,5.916-25.659,14.109-34.485,26.355-5.427,7.53-9.155,15.792-10.29,25.125-1.401,11.53,2.127,21.46,9.545,30.175,3.985,4.682,8.674,8.568,13.708,12.064,5.358,3.722,11.118,6.749,16.803,9.918,7.272,4.054,10.709,10.413,10.201,18.684-.416,6.794-3.846,11.89-9.755,15.25-4.801,2.728-10.053,3.785-15.522,3.859-8.153.109-15.924-1.832-23.54-4.518-5.08-1.792-10.159-3.589-15.194-5.501-12.924-4.909-26.113-5.6-39.597-2.853-8.572,1.746-16.99,4.103-25.493,6.122-13.306,3.16-26.793,4.845-40.476,4.892h.002Z" fill="#f05325" stroke-width="0"/>
          <path d="M672.04,687.936c-7.128.724-14.878.408-22.624.344-9.768-.081-19.528-.19-29.198,1.672-11.543,2.222-21.491,7.156-29.014,16.004-7.575,8.909-9.4,18.733-4.66,29.43,1.616,3.648,3.57,7.126,5.449,10.644,2.028,3.797,3.866,7.659,4.834,11.868.883,3.841.963,7.68-.098,11.486-1.959,7.026-8.45,11.165-15.97,10.224-7.44-.93-13.183-4.732-18.017-9.955-2.602-2.811-4.697-5.996-6.865-9.118-2.52-3.63-5.04-7.253-8.056-10.54-6.502-7.084-14.826-10.148-24.536-10.255-8.585-.093-16.865,1.713-25.097,3.834-18.063,4.655-35.954,9.943-54.138,14.149-12.616,2.918-25.313,5.502-38.265,6.509-8.836.686-17.603.348-26.127-2.284-5.852-1.807-10.985-4.727-15.428-8.772-12.405-11.294-12.963-27.185-1.454-39.514,6.472-6.933,14.651-11.061,23.768-13.711,7.658-2.226,15.526-3.428,23.401-4.614,6.297-.948,12.569-1.988,18.648-3.972,10.144-3.312,17.069-9.673,20.713-19.366,3.462-9.212,5.116-18.683,5.162-28.438.087-18.724-6.297-35.141-19.239-48.982-14.359-15.358-32.495-23.602-54.098-24.819-8.777-.495-17.329.962-25.895,2.644-10.161,1.994-20.41,2.775-30.693.952-16.303-2.89-28.649-11.573-38.365-24.045-6.995-8.979-11.496-19.111-14.47-29.896-2.691-9.759-4.303-19.674-4.051-29.836.349-14.089,3.793-27.23,13.215-38.485,7.778-9.291,17.958-15.221,29.589-18.99,13.732-4.45,27.84-5.505,42.156-4.392,18.208,1.416,35.422,6.04,51.409,14.522,11.03,5.852,20.405,13.466,26.814,24.008,11.2,18.42,25.743,34.12,42.069,48.433,7.65,6.707,15.107,13.616,23.488,19.514,3.502,2.464,7.145,4.708,10.976,6.685,12.821,6.616,26.206,7.85,39.958,3.018,20.718-7.28,35.817-20.484,44.514-40.101,1.795-4.049,2.634-8.383,3.725-12.636.583-2.275,1.215-4.538,1.776-6.818,3.12-12.667,11.712-20.64,24.103-24.897,16.115-5.537,30.632-2.23,43.171,8.446,11.209,9.544,17.264,21.824,19.179,36.068,1.096,8.157-2.08,14.283-9.402,18.573-3.915,2.293-8.095,4.095-12.09,6.233-9.471,5.068-15.475,12.684-17.801,22.809-3.638,15.831,5.009,31.953,20.656,38.52,6.305,2.646,12.652,5.189,18.684,8.381,8.02,4.243,15.445,9.254,21.647,15.756,8.627,9.045,13.848,19.672,14.614,31.994.933,14.97-5.381,26.516-19.116,34.1-7.986,4.409-16.73,6.449-25.8,7.337-.845.083-1.693.153-3.149.284v-.003h0Z" fill="#f05325" stroke-width="0"/>
          <path d="M4.36,535.392c-1.115-4.418-2.23-8.835-3.345-13.254-2.145-12.602-.781-24.908,3.042-37.027,3.315-10.507,7.746-20.561,12.355-30.536,11.737-25.403,20.762-51.701,26.426-79.133,5.79-28.039,7.961-56.33,5.974-84.907-1.425-20.483-5.195-40.554-11.291-60.148-3.02-9.705-6.649-19.22-9.91-28.852-4.547-13.428-8.45-27.019-8.663-41.34-.194-13.034,2.97-25.199,10.225-36.141,9.882-14.902,25.438-21.125,42.898-17.217,1.982.444,3.943,1.007,5.878,1.625,15.164,4.838,30.623,6.081,46.406,4.142,4.014-.493,7.933-1.711,12.091-1.292,9.649.973,18.097,4.491,25.117,11.256,5.947,5.73,8.948,12.683,8.91,20.986-.022,4.887-.58,9.738-.706,14.616-.265,10.173,1.791,19.822,6.666,28.782,5.928,10.895,15.319,17.719,26.613,22.206,9.237,3.671,18.911,5.522,28.724,6.778,12.616,1.614,25.32,2.09,37.994,2.926,12.307.812,24.509,2.17,36.273,6.165,12.944,4.397,24.846,10.686,35.3,19.556,5.183,4.398,9.318,9.584,11.873,15.997,2.756,6.915,3.213,14.027,2.235,21.287-1.148,8.516-4.357,16.25-9.029,23.439-3.686,5.672-8.803,9.484-14.935,12.093-5.165,2.199-10.585,3.606-15.978,5.081-6.373,1.745-12.862,3.046-19.065,5.426-5.649,2.166-10.678,5.438-15.819,8.508-12.58,7.514-24.786,15.577-36.024,25.029-7.157,6.019-13.083,12.967-17.546,21.281-7.441,13.86-13.881,28.074-17.668,43.409-3.597,14.561-4.26,29.32-3.327,44.216.521,8.315,1.214,16.618,1.346,24.96.263,16.559-4.151,31.732-12.977,45.696-10.981,17.373-25.256,31.085-43.536,40.368-13.606,6.909-37.384,11.884-52.643,11.772-13.479-.1-26.769-1.786-39.737-5.967-20.345-6.559-36.506-18.491-47.377-37.146-2.719-4.665-5.084-9.498-6.768-14.643v.004s0,0,0,0Z" fill="#f05325" stroke-width="0"/>
        </g>
      </g>
    </g>
  </g>
</svg>