<?xml version="1.0" encoding="UTF-8"?>
<svg id="b" data-name="Layer 2" xmlns="http://www.w3.org/2000/svg" width="1112.725" height="1186.171" viewBox="0 0 1112.725 1186.171">
  <g id="c" data-name="Layer 1">
    <g id="d" data-name="c">
      <g>
        <path d="M161.875,816.466c-3.486-.993-5.439-4.503-4.475-7.985.446-1.612.901-3.222,1.465-5.24.402-1.752,1.216-3.834,1.547-6.043.301-2.009.255-4.005-.199-5.982-.831-3.619-2.681-6.626-5.564-8.965-2.147-1.742-4.539-2.984-7.325-3.378-.823-.116-1.64-.173-2.447-.173h.002c-7.149,0-13.456,4.472-15.644,11.72-.939,3.111-1.761,6.257-2.638,9.386-.129.46-.264.915-.496,1.341-1.189,2.185-3.361,3.455-5.72,3.455-.583,0-1.178-.077-1.772-.238-.717-.194-1.435-.359-2.172-.456-.822-.109-1.632-.164-2.431-.164-3.21,0-6.221.892-8.961,2.798-4.101,2.853-6.556,6.766-7.021,11.792-.434,4.691.95,8.84,4.068,12.362,2.039,2.303,4.566,3.891,7.551,4.728,1.237.347,2.358.942,3.231,1.907,1.614,1.784,2.143,3.848,1.495,6.182-.863,3.109-1.733,6.216-2.61,9.32-.215.763-.337,1.541-.433,2.322-.481,3.918.277,7.576,2.472,10.871,2.696,4.048,6.421,6.574,11.3,7.171.682.083,1.358.125,2.026.125,2.883,0,5.628-.774,8.165-2.303,3.723-2.244,6.144-5.53,7.33-9.714.879-3.104,1.716-6.22,2.619-9.317.544-1.866,1.745-3.203,3.521-4.016.866-.397,1.747-.567,2.639-.567.658,0,1.321.092,1.988.254.766.186,1.523.396,2.313.477.67.068,1.331.103,1.984.103,3.193,0,6.186-.838,8.931-2.707,3.939-2.682,6.364-6.353,7.05-11.085.689-4.754-.575-9.017-3.597-12.717-2.143-2.624-4.924-4.334-8.192-5.264Z" fill="#f06724" stroke-width="0"/>
        <path d="M166.709,808.602c.096-.343.195-.694.296-1.056l.526-1.878c.038-.136.073-.272.104-.41.088-.383.257-.953.437-1.557.419-1.41.94-3.166,1.24-5.169.475-3.175.365-6.313-.328-9.329-1.294-5.634-4.209-10.323-8.665-13.938-3.607-2.927-7.556-4.71-11.737-5.301-1.23-.174-2.476-.262-3.706-.262v-.002c-11.239,0-20.988,7.282-24.259,18.12-.671,2.225-1.281,4.448-1.87,6.599-.065.237-.13.474-.195.711-.316-.056-.628-.104-.939-.146-1.212-.16-2.426-.241-3.608-.241-5.15,0-9.894,1.484-14.1,4.41-6.395,4.448-10.144,10.794-10.843,18.352-.659,7.137,1.516,13.761,6.291,19.155,2.701,3.051,5.959,5.306,9.709,6.723-.651,2.334-1.306,4.668-1.965,7.001-.4,1.416-.587,2.708-.706,3.675-.75,6.119.603,11.983,3.915,16.955,4.246,6.375,10.366,10.218,17.698,11.115,1.04.127,2.089.192,3.119.192,4.542,0,8.851-1.209,12.81-3.594,5.604-3.377,9.527-8.553,11.345-14.97.349-1.232.692-2.467,1.034-3.701.293-1.055.592-2.131.894-3.203.483.094,1.012.178,1.579.236.973.099,1.948.15,2.897.15,5.129,0,9.838-1.436,13.997-4.268,6.092-4.147,9.858-10.106,10.891-17.232,1.042-7.183-.872-13.996-5.534-19.702-2.745-3.36-6.211-5.854-10.327-7.436ZM173.664,834.447c-.686,4.732-3.111,8.403-7.05,11.085-2.745,1.869-5.738,2.707-8.931,2.707-.653,0-1.314-.035-1.984-.103-.79-.081-1.547-.291-2.313-.477-.667-.162-1.33-.254-1.988-.254-.892,0-1.773.17-2.639.567-1.776.813-2.977,2.15-3.521,4.016-.903,3.097-1.74,6.213-2.619,9.317-1.186,4.184-3.607,7.47-7.33,9.714-2.537,1.529-5.282,2.303-8.165,2.303-.668,0-1.344-.042-2.026-.125-4.879-.597-8.604-3.123-11.3-7.171-2.195-3.295-2.953-6.953-2.472-10.871.096-.781.218-1.559.433-2.322.877-3.104,1.747-6.211,2.61-9.32.648-2.334.119-4.398-1.495-6.182-.873-.965-1.994-1.56-3.231-1.907-2.985-.837-5.512-2.425-7.551-4.728-3.118-3.522-4.502-7.671-4.068-12.362.465-5.026,2.92-8.939,7.021-11.792,2.74-1.906,5.751-2.798,8.961-2.798.799,0,1.609.055,2.431.164.737.097,1.455.262,2.172.456.594.161,1.189.238,1.772.238,2.359,0,4.531-1.27,5.72-3.455.232-.426.367-.881.496-1.341.877-3.129,1.699-6.275,2.638-9.386,2.188-7.248,8.495-11.72,15.644-11.72h-.002c.807,0,1.624.057,2.447.173,2.786.394,5.178,1.636,7.325,3.378,2.883,2.339,4.733,5.346,5.564,8.965.454,1.977.5,3.973.199,5.982-.331,2.209-1.145,4.291-1.547,6.043-.564,2.018-1.019,3.628-1.465,5.24-.964,3.482.989,6.992,4.475,7.985,3.268.93,6.049,2.64,8.192,5.264,3.022,3.7,4.286,7.963,3.597,12.717Z" fill="#f68a46" stroke-width="0"/>
        <path d="M851.594,272.086c3.35,1.25,6.321,3.161,8.519,6.041,4.061,5.321,5.05,11.168,2.709,17.492-3.118,8.421-6.251,16.836-9.405,25.243-.775,2.065-1.295,4.195-1.742,6.339-2.243,10.756-.991,21.077,4.332,30.727,6.539,11.856,16.283,19.727,29.677,22.516,3.116.649,6.208.972,9.266.972,6.708,0,13.251-1.557,19.506-4.646,10.848-5.358,18.329-13.91,22.589-25.24,3.16-8.404,6.206-16.853,9.429-25.233,1.941-5.048,5.584-8.476,10.698-10.32,1.968-.71,3.929-1.025,5.883-1.025,2.35,0,4.691.456,7.023,1.232,2.082.693,4.133,1.453,6.305,1.86,3.225.604,6.405.919,9.537.919,7.4,0,14.532-1.758,21.342-5.605,11.548-6.524,19.128-16.143,22.13-29.107,3.017-13.026.503-25.143-7.021-36.107-5.336-7.776-12.652-13.164-21.5-16.504-9.439-3.564-14.039-13.754-10.557-23.187,1.613-4.368,3.247-8.727,5.281-14.193,1.524-4.768,4.266-10.353,5.696-16.403,1.3-5.501,1.638-11.05.838-16.638-1.466-10.228-5.898-18.999-13.35-26.157-5.551-5.331-11.897-9.332-19.533-11.071-3.589-.817-7.168-1.214-10.688-1.214h.002c-18.307.002-34.936,10.751-42.171,29.04-3.327,8.41-6.337,16.945-9.497,25.421-.464,1.245-.945,2.476-1.687,3.603-3.512,5.335-9.161,8.317-15.152,8.317-2.109,0-4.261-.37-6.376-1.137-1.942-.704-3.896-1.328-5.917-1.769-3.583-.781-7.118-1.183-10.595-1.183-7.51,0-14.75,1.874-21.615,5.843-12.036,6.959-19.756,17.242-22.212,31.075-2.292,12.909.583,24.738,8.412,35.231,5.12,6.862,11.76,11.852,19.844,14.868Z" fill="#f06724" stroke-width="0"/>
        <polygon points="958.879 113.302 958.881 113.302 958.881 113.302 958.879 113.302" fill="#f68a46" stroke-width="0"/>
        <path d="M824.855,262.125c6.172,8.273,14.217,14.302,23.911,17.918,2.04.761,3.515,1.765,4.51,3.069,2.258,2.958,2.67,5.539,1.423,8.908-3.294,8.9-6.366,17.145-9.391,25.205-1.052,2.805-1.689,5.568-2.125,7.663-2.749,13.18-.979,25.598,5.261,36.911,8.08,14.649,20.099,23.726,35.723,26.98,3.7.771,7.435,1.161,11.101,1.161,8.097,0,16-1.876,23.492-5.576,12.789-6.316,21.882-16.457,27.027-30.141,1.243-3.306,2.469-6.619,3.694-9.932,1.854-5.011,3.771-10.193,5.711-15.238.974-2.533,2.624-4.101,5.35-5.083.918-.331,1.844-.492,2.831-.492,1.253,0,2.621.252,4.181.772.323.107.646.217.969.326,1.91.647,4.075,1.381,6.52,1.84,3.8.712,7.566,1.073,11.196,1.073,9.148,0,17.817-2.277,25.768-6.769,14.037-7.929,22.943-19.676,26.472-34.913,3.565-15.398.75-29.942-8.369-43.23-6.215-9.057-14.876-15.73-25.742-19.832-4.8-1.812-7.076-6.82-5.293-11.65,1.079-2.924,2.168-5.844,3.381-9.096l1.891-5.074c.049-.132.095-.265.138-.399.487-1.521,1.178-3.292,1.91-5.167,1.375-3.522,2.934-7.514,3.972-11.906,1.591-6.732,1.924-13.456.989-19.984-1.761-12.296-7.153-22.851-16.024-31.372-7.294-7.006-15.069-11.375-23.769-13.356-4.192-.955-8.459-1.439-12.682-1.439h0s-.003,0-.003,0c-10.908,0-21.379,3.185-30.281,9.208-9.079,6.143-16.084,14.968-20.259,25.521-2.303,5.821-4.473,11.745-6.571,17.473-.991,2.707-1.983,5.413-2.99,8.114-.201.54-.539,1.445-.771,1.798-1.784,2.711-4.567,4.265-7.634,4.265-1.102,0-2.215-.201-3.309-.598-2.647-.959-4.892-1.627-7.066-2.101-4.229-.922-8.438-1.39-12.513-1.39-9.238,0-18.026,2.372-26.12,7.052-14.75,8.528-23.689,21.075-26.569,37.293-2.732,15.385.652,29.578,10.06,42.187ZM823.338,221.987c2.456-13.833,10.176-24.116,22.212-31.075,6.865-3.969,14.105-5.843,21.615-5.843,3.477,0,7.012.402,10.595,1.183,2.021.441,3.975,1.065,5.917,1.769,2.115.767,4.267,1.137,6.376,1.137,5.991,0,11.64-2.982,15.152-8.317.742-1.127,1.223-2.358,1.687-3.603,3.16-8.476,6.17-17.011,9.497-25.421,7.235-18.289,23.864-29.038,42.171-29.039h-.002c3.52,0,7.099.396,10.688,1.213,7.636,1.739,13.982,5.74,19.533,11.071,7.452,7.158,11.884,15.929,13.35,26.157.8,5.588.462,11.137-.838,16.638-1.43,6.05-4.172,11.635-5.696,16.403-2.034,5.466-3.668,9.825-5.281,14.193-3.482,9.433,1.118,19.623,10.557,23.187,8.848,3.34,16.164,8.728,21.5,16.504,7.524,10.964,10.038,23.081,7.021,36.107-3.002,12.964-10.582,22.583-22.13,29.107-6.81,3.847-13.942,5.605-21.342,5.605-3.132,0-6.312-.315-9.537-.919-2.172-.407-4.223-1.167-6.305-1.86-2.332-.776-4.673-1.232-7.023-1.232-1.954,0-3.915.315-5.883,1.025-5.114,1.844-8.757,5.272-10.698,10.32-3.223,8.38-6.269,16.829-9.429,25.233-4.26,11.33-11.741,19.882-22.589,25.24-6.255,3.089-12.798,4.646-19.506,4.646-3.058,0-6.15-.323-9.266-.972-13.394-2.789-23.138-10.66-29.677-22.516-5.323-9.65-6.575-19.971-4.332-30.727.447-2.144.967-4.274,1.742-6.339,3.154-8.407,6.287-16.822,9.405-25.243,2.341-6.324,1.352-12.171-2.709-17.492-2.198-2.88-5.169-4.791-8.519-6.041-8.084-3.016-14.724-8.006-19.844-14.868-7.829-10.493-10.704-22.322-8.412-35.231Z" fill="#f68a46" stroke-width="0"/>
        <path d="M580.74,224.674c-3.668-1.487-7.421-2.189-11.231-2.189-2.479,0-4.983.297-7.502.87-.967.22-1.927.325-2.87.325-5.706,0-10.727-3.867-12.095-9.688-.738-3.141-1.46-6.285-2.374-10.221-.942-3.338-1.492-7.613-2.979-11.656-1.352-3.676-3.277-7.012-5.876-9.935-4.757-5.351-10.672-8.725-17.714-10.013-2.068-.378-4.128-.589-6.177-.589h0c-3.147,0-6.267.499-9.342,1.659-14.798,5.579-23.26,20.388-19.909,36.286,1.292,6.132,2.815,12.215,4.229,18.321.208.897.401,1.792.403,2.727.013,5.983-3.876,10.975-9.696,12.379-1.391.335-2.759.721-4.095,1.239-7.487,2.901-13.248,7.811-16.832,15.006-4.296,8.623-4.826,17.516-.957,26.449,3.61,8.337,9.794,14.073,18.329,17.144,3.352,1.206,6.763,1.812,10.215,1.812,2.296,0,4.61-.268,6.936-.806,1.117-.258,2.242-.404,3.363-.404,1.3,0,2.596.195,3.869.638,4.382,1.523,7.188,4.523,8.253,9.073,1.418,6.057,2.824,12.118,4.215,18.182.342,1.489.856,2.919,1.417,4.329,2.815,7.073,7.484,12.559,14.249,16.101,4.809,2.518,9.727,3.854,14.725,3.854,3.639,0,7.321-.71,11.032-2.188,6.542-2.607,11.679-7.041,15.222-13.122,4.221-7.242,5.274-15.044,3.405-23.22-1.387-6.065-2.856-12.112-4.197-18.187-.808-3.659-.013-7.033,2.237-10.053,1.908-2.56,4.526-4.003,7.538-4.814,1.468-.395,2.943-.74,4.354-1.335,7.043-2.971,12.545-7.643,16.053-14.512,4.18-8.184,4.883-16.64,1.662-25.28-3.236-8.681-9.321-14.722-17.86-18.182Z" fill="#f06724" stroke-width="0"/>
        <path d="M584.121,216.056c-4.663-1.889-9.579-2.847-14.611-2.847-3.108,0-6.303.368-9.497,1.094-.295.067-.59.101-.875.101-1.633,0-2.941-1.078-3.333-2.747-.495-2.108-.984-4.218-1.528-6.57l-.84-3.627c-.032-.137-.067-.274-.105-.409-.277-.981-.545-2.228-.83-3.547-.571-2.65-1.218-5.654-2.364-8.771-1.773-4.824-4.329-9.133-7.596-12.808-6.138-6.904-13.816-11.24-22.822-12.886-2.672-.489-5.295-.736-7.796-.736h-.002c-4.369,0-8.58.753-12.517,2.237-9.199,3.468-16.818,9.976-21.454,18.326-4.692,8.451-6.143,18.479-4.086,28.238.901,4.276,1.915,8.544,2.896,12.671.461,1.94.922,3.881,1.372,5.824.036.155.14.603.17.803-.029,1.792-1.073,3.105-2.805,3.523-2.018.487-3.682.994-5.237,1.596-9.851,3.818-17.13,10.34-21.636,19.385-5.565,11.17-5.966,22.941-1.16,34.038,4.553,10.513,12.693,18.133,23.541,22.036,4.323,1.555,8.785,2.344,13.262,2.344,2.971,0,5.987-.349,8.964-1.038.495-.115.944-.173,1.334-.173.35,0,.641.044.914.139,1.695.589,2.138,1.315,2.445,2.623,1.495,6.389,2.871,12.324,4.206,18.144.507,2.208,1.243,4.177,1.827,5.645,3.701,9.299,9.904,16.278,18.436,20.746,6.186,3.239,12.545,4.881,18.9,4.881,4.823,0,9.655-.951,14.363-2.826,8.461-3.371,15.078-9.074,19.668-16.952,5.341-9.164,6.822-19.176,4.403-29.758-.547-2.392-1.106-4.781-1.666-7.17-.842-3.595-1.713-7.312-2.516-10.951-.198-.9-.153-1.636.666-2.736.219-.293.731-.981,2.662-1.501l.67-.178c1.44-.379,3.072-.81,4.84-1.555,9.317-3.929,16.238-10.224,20.572-18.711,5.448-10.667,6.147-21.608,2.079-32.518-4.05-10.862-11.973-18.946-22.914-23.379ZM596.938,268.136c-3.508,6.869-9.01,11.541-16.053,14.512-1.411.595-2.886.94-4.354,1.335-3.012.811-5.63,2.254-7.538,4.814-2.25,3.02-3.045,6.394-2.237,10.053,1.341,6.075,2.81,12.122,4.197,18.187,1.869,8.176.816,15.978-3.405,23.22-3.543,6.081-8.68,10.515-15.222,13.122-3.711,1.478-7.393,2.188-11.032,2.188-4.998,0-9.916-1.336-14.725-3.854-6.765-3.542-11.434-9.028-14.249-16.101-.561-1.41-1.075-2.84-1.417-4.329-1.391-6.064-2.797-12.125-4.215-18.182-1.065-4.55-3.871-7.55-8.253-9.073-1.273-.443-2.569-.638-3.869-.638-1.121,0-2.246.146-3.363.404-2.326.538-4.64.806-6.936.806-3.452,0-6.863-.606-10.215-1.812-8.535-3.071-14.719-8.807-18.329-17.144-3.869-8.933-3.339-17.826.957-26.449,3.584-7.195,9.345-12.105,16.832-15.006,1.336-.518,2.704-.904,4.095-1.239,5.82-1.404,9.709-6.396,9.696-12.379-.002-.935-.195-1.83-.403-2.727-1.414-6.106-2.937-12.189-4.229-18.321-3.351-15.898,5.111-30.707,19.909-36.286,3.075-1.16,6.195-1.658,9.342-1.658h0c2.049,0,4.109.21,6.177.588,7.042,1.288,12.957,4.662,17.714,10.013,2.599,2.923,4.524,6.259,5.876,9.935,1.487,4.043,2.037,8.318,2.979,11.656.914,3.936,1.636,7.08,2.374,10.221,1.368,5.821,6.389,9.688,12.095,9.688.943,0,1.903-.105,2.87-.325,2.519-.573,5.023-.87,7.502-.87,3.81,0,7.563.702,11.231,2.189,8.539,3.46,14.624,9.501,17.86,18.182,3.221,8.64,2.518,17.096-1.662,25.28Z" fill="#f68a46" stroke-width="0"/>
        <path d="M363.941,570.148c-.388,0-.78.018-1.175.053-.145.013-.289.02-.431.02-2.353,0-4.297-1.75-4.529-4.138-.114-1.172-.222-2.346-.361-3.815-.178-1.255-.169-2.829-.51-4.365-.31-1.396-.845-2.698-1.643-3.883-1.461-2.169-3.437-3.679-5.924-4.488-1.175-.383-2.363-.608-3.568-.608h-.001c-.695,0-1.395.074-2.102.237-5.629,1.298-9.414,6.246-8.976,12.164.169,2.283.424,4.559.638,6.838.032.335.058.668.013,1.007-.287,2.166-1.938,3.783-4.113,4.008-.52.054-1.034.127-1.543.249-2.851.686-5.176,2.182-6.824,4.612-1.975,2.912-2.6,6.105-1.635,9.527.901,3.193,2.859,5.571,5.799,7.099,1.6.832,3.297,1.252,5.075,1.252.358,0,.719-.017,1.084-.051.187-.018.372-.027.557-.027.708,0,1.401.136,2.05.464,1.512.765,2.381,1.988,2.545,3.687.218,2.262.431,4.524.639,6.787.051.556.167,1.098.302,1.636.674,2.698,2.097,4.911,4.373,6.523,2.022,1.433,4.197,2.205,6.516,2.205.887,0,1.796-.113,2.726-.346,2.495-.625,4.571-1.979,6.15-4.008,1.881-2.416,2.643-5.188,2.365-8.239-.206-2.263-.444-4.524-.633-6.788-.114-1.364.338-2.546,1.3-3.53.815-.833,1.833-1.228,2.963-1.375.55-.071,1.101-.125,1.641-.271,2.695-.731,4.914-2.154,6.519-4.47,1.912-2.759,2.579-5.786,1.834-9.07-.749-3.3-2.657-5.784-5.579-7.452-1.729-.987-3.589-1.444-5.542-1.444Z" fill="#f06724" stroke-width="0"/>
        <path d="M366.357,561.002c-.027-.191-.06-.604-.088-.968-.083-1.058-.197-2.506-.547-4.082-.562-2.533-1.56-4.875-2.964-6.959-2.578-3.827-6.244-6.599-10.603-8.018-2.138-.696-4.276-1.05-6.353-1.05h-.002c-1.39,0-2.778.157-4.125.468-9.985,2.303-16.684,11.386-15.928,21.598.079,1.06.173,2.106.272,3.133-4.391,1.407-8.022,4.102-10.574,7.864-3.535,5.211-4.52,11.097-2.85,17.022,1.575,5.584,5.141,9.956,10.312,12.643,2.184,1.135,4.488,1.847,6.876,2.128.088.94.176,1.879.262,2.819.111,1.212.344,2.239.533,2.998,1.209,4.838,3.942,8.879,7.903,11.683,3.616,2.561,7.558,3.86,11.717,3.86,1.628,0,3.281-.207,4.912-.615,4.431-1.109,8.258-3.602,11.066-7.21,3.253-4.178,4.714-9.222,4.226-14.584-.082-.903-.169-1.806-.257-2.708-.002-.024-.005-.048-.007-.072,4.351-1.415,7.961-4.064,10.488-7.71,3.394-4.897,4.505-10.495,3.214-16.188-1.3-5.733-4.721-10.324-9.893-13.277-2.348-1.341-4.88-2.173-7.554-2.487-.01-.096-.023-.193-.036-.288ZM375.062,579.044c.745,3.284.078,6.311-1.834,9.07-1.605,2.316-3.824,3.739-6.519,4.47-.54.146-1.091.2-1.641.271-1.13.147-2.148.542-2.963,1.375-.962.984-1.414,2.166-1.3,3.53.189,2.264.427,4.525.633,6.788.278,3.051-.484,5.823-2.365,8.239-1.579,2.029-3.655,3.383-6.15,4.008-.93.233-1.839.346-2.726.346-2.319,0-4.494-.772-6.516-2.205-2.276-1.612-3.699-3.825-4.373-6.523-.135-.538-.251-1.08-.302-1.636-.208-2.263-.421-4.525-.639-6.787-.164-1.699-1.033-2.922-2.545-3.687-.649-.328-1.342-.464-2.05-.464-.185,0-.37.009-.557.027-.365.034-.726.051-1.084.051-1.778,0-3.475-.42-5.075-1.252-2.94-1.528-4.898-3.906-5.799-7.099-.965-3.422-.34-6.615,1.635-9.527,1.648-2.43,3.973-3.926,6.824-4.612.509-.122,1.023-.195,1.543-.249,2.175-.225,3.826-1.842,4.113-4.008.045-.339.019-.672-.013-1.007-.214-2.279-.469-4.555-.638-6.838-.438-5.918,3.347-10.866,8.976-12.164.707-.163,1.407-.238,2.102-.238h.001c1.205,0,2.393.226,3.568.609,2.487.809,4.463,2.319,5.924,4.488.798,1.185,1.333,2.486,1.643,3.883.341,1.536.332,3.11.51,4.365.139,1.469.247,2.643.361,3.815.232,2.388,2.176,4.138,4.529,4.138.142,0,.286-.007.431-.02.395-.035.787-.053,1.175-.053,1.953,0,3.813.457,5.542,1.444,2.922,1.668,4.83,4.152,5.579,7.452Z" fill="#f68a46" stroke-width="0"/>
        <path d="M550.661,829.214c-2.584-1.002-5.217-1.476-7.882-1.476-1.922,0-3.86.246-5.807.72-.75.183-1.497.27-2.23.27-4.108,0-7.745-2.752-8.796-6.939-.573-2.284-1.135-4.571-1.845-7.434-.724-2.425-1.173-5.54-2.303-8.475-1.027-2.668-2.469-5.082-4.398-7.188-3.531-3.853-7.885-6.251-13.04-7.113-1.402-.235-2.798-.365-4.184-.365h0c-2.411,0-4.794.392-7.133,1.315-10.74,4.236-16.753,15.139-14.132,26.706,1.011,4.461,2.189,8.885,3.289,13.326.162.653.312,1.304.324,1.986.076,4.368-2.708,8.054-6.941,9.143-1.012.26-2.007.557-2.976.95-5.433,2.201-9.584,5.848-12.121,11.139-3.041,6.341-3.329,12.838-.407,19.316,2.727,6.046,7.304,10.165,13.568,12.312,2.355.807,4.742,1.213,7.152,1.213,1.782,0,3.577-.221,5.378-.667.86-.212,1.727-.333,2.592-.333.902,0,1.802.131,2.69.425,3.215,1.062,5.297,3.222,6.124,6.531,1.101,4.407,2.195,8.815,3.277,13.226.266,1.083.657,2.121,1.082,3.144,2.133,5.132,5.602,9.084,10.579,11.595,3.438,1.734,6.939,2.653,10.481,2.653,2.757,0,5.541-.557,8.338-1.721,4.747-1.975,8.447-5.268,10.967-9.746,3.001-5.333,3.684-11.039,2.229-16.987-1.079-4.412-2.218-8.81-3.264-13.229-.63-2.662-.087-5.134,1.522-7.363,1.364-1.889,3.26-2.972,5.449-3.597,1.068-.305,2.141-.573,3.164-1.023,5.109-2.246,9.073-5.717,11.558-10.77,2.961-6.02,3.38-12.2.934-18.471-2.459-6.3-6.967-10.643-13.238-13.074Z" fill="#f06724" stroke-width="0"/>
        <path d="M553.915,820.824c-3.568-1.383-7.314-2.085-11.135-2.085-2.603,0-5.272.328-7.933.975-.052.012-.085.015-.104.015-.018-.004-.044-.042-.067-.13-.377-1.505-.75-3.01-1.164-4.683l-.676-2.728c-.034-.136-.071-.272-.111-.407-.191-.64-.392-1.51-.605-2.432-.441-1.907-.99-4.28-1.922-6.702-1.458-3.787-3.531-7.163-6.162-10.034-4.932-5.381-11.052-8.715-18.191-9.909-1.936-.324-3.843-.488-5.669-.488h0c-3.654,0-7.164.653-10.434,1.943-7.211,2.844-13.145,8.074-16.708,14.726-3.608,6.736-4.638,14.67-2.899,22.341.712,3.144,1.504,6.265,2.269,9.283.356,1.405.713,2.81,1.061,4.217.014.055.028.111.042.166-.004.011-.007.019-.009.023,0,0-.041.032-.155.061-1.575.405-2.882.826-4.112,1.324-7.727,3.129-13.398,8.375-16.858,15.59-4.258,8.882-4.429,18.187-.495,26.908,3.722,8.251,10.241,14.172,18.853,17.125,3.289,1.127,6.677,1.699,10.071,1.699,2.505,0,5.042-.313,7.539-.931.199-.049.325-.064.388-.068.038.014.07.027.098.039.009.028.018.061.027.099,1.099,4.393,2.189,8.789,3.268,13.187.433,1.765,1.035,3.307,1.512,4.454,3.033,7.298,8.025,12.74,14.836,16.176,4.758,2.401,9.648,3.618,14.534,3.618,3.981,0,7.949-.811,11.795-2.411,6.558-2.728,11.867-7.445,15.354-13.642,4.052-7.201,5.133-15.341,3.128-23.539-.426-1.743-.862-3.484-1.298-5.225-.649-2.592-1.319-5.271-1.939-7.888.007-.01.014-.022.022-.033.068-.04.259-.137.651-.25l.474-.134c1.069-.299,2.4-.671,3.84-1.305,7.294-3.207,12.681-8.266,16.011-15.036,4.113-8.363,4.542-17.255,1.242-25.714-3.33-8.536-9.682-14.827-18.369-18.195ZM562.965,860.759c-2.485,5.053-6.449,8.524-11.558,10.77-1.023.45-2.096.718-3.164,1.023-2.189.625-4.085,1.708-5.449,3.597-1.609,2.229-2.152,4.701-1.522,7.363,1.046,4.419,2.185,8.817,3.264,13.229,1.455,5.948.772,11.654-2.229,16.987-2.52,4.478-6.22,7.771-10.967,9.746-2.797,1.164-5.581,1.721-8.338,1.721-3.542,0-7.043-.919-10.481-2.653-4.977-2.511-8.446-6.463-10.579-11.595-.425-1.023-.816-2.061-1.082-3.144-1.082-4.411-2.176-8.819-3.277-13.226-.827-3.309-2.909-5.468-6.124-6.531-.888-.294-1.788-.425-2.69-.425-.865,0-1.732.121-2.592.333-1.801.446-3.596.667-5.378.667-2.41,0-4.797-.406-7.152-1.213-6.264-2.147-10.841-6.266-13.568-12.312-2.922-6.478-2.634-12.975.407-19.316,2.537-5.291,6.688-8.938,12.121-11.139.969-.393,1.964-.69,2.976-.95,4.233-1.089,7.017-4.775,6.941-9.143-.012-.682-.162-1.333-.324-1.986-1.1-4.441-2.278-8.865-3.289-13.326-2.621-11.567,3.392-22.47,14.132-26.706,2.339-.923,4.722-1.316,7.133-1.316h0c1.386,0,2.782.131,4.184.366,5.155.862,9.509,3.26,13.04,7.113,1.929,2.105,3.371,4.519,4.398,7.188,1.13,2.935,1.579,6.05,2.303,8.475.71,2.863,1.272,5.15,1.845,7.434,1.051,4.187,4.688,6.939,8.796,6.939.733,0,1.48-.087,2.23-.27,1.947-.474,3.885-.72,5.807-.72,2.665,0,5.298.474,7.882,1.476,6.271,2.431,10.779,6.774,13.238,13.074,2.446,6.271,2.027,12.451-.934,18.471Z" fill="#f68a46" stroke-width="0"/>
        <path d="M103.127,503.967c1.664.001,3.339.172,5.019.543,9.203,2.03,15.581,7.417,18.812,16.344,4.303,11.886,8.583,23.781,12.833,35.687,1.043,2.924,2.421,5.686,3.889,8.398,7.365,13.603,18.092,23.561,32.585,29.098,8.019,3.063,16,4.667,23.9,4.667,9.643,0,19.163-2.391,28.472-7.434,12.582-6.816,21.892-16.988,27.595-30.101,6.793-15.62,7.063-31.613,1.345-47.667-4.241-11.909-8.645-23.761-12.797-35.7-2.501-7.191-1.701-14.188,2.122-20.818,3.24-5.62,8.18-9.154,14.065-11.508,2.868-1.147,5.764-2.195,8.469-3.731,13.506-7.671,23.496-18.407,28.94-33.104,6.487-17.51,5.893-34.741-2.663-51.408-8.596-16.746-22.313-27.489-40.367-32.438-5.343-1.465-10.679-2.169-15.996-2.169-7.422,0-14.808,1.373-22.119,3.967-2.894,1.027-5.826,1.515-8.694,1.515-10.398,0-19.946-6.417-23.731-16.847-2.237-6.162-4.443-12.335-7.223-20.06-2.695-6.511-4.824-15.008-8.785-22.812-3.602-7.096-8.282-13.369-14.221-18.649-10.872-9.666-23.61-15.067-38.127-15.989-1.641-.104-3.273-.159-4.897-.159h-.005c-9.074.001-17.861,1.709-26.165,6.011-28.534,14.781-42.084,46.676-31.539,77.959,4.067,12.065,8.588,23.977,12.895,35.962.632,1.761,1.234,3.521,1.461,5.407,1.451,12.07-5.208,23.068-16.619,27.286-2.727,1.008-5.396,2.113-7.969,3.476-14.417,7.637-24.874,18.915-30.394,34.287-6.615,18.421-5.568,36.493,4.364,53.598,9.27,15.963,23.112,26.067,41.066,30.232,4.701,1.09,9.39,1.637,14.058,1.637,6.992,0,13.935-1.227,20.791-3.689,3.139-1.127,6.363-1.791,9.63-1.791Z" fill="#f06724" stroke-width="0"/>
        <path d="M103.131,512.967c1.047,0,2.084.111,3.081.331,6.346,1.4,10.136,4.675,12.288,10.618,4.462,12.328,8.775,24.322,12.819,35.65,1.334,3.736,3.079,7.124,4.451,9.657,8.594,15.874,21.139,27.051,37.287,33.22,9.135,3.49,18.257,5.26,27.112,5.26,11.302,0,22.323-2.867,32.759-8.521,14.401-7.802,25.02-19.384,31.561-34.425,7.625-17.532,8.154-35.793,1.57-54.276-1.669-4.686-3.387-9.43-5.049-14.018-2.566-7.084-5.219-14.409-7.726-21.618-1.614-4.642-1.163-8.889,1.418-13.367,1.944-3.372,4.998-5.802,9.61-7.647.453-.181.906-.36,1.36-.538,2.528-.995,5.393-2.123,8.211-3.723,15.909-9.035,26.99-21.754,32.935-37.803,7.512-20.278,6.471-40.009-3.096-58.645-9.672-18.842-25.147-31.293-45.994-37.008-6.026-1.652-12.208-2.49-18.376-2.49-8.285,0-16.74,1.509-25.128,4.485-1.864.661-3.777.997-5.685.997-6.87,0-12.864-4.285-15.271-10.918-1.503-4.142-2.993-8.289-4.653-12.911l-2.561-7.126c-.048-.132-.099-.264-.152-.394-.904-2.184-1.789-4.77-2.725-7.507-1.684-4.922-3.592-10.501-6.351-15.937-4.199-8.272-9.672-15.439-16.267-21.302-12.443-11.061-27.09-17.2-43.536-18.244-1.849-.117-3.689-.177-5.468-.177l-.002.002c-11.275,0-21.188,2.296-30.304,7.018-15.785,8.177-28.077,21.447-34.611,37.365-6.608,16.101-7.076,34.376-1.317,51.46,2.799,8.304,5.841,16.619,8.782,24.66,1.376,3.761,2.798,7.65,4.171,11.471.479,1.332.884,2.51.996,3.438.963,8.012-3.278,14.988-10.804,17.77-3.56,1.316-6.44,2.575-9.062,3.964-16.86,8.93-28.519,22.118-34.652,39.198-7.724,21.508-6.025,42.085,5.051,61.16,10.518,18.113,26.268,29.713,46.815,34.48,5.348,1.241,10.762,1.87,16.092,1.87,8.02,0,16.038-1.419,23.833-4.218,2.331-.837,4.547-1.261,6.588-1.261ZM58.648,507.81c-17.954-4.165-31.796-14.269-41.066-30.232-9.932-17.105-10.979-35.177-4.364-53.598,5.52-15.372,15.977-26.65,30.394-34.287,2.573-1.363,5.242-2.468,7.969-3.476,11.411-4.218,18.07-15.216,16.619-27.286-.227-1.886-.829-3.646-1.461-5.407-4.307-11.985-8.828-23.897-12.895-35.962-10.545-31.283,3.005-63.178,31.539-77.959,8.304-4.301,17.091-6.009,26.165-6.009h.005c1.624-.001,3.256.053,4.897.157,14.517.922,27.255,6.323,38.127,15.989,5.939,5.28,10.619,11.553,14.221,18.649,3.961,7.804,6.09,16.301,8.785,22.812,2.78,7.725,4.986,13.898,7.223,20.06,3.785,10.43,13.333,16.847,23.731,16.847,2.868,0,5.8-.488,8.694-1.515,7.311-2.594,14.697-3.967,22.119-3.967,5.317,0,10.653.704,15.996,2.169,18.054,4.949,31.771,15.692,40.367,32.438,8.556,16.667,9.15,33.898,2.663,51.408-5.444,14.697-15.434,25.433-28.94,33.104-2.705,1.536-5.601,2.584-8.469,3.731-5.885,2.354-10.825,5.888-14.065,11.508-3.823,6.63-4.623,13.627-2.122,20.818,4.152,11.939,8.556,23.791,12.797,35.7,5.718,16.054,5.448,32.047-1.345,47.667-5.703,13.113-15.013,23.285-27.595,30.101-9.309,5.043-18.829,7.434-28.472,7.434-7.9,0-15.881-1.604-23.9-4.667-14.493-5.537-25.22-15.495-32.585-29.098-1.468-2.712-2.846-5.474-3.889-8.398-4.25-11.906-8.53-23.801-12.833-35.687-3.231-8.927-9.609-14.314-18.812-16.344-1.68-.371-3.355-.542-5.019-.543-3.267,0-6.491.664-9.63,1.791-6.856,2.462-13.799,3.689-20.791,3.689-4.668,0-9.357-.547-14.058-1.637Z" fill="#f68a46" stroke-width="0"/>
        <path d="M370.267,1036.289c-8.962-3.677-13.1-13.583-9.501-22.541,1.667-4.148,3.354-8.288,5.455-13.478,1.592-4.535,4.376-9.821,5.913-15.588,1.397-5.244,1.873-10.56,1.257-15.945-1.127-9.857-5.143-18.396-12.1-25.468-5.182-5.268-11.164-9.28-18.445-11.157-3.851-.992-7.707-1.474-11.493-1.474v.002c-17.079,0-32.732,9.802-39.994,26.74-3.422,7.981-6.544,16.09-9.807,24.139-.479,1.182-.974,2.35-1.717,3.412-3.416,4.881-8.707,7.576-14.278,7.576-2.182,0-4.407-.413-6.579-1.271-1.844-.728-3.703-1.381-5.63-1.859-3.834-.951-7.623-1.441-11.354-1.441-6.779,0-13.368,1.619-19.687,5.037-11.741,6.351-19.43,16.011-22.164,29.22-2.552,12.328-.114,23.759,7.114,34.042,4.727,6.726,10.964,11.695,18.641,14.81,3.18,1.29,5.98,3.205,8.011,6.029,3.754,5.218,4.544,10.856,2.125,16.862-3.221,7.997-6.457,15.988-9.713,23.971-.8,1.96-1.356,3.99-1.844,6.036-2.446,10.262-1.525,20.202,3.321,29.608,5.953,11.556,15.091,19.375,27.87,22.417,3.37.802,6.722,1.202,10.042,1.202,6.031,0,11.955-1.32,17.671-3.945,10.557-4.847,17.969-12.851,22.366-23.609,3.262-7.981,6.415-16.006,9.737-23.961,2-4.792,5.59-7.983,10.548-9.613,1.742-.573,3.47-.831,5.185-.831,2.422,0,4.82.514,7.197,1.381,1.979.722,3.927,1.506,6,1.956,3.509.761,6.971,1.16,10.386,1.16,6.658,0,13.129-1.518,19.377-4.816,11.261-5.947,18.797-14.972,22.031-27.333,3.25-12.42,1.166-24.118-5.756-34.845-4.909-7.608-11.785-12.979-20.185-16.425Z" fill="#f06724" stroke-width="0"/>
        <path d="M373.211,1027.966c-4.37-1.792-6.333-6.461-4.566-10.859,1.113-2.769,2.234-5.534,3.483-8.613l1.963-4.842c.053-.131.103-.262.149-.396.504-1.437,1.214-3.113,1.966-4.888,1.42-3.353,3.03-7.154,4.152-11.364,1.722-6.461,2.227-12.95,1.502-19.286-1.365-11.93-6.286-22.278-14.626-30.756-6.856-6.97-14.254-11.406-22.614-13.561-4.529-1.167-9.151-1.759-13.739-1.759v-.004c-21.258,0-39.753,12.336-48.267,32.194-2.369,5.526-4.613,11.152-6.783,16.592-1.026,2.573-2.052,5.146-3.093,7.712-.189.467-.541,1.335-.75,1.633-1.662,2.375-4.178,3.737-6.904,3.737-1.093,0-2.194-.216-3.273-.642-2.53-.999-4.681-1.706-6.77-2.224-4.564-1.132-9.113-1.705-13.52-1.705-8.396,0-16.46,2.059-23.969,6.121-14.485,7.836-23.467,19.716-26.695,35.312-3.062,14.792-.18,28.601,8.564,41.042,5.739,8.165,13.35,14.213,22.62,17.974,1.872.76,3.209,1.723,4.089,2.945,2.005,2.787,2.318,5.176,1.082,8.245-3.4,8.441-6.572,16.271-9.698,23.934-1.095,2.685-1.786,5.337-2.265,7.348-3.017,12.661-1.646,24.711,4.075,35.817,7.406,14.376,18.773,23.478,33.786,27.051,4.033.96,8.113,1.447,12.126,1.447,7.33,0,14.539-1.603,21.427-4.765,12.531-5.753,21.596-15.302,26.942-28.383,1.283-3.14,2.55-6.287,3.817-9.434,1.915-4.758,3.896-9.678,5.894-14.464.96-2.3,2.519-3.698,5.054-4.531.779-.256,1.555-.38,2.374-.38,1.225,0,2.57.274,4.113.836.308.112.616.226.923.34,1.826.677,3.896,1.445,6.253,1.956,4.172.906,8.309,1.365,12.294,1.365,8.286,0,16.219-1.971,23.58-5.858,13.78-7.277,22.708-18.384,26.536-33.013,3.868-14.782,1.546-28.914-6.901-42.003-5.759-8.925-13.946-15.611-24.331-19.871ZM396.208,1087.559c-3.234,12.361-10.77,21.386-22.031,27.333-6.248,3.299-12.719,4.816-19.377,4.816-3.415,0-6.877-.399-10.386-1.16-2.073-.45-4.021-1.234-6-1.956-2.377-.867-4.775-1.381-7.197-1.381-1.715,0-3.443.258-5.185.831-4.958,1.63-8.548,4.821-10.548,9.613-3.322,7.955-6.475,15.98-9.737,23.961-4.397,10.758-11.809,18.762-22.366,23.609-5.716,2.625-11.64,3.945-17.671,3.945-3.32,0-6.672-.4-10.042-1.202-12.779-3.042-21.917-10.861-27.87-22.417-4.846-9.406-5.767-19.346-3.321-29.608.488-2.046,1.044-4.076,1.844-6.036,3.256-7.983,6.492-15.974,9.713-23.971,2.419-6.006,1.629-11.644-2.125-16.862-2.031-2.824-4.831-4.739-8.011-6.029-7.677-3.115-13.914-8.084-18.641-14.81-7.228-10.283-9.666-21.714-7.114-34.042,2.734-13.209,10.423-22.869,22.164-29.22,6.319-3.418,12.908-5.037,19.687-5.037,3.731,0,7.52.49,11.354,1.441,1.927.478,3.786,1.131,5.63,1.859,2.172.858,4.397,1.271,6.579,1.271,5.571,0,10.862-2.695,14.278-7.576.743-1.062,1.238-2.23,1.717-3.412,3.263-8.049,6.385-16.158,9.807-24.139,7.262-16.938,22.915-26.74,39.995-26.74v-.002c3.785,0,7.641.482,11.492,1.474,7.281,1.877,13.263,5.889,18.445,11.157,6.957,7.072,10.973,15.611,12.1,25.468.616,5.385.14,10.701-1.257,15.945-1.537,5.767-4.321,11.053-5.913,15.588-2.101,5.19-3.788,9.33-5.455,13.478-3.599,8.958.539,18.864,9.501,22.541,8.4,3.446,15.276,8.817,20.185,16.425,6.922,10.727,9.006,22.425,5.756,34.845Z" fill="#f68a46" stroke-width="0"/>
        <path d="M710.621,1067.752c1.73-4.397,1.667-8.761-.413-13.021-2.09-4.281-5.506-7.068-10.049-8.412-1.446-.428-2.895-.633-4.342-.633-1.776,0-3.549.309-5.311.896-.694.229-1.394.34-2.079.34-2.681,0-5.127-1.683-6.047-4.384-.535-1.57-1.062-3.143-1.726-5.112-.649-1.661-1.144-3.821-2.107-5.816-.876-1.813-2.028-3.425-3.504-4.791-2.702-2.501-5.898-3.932-9.566-4.239-.536-.045-1.068-.069-1.598-.069l-.002-.003c-2.169,0-4.279.4-6.291,1.392-7.294,3.595-10.885,11.596-8.375,19.565.967,3.074,2.051,6.111,3.08,9.165.151.449.294.897.342,1.376.306,3.061-1.434,5.811-4.343,6.82-.695.241-1.376.507-2.034.839-3.687,1.859-6.389,4.66-7.864,8.521-1.767,4.628-1.594,9.206.833,13.584,2.264,4.087,5.715,6.713,10.237,7.858,1.285.326,2.57.489,3.851.489,1.668,0,3.33-.276,4.977-.831.761-.256,1.538-.406,2.323-.406.461,0,.925.052,1.39.164,2.318.561,3.905,1.956,4.677,4.23,1.028,3.03,2.051,6.061,3.066,9.095.249.746.583,1.451.941,2.145,1.794,3.48,4.458,6.054,8.097,7.528,2.112.856,4.222,1.305,6.318,1.305,2.34,0,4.662-.561,6.947-1.74,3.218-1.661,5.626-4.187,7.135-7.476,1.798-3.918,1.947-7.963.582-12.054-1.013-3.035-2.067-6.056-3.057-9.098-.596-1.832-.358-3.599.643-5.257.848-1.405,2.116-2.274,3.617-2.84.732-.276,1.47-.526,2.162-.901,3.456-1.872,6.038-4.538,7.49-8.229Z" fill="#f06724" stroke-width="0"/>
        <path d="M702.714,1037.686c-2.249-.665-4.569-1.002-6.895-1.002-1.888,0-3.794.222-5.692.661-.108-.32-.218-.648-.332-.985l-.612-1.815c-.045-.134-.093-.266-.145-.397-.141-.361-.32-.922-.51-1.516-.445-1.392-.999-3.124-1.875-4.938-1.388-2.875-3.237-5.393-5.496-7.484-4.219-3.905-9.242-6.127-14.929-6.603-.793-.066-1.583-.1-2.347-.1v.003h-.001c-3.693,0-7.148.78-10.27,2.319-11.303,5.571-16.762,18.331-12.98,30.341.693,2.2,1.435,4.363,2.153,6.455.072.209.143.417.215.626-.269.122-.531.248-.789.378-5.772,2.911-9.998,7.526-12.221,13.347-2.764,7.238-2.291,14.554,1.368,21.157,3.455,6.235,8.953,10.46,15.9,12.219,2.002.507,4.041.764,6.06.764,1.883,0,3.765-.222,5.619-.663.763,2.256,1.523,4.512,2.278,6.771.464,1.386,1.033,2.552,1.478,3.414,2.812,5.452,7.209,9.513,12.717,11.744,3.215,1.303,6.478,1.963,9.698,1.963,3.824,0,7.55-.923,11.075-2.742,4.979-2.57,8.847-6.623,11.187-11.72,2.714-5.914,3.039-12.365.939-18.657-.402-1.203-.809-2.403-1.217-3.604-.343-1.009-.692-2.038-1.037-3.066.431-.187.892-.406,1.367-.663,5.502-2.98,9.397-7.303,11.579-12.848,2.684-6.822,2.441-13.829-.701-20.265-3.168-6.487-8.556-11.015-15.584-13.094ZM700.969,1076.882c-1.501.566-2.769,1.435-3.617,2.84-1.001,1.658-1.239,3.425-.643,5.257.99,3.042,2.044,6.063,3.057,9.098,1.365,4.091,1.216,8.136-.582,12.054-1.509,3.289-3.917,5.815-7.135,7.476-2.285,1.179-4.607,1.74-6.947,1.74-2.096,0-4.206-.449-6.318-1.305-3.639-1.474-6.303-4.048-8.097-7.528-.358-.694-.692-1.399-.941-2.145-1.015-3.034-2.038-6.065-3.066-9.095-.772-2.275-2.359-3.67-4.677-4.23-.465-.112-.929-.164-1.39-.164-.785,0-1.562.15-2.323.406-1.647.555-3.309.831-4.977.831-1.281,0-2.566-.163-3.851-.489-4.522-1.145-7.973-3.771-10.237-7.858-2.427-4.378-2.6-8.956-.833-13.584,1.475-3.861,4.177-6.662,7.864-8.521.658-.332,1.339-.598,2.034-.839,2.909-1.009,4.649-3.759,4.343-6.82-.048-.479-.191-.927-.342-1.376-1.029-3.054-2.113-6.091-3.08-9.165-2.51-7.969,1.081-15.97,8.375-19.565,2.012-.992,4.122-1.392,6.291-1.392l.002.003c.53,0,1.062.024,1.598.069,3.668.307,6.864,1.738,9.566,4.239,1.476,1.366,2.628,2.978,3.504,4.791.963,1.995,1.458,4.155,2.107,5.816.664,1.969,1.191,3.542,1.726,5.112.92,2.701,3.366,4.384,6.047,4.384.685,0,1.385-.11,2.079-.34,1.762-.586,3.535-.896,5.311-.896,1.447,0,2.896.205,4.342.633,4.543,1.344,7.959,4.131,10.049,8.412,2.08,4.26,2.143,8.624.413,13.021-1.452,3.691-4.034,6.357-7.49,8.229-.692.375-1.43.625-2.162.901Z" fill="#f68a46" stroke-width="0"/>
        <path d="M727.18,56.428c1.67,2.167,2.192,4.643,1.643,7.337-.466,2.284-1.748,4.05-3.486,5.521-.847.717-1.715,1.403-2.462,2.234-3.732,4.15-5.917,8.944-6.102,14.572-.221,6.705,1.939,12.511,6.75,17.219,4.477,4.382,9.865,6.509,15.972,6.509.486,0,.978-.013,1.473-.04,4.763-.258,9.016-2.001,12.787-4.944,1.698-1.326,3.679-1.968,5.639-1.968,2.684,0,5.33,1.204,7.155,3.508,1.462,1.846,2.915,3.699,4.741,6.016,1.659,1.912,3.35,4.566,5.587,6.776,2.035,2.009,4.342,3.615,6.967,4.74,2.935,1.258,5.926,1.894,8.962,1.894,1.933,0,3.884-.258,5.85-.778,3.764-.995,7.162-2.683,9.922-5.524,8.046-8.28,9.039-20.691,1.89-30.155-2.757-3.65-5.652-7.197-8.482-10.792-.416-.528-.821-1.06-1.113-1.677-1.866-3.949-.847-8.455,2.563-11.189.815-.653,1.599-1.333,2.321-2.09,4.046-4.241,6.328-9.273,6.463-15.14.161-7.03-2.25-13.071-7.579-17.772-4.354-3.841-9.392-5.753-15.004-5.753-.797,0-1.607.039-2.428.116-4.312.406-8.215,1.961-11.645,4.66-1.421,1.118-3.028,1.898-4.851,2.09-.405.043-.802.064-1.19.064-2.838,0-5.218-1.143-7.079-3.496-2.817-3.563-5.627-7.13-8.429-10.705-.688-.878-1.471-1.662-2.28-2.42-4.056-3.799-8.844-5.974-14.413-6.214-.413-.018-.821-.027-1.227-.027h0c-6.328,0-11.864,2.174-16.308,6.921-3.513,3.753-5.531,8.277-5.984,13.395-.54,6.096,1.186,11.577,4.959,16.399,2.799,3.577,5.647,7.115,8.419,10.713Z" fill="#f06724" stroke-width="0"/>
        <path d="M715.003,55.487c1.659,2.096,3.374,4.264,5.016,6.395-.002.012-.004.026-.007.04-.046.064-.179.231-.491.495l-.378.317c-.851.712-1.91,1.599-2.962,2.769-5.328,5.924-8.156,12.752-8.405,20.293-.307,9.315,2.961,17.596,9.45,23.947,6.067,5.938,13.766,9.077,22.267,9.077.646,0,1.306-.018,1.962-.054,6.473-.352,12.474-2.652,17.835-6.836.07-.055.104-.062.105-.062,0,.002.041.026.097.098.978,1.234,1.951,2.471,3.036,3.849l1.69,2.147c.087.111.177.219.269.326.438.505.979,1.215,1.553,1.968,1.187,1.556,2.663,3.493,4.51,5.317,2.886,2.851,6.166,5.075,9.746,6.609,4.059,1.739,8.267,2.621,12.507,2.621,2.706,0,5.448-.362,8.15-1.076,5.669-1.499,10.406-4.175,14.077-7.954,5.402-5.559,8.657-12.768,9.167-20.297.516-7.624-1.81-15.278-6.552-21.554-1.943-2.572-3.949-5.091-5.889-7.527-.903-1.134-1.806-2.267-2.702-3.406-.035-.045-.071-.089-.106-.134,0-.012-.002-.02,0-.025,0,0,.023-.045.116-.119,1.268-1.017,2.286-1.938,3.202-2.899,5.755-6.033,8.766-13.147,8.949-21.147.226-9.847-3.448-18.398-10.623-24.728-6.02-5.311-13.072-8.004-20.958-8.004-1.074,0-2.175.052-3.272.156-6.063.571-11.57,2.773-16.366,6.547-.16.126-.27.192-.326.222-.037.003-.072.004-.105.005-.02-.022-.041-.048-.065-.079-2.809-3.552-5.611-7.109-8.405-10.673-1.12-1.43-2.304-2.588-3.21-3.437-5.769-5.404-12.558-8.31-20.179-8.638-.54-.023-1.083-.035-1.615-.035h.004c-8.983,0-16.895,3.378-22.879,9.77-4.854,5.185-7.751,11.669-8.379,18.752-.729,8.229,1.634,16.093,6.836,22.74,1.105,1.412,2.218,2.818,3.33,4.224ZM713.802,29.316c.453-5.118,2.471-9.642,5.984-13.395,4.444-4.747,9.98-6.922,16.308-6.922h0c.406,0,.814.01,1.227.028,5.569.24,10.357,2.415,14.413,6.214.809.758,1.592,1.542,2.28,2.42,2.802,3.575,5.612,7.142,8.429,10.705,1.861,2.353,4.241,3.496,7.079,3.496.388,0,.785-.021,1.19-.064,1.823-.192,3.43-.972,4.851-2.09,3.43-2.699,7.333-4.254,11.645-4.66.821-.077,1.631-.116,2.428-.116,5.612,0,10.65,1.912,15.004,5.753,5.329,4.701,7.74,10.742,7.579,17.772-.135,5.867-2.417,10.899-6.463,15.14-.722.757-1.506,1.437-2.321,2.09-3.41,2.734-4.429,7.24-2.563,11.189.292.617.697,1.149,1.113,1.677,2.83,3.595,5.725,7.142,8.482,10.792,7.149,9.464,6.156,21.875-1.89,30.155-2.76,2.841-6.158,4.529-9.922,5.524-1.966.52-3.917.778-5.85.778-3.036,0-6.027-.636-8.962-1.894-2.625-1.125-4.932-2.731-6.967-4.74-2.237-2.21-3.928-4.864-5.587-6.776-1.826-2.317-3.279-4.17-4.741-6.016-1.825-2.304-4.471-3.508-7.155-3.508-1.96,0-3.941.642-5.639,1.968-3.771,2.943-8.024,4.686-12.787,4.944-.495.027-.987.04-1.473.04-6.107,0-11.495-2.127-15.972-6.509-4.811-4.708-6.971-10.514-6.75-17.219.185-5.628,2.37-10.422,6.102-14.572.747-.831,1.615-1.517,2.462-2.234,1.738-1.471,3.02-3.237,3.486-5.521.549-2.694.027-5.17-1.643-7.337-2.772-3.598-5.62-7.136-8.419-10.713-3.773-4.822-5.499-10.303-4.959-16.399Z" fill="#f68a46" stroke-width="0"/>
        <path d="M1061.294,946.636c15.321-5.639,27.192-15.597,34.704-30.482,9.002-17.837,10.35-36.472,2.751-55.452-7.092-17.714-19.498-30.126-36.771-37.084-7.339-2.956-14.838-4.444-22.453-4.444-4.106,0-8.246.433-12.413,1.301-2.026.422-4.061.657-6.089.657-2.903,0-5.792-.481-8.618-1.584-8.868-3.459-14.487-9.926-16.515-19.538-2.7-12.8-5.377-25.604-8.023-38.415-.649-3.146-1.652-6.178-2.751-9.171-5.513-15.014-14.846-26.807-28.502-34.648-10.226-5.872-20.74-8.999-31.475-8.999h-.002c-6.876,0-13.844,1.283-20.881,3.951-13.391,5.077-23.977,14.075-31.372,26.624-8.809,14.948-11.19,31.258-7.635,48.53,2.637,12.813,5.443,25.591,7.986,38.422,1.532,7.728-.187,14.761-4.858,20.965-3.958,5.258-9.33,8.129-15.483,9.65-2.999.741-6.012,1.377-8.9,2.541-14.422,5.811-25.757,15.284-33.104,29.491-8.754,16.926-10.441,34.631-4.15,52.957,6.321,18.414,18.519,31.459,35.787,39.234,7.999,3.602,16.226,5.296,24.607,5.296,4.45,0,8.944-.478,13.468-1.402,1.721-.352,3.43-.521,5.111-.521,11.916,0,22.392,8.514,25.052,21.072,1.406,6.636,2.78,13.278,4.519,21.594,1.815,7.062,2.806,16.069,5.707,24.643,2.638,7.797,6.455,14.914,11.653,21.205,9.516,11.517,21.447,18.954,35.737,22.08,4.77,1.043,9.526,1.634,14.259,1.634,5.827,0,11.618-.896,17.351-2.944,30.28-10.82,47.946-41.39,41.612-74.958-2.443-12.946-5.356-25.805-8.048-38.705-.395-1.896-.76-3.786-.736-5.748.155-12.558,8.219-22.801,20.104-25.397,2.841-.621,5.637-1.349,8.371-2.355Z" fill="#f06724" stroke-width="0"/>
        <path d="M1107.106,857.357c-8.002-19.986-22.053-34.146-41.764-42.086-8.394-3.382-17.079-5.096-25.816-5.096-4.71,0-9.504.501-14.249,1.49-1.49.31-2.92.468-4.253.468-1.927,0-3.677-.317-5.347-.969-6.122-2.388-9.611-6.522-10.98-13.011-2.855-13.531-5.477-26.084-8.015-38.377-.822-3.979-2.097-7.676-3.117-10.453-6.394-17.413-17.318-30.652-32.469-39.351-11.781-6.764-23.879-10.194-35.957-10.194h0c-8.033,0-16.132,1.525-24.071,4.535-15.363,5.824-27.453,16.076-35.935,30.47-9.835,16.689-12.761,35.165-8.696,54.913,1.037,5.039,2.115,10.146,3.158,15.084,1.612,7.631,3.278,15.521,4.815,23.273,1.02,5.144-.003,9.529-3.219,13.801-2.362,3.137-5.684,5.147-10.454,6.326-.473.117-.946.231-1.419.345-2.651.64-5.656,1.365-8.684,2.585-17.02,6.857-29.716,18.198-37.736,33.705-10.078,19.487-11.649,39.679-4.668,60.014,7.069,20.592,20.73,35.57,40.604,44.518,8.975,4.041,18.497,6.089,28.302,6.089,4.985,0,10.122-.533,15.269-1.583,1.101-.225,2.214-.339,3.31-.339,7.828,0,14.509,5.731,16.248,13.938.942,4.448,1.87,8.9,2.904,13.859l1.61,7.712c.028.133.059.266.093.398.614,2.388,1.152,5.173,1.721,8.122,1.017,5.266,2.17,11.234,4.177,17.166,3.053,9.022,7.508,17.115,13.24,24.053,10.858,13.141,24.569,21.599,40.751,25.139,5.588,1.222,11.032,1.842,16.182,1.842,7.081,0,13.937-1.167,20.379-3.469,16.789-5.999,30.765-17.724,39.355-33.016,8.641-15.383,11.508-33.881,8.073-52.086-1.681-8.906-3.601-17.864-5.458-26.526-.868-4.05-1.766-8.237-2.624-12.348-.307-1.47-.56-2.771-.547-3.799.104-8.448,5.217-15.009,13.026-16.715,3.723-.813,6.76-1.672,9.559-2.701,17.954-6.608,31.288-18.341,39.631-34.874,10.447-20.702,11.48-41.849,3.071-62.852ZM1032.819,974.388c-.024,1.962.341,3.852.736,5.748,2.692,12.9,5.605,25.759,8.048,38.705,6.334,33.568-11.332,64.138-41.612,74.958-5.733,2.048-11.524,2.944-17.351,2.944-4.733,0-9.489-.591-14.259-1.634-14.29-3.126-26.221-10.563-35.737-22.08-5.198-6.291-9.015-13.408-11.653-21.205-2.901-8.574-3.892-17.581-5.707-24.643-1.739-8.316-3.113-14.958-4.519-21.594-2.66-12.558-13.136-21.072-25.052-21.072-1.681,0-3.39.169-5.111.521-4.524.924-9.018,1.402-13.468,1.402-8.381,0-16.608-1.694-24.607-5.296-17.268-7.775-29.466-20.82-35.787-39.234-6.291-18.326-4.604-36.031,4.15-52.957,7.347-14.207,18.682-23.68,33.104-29.491,2.888-1.164,5.901-1.8,8.9-2.541,6.153-1.521,11.525-4.392,15.483-9.65,4.671-6.204,6.39-13.237,4.858-20.965-2.543-12.831-5.349-25.609-7.986-38.422-3.555-17.272-1.174-33.582,7.635-48.53,7.395-12.549,17.981-21.547,31.372-26.624,7.037-2.668,14.005-3.952,20.881-3.952h.002c10.735,0,21.249,3.128,31.475,9,13.656,7.841,22.989,19.634,28.502,34.648,1.099,2.993,2.102,6.025,2.751,9.171,2.646,12.811,5.323,25.615,8.023,38.415,2.028,9.612,7.647,16.079,16.515,19.538,2.826,1.103,5.715,1.584,8.618,1.584,2.028,0,4.063-.235,6.089-.657,4.167-.868,8.307-1.301,12.413-1.301,7.615,0,15.114,1.488,22.453,4.444,17.273,6.958,29.679,19.37,36.771,37.084,7.599,18.98,6.251,37.615-2.751,55.452-7.512,14.885-19.383,24.843-34.704,30.482-2.734,1.006-5.53,1.734-8.371,2.355-11.885,2.596-19.949,12.839-20.104,25.397Z" fill="#f68a46" stroke-width="0"/>
        <path d="M806.631,629.838c1.284-11.49-1.917-21.735-9.401-30.523-4.895-5.748-11.02-9.762-18.305-11.957-3.018-.909-5.74-2.422-7.838-4.832-3.876-4.452-5.078-9.541-3.377-15.238,2.265-7.586,4.545-15.169,6.843-22.745.565-1.861.901-3.765,1.173-5.677,1.363-9.592-.324-18.602-5.555-26.791-6.427-10.061-15.448-16.434-27.391-18.128-1.927-.273-3.834-.409-5.72-.409l.002.004c-6.8,0-13.316,1.771-19.389,5.274-9.241,5.329-15.338,13.279-18.444,23.49-2.303,7.574-4.504,15.181-6.865,22.738-1.422,4.552-4.432,7.775-8.828,9.688-2.038.886-4.098,1.269-6.176,1.269-1.721,0-3.453-.263-5.193-.72-1.871-.492-3.719-1.044-5.653-1.279-1.93-.235-3.833-.355-5.711-.355-7.521,0-14.618,1.935-21.194,6.23-9.791,6.395-15.915,15.289-17.821,26.867-1.915,11.633.985,22.153,8.227,31.373,5.136,6.539,11.879,10.865,19.854,13.302,8.508,2.6,13.134,11.305,10.605,19.803-1.171,3.934-2.362,7.863-3.842,12.788-1.071,4.281-3.166,9.351-4.081,14.756-.832,4.914-.814,9.816.207,14.687,1.87,8.917,6.268,16.384,13.231,22.259,5.187,4.376,10.997,7.536,17.815,8.633,2.289.368,4.559.548,6.8.548,17.214,0,32.511-10.622,38.132-28.031,2.45-7.589,4.615-15.27,6.914-22.907.338-1.122.691-2.232,1.28-3.266,2.967-5.21,8.219-8.211,13.889-8.211,1.531,0,3.091.218,4.646.671,1.749.509,3.505.948,5.307,1.221,2.29.347,4.547.524,6.767.524,7.578,0,14.731-2.06,21.311-6.452,10.196-6.806,16.405-16.293,17.781-28.604Z" fill="#f06724" stroke-width="0"/>
        <path d="M815.575,630.838c1.565-13.996-2.302-26.565-11.493-37.358-6.036-7.088-13.626-12.047-22.56-14.739-1.64-.494-2.833-1.189-3.646-2.124-1.906-2.19-2.338-4.083-1.541-6.754,2.344-7.85,4.642-15.49,6.831-22.708.788-2.597,1.2-5.117,1.471-7.023,1.708-12.011-.607-23.081-6.88-32.902-8.115-12.705-19.458-20.172-33.712-22.194-2.333-.331-4.682-.499-6.984-.499h-.002,0c-8.396,0-16.432,2.18-23.885,6.479-11.136,6.422-18.726,16.068-22.558,28.667-.907,2.982-1.798,5.969-2.689,8.956-1.346,4.511-2.737,9.176-4.156,13.718-.622,1.99-1.766,3.221-3.828,4.118-.818.356-1.64.522-2.585.522-.856,0-1.834-.143-2.906-.424l-.867-.231c-1.751-.47-3.735-1.003-5.986-1.277-2.298-.279-4.584-.421-6.796-.421-9.514,0-18.3,2.589-26.116,7.695-12.161,7.943-19.489,19.026-21.78,32.941-2.314,14.057,1.06,26.975,10.03,38.394,6.12,7.792,14.296,13.293,24.302,16.35,3.75,1.146,5.732,4.855,4.609,8.629-.791,2.656-1.59,5.31-2.482,8.271l-1.353,4.494c-.041.135-.078.271-.112.408-.333,1.334-.837,2.916-1.369,4.591-1.021,3.21-2.177,6.849-2.854,10.846-1.04,6.145-.949,12.213.272,18.036,2.298,10.958,7.76,20.139,16.235,27.291,6.968,5.879,14.226,9.359,22.19,10.64,2.731.439,5.499.662,8.229.662,21.647,0,39.976-13.45,46.697-34.265,1.7-5.267,3.275-10.609,4.799-15.775.718-2.436,1.437-4.872,2.168-7.303.096-.319.352-1.168.483-1.407,1.326-2.328,3.538-3.664,6.068-3.664.701,0,1.418.105,2.13.312,2.429.708,4.487,1.177,6.475,1.479,2.738.415,5.468.625,8.114.625,9.538,0,18.389-2.68,26.308-7.967,12.588-8.403,20.102-20.536,21.729-35.089ZM767.539,664.894c-2.22,0-4.477-.177-6.767-.524-1.802-.273-3.558-.712-5.307-1.221-1.555-.453-3.115-.671-4.646-.671-5.67,0-10.922,3.001-13.889,8.211-.589,1.034-.942,2.144-1.28,3.266-2.299,7.637-4.464,15.318-6.914,22.907-5.621,17.409-20.918,28.031-38.132,28.031-2.241,0-4.511-.18-6.8-.548-6.818-1.097-12.628-4.257-17.815-8.633-6.963-5.875-11.361-13.342-13.231-22.259-1.021-4.871-1.039-9.773-.207-14.687.915-5.405,3.01-10.475,4.081-14.756,1.48-4.925,2.671-8.854,3.842-12.788,2.529-8.498-2.097-17.203-10.605-19.803-7.975-2.437-14.718-6.763-19.854-13.302-7.242-9.22-10.142-19.74-8.227-31.373,1.906-11.578,8.03-20.472,17.821-26.867,6.576-4.295,13.673-6.229,21.194-6.23,1.878,0,3.781.12,5.711.355,1.934.235,3.782.787,5.653,1.279,1.74.457,3.472.72,5.193.72,2.078,0,4.138-.383,6.176-1.269,4.396-1.913,7.406-5.136,8.828-9.688,2.361-7.557,4.562-15.164,6.865-22.738,3.106-10.211,9.203-18.161,18.444-23.49,6.073-3.503,12.589-5.274,19.389-5.274l-.002-.004c1.886,0,3.793.136,5.72.409,11.943,1.694,20.964,8.067,27.391,18.128,5.231,8.189,6.918,17.199,5.555,26.791-.272,1.912-.608,3.816-1.173,5.677-2.298,7.576-4.578,15.159-6.843,22.745-1.701,5.697-.499,10.786,3.377,15.238,2.098,2.41,4.82,3.923,7.838,4.832,7.285,2.195,13.41,6.209,18.305,11.957,7.484,8.788,10.685,19.033,9.401,30.523-1.376,12.311-7.585,21.798-17.781,28.604-6.58,4.392-13.733,6.452-21.311,6.452Z" fill="#f68a46" stroke-width="0"/>
        <path d="M285.112,89.176c-1.73,4.398-1.667,8.761.413,13.021,2.091,4.281,5.507,7.068,10.05,8.412,1.447.428,2.895.633,4.342.633,1.776,0,3.549-.309,5.311-.895.694-.23,1.394-.34,2.079-.34,2.681,0,5.127,1.683,6.047,4.384.535,1.57,1.062,3.143,1.726,5.112.649,1.662,1.144,3.822,2.107,5.817.876,1.814,2.028,3.425,3.504,4.791,2.702,2.501,5.897,3.932,9.566,4.239.536.045,1.069.069,1.598.069,2.17,0,4.279-.399,6.291-1.391,7.295-3.595,10.885-11.596,8.375-19.565-.967-3.074-2.051-6.111-3.08-9.165-.151-.449-.294-.898-.342-1.376-.306-3.062,1.435-5.811,4.343-6.82.695-.241,1.376-.507,2.034-.839,3.686-1.859,6.389-4.66,7.864-8.521,1.767-4.628,1.593-9.206-.833-13.584-2.264-4.086-5.716-6.713-10.237-7.858-1.285-.325-2.57-.488-3.851-.488-1.668,0-3.329.276-4.977.831-.761.256-1.538.406-2.323.406-.461,0-.925-.052-1.39-.164-2.318-.561-3.905-1.956-4.677-4.231-1.028-3.03-2.051-6.061-3.066-9.095-.249-.745-.583-1.451-.941-2.145-1.794-3.48-4.458-6.054-8.097-7.528-2.112-.856-4.222-1.305-6.318-1.305-2.34,0-4.662.561-6.946,1.74-3.218,1.661-5.625,4.187-7.135,7.476-1.798,3.918-1.947,7.963-.582,12.054,1.013,3.035,2.067,6.056,3.057,9.098.596,1.832.358,3.599-.643,5.257-.848,1.405-2.116,2.274-3.617,2.84-.732.276-1.47.526-2.162.901-3.456,1.872-6.038,4.538-7.49,8.229Z" fill="#f06724" stroke-width="0"/>
        <path d="M293.022,119.242c2.249.665,4.569,1.003,6.895,1.003,1.888,0,3.794-.222,5.692-.662.108.321.219.649.333.987l.611,1.814c.045.134.093.266.145.397.141.36.32.921.51,1.515.445,1.392.999,3.125,1.875,4.939,1.388,2.875,3.237,5.393,5.496,7.484,4.219,3.905,9.242,6.126,14.929,6.602.792.066,1.583.1,2.349.1,3.692,0,7.147-.78,10.27-2.319,11.304-5.571,16.763-18.332,12.98-30.342-.693-2.199-1.435-4.363-2.153-6.455-.072-.208-.143-.417-.215-.626.269-.122.531-.248.79-.378,5.772-2.911,9.998-7.526,12.221-13.347,2.764-7.238,2.291-14.554-1.368-21.157-3.456-6.235-8.954-10.461-15.9-12.22-2.002-.507-4.041-.764-6.061-.764-1.883,0-3.765.222-5.619.663-.763-2.256-1.523-4.513-2.279-6.771-.463-1.385-1.033-2.552-1.477-3.414-2.812-5.452-7.209-9.513-12.717-11.744-3.216-1.303-6.479-1.964-9.698-1.964v-.002h0c-3.823,0-7.55.922-11.075,2.742-4.979,2.57-8.847,6.622-11.187,11.72-2.715,5.914-3.039,12.366-.939,18.658.402,1.203.809,2.403,1.217,3.604.343,1.009.692,2.038,1.037,3.066-.431.188-.892.406-1.368.664-5.501,2.98-9.397,7.303-11.578,12.848-2.684,6.822-2.441,13.829.701,20.265,3.168,6.487,8.556,11.015,15.584,13.094ZM294.764,80.046c1.501-.566,2.769-1.435,3.617-2.84,1.001-1.658,1.239-3.425.643-5.257-.99-3.042-2.044-6.063-3.057-9.098-1.365-4.091-1.216-8.136.582-12.054,1.51-3.289,3.917-5.815,7.135-7.476,2.285-1.179,4.607-1.74,6.946-1.74,2.096,0,4.206.449,6.318,1.305,3.639,1.474,6.303,4.048,8.097,7.528.358.694.692,1.4.941,2.145,1.015,3.034,2.038,6.065,3.066,9.095.772,2.275,2.359,3.67,4.677,4.231.465.112.929.164,1.39.164.785,0,1.562-.15,2.323-.406,1.648-.555,3.309-.831,4.977-.831,1.281,0,2.566.163,3.851.488,4.521,1.145,7.973,3.772,10.237,7.858,2.426,4.378,2.6,8.956.833,13.584-1.475,3.861-4.178,6.662-7.864,8.521-.658.332-1.339.598-2.034.839-2.908,1.009-4.649,3.758-4.343,6.82.048.478.191.927.342,1.376,1.029,3.054,2.113,6.091,3.08,9.165,2.51,7.969-1.08,15.97-8.375,19.565-2.012.992-4.121,1.391-6.291,1.391-.529,0-1.062-.024-1.598-.069-3.669-.307-6.864-1.738-9.566-4.239-1.476-1.366-2.628-2.977-3.504-4.791-.963-1.995-1.458-4.155-2.107-5.817-.664-1.969-1.191-3.542-1.726-5.112-.92-2.701-3.366-4.384-6.047-4.384-.685,0-1.385.11-2.079.34-1.762.586-3.535.895-5.311.895-1.447,0-2.895-.205-4.342-.633-4.543-1.344-7.959-4.131-10.05-8.412-2.08-4.26-2.143-8.623-.413-13.021,1.452-3.691,4.034-6.357,7.49-8.229.692-.375,1.43-.625,2.162-.901Z" fill="#f68a46" stroke-width="0"/>
      </g>
    </g>
  </g>
</svg>