<?xml version="1.0" encoding="UTF-8"?>
<svg id="b" data-name="Layer 2" xmlns="http://www.w3.org/2000/svg" width="1112.725" height="1186.171" viewBox="0 0 1112.725 1186.171">
  <g id="c" data-name="Layer 1">
    <g id="d" data-name="c">
      <g>
        <g>
          <g>
            <path d="M127.123,877.821c-.848,0-1.713-.054-2.572-.158-5.99-.733-11.003-3.896-14.499-9.145-2.746-4.121-3.82-8.803-3.194-13.913.099-.806.253-1.875.569-2.996.876-3.099,1.743-6.2,2.605-9.302.227-.816.106-1.292-.496-1.957-.086-.095-.343-.379-1.109-.594-3.82-1.072-7.084-3.117-9.706-6.079-3.93-4.439-5.722-9.889-5.179-15.758.573-6.193,3.661-11.405,8.932-15.072,3.439-2.392,7.319-3.604,11.532-3.604.986,0,2.001.067,3.018.201.852.113,1.727.295,2.757.573.205.056.405.083.6.083.74,0,1.384-.402,1.767-1.105.013-.038.09-.313.115-.404.279-.995.552-1.991.825-2.988.582-2.121,1.183-4.315,1.837-6.483,2.693-8.924,10.712-14.92,19.953-14.92,1.02,0,2.054.073,3.075.217,3.408.481,6.526,1.901,9.531,4.34,3.657,2.969,6.051,6.821,7.115,11.451.566,2.466.655,5.041.263,7.656-.252,1.689-.704,3.21-1.103,4.552-.2.675-.389,1.312-.509,1.832-.016.068-.033.138-.052.205,0,0-1.165,4.154-1.462,5.229-.307,1.11.269,2.143,1.37,2.456,4.268,1.215,7.782,3.484,10.445,6.746,3.842,4.702,5.421,10.308,4.565,16.209-.859,5.927-3.877,10.69-8.971,14.158-3.398,2.314-7.255,3.487-11.463,3.487-.797,0-1.619-.043-2.442-.127-.974-.099-1.815-.308-2.558-.492l-.356-.087c-.349-.085-.661-.128-.927-.128-.292,0-.528.049-.767.159-.701.32-.931.69-1.075,1.183-.542,1.861-1.061,3.73-1.58,5.599-.341,1.229-.682,2.459-1.03,3.686-1.522,5.373-4.664,9.525-9.338,12.342-3.247,1.957-6.775,2.949-10.488,2.949h.002Z" fill="#fd70c7" stroke-width="0"/>
            <path d="M144.877,778.7c.807,0,1.624.057,2.447.173,2.786.394,5.178,1.636,7.325,3.378,2.883,2.339,4.733,5.346,5.564,8.965.454,1.977.5,3.973.199,5.982-.331,2.209-1.145,4.291-1.547,6.043-.564,2.018-1.019,3.628-1.465,5.24-.964,3.482.989,6.992,4.475,7.985,3.268.93,6.049,2.64,8.192,5.264,3.022,3.7,4.286,7.963,3.597,12.717-.686,4.732-3.111,8.403-7.05,11.085-2.745,1.869-5.738,2.707-8.931,2.707-.653,0-1.314-.035-1.984-.103-.79-.081-1.547-.291-2.313-.477-.667-.162-1.33-.254-1.988-.254-.892,0-1.773.17-2.639.567-1.776.813-2.977,2.15-3.521,4.016-.903,3.097-1.74,6.213-2.619,9.317-1.186,4.184-3.607,7.47-7.33,9.714-2.537,1.529-5.282,2.303-8.165,2.303-.668,0-1.344-.042-2.026-.125-4.879-.597-8.604-3.123-11.3-7.171-2.195-3.295-2.953-6.953-2.472-10.871.096-.781.218-1.559.433-2.322.877-3.104,1.747-6.211,2.61-9.32.648-2.334.119-4.398-1.495-6.182-.873-.965-1.994-1.56-3.231-1.907-2.985-.837-5.512-2.425-7.551-4.728-3.118-3.522-4.502-7.671-4.068-12.362.465-5.026,2.92-8.939,7.021-11.792,2.74-1.906,5.751-2.798,8.961-2.798.799,0,1.609.055,2.431.164.737.097,1.455.262,2.172.456.594.161,1.189.238,1.772.238,2.359,0,4.531-1.27,5.72-3.455.232-.426.367-.881.496-1.341.877-3.129,1.699-6.275,2.638-9.386,2.188-7.248,8.495-11.72,15.644-11.72M144.877,769.7h0c-11.239,0-20.989,7.282-24.26,18.12-.671,2.225-1.281,4.448-1.87,6.599-.065.237-.13.474-.195.711-.316-.056-.628-.104-.939-.145-1.212-.16-2.426-.241-3.608-.241-5.15,0-9.894,1.484-14.1,4.41-6.395,4.448-10.144,10.794-10.843,18.352-.659,7.137,1.516,13.761,6.291,19.155,2.701,3.051,5.959,5.306,9.709,6.723-.651,2.334-1.306,4.668-1.965,7.001-.4,1.416-.587,2.708-.706,3.675-.75,6.119.603,11.983,3.915,16.955,4.246,6.375,10.366,10.218,17.698,11.115,1.04.127,2.089.192,3.119.192,4.542,0,8.851-1.209,12.81-3.594,5.604-3.377,9.527-8.553,11.345-14.97.349-1.232.692-2.467,1.034-3.701.293-1.055.592-2.131.894-3.203.483.094,1.012.178,1.579.236.973.099,1.948.15,2.897.15,5.129,0,9.838-1.436,13.997-4.268,6.092-4.147,9.858-10.106,10.891-17.232,1.042-7.183-.872-13.996-5.534-19.702-2.745-3.36-6.211-5.854-10.327-7.436.096-.343.195-.694.296-1.056l.526-1.878c.038-.136.073-.272.104-.41.088-.383.257-.953.437-1.557.419-1.41.94-3.166,1.24-5.169.475-3.175.365-6.313-.328-9.329-1.294-5.634-4.209-10.323-8.665-13.938-3.607-2.927-7.556-4.71-11.737-5.301-1.23-.174-2.476-.262-3.706-.262h0v-.002Z" fill="#fc00cf" stroke-width="0"/>
          </g>
          <g>
            <path d="M894.948,385.914c-3.358,0-6.784-.358-10.183-1.066-14.281-2.974-25.282-11.3-32.7-24.747-5.705-10.345-7.319-21.723-4.796-33.819.404-1.937.989-4.482,1.933-7.001,3.152-8.4,6.283-16.81,9.398-25.225,1.784-4.82,1.127-9.015-2.067-13.201-1.525-1.998-3.656-3.487-6.513-4.553-8.87-3.31-16.231-8.824-21.879-16.394-8.634-11.573-11.741-24.597-9.235-38.709,2.637-14.851,10.843-26.353,24.391-34.185,7.4-4.278,15.43-6.447,23.868-6.447,3.752,0,7.64.433,11.553,1.286,1.975.431,4.038,1.045,6.493,1.936,1.587.575,3.216.867,4.842.867,4.608,0,8.761-2.293,11.393-6.291.473-.718.836-1.648,1.229-2.701,1.01-2.71,2.005-5.427,3-8.143,2.088-5.701,4.247-11.595,6.528-17.361,7.78-19.666,25.542-31.884,46.354-31.884,3.89,0,7.822.447,11.688,1.327,7.88,1.794,14.961,5.788,21.65,12.213,8.13,7.81,13.072,17.487,14.687,28.766.855,5.969.548,12.13-.913,18.311-.965,4.084-2.463,7.919-3.784,11.303-.759,1.943-1.475,3.778-2.004,5.435-.021.067-.045.134-.069.2l-1.875,5.029c-1.221,3.275-2.317,6.212-3.403,9.152-2.621,7.1.861,14.751,7.926,17.418,9.988,3.771,17.936,9.883,23.621,18.168,8.375,12.204,10.964,25.551,7.695,39.668-3.231,13.958-11.408,24.729-24.301,32.011-7.267,4.104-15.191,6.187-23.553,6.187-3.352,0-6.84-.336-10.368-.997-2.133-.399-4.052-1.05-5.908-1.68l-.99-.333c-2.025-.674-3.856-1.002-5.6-1.002-1.517,0-2.942.248-4.358.759-3.955,1.426-6.58,3.944-8.024,7.701-1.946,5.06-3.863,10.242-5.718,15.255-1.228,3.318-2.455,6.637-3.7,9.947-4.729,12.58-13.076,21.896-24.808,27.69-6.867,3.391-14.101,5.11-21.5,5.11h0Z" fill="#fd70c7" stroke-width="0"/>
            <path d="M958.558,122.777c3.52,0,7.099.397,10.688,1.214,7.636,1.739,13.982,5.74,19.533,11.071,7.452,7.158,11.884,15.929,13.35,26.157.8,5.588.462,11.137-.838,16.638-1.43,6.05-4.172,11.635-5.696,16.403-2.034,5.466-3.668,9.825-5.281,14.193-3.482,9.433,1.118,19.623,10.557,23.187,8.848,3.34,16.164,8.728,21.5,16.504,7.524,10.964,10.038,23.081,7.021,36.107-3.002,12.964-10.582,22.583-22.13,29.107-6.81,3.847-13.942,5.605-21.342,5.605-3.132,0-6.312-.315-9.537-.919-2.172-.407-4.223-1.167-6.305-1.86-2.332-.776-4.673-1.232-7.023-1.232-1.954,0-3.915.315-5.883,1.025-5.114,1.844-8.757,5.272-10.698,10.32-3.223,8.38-6.269,16.829-9.429,25.233-4.26,11.33-11.741,19.882-22.589,25.24-6.255,3.089-12.798,4.646-19.506,4.646-3.058,0-6.15-.323-9.266-.972-13.394-2.789-23.138-10.66-29.677-22.516-5.323-9.65-6.575-19.971-4.332-30.727.447-2.144.967-4.274,1.742-6.339,3.154-8.407,6.287-16.822,9.405-25.243,2.341-6.324,1.352-12.171-2.709-17.492-2.198-2.88-5.169-4.791-8.519-6.041-8.084-3.016-14.724-8.006-19.844-14.868-7.829-10.493-10.704-22.322-8.412-35.231,2.456-13.833,10.176-24.116,22.212-31.075,6.865-3.969,14.105-5.843,21.615-5.843,3.477,0,7.012.402,10.595,1.183,2.021.441,3.975,1.065,5.917,1.769,2.115.767,4.267,1.137,6.376,1.137,5.991,0,11.64-2.982,15.152-8.317.742-1.127,1.223-2.358,1.687-3.603,3.16-8.476,6.17-17.011,9.497-25.421,7.235-18.289,23.864-29.038,42.171-29.039M958.881,113.303v9-9h-.003c-10.908,0-21.379,3.185-30.281,9.208-9.079,6.143-16.084,14.968-20.259,25.521-2.303,5.821-4.473,11.745-6.571,17.473-.991,2.707-1.983,5.413-2.99,8.114-.201.54-.539,1.445-.771,1.798-1.784,2.711-4.567,4.265-7.634,4.265-1.102,0-2.215-.201-3.309-.598-2.647-.959-4.892-1.627-7.066-2.101-4.229-.922-8.438-1.39-12.513-1.39-9.238,0-18.026,2.372-26.12,7.052-14.75,8.528-23.689,21.075-26.569,37.293-2.732,15.385.652,29.578,10.06,42.187,6.172,8.273,14.217,14.302,23.911,17.918,2.04.761,3.515,1.765,4.51,3.069,2.258,2.958,2.67,5.539,1.423,8.908-3.294,8.9-6.366,17.145-9.391,25.205-1.052,2.805-1.689,5.568-2.125,7.663-2.749,13.18-.979,25.598,5.261,36.911,8.08,14.649,20.099,23.726,35.723,26.98,3.7.771,7.435,1.161,11.101,1.161,8.097,0,16-1.876,23.492-5.576,12.789-6.316,21.882-16.457,27.027-30.141,1.243-3.306,2.469-6.619,3.694-9.932,1.854-5.011,3.771-10.193,5.711-15.238.974-2.533,2.624-4.101,5.35-5.083.918-.331,1.844-.492,2.831-.492,1.253,0,2.621.252,4.181.772.323.107.646.217.969.326,1.91.647,4.075,1.381,6.52,1.84,3.8.712,7.566,1.073,11.196,1.073,9.148,0,17.817-2.277,25.768-6.769,14.037-7.929,22.943-19.676,26.472-34.913,3.565-15.398.75-29.942-8.369-43.23-6.215-9.057-14.876-15.73-25.742-19.832-4.8-1.812-7.076-6.82-5.293-11.65,1.079-2.924,2.168-5.844,3.381-9.096l1.891-5.074c.049-.132.095-.265.138-.399.487-1.521,1.178-3.292,1.91-5.167,1.375-3.522,2.934-7.514,3.972-11.906,1.591-6.732,1.924-13.456.989-19.984-1.761-12.296-7.153-22.851-16.024-31.372-7.294-7.006-15.069-11.375-23.769-13.356-4.193-.955-8.46-1.439-12.684-1.439h.002Z" fill="#fc00cf" stroke-width="0"/>
          </g>
          <g>
            <path d="M541.292,360.303c-5.62,0-11.276-1.47-16.811-4.368-7.553-3.954-13.051-10.153-16.343-18.423-.525-1.319-1.185-3.08-1.622-4.988-1.39-6.057-2.794-12.11-4.21-18.162-.703-3.003-2.353-4.807-5.349-5.849-.751-.261-1.535-.388-2.392-.388-.732,0-1.522.097-2.35.288-2.644.611-5.319.922-7.95.922-3.956,0-7.905-.699-11.738-2.078-9.786-3.521-16.83-10.111-20.935-19.59-4.322-9.98-3.966-20.155,1.058-30.243,3.99-8.011,10.462-13.796,19.234-17.196,1.368-.529,2.851-.98,4.667-1.418,3.805-.918,6.259-4.056,6.25-7.994,0-.453-.13-1.048-.287-1.722-.452-1.949-.914-3.896-1.376-5.843-.975-4.102-1.982-8.343-2.873-12.565-3.777-17.921,5.568-34.955,22.725-41.425,3.428-1.292,7.105-1.947,10.929-1.947,2.23,0,4.582.224,6.988.663,7.995,1.461,14.814,5.313,20.268,11.45,2.891,3.251,5.157,7.077,6.736,11.371,1.037,2.82,1.648,5.659,2.188,8.164.3,1.392.583,2.705.898,3.823.019.067.037.136.052.204l.819,3.535c.554,2.394,1.049,4.534,1.552,6.674.874,3.719,3.973,6.218,7.713,6.218.62,0,1.25-.071,1.873-.213,2.867-.652,5.727-.982,8.5-.982,4.45,0,8.797.848,12.921,2.518,9.88,4.004,16.739,10.995,20.387,20.78,3.609,9.68,2.98,19.403-1.871,28.899-3.839,7.518-10,13.106-18.312,16.611-1.472.621-2.938,1.008-4.231,1.349l-.701.186c-2.345.632-3.966,1.636-5.1,3.157-1.507,2.022-1.969,4.055-1.452,6.396.809,3.662,1.682,7.39,2.526,10.995.559,2.385,1.118,4.771,1.664,7.158,2.157,9.431.843,18.343-3.904,26.489-4.073,6.988-9.942,12.047-17.445,15.036-4.176,1.664-8.449,2.508-12.699,2.508h.003Z" fill="#fd70c7" stroke-width="0"/>
            <path d="M511.922,171.578c2.049,0,4.109.211,6.177.589,7.042,1.288,12.957,4.662,17.714,10.013,2.599,2.923,4.524,6.259,5.876,9.935,1.487,4.043,2.037,8.318,2.979,11.656.914,3.936,1.636,7.08,2.374,10.221,1.368,5.821,6.389,9.688,12.095,9.688.943,0,1.903-.105,2.87-.325,2.519-.573,5.023-.87,7.502-.87,3.81,0,7.563.702,11.231,2.189,8.539,3.46,14.624,9.501,17.86,18.182,3.221,8.64,2.518,17.096-1.662,25.28-3.508,6.869-9.01,11.541-16.053,14.512-1.411.595-2.886.94-4.354,1.335-3.012.811-5.63,2.254-7.538,4.814-2.25,3.02-3.045,6.394-2.237,10.053,1.341,6.075,2.81,12.122,4.197,18.187,1.869,8.176.816,15.978-3.405,23.22-3.543,6.081-8.68,10.515-15.222,13.122-3.711,1.478-7.393,2.188-11.032,2.188-4.998,0-9.916-1.336-14.725-3.854-6.765-3.542-11.434-9.028-14.249-16.101-.561-1.41-1.075-2.84-1.417-4.329-1.391-6.064-2.797-12.125-4.215-18.182-1.065-4.55-3.871-7.55-8.253-9.073-1.273-.443-2.569-.638-3.869-.638-1.121,0-2.246.146-3.363.404-2.326.538-4.64.806-6.936.806-3.452,0-6.863-.606-10.215-1.812-8.535-3.071-14.719-8.807-18.329-17.144-3.869-8.933-3.339-17.826.957-26.449,3.584-7.195,9.345-12.105,16.832-15.006,1.336-.518,2.704-.904,4.095-1.239,5.82-1.404,9.709-6.396,9.696-12.379-.002-.935-.195-1.83-.403-2.727-1.414-6.106-2.937-12.189-4.229-18.321-3.351-15.898,5.111-30.707,19.909-36.286,3.075-1.16,6.195-1.658,9.342-1.658M511.922,162.303h0c-4.369,0-8.58.753-12.517,2.237-9.199,3.468-16.818,9.976-21.454,18.326-4.692,8.451-6.143,18.479-4.086,28.238.901,4.276,1.915,8.544,2.896,12.671.461,1.94.922,3.881,1.372,5.824.036.155.14.603.17.803-.029,1.792-1.073,3.105-2.805,3.523-2.018.487-3.682.994-5.237,1.596-9.851,3.818-17.13,10.34-21.636,19.385-5.565,11.17-5.966,22.941-1.16,34.038,4.553,10.513,12.693,18.133,23.541,22.036,4.323,1.555,8.785,2.344,13.262,2.344,2.971,0,5.987-.349,8.964-1.038.495-.115.944-.173,1.334-.173.35,0,.641.044.914.139,1.695.589,2.138,1.315,2.445,2.623,1.495,6.389,2.871,12.324,4.206,18.144.507,2.208,1.243,4.177,1.827,5.645,3.701,9.299,9.904,16.278,18.436,20.746,6.186,3.239,12.545,4.881,18.9,4.881,4.823,0,9.655-.951,14.363-2.826,8.461-3.371,15.078-9.074,19.668-16.952,5.341-9.164,6.822-19.176,4.403-29.758-.547-2.392-1.106-4.781-1.666-7.17-.842-3.595-1.713-7.312-2.516-10.951-.198-.9-.153-1.636.666-2.736.219-.293.731-.981,2.662-1.501l.67-.178c1.44-.379,3.072-.81,4.84-1.555,9.317-3.929,16.238-10.224,20.572-18.711,5.448-10.667,6.147-21.608,2.079-32.518-4.05-10.862-11.973-18.946-22.914-23.379-4.663-1.889-9.579-2.847-14.611-2.847-3.108,0-6.303.368-9.497,1.094-.295.067-.59.101-.875.101-1.633,0-2.941-1.078-3.333-2.747-.495-2.108-.984-4.218-1.528-6.57l-.84-3.627c-.032-.137-.067-.274-.105-.409-.277-.981-.545-2.228-.83-3.547-.571-2.65-1.218-5.654-2.364-8.771-1.773-4.824-4.329-9.133-7.596-12.808-6.138-6.904-13.816-11.24-22.822-12.886-2.672-.489-5.295-.736-7.796-.736h-.002Z" fill="#fc00cf" stroke-width="0"/>
          </g>
          <g>
            <path d="M350.198,621.641c-3.209,0-6.276-1.021-9.118-3.033-3.114-2.204-5.179-5.267-6.138-9.103-.15-.602-.334-1.409-.417-2.318-.207-2.255-.42-4.51-.638-6.767-.001-.019-.004-.036-.006-.051-.023-.014-.053-.03-.091-.05-.062.02-.107.022-.153.027-.504.047-1.01.07-1.505.07-2.5,0-4.906-.591-7.151-1.758-4.042-2.102-6.827-5.515-8.055-9.871-1.299-4.606-.523-9.197,2.243-13.275,2.247-3.312,5.441-5.485,9.497-6.46.647-.155,1.325-.267,2.132-.351.046-.013.073-.028.089-.049-.002-.023-.146-1.511-.218-2.231-.159-1.587-.316-3.175-.434-4.765-.6-8.109,4.52-15.051,12.452-16.881,1.016-.234,2.063-.354,3.114-.354,1.604,0,3.273.279,4.962.83,3.441,1.119,6.222,3.223,8.262,6.252,1.088,1.614,1.864,3.439,2.304,5.421.281,1.268.376,2.482.453,3.458.035.442.064.864.119,1.249.01.069.018.139.025.209l.36,3.803.08.073c.529-.047,1.059-.071,1.577-.071,2.792,0,5.408.686,7.774,2.036,4.048,2.312,6.723,5.896,7.736,10.365,1.005,4.429.132,8.796-2.523,12.628-2.15,3.103-5.191,5.206-9.039,6.25-.762.207-1.451.293-2.004.361l-.238.03c-.243.031-.34.074-.354.081.114,1.383.244,2.727.374,4.07.086.89.171,1.779.253,2.669.383,4.206-.756,8.152-3.295,11.414-2.185,2.806-5.161,4.745-8.607,5.608-1.275.318-2.559.48-3.818.48l-.004.004Z" fill="#fd70c7" stroke-width="0"/>
            <path d="M345.8,548.924c1.205,0,2.393.225,3.568.608,2.487.809,4.463,2.319,5.924,4.488.798,1.185,1.333,2.486,1.643,3.883.341,1.536.332,3.11.51,4.365.139,1.469.247,2.643.361,3.815.232,2.388,2.176,4.138,4.529,4.138.142,0,.286-.007.431-.02.395-.035.787-.053,1.175-.053,1.953,0,3.813.457,5.542,1.444,2.922,1.668,4.83,4.152,5.579,7.452.745,3.284.078,6.311-1.834,9.07-1.605,2.316-3.824,3.739-6.519,4.47-.54.146-1.091.2-1.641.271-1.13.147-2.148.542-2.963,1.375-.962.984-1.414,2.166-1.3,3.53.189,2.264.427,4.525.633,6.788.278,3.051-.484,5.823-2.365,8.239-1.579,2.029-3.655,3.383-6.15,4.008-.93.233-1.839.346-2.726.346-2.319,0-4.494-.772-6.516-2.205-2.276-1.612-3.699-3.825-4.373-6.523-.135-.538-.251-1.08-.302-1.636-.208-2.263-.421-4.525-.639-6.787-.164-1.699-1.033-2.922-2.545-3.687-.649-.328-1.342-.464-2.05-.464-.185,0-.37.009-.557.027-.365.034-.726.051-1.084.051-1.778,0-3.475-.42-5.075-1.252-2.94-1.528-4.898-3.906-5.799-7.099-.965-3.422-.34-6.615,1.635-9.527,1.648-2.43,3.973-3.926,6.824-4.612.509-.122,1.023-.195,1.543-.249,2.175-.225,3.826-1.842,4.113-4.008.045-.339.019-.672-.013-1.007-.214-2.279-.469-4.555-.638-6.838-.438-5.918,3.347-10.866,8.976-12.164.707-.163,1.407-.238,2.102-.238M345.8,539.924h0c-1.39,0-2.778.158-4.125.469-9.985,2.303-16.684,11.386-15.928,21.598.079,1.06.173,2.106.272,3.133-4.391,1.407-8.022,4.102-10.574,7.864-3.535,5.211-4.52,11.097-2.85,17.022,1.575,5.584,5.141,9.956,10.312,12.643,2.184,1.135,4.488,1.847,6.876,2.128.088.94.176,1.879.262,2.819.111,1.212.344,2.239.533,2.998,1.209,4.838,3.942,8.879,7.903,11.683,3.616,2.561,7.558,3.86,11.717,3.86,1.628,0,3.281-.207,4.912-.615,4.431-1.109,8.258-3.602,11.066-7.21,3.253-4.178,4.714-9.222,4.226-14.584-.082-.903-.169-1.806-.257-2.708-.002-.024-.005-.048-.007-.072,4.351-1.415,7.961-4.064,10.488-7.71,3.394-4.897,4.505-10.495,3.214-16.188-1.3-5.733-4.721-10.324-9.893-13.277-2.348-1.341-4.88-2.173-7.554-2.487-.01-.096-.023-.193-.036-.288-.027-.191-.06-.604-.088-.968-.083-1.058-.197-2.506-.547-4.082-.562-2.533-1.56-4.875-2.964-6.959-2.578-3.827-6.244-6.599-10.603-8.018-2.138-.696-4.276-1.05-6.353-1.05h-.002Z" fill="#fc00cf" stroke-width="0"/>
          </g>
        </g>
        <g>
          <g>
            <path d="M523.004,929.695c-4.175,0-8.384-1.055-12.508-3.136-5.824-2.938-10.099-7.609-12.707-13.887-.415-.996-.937-2.329-1.297-3.798-1.081-4.404-2.172-8.807-3.272-13.206-.439-1.76-1.388-2.761-3.17-3.351-.401-.133-.819-.197-1.278-.197-.463,0-.972.068-1.512.202-2.143.529-4.316.799-6.458.799-2.896,0-5.792-.49-8.61-1.456-7.513-2.576-12.967-7.527-16.211-14.718-3.419-7.58-3.268-15.355.451-23.112,2.958-6.172,7.833-10.668,14.488-13.365,1.044-.423,2.17-.783,3.547-1.137,2.202-.566,3.6-2.414,3.56-4.706-.003-.222-.122-.697-.192-.982-.351-1.417-.709-2.832-1.068-4.247-.758-2.989-1.542-6.08-2.242-9.166-3.09-13.639,3.847-26.751,16.87-31.888,2.742-1.081,5.697-1.629,8.783-1.629,1.577,0,3.234.144,4.926.426,6.126,1.024,11.379,3.889,15.616,8.512,2.25,2.455,4.026,5.353,5.281,8.611.819,2.127,1.307,4.236,1.737,6.098.229.993.446,1.931.678,2.706.02.067.039.135.056.203l.659,2.663c.421,1.703.8,3.232,1.184,4.76.531,2.115,2.312,3.535,4.432,3.535h0c.385,0,.777-.048,1.166-.142,2.313-.563,4.625-.849,6.872-.849,3.261,0,6.459.599,9.506,1.779,7.586,2.942,12.903,8.203,15.804,15.636,2.869,7.355,2.503,14.788-1.088,22.092-2.85,5.794-7.487,10.135-13.785,12.903-1.141.502-2.246.812-3.221,1.085l-.515.146c-1.452.414-2.388,1.001-3.04,1.904-.867,1.201-1.111,2.341-.792,3.692.633,2.676,1.301,5.343,1.968,8.01.433,1.728.865,3.456,1.288,5.186,1.753,7.17.853,13.987-2.679,20.263-3.032,5.389-7.46,9.323-13.16,11.695-3.295,1.37-6.682,2.065-10.066,2.065h-.001Z" fill="#fd70c7" stroke-width="0"/>
            <path d="M500.176,791.215c1.386,0,2.782.13,4.184.365,5.155.862,9.509,3.26,13.04,7.113,1.929,2.105,3.371,4.519,4.398,7.187,1.13,2.935,1.579,6.05,2.303,8.475.71,2.863,1.272,5.15,1.845,7.434,1.051,4.187,4.688,6.939,8.796,6.939.733,0,1.48-.087,2.23-.27,1.947-.474,3.885-.72,5.807-.72,2.665,0,5.298.474,7.882,1.476,6.271,2.431,10.779,6.774,13.238,13.074,2.446,6.271,2.027,12.451-.934,18.471-2.485,5.053-6.449,8.524-11.558,10.77-1.023.45-2.096.718-3.164,1.023-2.189.625-4.085,1.708-5.449,3.597-1.609,2.229-2.152,4.701-1.522,7.363,1.046,4.419,2.185,8.817,3.264,13.229,1.455,5.948.772,11.654-2.229,16.987-2.52,4.478-6.22,7.771-10.967,9.746-2.797,1.164-5.581,1.721-8.338,1.721-3.542,0-7.043-.919-10.481-2.653-4.977-2.511-8.446-6.463-10.579-11.595-.425-1.023-.816-2.061-1.082-3.144-1.082-4.411-2.176-8.819-3.277-13.226-.827-3.309-2.909-5.468-6.124-6.531-.888-.294-1.788-.425-2.69-.425-.865,0-1.732.121-2.592.333-1.801.446-3.596.667-5.378.667-2.41,0-4.797-.406-7.152-1.213-6.264-2.147-10.841-6.266-13.568-12.312-2.922-6.478-2.634-12.975.407-19.316,2.537-5.291,6.688-8.938,12.121-11.139.969-.393,1.964-.69,2.976-.95,4.233-1.089,7.017-4.775,6.941-9.143-.012-.682-.162-1.333-.324-1.986-1.1-4.441-2.278-8.865-3.289-13.326-2.621-11.567,3.392-22.47,14.132-26.706,2.339-.923,4.722-1.316,7.133-1.316M500.176,782.215h0c-3.654,0-7.164.654-10.434,1.944-7.211,2.844-13.145,8.074-16.708,14.726-3.608,6.736-4.638,14.67-2.899,22.341.712,3.144,1.504,6.265,2.269,9.283.356,1.405.713,2.81,1.061,4.217.014.055.028.111.042.166-.004.011-.007.019-.009.023h0s-.041.032-.155.061c-1.575.405-2.882.826-4.112,1.324-7.727,3.129-13.398,8.375-16.858,15.59-4.258,8.882-4.429,18.187-.495,26.908,3.722,8.251,10.241,14.172,18.853,17.125,3.289,1.127,6.677,1.699,10.071,1.699,2.505,0,5.042-.313,7.539-.931.199-.049.325-.064.388-.068.038.014.07.027.098.039.009.028.018.061.027.099,1.099,4.393,2.189,8.789,3.268,13.187.433,1.765,1.035,3.307,1.512,4.454,3.033,7.298,8.025,12.74,14.836,16.176,4.758,2.401,9.648,3.618,14.534,3.618,3.981,0,7.949-.811,11.795-2.411,6.558-2.728,11.867-7.445,15.354-13.642,4.052-7.201,5.133-15.341,3.128-23.539-.426-1.743-.862-3.484-1.298-5.225-.649-2.592-1.319-5.271-1.939-7.888.007-.01.014-.022.022-.033.068-.04.259-.137.651-.25l.474-.134c1.069-.299,2.4-.671,3.84-1.305,7.294-3.207,12.681-8.266,16.011-15.036,4.113-8.363,4.542-17.255,1.242-25.714-3.33-8.536-9.682-14.827-18.369-18.195-3.568-1.383-7.314-2.085-11.135-2.085-2.603,0-5.272.328-7.933.975-.052.012-.085.015-.104.015-.018-.004-.044-.042-.067-.13-.377-1.505-.75-3.01-1.164-4.683l-.676-2.728c-.034-.136-.071-.272-.111-.407-.191-.64-.392-1.51-.605-2.432-.441-1.907-.99-4.28-1.922-6.702-1.458-3.787-3.531-7.163-6.162-10.034-4.932-5.381-11.052-8.715-18.191-9.909-1.936-.324-3.843-.488-5.669-.488h0Z" fill="#fc00cf" stroke-width="0"/>
          </g>
          <g>
            <path d="M200.168,603.204c-8.303,0-16.885-1.67-25.506-4.963-15.115-5.775-26.869-16.259-34.937-31.16-1.295-2.393-2.94-5.582-4.17-9.027-4.051-11.351-8.247-23.018-12.826-35.669-2.661-7.35-7.747-11.76-15.55-13.48-1.315-.29-2.678-.438-4.05-.438-2.561,0-5.289.514-8.108,1.526-7.306,2.623-14.813,3.953-22.313,3.953-4.987,0-10.058-.59-15.074-1.753-19.288-4.476-34.072-15.362-43.94-32.356-10.378-17.874-11.962-37.179-4.707-57.379,5.743-15.992,16.685-28.354,32.523-36.743,2.435-1.289,5.141-2.472,8.515-3.72,9.404-3.476,14.915-12.528,13.713-22.528-.168-1.396-.656-2.829-1.229-4.423-1.378-3.835-2.779-7.663-4.179-11.491-2.932-8.016-5.964-16.305-8.745-24.555-11.138-33.043,2.734-67.335,33.733-83.393,8.462-4.383,17.698-6.514,28.236-6.514,1.684,0,3.427.057,5.181.168,15.419.979,29.157,6.738,40.832,17.116,6.172,5.487,11.301,12.208,15.245,19.977,2.616,5.154,4.47,10.574,6.106,15.355.959,2.807,1.866,5.457,2.824,7.772.027.064.053.131.077.197l2.539,7.064c1.67,4.651,3.168,8.819,4.679,12.983,3.061,8.434,10.716,13.883,19.501,13.883h0c2.421,0,4.839-.423,7.188-1.256,7.904-2.804,15.853-4.226,23.624-4.226,5.766,0,11.547.783,17.185,2.329,19.581,5.368,34.109,17.051,43.181,34.724,8.966,17.466,9.935,35.979,2.879,55.026-5.567,15.028-15.977,26.956-30.938,35.452-2.543,1.445-5.138,2.466-7.646,3.453l-1.374.544c-5.6,2.24-9.362,5.283-11.837,9.577-3.238,5.616-3.817,11.207-1.77,17.092,2.515,7.234,5.172,14.571,7.742,21.666,1.689,4.664,3.379,9.329,5.044,14.003,6.187,17.371,5.696,34.521-1.458,50.972-6.13,14.096-16.082,24.95-29.578,32.263-9.77,5.293-20.07,7.977-30.615,7.977l.003.002Z" fill="#fd70c7" stroke-width="0"/>
            <path d="M111.553,233.592c1.624,0,3.256.055,4.897.159,14.517.922,27.255,6.323,38.127,15.989,5.939,5.28,10.619,11.553,14.221,18.649,3.961,7.804,6.09,16.301,8.785,22.812,2.78,7.725,4.986,13.898,7.223,20.06,3.785,10.43,13.333,16.847,23.731,16.847,2.868,0,5.8-.488,8.694-1.515,7.311-2.594,14.697-3.967,22.119-3.967,5.317,0,10.653.704,15.996,2.169,18.054,4.949,31.771,15.692,40.367,32.438,8.556,16.667,9.15,33.898,2.663,51.408-5.444,14.697-15.434,25.433-28.94,33.104-2.705,1.536-5.601,2.584-8.469,3.731-5.885,2.354-10.825,5.888-14.065,11.508-3.823,6.63-4.623,13.627-2.122,20.818,4.152,11.939,8.556,23.791,12.797,35.7,5.718,16.054,5.448,32.047-1.345,47.667-5.703,13.113-15.013,23.285-27.595,30.101-9.309,5.043-18.829,7.434-28.472,7.434-7.9,0-15.881-1.604-23.9-4.667-14.493-5.537-25.22-15.495-32.585-29.098-1.468-2.712-2.846-5.474-3.889-8.398-4.25-11.906-8.53-23.801-12.833-35.687-3.231-8.927-9.609-14.314-18.812-16.344-1.68-.371-3.355-.542-5.019-.543-3.267,0-6.491.664-9.63,1.791-6.856,2.462-13.799,3.689-20.791,3.689-4.668,0-9.357-.547-14.058-1.637-17.954-4.165-31.796-14.269-41.066-30.232-9.932-17.105-10.979-35.177-4.364-53.598,5.52-15.372,15.977-26.65,30.394-34.287,2.573-1.363,5.242-2.468,7.969-3.476,11.411-4.218,18.07-15.216,16.619-27.286-.227-1.886-.829-3.646-1.461-5.407-4.307-11.985-8.828-23.897-12.895-35.962-10.545-31.283,3.005-63.178,31.539-77.959,8.304-4.301,17.091-6.009,26.165-6.009M111.553,224.592h0c-11.275,0-21.188,2.296-30.304,7.018-15.785,8.177-28.077,21.447-34.611,37.365-6.608,16.101-7.076,34.376-1.317,51.46,2.799,8.304,5.841,16.619,8.782,24.66,1.376,3.761,2.798,7.65,4.171,11.471.479,1.332.884,2.51.996,3.438.963,8.012-3.278,14.988-10.804,17.77-3.56,1.316-6.44,2.575-9.062,3.964-16.86,8.93-28.519,22.118-34.652,39.198-7.724,21.508-6.025,42.085,5.051,61.16,10.518,18.113,26.268,29.713,46.815,34.48,5.348,1.241,10.762,1.87,16.092,1.87,8.02,0,16.038-1.419,23.833-4.218,2.331-.837,4.547-1.261,6.588-1.261,1.047,0,2.084.111,3.081.331,6.346,1.4,10.136,4.675,12.288,10.618,4.462,12.328,8.775,24.322,12.819,35.65,1.334,3.736,3.079,7.124,4.451,9.657,8.594,15.874,21.139,27.051,37.287,33.22,9.135,3.49,18.257,5.26,27.112,5.26,11.302,0,22.323-2.867,32.759-8.521,14.401-7.802,25.02-19.384,31.561-34.425,7.625-17.532,8.154-35.793,1.57-54.276-1.669-4.686-3.387-9.43-5.049-14.018-2.566-7.084-5.219-14.409-7.726-21.618-1.614-4.642-1.163-8.889,1.418-13.367,1.944-3.372,4.998-5.802,9.61-7.647.453-.181.906-.36,1.36-.538,2.528-.995,5.393-2.123,8.211-3.723,15.909-9.035,26.99-21.754,32.935-37.803,7.512-20.278,6.471-40.009-3.096-58.645-9.672-18.842-25.147-31.293-45.994-37.008-6.026-1.652-12.208-2.49-18.376-2.49-8.285,0-16.74,1.509-25.128,4.485-1.864.661-3.777.997-5.685.997-6.87,0-12.864-4.285-15.271-10.918-1.503-4.142-2.993-8.289-4.653-12.911l-2.561-7.126c-.048-.132-.099-.264-.152-.394-.904-2.184-1.789-4.77-2.725-7.507-1.684-4.922-3.592-10.501-6.351-15.937-4.199-8.272-9.672-15.439-16.267-21.302-12.443-11.061-27.09-17.2-43.536-18.244-1.849-.117-3.689-.177-5.468-.177h0l-.002.002Z" fill="#fc00cf" stroke-width="0"/>
          </g>
          <g>
            <path d="M265.709,1181.667c-3.663,0-7.392-.445-11.083-1.323-13.679-3.257-24.051-11.578-30.829-24.734-5.214-10.123-6.458-21.129-3.698-32.712.441-1.854,1.074-4.291,2.055-6.693,3.254-7.976,6.487-15.961,9.705-23.951,1.819-4.516,1.31-8.505-1.603-12.554-1.389-1.931-3.368-3.398-6.05-4.487-8.455-3.431-15.396-8.945-20.63-16.392-8.001-11.384-10.639-24.015-7.839-37.542,2.946-14.234,11.166-25.09,24.429-32.265,6.844-3.702,14.188-5.579,21.829-5.579,4.042,0,8.226.529,12.436,1.572,1.896.472,3.866,1.12,6.201,2.042,1.607.635,3.265.957,4.926.957,4.215,0,8.075-2.062,10.59-5.656.463-.662.833-1.534,1.233-2.522,1.043-2.572,2.071-5.15,3.1-7.729,2.16-5.417,4.394-11.018,6.742-16.494,7.792-18.176,24.702-29.467,44.129-29.467,4.21,0,8.455.544,12.617,1.617,7.547,1.944,14.262,5.987,20.53,12.359,7.619,7.745,12.115,17.203,13.363,28.111.661,5.774.196,11.7-1.38,17.615-1.041,3.906-2.585,7.552-3.947,10.769-.78,1.842-1.516,3.581-2.068,5.151-.023.066-.048.132-.075.197l-1.939,4.784c-1.26,3.106-2.39,5.893-3.511,8.684-2.672,6.649.417,13.985,7.034,16.699,9.518,3.904,17.006,10.011,22.258,18.147,7.734,11.986,9.863,24.914,6.329,38.424-3.496,13.359-11.666,23.511-24.284,30.174-6.706,3.541-13.932,5.337-21.479,5.337-3.665,0-7.48-.425-11.34-1.263-2.046-.444-3.875-1.122-5.643-1.777l-.945-.349c-2.046-.746-3.896-1.108-5.656-1.108-1.304,0-2.54.197-3.778.604-3.782,1.244-6.333,3.558-7.801,7.072-2.011,4.816-3.998,9.753-5.92,14.526-1.262,3.137-2.525,6.273-3.804,9.403-4.9,11.989-13.195,20.735-24.654,25.996-6.293,2.89-12.871,4.354-19.549,4.354v.003Z" fill="#fd70c7" stroke-width="0"/>
            <path d="M331.353,930.638c3.786,0,7.642.482,11.493,1.474,7.281,1.877,13.263,5.889,18.445,11.157,6.957,7.072,10.973,15.611,12.1,25.468.616,5.385.14,10.701-1.257,15.945-1.537,5.767-4.321,11.053-5.913,15.588-2.101,5.19-3.788,9.33-5.455,13.478-3.599,8.958.539,18.864,9.501,22.541,8.4,3.446,15.276,8.817,20.185,16.425,6.922,10.727,9.006,22.425,5.756,34.845-3.234,12.361-10.77,21.386-22.031,27.333-6.248,3.299-12.719,4.816-19.377,4.816-3.415,0-6.877-.399-10.386-1.16-2.073-.45-4.021-1.234-6-1.956-2.377-.867-4.775-1.381-7.197-1.381-1.715,0-3.443.258-5.185.831-4.958,1.63-8.548,4.821-10.548,9.613-3.322,7.955-6.475,15.98-9.737,23.961-4.397,10.758-11.809,18.762-22.366,23.609-5.716,2.625-11.64,3.945-17.671,3.945-3.32,0-6.672-.4-10.042-1.202-12.779-3.042-21.917-10.861-27.87-22.417-4.846-9.406-5.767-19.346-3.321-29.608.488-2.046,1.044-4.076,1.844-6.036,3.256-7.983,6.492-15.974,9.713-23.971,2.419-6.006,1.629-11.644-2.125-16.862-2.031-2.824-4.831-4.739-8.011-6.029-7.677-3.115-13.914-8.084-18.641-14.81-7.228-10.283-9.666-21.714-7.114-34.042,2.734-13.209,10.423-22.869,22.164-29.22,6.319-3.418,12.908-5.037,19.687-5.037,3.731,0,7.52.49,11.354,1.441,1.927.478,3.786,1.131,5.63,1.859,2.172.858,4.397,1.271,6.579,1.271,5.571,0,10.862-2.695,14.278-7.576.743-1.062,1.238-2.23,1.717-3.412,3.263-8.049,6.385-16.158,9.807-24.139,7.262-16.938,22.915-26.74,39.995-26.74M330.881,921.638h0c-21.258,0-39.753,12.336-48.267,32.194-2.369,5.526-4.613,11.152-6.783,16.592-1.026,2.573-2.052,5.146-3.093,7.712-.189.467-.541,1.335-.75,1.633-1.662,2.375-4.178,3.737-6.904,3.737-1.093,0-2.194-.216-3.273-.642-2.53-.999-4.681-1.706-6.77-2.224-4.564-1.132-9.113-1.705-13.52-1.705-8.396,0-16.46,2.059-23.969,6.121-14.485,7.836-23.467,19.716-26.695,35.312-3.062,14.792-.18,28.601,8.564,41.042,5.739,8.165,13.35,14.213,22.62,17.974,1.872.76,3.209,1.723,4.089,2.945,2.005,2.787,2.318,5.176,1.082,8.245-3.4,8.441-6.572,16.27-9.698,23.934-1.095,2.685-1.786,5.337-2.265,7.348-3.017,12.661-1.646,24.711,4.075,35.817,7.406,14.376,18.773,23.478,33.786,27.051,4.033.96,8.113,1.447,12.126,1.447,7.33,0,14.539-1.603,21.427-4.765,12.531-5.753,21.596-15.302,26.942-28.383,1.283-3.14,2.55-6.287,3.817-9.434,1.915-4.758,3.896-9.678,5.894-14.464.96-2.3,2.519-3.698,5.054-4.531.779-.256,1.555-.38,2.374-.38,1.225,0,2.57.274,4.113.836.308.112.616.226.923.34,1.826.677,3.896,1.445,6.253,1.956,4.172.906,8.309,1.365,12.294,1.365,8.286,0,16.219-1.971,23.58-5.858,13.78-7.277,22.708-18.384,26.536-33.013,3.868-14.782,1.546-28.914-6.901-42.003-5.759-8.925-13.946-15.611-24.331-19.871-4.37-1.792-6.333-6.461-4.566-10.859,1.113-2.769,2.234-5.534,3.483-8.613l1.963-4.842c.053-.131.103-.262.149-.396.504-1.437,1.214-3.113,1.966-4.888,1.42-3.353,3.03-7.154,4.152-11.364,1.722-6.461,2.227-12.95,1.502-19.286-1.365-11.93-6.286-22.278-14.626-30.756-6.856-6.97-14.254-11.406-22.614-13.561-4.529-1.167-9.151-1.759-13.739-1.759h0v-.004Z" fill="#fc00cf" stroke-width="0"/>
          </g>
          <g>
            <path d="M685.104,1119.847c-2.637,0-5.332-.55-8.008-1.634-4.561-1.849-8.062-5.09-10.406-9.635-.371-.72-.843-1.685-1.209-2.779-1.014-3.029-2.034-6.054-3.06-9.077-.265-.781-.623-1.098-1.472-1.303-.108-.025-.217-.038-.335-.038-.252,0-.551.058-.887.17-2.101.707-4.259,1.066-6.412,1.066-1.647,0-3.314-.211-4.954-.626-5.713-1.447-10.232-4.919-13.07-10.04-2.996-5.404-3.376-11.411-1.1-17.369,1.841-4.823,5.22-8.502,10.042-10.934.757-.383,1.58-.724,2.585-1.072.939-.326,1.441-1.12,1.341-2.122-.023-.097-.08-.24-.129-.387-.326-.968-.658-1.935-.99-2.901-.709-2.065-1.442-4.202-2.118-6.348-3.161-10.036,1.23-20.298,10.678-24.953,2.499-1.231,5.285-1.855,8.281-1.855.641,0,1.304.028,1.972.084,4.664.391,8.784,2.215,12.248,5.421,1.845,1.708,3.358,3.773,4.5,6.139.738,1.528,1.218,3.028,1.642,4.353.212.663.413,1.289.604,1.781.026.065.05.132.072.198l1.723,5.104c.279.82.964,1.332,1.787,1.332.216,0,.438-.038.66-.111,2.244-.746,4.508-1.124,6.729-1.124,1.893,0,3.783.275,5.618.817,5.788,1.713,10.219,5.432,12.818,10.754,2.61,5.347,2.798,10.946.557,16.643-1.782,4.53-4.99,8.076-9.534,10.538-.856.464-1.66.763-2.37,1.026l-.345.129c-.893.336-1.193.687-1.355.955-.388.643-.37,1.065-.216,1.539.595,1.829,1.214,3.651,1.833,5.474.407,1.196.813,2.394,1.213,3.592,1.756,5.264,1.5,10.43-.761,15.356-1.942,4.233-5.024,7.463-9.16,9.598-2.88,1.486-5.912,2.24-9.011,2.24h-.001Z" fill="#fd70c7" stroke-width="0"/>
            <path d="M663.879,1022.51c.53,0,1.062.024,1.598.069,3.668.307,6.864,1.738,9.566,4.239,1.476,1.366,2.628,2.977,3.504,4.791.963,1.995,1.458,4.155,2.107,5.816.664,1.969,1.191,3.542,1.726,5.112.92,2.701,3.366,4.384,6.047,4.384.685,0,1.385-.11,2.079-.34,1.762-.586,3.535-.895,5.311-.895,1.447,0,2.896.205,4.342.633,4.543,1.344,7.959,4.131,10.049,8.412,2.08,4.26,2.143,8.624.413,13.021-1.452,3.691-4.034,6.357-7.49,8.229-.692.375-1.43.625-2.162.901-1.501.566-2.769,1.435-3.617,2.84-1.001,1.658-1.239,3.425-.643,5.257.99,3.042,2.044,6.063,3.057,9.098,1.365,4.091,1.216,8.136-.582,12.054-1.509,3.289-3.917,5.815-7.135,7.476-2.285,1.179-4.607,1.74-6.947,1.74-2.096,0-4.206-.449-6.318-1.305-3.639-1.474-6.303-4.048-8.097-7.528-.358-.694-.692-1.399-.941-2.145-1.015-3.034-2.038-6.065-3.066-9.095-.772-2.275-2.359-3.67-4.677-4.231-.465-.112-.929-.164-1.39-.164-.785,0-1.562.15-2.323.406-1.647.555-3.309.831-4.977.831-1.281,0-2.566-.163-3.851-.489-4.522-1.145-7.973-3.771-10.237-7.858-2.427-4.378-2.6-8.956-.833-13.584,1.475-3.861,4.177-6.662,7.864-8.521.658-.332,1.339-.598,2.034-.839,2.909-1.009,4.649-3.759,4.343-6.82-.048-.479-.191-.927-.342-1.376-1.029-3.054-2.113-6.091-3.08-9.165-2.51-7.969,1.081-15.97,8.375-19.565,2.012-.992,4.122-1.392,6.291-1.392M663.88,1013.51h0c-3.693,0-7.148.78-10.27,2.319-11.303,5.571-16.762,18.331-12.98,30.341.693,2.2,1.435,4.363,2.153,6.455.072.209.143.417.215.626-.269.122-.531.248-.789.378-5.772,2.911-9.998,7.526-12.221,13.347-2.764,7.238-2.291,14.554,1.368,21.157,3.455,6.235,8.953,10.46,15.9,12.219,2.002.507,4.041.764,6.06.764,1.883,0,3.765-.222,5.619-.663.763,2.256,1.523,4.512,2.278,6.771.464,1.386,1.033,2.552,1.478,3.414,2.812,5.452,7.209,9.513,12.717,11.744,3.215,1.303,6.478,1.963,9.698,1.963,3.824,0,7.55-.923,11.075-2.742,4.979-2.57,8.847-6.623,11.187-11.72,2.714-5.914,3.039-12.365.939-18.657-.402-1.203-.809-2.403-1.217-3.604-.343-1.009-.692-2.038-1.037-3.066.431-.187.892-.406,1.367-.663,5.502-2.98,9.397-7.303,11.579-12.848,2.684-6.822,2.441-13.829-.701-20.265-3.168-6.487-8.556-11.015-15.584-13.094-2.249-.665-4.569-1.002-6.895-1.002-1.888,0-3.794.222-5.692.661-.108-.32-.218-.648-.332-.985l-.612-1.815c-.045-.134-.093-.266-.145-.397-.141-.361-.32-.922-.51-1.516-.445-1.392-.999-3.124-1.875-4.938-1.388-2.875-3.237-5.393-5.496-7.484-4.219-3.905-9.242-6.127-14.929-6.603-.793-.066-1.583-.1-2.347-.1h0v.003Z" fill="#fc00cf" stroke-width="0"/>
          </g>
          <g>
            <g>
              <path d="M792.807,130.302c-3.627,0-7.239-.759-10.735-2.257-3.059-1.311-5.871-3.22-8.356-5.674-1.621-1.603-2.934-3.324-4.092-4.843-.618-.811-1.202-1.577-1.732-2.188-.046-.054-.091-.107-.135-.163l-1.699-2.158c-1.084-1.377-2.058-2.614-3.035-3.848-.908-1.146-2.23-1.803-3.628-1.803-1.027,0-2.02.351-2.871,1.015-4.622,3.607-9.773,5.589-15.311,5.89-.578.031-1.151.047-1.718.047-7.403,0-13.836-2.621-19.119-7.792-5.643-5.523-8.369-12.448-8.1-20.583.212-6.452,2.652-12.317,7.253-17.433.835-.93,1.718-1.668,2.496-2.319l.404-.34c1.15-.974,1.762-1.895,1.985-2.986.296-1.452.05-2.59-.798-3.69-1.671-2.169-3.37-4.316-5.069-6.464-1.112-1.405-2.225-2.812-3.329-4.223-4.549-5.812-6.533-12.396-5.897-19.57.546-6.157,2.962-11.564,7.181-16.073,5.186-5.538,11.778-8.346,19.594-8.346.47,0,.943.01,1.421.03,6.516.281,12.335,2.779,17.295,7.426.79.74,1.815,1.741,2.746,2.93,2.797,3.568,5.604,7.132,8.417,10.689.991,1.252,2.052,1.787,3.548,1.787.235,0,.475-.014.72-.04.836-.088,1.667-.464,2.54-1.151,4.105-3.229,8.817-5.114,14.004-5.604.957-.09,1.916-.136,2.849-.136,6.758,0,12.809,2.314,17.983,6.879,6.236,5.501,9.297,12.65,9.101,21.25-.157,6.844-2.749,12.948-7.706,18.144-.773.81-1.649,1.602-2.76,2.493-1.777,1.426-2.292,3.685-1.312,5.757.094.199.398.585.58.815.903,1.147,1.812,2.289,2.722,3.432,1.921,2.412,3.908,4.907,5.815,7.433,8.429,11.156,7.503,25.962-2.252,36.003-3.14,3.23-7.065,5.435-12,6.738-2.326.615-4.681.927-6.999.927h-.001Z" fill="#fd70c7" stroke-width="0"/>
              <path d="M736.095,9c.406,0,.814.009,1.227.027,5.569.24,10.357,2.415,14.413,6.214.809.758,1.592,1.542,2.28,2.42,2.802,3.575,5.612,7.142,8.429,10.705,1.861,2.353,4.241,3.496,7.079,3.496.388,0,.785-.021,1.19-.064,1.823-.192,3.43-.972,4.851-2.09,3.43-2.699,7.333-4.254,11.645-4.66.821-.077,1.631-.116,2.428-.116,5.612,0,10.65,1.912,15.004,5.753,5.329,4.701,7.74,10.742,7.579,17.772-.135,5.867-2.417,10.899-6.463,15.14-.722.757-1.506,1.437-2.321,2.09-3.41,2.734-4.429,7.24-2.563,11.189.292.617.697,1.149,1.113,1.677,2.83,3.595,5.725,7.142,8.482,10.792,7.149,9.464,6.156,21.875-1.89,30.155-2.76,2.841-6.158,4.529-9.922,5.524-1.966.52-3.917.778-5.85.778-3.036,0-6.027-.636-8.962-1.894-2.625-1.125-4.932-2.731-6.967-4.74-2.237-2.21-3.928-4.864-5.587-6.776-1.826-2.317-3.279-4.17-4.741-6.016-1.825-2.304-4.471-3.508-7.155-3.508-1.96,0-3.941.642-5.639,1.968-3.771,2.943-8.024,4.686-12.787,4.944-.495.027-.987.04-1.473.04-6.107,0-11.495-2.127-15.972-6.509-4.811-4.708-6.971-10.514-6.75-17.219.185-5.628,2.37-10.422,6.102-14.572.747-.831,1.615-1.517,2.462-2.234,1.738-1.471,3.02-3.237,3.486-5.521.549-2.694.027-5.17-1.643-7.337-2.772-3.598-5.62-7.136-8.419-10.713-3.773-4.822-5.499-10.303-4.959-16.399.453-5.118,2.471-9.642,5.984-13.395,4.444-4.747,9.98-6.922,16.308-6.922M736.095,0c-8.983,0-16.895,3.379-22.879,9.771-4.854,5.185-7.751,11.669-8.379,18.752-.729,8.229,1.634,16.093,6.836,22.74,1.105,1.412,2.218,2.818,3.33,4.224,1.659,2.096,3.374,4.264,5.016,6.395-.002.012-.004.026-.007.04-.046.064-.179.231-.491.495l-.378.317c-.851.712-1.91,1.599-2.962,2.769-5.328,5.924-8.156,12.752-8.405,20.293-.307,9.315,2.961,17.596,9.45,23.947,6.067,5.938,13.766,9.077,22.267,9.077.646,0,1.306-.018,1.962-.054,6.473-.352,12.474-2.652,17.835-6.836.07-.055.104-.062.105-.062,0,.002.041.026.097.098.978,1.234,1.951,2.471,3.036,3.849l1.69,2.147c.087.111.177.219.269.326.438.505.979,1.215,1.553,1.968,1.187,1.556,2.663,3.493,4.51,5.317,2.886,2.851,6.166,5.075,9.746,6.609,4.059,1.739,8.267,2.621,12.507,2.621,2.706,0,5.448-.362,8.15-1.076,5.669-1.499,10.406-4.175,14.077-7.954,5.402-5.559,8.657-12.768,9.167-20.297.516-7.624-1.81-15.278-6.552-21.554-1.943-2.572-3.949-5.091-5.889-7.527-.903-1.134-1.806-2.267-2.702-3.406-.035-.045-.071-.089-.106-.134,0-.012-.002-.02,0-.025h0s.023-.045.116-.119c1.268-1.017,2.286-1.938,3.202-2.899,5.755-6.033,8.766-13.147,8.949-21.147.226-9.847-3.448-18.398-10.623-24.728-6.02-5.311-13.072-8.004-20.958-8.004-1.074,0-2.175.052-3.272.156-6.063.571-11.57,2.773-16.366,6.547-.16.126-.27.192-.326.222-.037.003-.072.004-.105.005-.02-.022-.041-.048-.065-.079-2.809-3.552-5.611-7.109-8.405-10.673-1.12-1.43-2.304-2.588-3.21-3.437-5.769-5.404-12.558-8.31-20.179-8.638-.54-.023-1.083-.035-1.615-.035h.004Z" fill="#fc00cf" stroke-width="0"/>
            </g>
            <g>
              <path d="M982.643,1101.303c-4.828,0-9.949-.584-15.222-1.737-15.176-3.32-28.043-11.264-38.245-23.61-5.382-6.514-9.57-14.128-12.447-22.629-1.909-5.642-3.031-11.45-4.021-16.574-.583-3.019-1.134-5.87-1.782-8.391-.017-.065-.032-.132-.046-.199l-1.607-7.7c-1.036-4.968-1.965-9.426-2.909-13.882-2.184-10.307-10.675-17.505-20.65-17.505-1.397,0-2.814.145-4.21.43-4.851.99-9.685,1.492-14.369,1.492-9.165,0-18.065-1.915-26.455-5.692-18.695-8.417-31.546-22.506-38.195-41.876-6.566-19.128-5.083-38.132,4.409-56.485,7.511-14.523,19.428-25.154,35.42-31.598,2.723-1.098,5.436-1.752,8.059-2.385l1.443-.351c5.829-1.441,9.95-3.98,12.968-7.989,3.986-5.294,5.308-10.979,4.039-17.382-1.541-7.771-3.208-15.665-4.82-23.3-1.062-5.029-2.124-10.058-3.16-15.091-3.833-18.621-1.085-36.022,8.166-51.721,7.949-13.489,19.271-23.095,33.654-28.548,7.428-2.815,14.99-4.243,22.475-4.243,11.281,0,22.625,3.229,33.717,9.597,14.21,8.158,24.467,20.607,30.486,37,.965,2.629,2.171,6.12,2.934,9.812,2.52,12.201,5.217,25.119,8.019,38.396,1.688,8.001,6.185,13.324,13.748,16.274,2.171.847,4.52,1.276,6.983,1.276,1.641,0,3.38-.189,5.171-.562,4.444-.926,8.929-1.396,13.331-1.396,8.158,0,16.278,1.605,24.136,4.771,18.527,7.463,31.739,20.782,39.268,39.585,7.908,19.752,6.928,39.653-2.912,59.152-7.812,15.481-20.317,26.476-37.167,32.678-2.603.958-5.452,1.761-8.966,2.528-9.779,2.136-16.436,10.598-16.564,21.056-.018,1.481.28,3.038.642,4.773.862,4.133,1.747,8.261,2.632,12.389,1.85,8.631,3.763,17.556,5.433,26.4,6.674,35.37-11.633,68.279-44.52,80.031-5.955,2.128-12.301,3.206-18.864,3.206h-.002Z" fill="#fd70c7" stroke-width="0"/>
              <path d="M925.139,708.777c10.735,0,21.249,3.127,31.475,8.999,13.656,7.841,22.989,19.634,28.502,34.648,1.099,2.993,2.102,6.025,2.751,9.171,2.646,12.811,5.323,25.615,8.023,38.415,2.028,9.612,7.647,16.079,16.515,19.538,2.826,1.103,5.715,1.584,8.618,1.584,2.028,0,4.063-.235,6.089-.657,4.167-.868,8.307-1.301,12.413-1.301,7.615,0,15.114,1.488,22.453,4.444,17.273,6.958,29.679,19.37,36.771,37.084,7.599,18.98,6.251,37.615-2.751,55.452-7.512,14.885-19.383,24.843-34.704,30.482-2.734,1.006-5.53,1.734-8.371,2.355-11.885,2.596-19.949,12.839-20.104,25.397-.024,1.962.341,3.852.736,5.748,2.692,12.9,5.605,25.759,8.048,38.705,6.334,33.568-11.332,64.138-41.612,74.958-5.733,2.048-11.524,2.944-17.351,2.944-4.733,0-9.489-.591-14.259-1.634-14.29-3.126-26.221-10.563-35.737-22.08-5.198-6.291-9.015-13.408-11.653-21.205-2.901-8.574-3.892-17.581-5.707-24.643-1.739-8.316-3.113-14.958-4.519-21.594-2.66-12.558-13.136-21.072-25.052-21.072-1.681,0-3.39.169-5.111.521-4.524.924-9.018,1.402-13.468,1.402-8.381,0-16.608-1.694-24.607-5.296-17.268-7.775-29.466-20.82-35.787-39.234-6.291-18.326-4.604-36.031,4.15-52.957,7.347-14.207,18.682-23.68,33.104-29.491,2.888-1.164,5.901-1.8,8.9-2.541,6.153-1.521,11.525-4.392,15.483-9.65,4.671-6.204,6.39-13.237,4.858-20.965-2.543-12.831-5.349-25.609-7.986-38.422-3.555-17.272-1.174-33.582,7.635-48.53,7.395-12.549,17.981-21.547,31.372-26.624,7.037-2.668,14.005-3.952,20.881-3.952M925.139,699.777c-8.033,0-16.132,1.526-24.071,4.536-15.363,5.824-27.453,16.076-35.935,30.47-9.835,16.689-12.761,35.165-8.696,54.913,1.037,5.039,2.115,10.146,3.158,15.084,1.612,7.631,3.278,15.521,4.815,23.273,1.02,5.144-.003,9.529-3.219,13.801-2.362,3.137-5.684,5.147-10.454,6.326-.473.117-.946.231-1.419.345-2.651.64-5.656,1.365-8.684,2.585-17.02,6.857-29.716,18.198-37.736,33.705-10.078,19.487-11.649,39.679-4.668,60.014,7.069,20.592,20.73,35.57,40.604,44.518,8.975,4.041,18.497,6.089,28.302,6.089,4.985,0,10.122-.533,15.269-1.583,1.101-.225,2.214-.339,3.31-.339,7.828,0,14.509,5.731,16.248,13.938.942,4.448,1.87,8.9,2.904,13.859l1.61,7.712c.028.133.059.266.093.398.614,2.388,1.152,5.173,1.721,8.122,1.017,5.266,2.17,11.234,4.177,17.166,3.053,9.022,7.508,17.115,13.24,24.053,10.858,13.141,24.569,21.599,40.751,25.139,5.588,1.222,11.032,1.842,16.182,1.842,7.081,0,13.937-1.167,20.379-3.469,16.789-5.999,30.765-17.724,39.355-33.016,8.641-15.383,11.508-33.881,8.073-52.086-1.681-8.906-3.601-17.864-5.458-26.526-.868-4.05-1.766-8.237-2.624-12.348-.307-1.47-.56-2.771-.547-3.799.104-8.448,5.217-15.009,13.026-16.715,3.723-.813,6.76-1.672,9.559-2.701,17.954-6.608,31.288-18.341,39.631-34.874,10.447-20.702,11.48-41.849,3.071-62.852-8.002-19.986-22.053-34.146-41.764-42.086-8.394-3.382-17.079-5.096-25.816-5.096-4.71,0-9.504.501-14.249,1.49-1.49.31-2.92.468-4.253.468-1.927,0-3.677-.317-5.347-.969-6.122-2.388-9.611-6.522-10.98-13.011-2.855-13.531-5.477-26.084-8.015-38.377-.822-3.979-2.097-7.676-3.117-10.453-6.394-17.413-17.318-30.652-32.469-39.351-11.781-6.764-23.879-10.194-35.957-10.194h0Z" fill="#fc00cf" stroke-width="0"/>
            </g>
            <g>
              <path d="M690.604,729.392c-2.491,0-5.02-.203-7.515-.604-7.133-1.147-13.676-4.3-20.002-9.638-7.69-6.488-12.647-14.823-14.733-24.775-1.104-5.268-1.185-10.772-.239-16.361.624-3.686,1.73-7.165,2.706-10.234.554-1.744,1.078-3.391,1.446-4.862.017-.068.036-.136.056-.204l1.345-4.468c.896-2.976,1.699-5.641,2.493-8.308,1.819-6.113-1.522-12.357-7.607-14.217-9.109-2.783-16.537-7.771-22.078-14.826-8.158-10.385-11.229-22.122-9.128-34.883,2.077-12.617,8.739-22.679,19.8-29.904,7.073-4.62,15.032-6.963,23.655-6.963,2.032,0,4.136.131,6.254.389,1.933.234,3.672.702,5.354,1.153l.898.239c1.466.386,2.791.572,4.051.572,1.562,0,2.995-.293,4.38-.896,3.248-1.413,5.318-3.671,6.327-6.902,1.427-4.568,2.823-9.247,4.172-13.771.889-2.98,1.778-5.961,2.683-8.936,3.488-11.472,10.386-20.246,20.501-26.079,6.761-3.899,14.041-5.876,21.637-5.876,2.091,0,4.228.152,6.352.454,12.895,1.829,23.174,8.612,30.551,20.16,5.678,8.89,7.77,18.932,6.217,29.848-.249,1.747-.623,4.048-1.321,6.349-2.297,7.57-4.574,15.146-6.837,22.727-1.239,4.151-.458,7.646,2.459,10.997,1.388,1.593,3.266,2.73,5.742,3.477,8.093,2.438,14.967,6.93,20.433,13.349,8.353,9.809,11.868,21.228,10.446,33.94-1.496,13.379-8.143,24.094-19.755,31.846-7.167,4.784-15.177,7.209-23.81,7.209-2.421,0-4.924-.193-7.44-.574-1.78-.269-3.652-.698-5.891-1.35-1.122-.326-2.262-.492-3.389-.492-4.13,0-7.86,2.22-9.978,5.938-.349.611-.605,1.42-.881,2.337-.735,2.441-1.457,4.889-2.178,7.335-1.515,5.137-3.081,10.448-4.763,15.656-6.109,18.922-22.758,31.148-42.414,31.148h0Z" fill="#fd70c7" stroke-width="0"/>
              <path d="M737.06,493.538c1.886,0,3.793.136,5.72.409,11.943,1.694,20.964,8.067,27.391,18.128,5.231,8.189,6.918,17.199,5.555,26.791-.272,1.912-.608,3.816-1.173,5.677-2.298,7.576-4.578,15.159-6.843,22.745-1.701,5.697-.499,10.786,3.377,15.238,2.098,2.41,4.82,3.923,7.838,4.832,7.285,2.195,13.41,6.209,18.305,11.957,7.484,8.788,10.685,19.033,9.401,30.523-1.376,12.311-7.585,21.798-17.781,28.604-6.58,4.392-13.733,6.452-21.311,6.452-2.22,0-4.477-.177-6.767-.524-1.802-.273-3.558-.712-5.307-1.221-1.555-.453-3.115-.671-4.646-.671-5.67,0-10.922,3.001-13.889,8.211-.589,1.034-.942,2.144-1.28,3.266-2.299,7.637-4.464,15.318-6.914,22.907-5.621,17.409-20.918,28.031-38.132,28.031-2.241,0-4.511-.18-6.8-.548-6.818-1.097-12.628-4.257-17.815-8.633-6.963-5.875-11.361-13.342-13.231-22.259-1.021-4.871-1.039-9.773-.207-14.687.915-5.405,3.01-10.475,4.081-14.756,1.48-4.925,2.671-8.854,3.842-12.788,2.529-8.498-2.097-17.203-10.605-19.803-7.975-2.437-14.718-6.763-19.854-13.302-7.242-9.22-10.142-19.74-8.227-31.373,1.906-11.578,8.03-20.472,17.821-26.867,6.576-4.295,13.673-6.229,21.194-6.23,1.878,0,3.781.12,5.711.355,1.934.235,3.782.787,5.653,1.279,1.74.457,3.472.72,5.193.72,2.078,0,4.138-.383,6.176-1.269,4.396-1.913,7.406-5.136,8.828-9.688,2.361-7.557,4.562-15.164,6.865-22.738,3.106-10.211,9.203-18.161,18.444-23.49,6.073-3.503,12.589-5.274,19.389-5.274M737.06,484.538c-8.396,0-16.432,2.179-23.885,6.478-11.136,6.422-18.726,16.068-22.558,28.667-.907,2.982-1.798,5.969-2.689,8.956-1.346,4.511-2.737,9.176-4.156,13.718-.622,1.99-1.766,3.221-3.828,4.118-.818.356-1.64.522-2.585.522-.856,0-1.834-.143-2.906-.424l-.867-.231c-1.751-.47-3.735-1.003-5.986-1.277-2.298-.279-4.584-.421-6.796-.421-9.514,0-18.3,2.589-26.116,7.695-12.161,7.943-19.489,19.026-21.78,32.941-2.314,14.057,1.06,26.975,10.03,38.394,6.12,7.792,14.296,13.293,24.302,16.35,3.75,1.146,5.732,4.855,4.609,8.629-.791,2.656-1.59,5.31-2.482,8.271l-1.353,4.494c-.041.135-.078.271-.112.408-.333,1.334-.837,2.916-1.369,4.591-1.021,3.21-2.177,6.849-2.854,10.846-1.04,6.145-.949,12.213.272,18.036,2.298,10.958,7.76,20.139,16.235,27.291,6.968,5.879,14.226,9.359,22.19,10.64,2.731.439,5.499.662,8.229.662,21.647,0,39.976-13.45,46.697-34.265,1.7-5.267,3.275-10.609,4.799-15.775.718-2.436,1.437-4.872,2.168-7.303.096-.319.352-1.168.483-1.407,1.326-2.328,3.538-3.664,6.068-3.664.701,0,1.418.105,2.13.312,2.429.708,4.487,1.177,6.475,1.479,2.738.415,5.468.625,8.114.625,9.538,0,18.389-2.68,26.308-7.967,12.588-8.403,20.102-20.536,21.729-35.089,1.565-13.996-2.302-26.565-11.493-37.358-6.036-7.088-13.626-12.047-22.56-14.739-1.64-.494-2.833-1.189-3.646-2.124-1.906-2.19-2.338-4.083-1.541-6.754,2.344-7.85,4.642-15.49,6.831-22.708.788-2.597,1.2-5.117,1.471-7.023,1.708-12.011-.607-23.081-6.88-32.902-8.115-12.705-19.458-20.172-33.712-22.194-2.333-.331-4.682-.499-6.984-.499h-.002Z" fill="#fc00cf" stroke-width="0"/>
            </g>
            <g>
              <path d="M331.855,139.303c-.641,0-1.304-.028-1.972-.084-4.664-.391-8.784-2.215-12.248-5.421-1.844-1.708-3.358-3.772-4.5-6.139-.738-1.528-1.218-3.028-1.642-4.353-.212-.663-.413-1.289-.604-1.781-.026-.066-.05-.133-.073-.199,0,0-1.356-4.029-1.721-5.101-.28-.822-.965-1.334-1.788-1.334-.217,0-.439.038-.661.111-2.244.745-4.507,1.124-6.728,1.124-1.894,0-3.785-.275-5.62-.818-5.786-1.712-10.218-5.43-12.817-10.753-2.611-5.346-2.798-10.945-.557-16.643,1.782-4.53,4.99-8.075,9.534-10.538.856-.464,1.66-.763,2.37-1.026l.346-.129c.893-.336,1.193-.687,1.355-.955.388-.643.37-1.065.216-1.539-.596-1.832-1.216-3.657-1.836-5.481-.406-1.194-.811-2.388-1.21-3.584-2.061-6.178-1.35-12.225,2.123-17.902,1.223-1.999,2.826-3.758,4.718-5.14,3.764-2.75,7.867-4.152,12.092-4.152,2.637,0,5.332.55,8.008,1.634,4.562,1.849,8.062,5.09,10.407,9.636.37.717.843,1.683,1.21,2.78,1.013,3.027,2.033,6.052,3.059,9.075.265.781.623,1.098,1.472,1.303.108.025.217.038.335.038.252,0,.551-.057.887-.17,2.102-.707,4.259-1.066,6.413-1.066,1.647,0,3.314.211,4.954.626,5.713,1.447,10.232,4.919,13.07,10.04,2.996,5.405,3.376,11.411,1.1,17.369-1.842,4.823-5.22,8.502-10.042,10.934-.756.382-1.578.723-2.584,1.072-.94.326-1.442,1.12-1.342,2.122.023.095.08.237.129.383.329.978.663,1.949.997,2.922.707,2.061,1.438,4.191,2.112,6.331,3.161,10.036-1.23,20.298-10.678,24.953-2.499,1.231-5.285,1.855-8.281,1.855h-.003Z" fill="#fd70c7" stroke-width="0"/>
              <path d="M310.63,41.581c2.096,0,4.206.449,6.318,1.305,3.639,1.474,6.303,4.048,8.097,7.528.358.694.692,1.4.941,2.145,1.015,3.034,2.038,6.065,3.066,9.095.772,2.275,2.359,3.67,4.677,4.231.465.112.929.164,1.39.164.785,0,1.562-.15,2.323-.406,1.648-.555,3.309-.831,4.977-.831,1.281,0,2.566.163,3.851.488,4.521,1.145,7.973,3.772,10.237,7.858,2.426,4.378,2.6,8.956.833,13.584-1.475,3.861-4.178,6.662-7.864,8.521-.658.332-1.339.598-2.034.839-2.908,1.009-4.649,3.758-4.343,6.82.048.478.191.927.342,1.376,1.029,3.054,2.113,6.091,3.08,9.165,2.51,7.969-1.08,15.97-8.375,19.565-2.012.992-4.121,1.391-6.291,1.391-.529,0-1.062-.024-1.598-.069-3.669-.307-6.864-1.738-9.566-4.239-1.476-1.366-2.628-2.977-3.504-4.791-.963-1.995-1.458-4.155-2.107-5.817-.664-1.969-1.191-3.542-1.726-5.112-.92-2.701-3.366-4.384-6.047-4.384-.685,0-1.385.11-2.079.34-1.762.586-3.535.895-5.311.895-1.447,0-2.895-.205-4.342-.633-4.543-1.344-7.959-4.131-10.05-8.412-2.08-4.26-2.143-8.623-.413-13.021,1.452-3.691,4.034-6.357,7.49-8.229.692-.375,1.43-.625,2.162-.901,1.501-.566,2.769-1.435,3.617-2.84,1.001-1.658,1.239-3.425.643-5.257-.99-3.042-2.044-6.063-3.057-9.098-1.365-4.091-1.216-8.136.582-12.054,1.51-3.289,3.917-5.815,7.135-7.476,2.285-1.179,4.607-1.74,6.947-1.74M310.63,32.581c-3.823,0-7.55.922-11.075,2.742-4.979,2.57-8.847,6.622-11.187,11.72-2.715,5.914-3.039,12.366-.939,18.658.402,1.203.809,2.403,1.217,3.604.343,1.009.692,2.038,1.037,3.066-.431.188-.892.406-1.368.664-5.501,2.98-9.397,7.303-11.578,12.848-2.684,6.822-2.441,13.829.701,20.265,3.168,6.487,8.556,11.015,15.584,13.094,2.249.665,4.569,1.003,6.895,1.003,1.888,0,3.794-.222,5.692-.662.108.321.219.649.333.987l.611,1.814c.045.134.093.266.145.397.141.36.32.921.51,1.515.445,1.392.999,3.125,1.875,4.939,1.388,2.875,3.237,5.393,5.496,7.484,4.219,3.905,9.242,6.126,14.929,6.602.792.066,1.583.1,2.349.1,3.692,0,7.147-.78,10.27-2.319,11.304-5.571,16.763-18.332,12.98-30.342-.693-2.199-1.435-4.363-2.153-6.455-.072-.208-.143-.417-.215-.626.269-.122.531-.248.79-.378,5.772-2.911,9.998-7.526,12.221-13.347,2.764-7.238,2.291-14.554-1.368-21.157-3.456-6.235-8.954-10.461-15.9-12.22-2.002-.507-4.041-.764-6.061-.764-1.883,0-3.765.222-5.619.663-.763-2.256-1.523-4.513-2.279-6.771-.463-1.385-1.033-2.552-1.477-3.414-2.812-5.452-7.209-9.513-12.717-11.744-3.216-1.303-6.479-1.964-9.698-1.964h0v-.002Z" fill="#fc00cf" stroke-width="0"/>
            </g>
          </g>
        </g>
      </g>
    </g>
  </g>
</svg>