<?xml version="1.0" encoding="UTF-8"?>
<svg id="b" data-name="Layer 2" xmlns="http://www.w3.org/2000/svg" width="1018.841" height="1091.733" viewBox="0 0 1018.841 1091.733">
  <g id="c" data-name="b">
    <g id="d" data-name="c">
      <g>
        <path d="M1018.841,430.05c-.351.233-.431.591-.479.981-2.203,17.903-13.368,30.436-30.847,34.665-5.515,1.334-11.124,1.977-16.772,2.233-6.602.299-13.213.396-19.817.657-5.844.23-11.646.828-17.341,2.259-17.601,4.423-27.704,17.854-27.104,35.974.338,10.205,3.331,19.567,8.738,28.186,4.928,7.856,11.155,14.614,17.963,20.836,6.718,6.14,13.588,12.113,20.373,18.181,7.122,6.37,13.316,13.504,17.804,22.001,2.845,5.386,4.826,11.03,4.994,17.216.227,8.349-3.055,15.08-9.347,20.396-6.169,5.212-13.355,8.58-20.97,11.034-17.782,5.731-35.574,5.761-53.334-.166-9.788-3.266-18.007-8.836-24.561-16.814-3.162-3.849-6.208-7.794-9.375-11.638-7.322-8.885-16.623-14.565-27.851-17.141-8.262-1.895-16.161-.911-23.764,2.747-5.314,2.556-9.984,6.058-14.365,9.951-4.44,3.945-8.762,8.023-13.197,11.973-3.801,3.385-7.817,6.488-12.505,8.591-9.963,4.469-20.898,1.693-27.513-6.986-1.691-2.218-3.057-4.63-4.218-7.165-1.679-3.668-2.978-7.472-3.974-11.37-1.752-6.86-3.401-13.746-5.126-20.613-.724-2.883-1.713-5.68-2.988-8.37-2.057-4.342-5.181-7.132-10.168-7.875-5.714-.851-11.173-2.658-16.094-5.809-5.178-3.314-8.242-7.933-8.449-14.19-.096-2.887.41-5.713,1.262-8.483,2.11-6.859,5.737-12.93,9.744-18.797,6.227-9.117,13.447-17.445,20.622-25.808,3.307-3.853,6.455-7.846,9.851-11.618,5.731-6.364,8.22-13.991,8.69-22.306.993-17.564-4.559-32.781-16.909-45.415-2.896-2.962-6.199-5.417-9.742-7.552-2.461-1.483-4.905-2.996-7.398-4.422-7.615-4.353-12.006-10.982-14.116-19.387-2.266-9.024-2.723-18.18-2.152-27.386.816-13.155,3.314-26.002,7.881-38.402,3.602-9.779,8.282-18.955,15.337-26.751,6.072-6.711,13.269-11.674,22.359-13.12,11.207-1.783,21.546.159,30.265,8.037,3.847,3.475,7.336,7.293,10.878,11.064,3.216,3.424,6.497,6.77,10.288,9.584,5.416,4.021,11.486,5.622,18.14,4.856,6.365-.733,11.02-4.113,14.084-9.694,3.042-5.54,3.854-11.586,3.761-17.779-.165-10.93-4.047-20.513-10.541-29.212-6.288-8.423-13.777-15.669-21.511-22.702-6.45-5.865-13.087-11.529-19.196-17.761-8.111-8.273-15.024-17.394-19.566-28.144-2.555-6.048-4.146-12.334-4.209-18.943-.109-11.442,4.043-21.166,12.19-29.093,8.819-8.58,19.523-13.325,31.715-14.715,14.034-1.6,27.211,1.693,39.915,7.3,15.039,6.637,28.317,16.009,40.639,26.775,21.03,18.376,37.417,40.422,50.838,64.777,13.698,24.858,23.806,51.179,31.561,78.421,3.3,11.593,6.155,23.312,9.297,34.95,1.523,5.64,3.487,11.14,5.823,16.503,4.159,9.551,10.099,17.8,17.977,24.627,4.127,3.576,8.32,7.076,12.455,10.643,4.505,3.885,8.827,7.954,12.403,12.746,3.187,4.271,5.499,8.947,6.792,14.143.388,1.559-.132,3.266.859,4.696v8.624h0Z" fill="#574100" stroke-width="0"/>
        <path d="M488.186.004c1.458.865,3.136.763,4.702,1.147,12.592,3.084,20.89,13.344,21.765,26.912.51,7.918-.595,15.607-2.656,23.197-1.886,6.946-4.184,13.77-5.73,20.816-1.58,7.2-2.373,14.446-.816,21.778.649,3.055,1.682,5.97,3.128,8.705,2.613,4.94,7.632,7.587,12.744,6.786,5.926-.929,10.032-4.739,11.203-10.495.439-2.156.658-4.36,1.099-6.515.545-2.665,1.436-5.213,2.911-7.484,3.826-5.889,10.483-6.201,14.763-.658,3.643,4.717,4.314,10.18,3.286,15.948-.791,4.434-1.812,8.823-2.649,13.248-1.217,6.432.318,12.355,3.288,17.942,3.637,6.843,9.028,11.896,15.213,16.108,5.554,3.782,11.513,6.786,17.411,9.902,9.951,5.257,19.47,11.225,28.01,18.785,10.648,9.426,19.104,20.532,23.755,34.503,3.625,10.889,4.764,21.996,1.402,33.113-4.18,13.826-12.546,23.727-25.99,28.36-2.748.947-5.607,1.248-8.466,1.555-1.33.143-2.665.312-3.971.601-4.417.975-7.289,3.785-8.689,8.263-1.59,5.084-.949,10.122.39,15.115,1.201,4.479,3.281,8.564,5.463,12.576,2.941,5.407,6.027,10.727,8.964,16.136,3.423,6.303,6.308,12.852,7.68,20.025,2.542,13.298.501,25.956-4.972,38.094-3.99,8.848-9.696,16.356-16.724,22.744-11.265,10.239-24.128,17.328-38.634,21.002-8.312,2.105-16.618,1.834-24.534-1.66-14.975-6.609-29.145-14.759-41.703-25.691-12.741-11.091-19.811-25.524-22.332-42.551-1.281-8.654-1.711-17.369-1.734-26.115-.021-8.237.083-16.478-.121-24.71-.304-12.276-1.465-24.437-5.356-36.149-5.071-15.263-13.417-28.349-24.048-39.919-13.374-14.555-29.088-25.717-46.15-34.923-7.327-3.953-14.939-7.252-22.411-10.869-6.621-3.205-13.067-6.735-18.801-11.525-7.922-6.619-13.384-14.867-14.991-25.541-3.354-22.279,9.018-39.889,28.488-44.258,7.091-1.591,14.08-1.104,20.903,1.563,2.6,1.017,5.195,2.049,7.815,3.008,1.987.727,4.006,1.315,6.106,1.643,6.649,1.039,11.897-1.768,14.843-8.112,1.913-4.12,2.718-8.566,3.131-13.073.994-10.845,3.002-21.433,6.882-31.581,7.294-19.076,18.473-35.058,34.242-47.411,6.732-5.273,14.154-8.746,22.535-9.828.475-.061.953-.11,1.307-.511h8.049v.004Z" fill="#574100" stroke-width="0"/>
        <path d="M31.032,954.903c-.158-15.263,1.831-29.671,4.386-44.015,3.173-17.809,7.464-35.39,10.915-53.143,3.058-15.731,5.157-31.581,5.272-47.611.131-18.238-2.201-36.101-9.461-53.062-3.261-7.618-7.449-14.676-12.467-21.255-4.241-5.56-8.561-11.061-12.712-16.688-3.422-4.639-6.239-9.643-8.225-15.085-2.977-8.155-3.174-16.565-1.644-24.943,3.005-16.461,7.813-32.366,15.884-47.142,3.045-5.574,6.644-10.759,11.129-15.285,14.076-14.204,32.828-15.235,48.42-2.687,7.666,6.17,13.355,13.939,18.122,22.443,4.13,7.368,7.18,15.233,10.446,22.997,3.157,7.504,6.457,14.933,10.513,22.014,6.653,11.614,16.318,20.211,27.398,27.336,7.707,4.955,15.993,5.537,24.474,2.171,8.781-3.485,17.93-5.406,27.21-6.885,1.851-.295,3.612-.099,5.413.181,4.189.653,8.245,1.782,12.046,3.653,11.303,5.566,17.897,14.604,18.871,27.195,1.187,15.341-4.445,27.727-17.306,36.491-4.125,2.811-8.097,5.791-11.912,9.003-4.22,3.553-7.174,7.934-8.862,13.167-2.88,8.929-2.299,17.777.942,26.462,4.582,12.276,13.608,20.162,25.496,24.954,13.324,5.371,27.025,5.663,40.913,2.529,12.633-2.85,24.355-8.039,35.614-14.249,22.807-12.58,45.501-25.365,68.242-38.065,3.597-2.008,7.244-3.906,11.078-5.44,7.86-3.144,15.681-3.068,23.492.146,6.953,2.862,13.292,6.799,19.376,11.159,15.106,10.824,27.437,24.149,36.147,40.648,7.002,13.263,11.166,27.352,10.582,42.436-.863,22.286-9.04,41.366-26.301,55.986-9.847,8.34-21.458,12.351-34.3,12.953-11.587.543-22.905-1.344-34.162-3.755-9.449-2.023-18.837-4.348-28.403-5.797-11.449-1.733-22.877-2.247-34.199.874-9.23,2.544-16.944,7.516-23.076,14.845-7.653,9.147-9.966,19.509-7.244,31.183,1.672,7.169,3.34,14.349,4.58,21.621,1.697,9.952,0,19.21-5.015,27.943-9.11,15.868-22.25,27.195-39.004,34.275-18.424,7.787-37.552,13.127-57.423,15.73-12.109,1.587-24.234,2.051-36.4.91-25.551-2.396-48.199-11.917-67.891-28.27-24.363-20.232-40.435-45.742-47.699-76.648-2.465-10.486-3.457-21.154-3.258-31.286l.003.006Z" fill="#574100" stroke-width="0"/>
        <path d="M568.892,1089.632c-7.094-.367-14.189-.734-21.283-1.101-33.605-3.921-63.927-15.924-90.483-37.018-8.285-6.581-14.874-14.625-19.111-24.432-1.726-3.995-2.771-8.173-2.785-12.533-.032-10.009,6.735-19.144,16.59-22.574,6.535-2.275,13.207-2.045,19.871-.918,11.793,1.995,22.792,6.477,33.75,11.056,11.565,4.832,22.916,10.181,34.754,14.353,5.788,2.04,11.657,3.81,17.763,4.565,8.666,1.071,17.012-.602,25.053-3.647,20.943-7.932,35.67-22.608,45.308-42.58,4.331-8.974,6.773-18.481,7.229-28.476.435-9.527-1.146-18.678-4.832-27.48-2.893-6.908-21.687-27.15-23.602-33.406-28.067-43.523,13.031-79.938,25.694-76.27,3.884,1.125,19.97,16.554,24.781,18.91,10.961,5.369,22.264,5.989,33.722,1.808,20.536-7.495,30.953-30.455,23.231-51.001-1.653-4.398-3.84-8.557-5.785-12.825-1.991-4.37-3.625-8.844-4.096-13.686-.871-8.966,1.712-17.041,6.279-24.593,4.453-7.363,10.625-13.025,17.828-17.621,8.879-5.666,18.621-9.356,28.625-12.432,20.161-6.199,49.935,15.087,70.682,11.447,11.312-1.984,22.636-3.905,34.088-4.887,14.375-1.233,28.678-1.191,42.81,2.377,17.871,4.512,31.881,14.505,42.481,29.457,7.559,10.663,12.734,22.475,16.497,34.913,5.121,16.926,8.082,34.246,9.069,51.911.622,11.13.305,22.215-1.272,33.249-3.439,24.058-12.268,45.765-28.339,64.244-15.59,17.927-35.267,28.479-58.655,32.262-11.577,1.872-23.225,2.295-34.93,1.86-13.313-.494-26.549-1.875-39.797-3.179-13.345-1.313-26.706-2.508-40.145-2.192-16.01.376-31.656,2.615-46.493,9.028-12.888,5.57-24.159,13.284-32.469,24.814-5.11,7.09-8.62,14.869-9.688,23.656-1.319,10.856,2.003,20.205,8.987,28.411,3.752,4.408,8.167,8.067,12.907,11.359,5.045,3.504,10.468,6.354,15.821,9.338,6.847,3.817,10.083,9.804,9.605,17.592-.392,6.397-3.621,11.195-9.185,14.358-4.52,2.569-9.465,3.564-14.614,3.633-7.676.103-14.993-1.725-22.164-4.254-4.783-1.687-9.565-3.379-14.306-5.179-12.168-4.622-24.586-5.273-37.282-2.686-8.071,1.644-15.997,3.863-24.002,5.764-12.528,2.975-25.226,4.562-38.109,4.606h.002Z" fill="#574100" stroke-width="0"/>
        <path d="M624.137,647.537c-6.711.682-14.008.384-21.301.324-9.197-.076-18.386-.179-27.491,1.574-10.868,2.092-20.234,6.738-27.318,15.068-7.132,8.388-8.85,17.638-4.388,27.709,1.522,3.435,3.361,6.709,5.13,10.022,1.909,3.575,3.64,7.211,4.551,11.174.831,3.616.907,7.231-.092,10.814-1.844,6.615-7.956,10.512-15.036,9.626-7.005-.876-12.412-4.455-16.964-9.373-2.45-2.647-4.422-5.645-6.464-8.585-2.373-3.418-4.745-6.829-7.585-9.924-6.122-6.67-13.959-9.555-23.101-9.655-8.083-.088-15.879,1.613-23.63,3.61-17.007,4.383-33.852,9.362-50.973,13.322-11.878,2.747-23.833,5.18-36.028,6.128-8.319.646-16.574.328-24.599-2.15-5.51-1.701-10.343-4.451-14.526-8.259-11.68-10.634-12.205-25.596-1.369-37.204,6.094-6.528,13.794-10.414,22.378-12.909,7.21-2.096,14.618-3.228,22.033-4.344,5.929-.893,11.834-1.872,17.558-3.74,9.551-3.118,16.071-9.107,19.502-18.234,3.26-8.673,4.817-17.591,4.86-26.775.082-17.629-5.929-33.086-18.114-46.118-13.519-14.46-30.595-22.222-50.935-23.368-8.264-.466-16.316.906-24.381,2.489-9.567,1.877-19.217,2.613-28.898.896-15.35-2.721-26.974-10.896-36.122-22.639-6.586-8.454-10.824-17.994-13.624-28.148-2.534-9.188-4.051-18.524-3.814-28.092.329-13.265,3.571-25.638,12.442-36.235,7.323-8.748,16.908-14.331,27.859-17.88,12.929-4.19,26.212-5.183,39.691-4.135,17.143,1.333,33.351,5.687,48.403,13.673,10.385,5.51,19.212,12.679,25.246,22.604,10.545,17.343,24.238,32.125,39.609,45.601,7.203,6.315,14.224,12.82,22.115,18.373,3.297,2.32,6.727,4.433,10.334,6.294,12.071,6.229,24.674,7.391,37.622,2.842,19.507-6.854,33.723-19.286,41.911-37.756,1.69-3.812,2.48-7.893,3.507-11.897.549-2.142,1.144-4.273,1.672-6.419,2.938-11.926,11.027-19.433,22.694-23.441,15.173-5.213,28.841-2.1,40.647,7.952,10.554,8.986,16.255,20.548,18.058,33.959,1.032,7.68-1.958,13.448-8.852,17.487-3.686,2.159-7.622,3.856-11.383,5.869-8.917,4.772-14.57,11.942-16.76,21.475-3.425,14.905,4.716,30.085,19.448,36.268,5.936,2.491,11.912,4.886,17.592,7.891,7.551,3.995,14.542,8.713,20.381,14.835,8.123,8.516,13.038,18.522,13.76,30.123.878,14.095-5.066,24.966-17.998,32.106-7.519,4.151-15.752,6.072-24.292,6.908-.796.078-1.594.144-2.965.267v-.003Z" fill="#574100" stroke-width="0"/>
        <path d="M5.358,510.746c-1.253-4.103-2.506-8.205-3.76-12.308-2.602-11.751-1.89-23.387,1.144-34.96,2.63-10.034,6.331-19.695,10.202-29.289,9.859-24.433,17.127-49.582,21.181-75.641,4.144-26.636,4.874-53.341,1.68-80.123-2.29-19.196-6.766-37.895-13.407-56.039-3.29-8.987-7.144-17.766-10.657-26.673-4.898-12.417-9.199-25.016-10.063-38.474-.787-12.248,1.625-23.835,7.94-34.461,8.601-14.472,22.942-21.045,39.542-18.18,1.884.326,3.754.764,5.603,1.256,14.484,3.846,29.08,4.298,43.832,1.744,3.752-.65,7.381-1.977,11.311-1.776,9.119.467,17.226,3.384,24.142,9.42,5.858,5.113,9.002,11.512,9.352,19.322.206,4.597-.093,9.184.014,13.777.222,9.579,2.603,18.557,7.603,26.757,6.08,9.971,15.228,15.953,26.056,19.648,8.857,3.024,18.04,4.316,27.326,5.042,11.939.933,23.908.791,35.865.99,11.611.193,23.149.904,34.397,4.116,12.377,3.535,23.86,8.897,34.102,16.753,5.078,3.895,9.207,8.581,11.907,14.492,2.912,6.375,3.672,13.042,3.089,19.914-.684,8.062-3.344,15.484-7.404,22.461-3.203,5.505-7.838,9.327-13.484,12.065-4.756,2.308-9.787,3.881-14.79,5.519-5.913,1.936-11.954,3.461-17.677,5.986-5.212,2.299-9.789,5.609-14.482,8.734-11.482,7.65-22.586,15.797-32.716,25.207-6.451,5.992-11.702,12.801-15.513,20.826-6.354,13.378-11.751,27.044-14.602,41.64-2.707,13.859-2.646,27.77-1.079,41.735.875,7.795,1.912,15.571,2.423,23.41,1.015,15.559-2.432,30.033-10.085,43.574-9.943,17.592-23.449,31.598-41.32,41.23-12.3,6.629-25.405,10.608-39.338,11.791-15.179,1.289-30.229.677-45.017-3.298-19.436-5.225-35.188-15.696-46.276-32.735-2.773-4.261-5.222-8.696-7.044-13.456v.004Z" fill="#574100" stroke-width="0"/>
      </g>
    </g>
  </g>
</svg>